G04 #@! TF.GenerationSoftware,KiCad,Pcbnew,5.1.5-52549c5~84~ubuntu18.04.1*
G04 #@! TF.CreationDate,2020-03-22T23:19:32-04:00*
G04 #@! TF.ProjectId,tcd1304_v1,74636431-3330-4345-9f76-312e6b696361,rev?*
G04 #@! TF.SameCoordinates,Original*
G04 #@! TF.FileFunction,Legend,Bot*
G04 #@! TF.FilePolarity,Positive*
%FSLAX46Y46*%
G04 Gerber Fmt 4.6, Leading zero omitted, Abs format (unit mm)*
G04 Created by KiCad (PCBNEW 5.1.5-52549c5~84~ubuntu18.04.1) date 2020-03-22 23:19:32*
%MOMM*%
%LPD*%
G04 APERTURE LIST*
%ADD10C,0.120000*%
%ADD11C,0.150000*%
G04 APERTURE END LIST*
D10*
X156905000Y-72660000D02*
G75*
G03X156905000Y-74660000I0J-1000000D01*
G01*
X156905000Y-74660000D02*
X156905000Y-77580000D01*
X156905000Y-77580000D02*
X126305000Y-77580000D01*
X126305000Y-77580000D02*
X126305000Y-69740000D01*
X126305000Y-69740000D02*
X156905000Y-69740000D01*
X156905000Y-69740000D02*
X156905000Y-72660000D01*
D11*
X158262142Y-72493333D02*
X158309761Y-72445714D01*
X158357380Y-72302857D01*
X158357380Y-72207619D01*
X158309761Y-72064761D01*
X158214523Y-71969523D01*
X158119285Y-71921904D01*
X157928809Y-71874285D01*
X157785952Y-71874285D01*
X157595476Y-71921904D01*
X157500238Y-71969523D01*
X157405000Y-72064761D01*
X157357380Y-72207619D01*
X157357380Y-72302857D01*
X157405000Y-72445714D01*
X157452619Y-72493333D01*
X158262142Y-73493333D02*
X158309761Y-73445714D01*
X158357380Y-73302857D01*
X158357380Y-73207619D01*
X158309761Y-73064761D01*
X158214523Y-72969523D01*
X158119285Y-72921904D01*
X157928809Y-72874285D01*
X157785952Y-72874285D01*
X157595476Y-72921904D01*
X157500238Y-72969523D01*
X157405000Y-73064761D01*
X157357380Y-73207619D01*
X157357380Y-73302857D01*
X157405000Y-73445714D01*
X157452619Y-73493333D01*
X158357380Y-73921904D02*
X157357380Y-73921904D01*
X157357380Y-74160000D01*
X157405000Y-74302857D01*
X157500238Y-74398095D01*
X157595476Y-74445714D01*
X157785952Y-74493333D01*
X157928809Y-74493333D01*
X158119285Y-74445714D01*
X158214523Y-74398095D01*
X158309761Y-74302857D01*
X158357380Y-74160000D01*
X158357380Y-73921904D01*
X158357380Y-75445714D02*
X158357380Y-74874285D01*
X158357380Y-75160000D02*
X157357380Y-75160000D01*
X157500238Y-75064761D01*
X157595476Y-74969523D01*
X157643095Y-74874285D01*
M02*
