G04 #@! TF.GenerationSoftware,KiCad,Pcbnew,5.1.5-52549c5~84~ubuntu18.04.1*
G04 #@! TF.CreationDate,2020-03-22T23:19:32-04:00*
G04 #@! TF.ProjectId,tcd1304_v1,74636431-3330-4345-9f76-312e6b696361,rev?*
G04 #@! TF.SameCoordinates,Original*
G04 #@! TF.FileFunction,Soldermask,Top*
G04 #@! TF.FilePolarity,Negative*
%FSLAX46Y46*%
G04 Gerber Fmt 4.6, Leading zero omitted, Abs format (unit mm)*
G04 Created by KiCad (PCBNEW 5.1.5-52549c5~84~ubuntu18.04.1) date 2020-03-22 23:19:32*
%MOMM*%
%LPD*%
G04 APERTURE LIST*
%ADD10C,0.100000*%
G04 APERTURE END LIST*
D10*
G36*
X157728228Y-102686703D02*
G01*
X157883100Y-102750853D01*
X158022481Y-102843985D01*
X158141015Y-102962519D01*
X158234147Y-103101900D01*
X158298297Y-103256772D01*
X158331000Y-103421184D01*
X158331000Y-103588816D01*
X158298297Y-103753228D01*
X158234147Y-103908100D01*
X158141015Y-104047481D01*
X158022481Y-104166015D01*
X157883100Y-104259147D01*
X157728228Y-104323297D01*
X157563816Y-104356000D01*
X157396184Y-104356000D01*
X157231772Y-104323297D01*
X157076900Y-104259147D01*
X156937519Y-104166015D01*
X156818985Y-104047481D01*
X156725853Y-103908100D01*
X156661703Y-103753228D01*
X156629000Y-103588816D01*
X156629000Y-103421184D01*
X156661703Y-103256772D01*
X156725853Y-103101900D01*
X156818985Y-102962519D01*
X156937519Y-102843985D01*
X157076900Y-102750853D01*
X157231772Y-102686703D01*
X157396184Y-102654000D01*
X157563816Y-102654000D01*
X157728228Y-102686703D01*
G37*
G36*
X155188228Y-102686703D02*
G01*
X155343100Y-102750853D01*
X155482481Y-102843985D01*
X155601015Y-102962519D01*
X155694147Y-103101900D01*
X155758297Y-103256772D01*
X155791000Y-103421184D01*
X155791000Y-103588816D01*
X155758297Y-103753228D01*
X155694147Y-103908100D01*
X155601015Y-104047481D01*
X155482481Y-104166015D01*
X155343100Y-104259147D01*
X155188228Y-104323297D01*
X155023816Y-104356000D01*
X154856184Y-104356000D01*
X154691772Y-104323297D01*
X154536900Y-104259147D01*
X154397519Y-104166015D01*
X154278985Y-104047481D01*
X154185853Y-103908100D01*
X154121703Y-103753228D01*
X154089000Y-103588816D01*
X154089000Y-103421184D01*
X154121703Y-103256772D01*
X154185853Y-103101900D01*
X154278985Y-102962519D01*
X154397519Y-102843985D01*
X154536900Y-102750853D01*
X154691772Y-102686703D01*
X154856184Y-102654000D01*
X155023816Y-102654000D01*
X155188228Y-102686703D01*
G37*
G36*
X125311000Y-104356000D02*
G01*
X123609000Y-104356000D01*
X123609000Y-102654000D01*
X125311000Y-102654000D01*
X125311000Y-104356000D01*
G37*
G36*
X127248228Y-102686703D02*
G01*
X127403100Y-102750853D01*
X127542481Y-102843985D01*
X127661015Y-102962519D01*
X127754147Y-103101900D01*
X127818297Y-103256772D01*
X127851000Y-103421184D01*
X127851000Y-103588816D01*
X127818297Y-103753228D01*
X127754147Y-103908100D01*
X127661015Y-104047481D01*
X127542481Y-104166015D01*
X127403100Y-104259147D01*
X127248228Y-104323297D01*
X127083816Y-104356000D01*
X126916184Y-104356000D01*
X126751772Y-104323297D01*
X126596900Y-104259147D01*
X126457519Y-104166015D01*
X126338985Y-104047481D01*
X126245853Y-103908100D01*
X126181703Y-103753228D01*
X126149000Y-103588816D01*
X126149000Y-103421184D01*
X126181703Y-103256772D01*
X126245853Y-103101900D01*
X126338985Y-102962519D01*
X126457519Y-102843985D01*
X126596900Y-102750853D01*
X126751772Y-102686703D01*
X126916184Y-102654000D01*
X127083816Y-102654000D01*
X127248228Y-102686703D01*
G37*
G36*
X129788228Y-102686703D02*
G01*
X129943100Y-102750853D01*
X130082481Y-102843985D01*
X130201015Y-102962519D01*
X130294147Y-103101900D01*
X130358297Y-103256772D01*
X130391000Y-103421184D01*
X130391000Y-103588816D01*
X130358297Y-103753228D01*
X130294147Y-103908100D01*
X130201015Y-104047481D01*
X130082481Y-104166015D01*
X129943100Y-104259147D01*
X129788228Y-104323297D01*
X129623816Y-104356000D01*
X129456184Y-104356000D01*
X129291772Y-104323297D01*
X129136900Y-104259147D01*
X128997519Y-104166015D01*
X128878985Y-104047481D01*
X128785853Y-103908100D01*
X128721703Y-103753228D01*
X128689000Y-103588816D01*
X128689000Y-103421184D01*
X128721703Y-103256772D01*
X128785853Y-103101900D01*
X128878985Y-102962519D01*
X128997519Y-102843985D01*
X129136900Y-102750853D01*
X129291772Y-102686703D01*
X129456184Y-102654000D01*
X129623816Y-102654000D01*
X129788228Y-102686703D01*
G37*
G36*
X132328228Y-102686703D02*
G01*
X132483100Y-102750853D01*
X132622481Y-102843985D01*
X132741015Y-102962519D01*
X132834147Y-103101900D01*
X132898297Y-103256772D01*
X132931000Y-103421184D01*
X132931000Y-103588816D01*
X132898297Y-103753228D01*
X132834147Y-103908100D01*
X132741015Y-104047481D01*
X132622481Y-104166015D01*
X132483100Y-104259147D01*
X132328228Y-104323297D01*
X132163816Y-104356000D01*
X131996184Y-104356000D01*
X131831772Y-104323297D01*
X131676900Y-104259147D01*
X131537519Y-104166015D01*
X131418985Y-104047481D01*
X131325853Y-103908100D01*
X131261703Y-103753228D01*
X131229000Y-103588816D01*
X131229000Y-103421184D01*
X131261703Y-103256772D01*
X131325853Y-103101900D01*
X131418985Y-102962519D01*
X131537519Y-102843985D01*
X131676900Y-102750853D01*
X131831772Y-102686703D01*
X131996184Y-102654000D01*
X132163816Y-102654000D01*
X132328228Y-102686703D01*
G37*
G36*
X134868228Y-102686703D02*
G01*
X135023100Y-102750853D01*
X135162481Y-102843985D01*
X135281015Y-102962519D01*
X135374147Y-103101900D01*
X135438297Y-103256772D01*
X135471000Y-103421184D01*
X135471000Y-103588816D01*
X135438297Y-103753228D01*
X135374147Y-103908100D01*
X135281015Y-104047481D01*
X135162481Y-104166015D01*
X135023100Y-104259147D01*
X134868228Y-104323297D01*
X134703816Y-104356000D01*
X134536184Y-104356000D01*
X134371772Y-104323297D01*
X134216900Y-104259147D01*
X134077519Y-104166015D01*
X133958985Y-104047481D01*
X133865853Y-103908100D01*
X133801703Y-103753228D01*
X133769000Y-103588816D01*
X133769000Y-103421184D01*
X133801703Y-103256772D01*
X133865853Y-103101900D01*
X133958985Y-102962519D01*
X134077519Y-102843985D01*
X134216900Y-102750853D01*
X134371772Y-102686703D01*
X134536184Y-102654000D01*
X134703816Y-102654000D01*
X134868228Y-102686703D01*
G37*
G36*
X137408228Y-102686703D02*
G01*
X137563100Y-102750853D01*
X137702481Y-102843985D01*
X137821015Y-102962519D01*
X137914147Y-103101900D01*
X137978297Y-103256772D01*
X138011000Y-103421184D01*
X138011000Y-103588816D01*
X137978297Y-103753228D01*
X137914147Y-103908100D01*
X137821015Y-104047481D01*
X137702481Y-104166015D01*
X137563100Y-104259147D01*
X137408228Y-104323297D01*
X137243816Y-104356000D01*
X137076184Y-104356000D01*
X136911772Y-104323297D01*
X136756900Y-104259147D01*
X136617519Y-104166015D01*
X136498985Y-104047481D01*
X136405853Y-103908100D01*
X136341703Y-103753228D01*
X136309000Y-103588816D01*
X136309000Y-103421184D01*
X136341703Y-103256772D01*
X136405853Y-103101900D01*
X136498985Y-102962519D01*
X136617519Y-102843985D01*
X136756900Y-102750853D01*
X136911772Y-102686703D01*
X137076184Y-102654000D01*
X137243816Y-102654000D01*
X137408228Y-102686703D01*
G37*
G36*
X139948228Y-102686703D02*
G01*
X140103100Y-102750853D01*
X140242481Y-102843985D01*
X140361015Y-102962519D01*
X140454147Y-103101900D01*
X140518297Y-103256772D01*
X140551000Y-103421184D01*
X140551000Y-103588816D01*
X140518297Y-103753228D01*
X140454147Y-103908100D01*
X140361015Y-104047481D01*
X140242481Y-104166015D01*
X140103100Y-104259147D01*
X139948228Y-104323297D01*
X139783816Y-104356000D01*
X139616184Y-104356000D01*
X139451772Y-104323297D01*
X139296900Y-104259147D01*
X139157519Y-104166015D01*
X139038985Y-104047481D01*
X138945853Y-103908100D01*
X138881703Y-103753228D01*
X138849000Y-103588816D01*
X138849000Y-103421184D01*
X138881703Y-103256772D01*
X138945853Y-103101900D01*
X139038985Y-102962519D01*
X139157519Y-102843985D01*
X139296900Y-102750853D01*
X139451772Y-102686703D01*
X139616184Y-102654000D01*
X139783816Y-102654000D01*
X139948228Y-102686703D01*
G37*
G36*
X142488228Y-102686703D02*
G01*
X142643100Y-102750853D01*
X142782481Y-102843985D01*
X142901015Y-102962519D01*
X142994147Y-103101900D01*
X143058297Y-103256772D01*
X143091000Y-103421184D01*
X143091000Y-103588816D01*
X143058297Y-103753228D01*
X142994147Y-103908100D01*
X142901015Y-104047481D01*
X142782481Y-104166015D01*
X142643100Y-104259147D01*
X142488228Y-104323297D01*
X142323816Y-104356000D01*
X142156184Y-104356000D01*
X141991772Y-104323297D01*
X141836900Y-104259147D01*
X141697519Y-104166015D01*
X141578985Y-104047481D01*
X141485853Y-103908100D01*
X141421703Y-103753228D01*
X141389000Y-103588816D01*
X141389000Y-103421184D01*
X141421703Y-103256772D01*
X141485853Y-103101900D01*
X141578985Y-102962519D01*
X141697519Y-102843985D01*
X141836900Y-102750853D01*
X141991772Y-102686703D01*
X142156184Y-102654000D01*
X142323816Y-102654000D01*
X142488228Y-102686703D01*
G37*
G36*
X145028228Y-102686703D02*
G01*
X145183100Y-102750853D01*
X145322481Y-102843985D01*
X145441015Y-102962519D01*
X145534147Y-103101900D01*
X145598297Y-103256772D01*
X145631000Y-103421184D01*
X145631000Y-103588816D01*
X145598297Y-103753228D01*
X145534147Y-103908100D01*
X145441015Y-104047481D01*
X145322481Y-104166015D01*
X145183100Y-104259147D01*
X145028228Y-104323297D01*
X144863816Y-104356000D01*
X144696184Y-104356000D01*
X144531772Y-104323297D01*
X144376900Y-104259147D01*
X144237519Y-104166015D01*
X144118985Y-104047481D01*
X144025853Y-103908100D01*
X143961703Y-103753228D01*
X143929000Y-103588816D01*
X143929000Y-103421184D01*
X143961703Y-103256772D01*
X144025853Y-103101900D01*
X144118985Y-102962519D01*
X144237519Y-102843985D01*
X144376900Y-102750853D01*
X144531772Y-102686703D01*
X144696184Y-102654000D01*
X144863816Y-102654000D01*
X145028228Y-102686703D01*
G37*
G36*
X147568228Y-102686703D02*
G01*
X147723100Y-102750853D01*
X147862481Y-102843985D01*
X147981015Y-102962519D01*
X148074147Y-103101900D01*
X148138297Y-103256772D01*
X148171000Y-103421184D01*
X148171000Y-103588816D01*
X148138297Y-103753228D01*
X148074147Y-103908100D01*
X147981015Y-104047481D01*
X147862481Y-104166015D01*
X147723100Y-104259147D01*
X147568228Y-104323297D01*
X147403816Y-104356000D01*
X147236184Y-104356000D01*
X147071772Y-104323297D01*
X146916900Y-104259147D01*
X146777519Y-104166015D01*
X146658985Y-104047481D01*
X146565853Y-103908100D01*
X146501703Y-103753228D01*
X146469000Y-103588816D01*
X146469000Y-103421184D01*
X146501703Y-103256772D01*
X146565853Y-103101900D01*
X146658985Y-102962519D01*
X146777519Y-102843985D01*
X146916900Y-102750853D01*
X147071772Y-102686703D01*
X147236184Y-102654000D01*
X147403816Y-102654000D01*
X147568228Y-102686703D01*
G37*
G36*
X150108228Y-102686703D02*
G01*
X150263100Y-102750853D01*
X150402481Y-102843985D01*
X150521015Y-102962519D01*
X150614147Y-103101900D01*
X150678297Y-103256772D01*
X150711000Y-103421184D01*
X150711000Y-103588816D01*
X150678297Y-103753228D01*
X150614147Y-103908100D01*
X150521015Y-104047481D01*
X150402481Y-104166015D01*
X150263100Y-104259147D01*
X150108228Y-104323297D01*
X149943816Y-104356000D01*
X149776184Y-104356000D01*
X149611772Y-104323297D01*
X149456900Y-104259147D01*
X149317519Y-104166015D01*
X149198985Y-104047481D01*
X149105853Y-103908100D01*
X149041703Y-103753228D01*
X149009000Y-103588816D01*
X149009000Y-103421184D01*
X149041703Y-103256772D01*
X149105853Y-103101900D01*
X149198985Y-102962519D01*
X149317519Y-102843985D01*
X149456900Y-102750853D01*
X149611772Y-102686703D01*
X149776184Y-102654000D01*
X149943816Y-102654000D01*
X150108228Y-102686703D01*
G37*
G36*
X152648228Y-102686703D02*
G01*
X152803100Y-102750853D01*
X152942481Y-102843985D01*
X153061015Y-102962519D01*
X153154147Y-103101900D01*
X153218297Y-103256772D01*
X153251000Y-103421184D01*
X153251000Y-103588816D01*
X153218297Y-103753228D01*
X153154147Y-103908100D01*
X153061015Y-104047481D01*
X152942481Y-104166015D01*
X152803100Y-104259147D01*
X152648228Y-104323297D01*
X152483816Y-104356000D01*
X152316184Y-104356000D01*
X152151772Y-104323297D01*
X151996900Y-104259147D01*
X151857519Y-104166015D01*
X151738985Y-104047481D01*
X151645853Y-103908100D01*
X151581703Y-103753228D01*
X151549000Y-103588816D01*
X151549000Y-103421184D01*
X151581703Y-103256772D01*
X151645853Y-103101900D01*
X151738985Y-102962519D01*
X151857519Y-102843985D01*
X151996900Y-102750853D01*
X152151772Y-102686703D01*
X152316184Y-102654000D01*
X152483816Y-102654000D01*
X152648228Y-102686703D01*
G37*
G36*
X142810591Y-100570085D02*
G01*
X142844569Y-100580393D01*
X142875890Y-100597134D01*
X142903339Y-100619661D01*
X142925866Y-100647110D01*
X142942607Y-100678431D01*
X142952915Y-100712409D01*
X142957000Y-100753890D01*
X142957000Y-101430110D01*
X142952915Y-101471591D01*
X142942607Y-101505569D01*
X142925866Y-101536890D01*
X142903339Y-101564339D01*
X142875890Y-101586866D01*
X142844569Y-101603607D01*
X142810591Y-101613915D01*
X142769110Y-101618000D01*
X142167890Y-101618000D01*
X142126409Y-101613915D01*
X142092431Y-101603607D01*
X142061110Y-101586866D01*
X142033661Y-101564339D01*
X142011134Y-101536890D01*
X141994393Y-101505569D01*
X141984085Y-101471591D01*
X141980000Y-101430110D01*
X141980000Y-100753890D01*
X141984085Y-100712409D01*
X141994393Y-100678431D01*
X142011134Y-100647110D01*
X142033661Y-100619661D01*
X142061110Y-100597134D01*
X142092431Y-100580393D01*
X142126409Y-100570085D01*
X142167890Y-100566000D01*
X142769110Y-100566000D01*
X142810591Y-100570085D01*
G37*
G36*
X144385591Y-100570085D02*
G01*
X144419569Y-100580393D01*
X144450890Y-100597134D01*
X144478339Y-100619661D01*
X144500866Y-100647110D01*
X144517607Y-100678431D01*
X144527915Y-100712409D01*
X144532000Y-100753890D01*
X144532000Y-101430110D01*
X144527915Y-101471591D01*
X144517607Y-101505569D01*
X144500866Y-101536890D01*
X144478339Y-101564339D01*
X144450890Y-101586866D01*
X144419569Y-101603607D01*
X144385591Y-101613915D01*
X144344110Y-101618000D01*
X143742890Y-101618000D01*
X143701409Y-101613915D01*
X143667431Y-101603607D01*
X143636110Y-101586866D01*
X143608661Y-101564339D01*
X143586134Y-101536890D01*
X143569393Y-101505569D01*
X143559085Y-101471591D01*
X143555000Y-101430110D01*
X143555000Y-100753890D01*
X143559085Y-100712409D01*
X143569393Y-100678431D01*
X143586134Y-100647110D01*
X143608661Y-100619661D01*
X143636110Y-100597134D01*
X143667431Y-100580393D01*
X143701409Y-100570085D01*
X143742890Y-100566000D01*
X144344110Y-100566000D01*
X144385591Y-100570085D01*
G37*
G36*
X135190591Y-100570085D02*
G01*
X135224569Y-100580393D01*
X135255890Y-100597134D01*
X135283339Y-100619661D01*
X135305866Y-100647110D01*
X135322607Y-100678431D01*
X135332915Y-100712409D01*
X135337000Y-100753890D01*
X135337000Y-101430110D01*
X135332915Y-101471591D01*
X135322607Y-101505569D01*
X135305866Y-101536890D01*
X135283339Y-101564339D01*
X135255890Y-101586866D01*
X135224569Y-101603607D01*
X135190591Y-101613915D01*
X135149110Y-101618000D01*
X134547890Y-101618000D01*
X134506409Y-101613915D01*
X134472431Y-101603607D01*
X134441110Y-101586866D01*
X134413661Y-101564339D01*
X134391134Y-101536890D01*
X134374393Y-101505569D01*
X134364085Y-101471591D01*
X134360000Y-101430110D01*
X134360000Y-100753890D01*
X134364085Y-100712409D01*
X134374393Y-100678431D01*
X134391134Y-100647110D01*
X134413661Y-100619661D01*
X134441110Y-100597134D01*
X134472431Y-100580393D01*
X134506409Y-100570085D01*
X134547890Y-100566000D01*
X135149110Y-100566000D01*
X135190591Y-100570085D01*
G37*
G36*
X136765591Y-100570085D02*
G01*
X136799569Y-100580393D01*
X136830890Y-100597134D01*
X136858339Y-100619661D01*
X136880866Y-100647110D01*
X136897607Y-100678431D01*
X136907915Y-100712409D01*
X136912000Y-100753890D01*
X136912000Y-101430110D01*
X136907915Y-101471591D01*
X136897607Y-101505569D01*
X136880866Y-101536890D01*
X136858339Y-101564339D01*
X136830890Y-101586866D01*
X136799569Y-101603607D01*
X136765591Y-101613915D01*
X136724110Y-101618000D01*
X136122890Y-101618000D01*
X136081409Y-101613915D01*
X136047431Y-101603607D01*
X136016110Y-101586866D01*
X135988661Y-101564339D01*
X135966134Y-101536890D01*
X135949393Y-101505569D01*
X135939085Y-101471591D01*
X135935000Y-101430110D01*
X135935000Y-100753890D01*
X135939085Y-100712409D01*
X135949393Y-100678431D01*
X135966134Y-100647110D01*
X135988661Y-100619661D01*
X136016110Y-100597134D01*
X136047431Y-100580393D01*
X136081409Y-100570085D01*
X136122890Y-100566000D01*
X136724110Y-100566000D01*
X136765591Y-100570085D01*
G37*
G36*
X140321591Y-100570085D02*
G01*
X140355569Y-100580393D01*
X140386890Y-100597134D01*
X140414339Y-100619661D01*
X140436866Y-100647110D01*
X140453607Y-100678431D01*
X140463915Y-100712409D01*
X140468000Y-100753890D01*
X140468000Y-101430110D01*
X140463915Y-101471591D01*
X140453607Y-101505569D01*
X140436866Y-101536890D01*
X140414339Y-101564339D01*
X140386890Y-101586866D01*
X140355569Y-101603607D01*
X140321591Y-101613915D01*
X140280110Y-101618000D01*
X139678890Y-101618000D01*
X139637409Y-101613915D01*
X139603431Y-101603607D01*
X139572110Y-101586866D01*
X139544661Y-101564339D01*
X139522134Y-101536890D01*
X139505393Y-101505569D01*
X139495085Y-101471591D01*
X139491000Y-101430110D01*
X139491000Y-100753890D01*
X139495085Y-100712409D01*
X139505393Y-100678431D01*
X139522134Y-100647110D01*
X139544661Y-100619661D01*
X139572110Y-100597134D01*
X139603431Y-100580393D01*
X139637409Y-100570085D01*
X139678890Y-100566000D01*
X140280110Y-100566000D01*
X140321591Y-100570085D01*
G37*
G36*
X138746591Y-100570085D02*
G01*
X138780569Y-100580393D01*
X138811890Y-100597134D01*
X138839339Y-100619661D01*
X138861866Y-100647110D01*
X138878607Y-100678431D01*
X138888915Y-100712409D01*
X138893000Y-100753890D01*
X138893000Y-101430110D01*
X138888915Y-101471591D01*
X138878607Y-101505569D01*
X138861866Y-101536890D01*
X138839339Y-101564339D01*
X138811890Y-101586866D01*
X138780569Y-101603607D01*
X138746591Y-101613915D01*
X138705110Y-101618000D01*
X138103890Y-101618000D01*
X138062409Y-101613915D01*
X138028431Y-101603607D01*
X137997110Y-101586866D01*
X137969661Y-101564339D01*
X137947134Y-101536890D01*
X137930393Y-101505569D01*
X137920085Y-101471591D01*
X137916000Y-101430110D01*
X137916000Y-100753890D01*
X137920085Y-100712409D01*
X137930393Y-100678431D01*
X137947134Y-100647110D01*
X137969661Y-100619661D01*
X137997110Y-100597134D01*
X138028431Y-100580393D01*
X138062409Y-100570085D01*
X138103890Y-100566000D01*
X138705110Y-100566000D01*
X138746591Y-100570085D01*
G37*
G36*
X149560000Y-100388099D02*
G01*
X148890000Y-100388099D01*
X148890000Y-98544701D01*
X149560000Y-98544701D01*
X149560000Y-100388099D01*
G37*
G36*
X150830000Y-100388099D02*
G01*
X150160000Y-100388099D01*
X150160000Y-98544701D01*
X150830000Y-98544701D01*
X150830000Y-100388099D01*
G37*
G36*
X152100000Y-100388099D02*
G01*
X151430000Y-100388099D01*
X151430000Y-98544701D01*
X152100000Y-98544701D01*
X152100000Y-100388099D01*
G37*
G36*
X153370000Y-100388099D02*
G01*
X152700000Y-100388099D01*
X152700000Y-98544701D01*
X153370000Y-98544701D01*
X153370000Y-100388099D01*
G37*
G36*
X154640000Y-100388099D02*
G01*
X153970000Y-100388099D01*
X153970000Y-98544701D01*
X154640000Y-98544701D01*
X154640000Y-100388099D01*
G37*
G36*
X155910000Y-100388099D02*
G01*
X155240000Y-100388099D01*
X155240000Y-98544701D01*
X155910000Y-98544701D01*
X155910000Y-100388099D01*
G37*
G36*
X157180000Y-100388099D02*
G01*
X156510000Y-100388099D01*
X156510000Y-98544701D01*
X157180000Y-98544701D01*
X157180000Y-100388099D01*
G37*
G36*
X144385591Y-98538085D02*
G01*
X144419569Y-98548393D01*
X144450890Y-98565134D01*
X144478339Y-98587661D01*
X144500866Y-98615110D01*
X144517607Y-98646431D01*
X144527915Y-98680409D01*
X144532000Y-98721890D01*
X144532000Y-99398110D01*
X144527915Y-99439591D01*
X144517607Y-99473569D01*
X144500866Y-99504890D01*
X144478339Y-99532339D01*
X144450890Y-99554866D01*
X144419569Y-99571607D01*
X144385591Y-99581915D01*
X144344110Y-99586000D01*
X143742890Y-99586000D01*
X143701409Y-99581915D01*
X143667431Y-99571607D01*
X143636110Y-99554866D01*
X143608661Y-99532339D01*
X143586134Y-99504890D01*
X143569393Y-99473569D01*
X143559085Y-99439591D01*
X143555000Y-99398110D01*
X143555000Y-98721890D01*
X143559085Y-98680409D01*
X143569393Y-98646431D01*
X143586134Y-98615110D01*
X143608661Y-98587661D01*
X143636110Y-98565134D01*
X143667431Y-98548393D01*
X143701409Y-98538085D01*
X143742890Y-98534000D01*
X144344110Y-98534000D01*
X144385591Y-98538085D01*
G37*
G36*
X135190591Y-98538085D02*
G01*
X135224569Y-98548393D01*
X135255890Y-98565134D01*
X135283339Y-98587661D01*
X135305866Y-98615110D01*
X135322607Y-98646431D01*
X135332915Y-98680409D01*
X135337000Y-98721890D01*
X135337000Y-99398110D01*
X135332915Y-99439591D01*
X135322607Y-99473569D01*
X135305866Y-99504890D01*
X135283339Y-99532339D01*
X135255890Y-99554866D01*
X135224569Y-99571607D01*
X135190591Y-99581915D01*
X135149110Y-99586000D01*
X134547890Y-99586000D01*
X134506409Y-99581915D01*
X134472431Y-99571607D01*
X134441110Y-99554866D01*
X134413661Y-99532339D01*
X134391134Y-99504890D01*
X134374393Y-99473569D01*
X134364085Y-99439591D01*
X134360000Y-99398110D01*
X134360000Y-98721890D01*
X134364085Y-98680409D01*
X134374393Y-98646431D01*
X134391134Y-98615110D01*
X134413661Y-98587661D01*
X134441110Y-98565134D01*
X134472431Y-98548393D01*
X134506409Y-98538085D01*
X134547890Y-98534000D01*
X135149110Y-98534000D01*
X135190591Y-98538085D01*
G37*
G36*
X140321591Y-98538085D02*
G01*
X140355569Y-98548393D01*
X140386890Y-98565134D01*
X140414339Y-98587661D01*
X140436866Y-98615110D01*
X140453607Y-98646431D01*
X140463915Y-98680409D01*
X140468000Y-98721890D01*
X140468000Y-99398110D01*
X140463915Y-99439591D01*
X140453607Y-99473569D01*
X140436866Y-99504890D01*
X140414339Y-99532339D01*
X140386890Y-99554866D01*
X140355569Y-99571607D01*
X140321591Y-99581915D01*
X140280110Y-99586000D01*
X139678890Y-99586000D01*
X139637409Y-99581915D01*
X139603431Y-99571607D01*
X139572110Y-99554866D01*
X139544661Y-99532339D01*
X139522134Y-99504890D01*
X139505393Y-99473569D01*
X139495085Y-99439591D01*
X139491000Y-99398110D01*
X139491000Y-98721890D01*
X139495085Y-98680409D01*
X139505393Y-98646431D01*
X139522134Y-98615110D01*
X139544661Y-98587661D01*
X139572110Y-98565134D01*
X139603431Y-98548393D01*
X139637409Y-98538085D01*
X139678890Y-98534000D01*
X140280110Y-98534000D01*
X140321591Y-98538085D01*
G37*
G36*
X138746591Y-98538085D02*
G01*
X138780569Y-98548393D01*
X138811890Y-98565134D01*
X138839339Y-98587661D01*
X138861866Y-98615110D01*
X138878607Y-98646431D01*
X138888915Y-98680409D01*
X138893000Y-98721890D01*
X138893000Y-99398110D01*
X138888915Y-99439591D01*
X138878607Y-99473569D01*
X138861866Y-99504890D01*
X138839339Y-99532339D01*
X138811890Y-99554866D01*
X138780569Y-99571607D01*
X138746591Y-99581915D01*
X138705110Y-99586000D01*
X138103890Y-99586000D01*
X138062409Y-99581915D01*
X138028431Y-99571607D01*
X137997110Y-99554866D01*
X137969661Y-99532339D01*
X137947134Y-99504890D01*
X137930393Y-99473569D01*
X137920085Y-99439591D01*
X137916000Y-99398110D01*
X137916000Y-98721890D01*
X137920085Y-98680409D01*
X137930393Y-98646431D01*
X137947134Y-98615110D01*
X137969661Y-98587661D01*
X137997110Y-98565134D01*
X138028431Y-98548393D01*
X138062409Y-98538085D01*
X138103890Y-98534000D01*
X138705110Y-98534000D01*
X138746591Y-98538085D01*
G37*
G36*
X142810591Y-98538085D02*
G01*
X142844569Y-98548393D01*
X142875890Y-98565134D01*
X142903339Y-98587661D01*
X142925866Y-98615110D01*
X142942607Y-98646431D01*
X142952915Y-98680409D01*
X142957000Y-98721890D01*
X142957000Y-99398110D01*
X142952915Y-99439591D01*
X142942607Y-99473569D01*
X142925866Y-99504890D01*
X142903339Y-99532339D01*
X142875890Y-99554866D01*
X142844569Y-99571607D01*
X142810591Y-99581915D01*
X142769110Y-99586000D01*
X142167890Y-99586000D01*
X142126409Y-99581915D01*
X142092431Y-99571607D01*
X142061110Y-99554866D01*
X142033661Y-99532339D01*
X142011134Y-99504890D01*
X141994393Y-99473569D01*
X141984085Y-99439591D01*
X141980000Y-99398110D01*
X141980000Y-98721890D01*
X141984085Y-98680409D01*
X141994393Y-98646431D01*
X142011134Y-98615110D01*
X142033661Y-98587661D01*
X142061110Y-98565134D01*
X142092431Y-98548393D01*
X142126409Y-98538085D01*
X142167890Y-98534000D01*
X142769110Y-98534000D01*
X142810591Y-98538085D01*
G37*
G36*
X136765591Y-98538085D02*
G01*
X136799569Y-98548393D01*
X136830890Y-98565134D01*
X136858339Y-98587661D01*
X136880866Y-98615110D01*
X136897607Y-98646431D01*
X136907915Y-98680409D01*
X136912000Y-98721890D01*
X136912000Y-99398110D01*
X136907915Y-99439591D01*
X136897607Y-99473569D01*
X136880866Y-99504890D01*
X136858339Y-99532339D01*
X136830890Y-99554866D01*
X136799569Y-99571607D01*
X136765591Y-99581915D01*
X136724110Y-99586000D01*
X136122890Y-99586000D01*
X136081409Y-99581915D01*
X136047431Y-99571607D01*
X136016110Y-99554866D01*
X135988661Y-99532339D01*
X135966134Y-99504890D01*
X135949393Y-99473569D01*
X135939085Y-99439591D01*
X135935000Y-99398110D01*
X135935000Y-98721890D01*
X135939085Y-98680409D01*
X135949393Y-98646431D01*
X135966134Y-98615110D01*
X135988661Y-98587661D01*
X136016110Y-98565134D01*
X136047431Y-98548393D01*
X136081409Y-98538085D01*
X136122890Y-98534000D01*
X136724110Y-98534000D01*
X136765591Y-98538085D01*
G37*
G36*
X129729591Y-95363085D02*
G01*
X129763569Y-95373393D01*
X129794890Y-95390134D01*
X129822339Y-95412661D01*
X129844866Y-95440110D01*
X129861607Y-95471431D01*
X129871915Y-95505409D01*
X129876000Y-95546890D01*
X129876000Y-96223110D01*
X129871915Y-96264591D01*
X129861607Y-96298569D01*
X129844866Y-96329890D01*
X129822339Y-96357339D01*
X129794890Y-96379866D01*
X129763569Y-96396607D01*
X129729591Y-96406915D01*
X129688110Y-96411000D01*
X129086890Y-96411000D01*
X129045409Y-96406915D01*
X129011431Y-96396607D01*
X128980110Y-96379866D01*
X128952661Y-96357339D01*
X128930134Y-96329890D01*
X128913393Y-96298569D01*
X128903085Y-96264591D01*
X128899000Y-96223110D01*
X128899000Y-95546890D01*
X128903085Y-95505409D01*
X128913393Y-95471431D01*
X128930134Y-95440110D01*
X128952661Y-95412661D01*
X128980110Y-95390134D01*
X129011431Y-95373393D01*
X129045409Y-95363085D01*
X129086890Y-95359000D01*
X129688110Y-95359000D01*
X129729591Y-95363085D01*
G37*
G36*
X131304591Y-95363085D02*
G01*
X131338569Y-95373393D01*
X131369890Y-95390134D01*
X131397339Y-95412661D01*
X131419866Y-95440110D01*
X131436607Y-95471431D01*
X131446915Y-95505409D01*
X131451000Y-95546890D01*
X131451000Y-96223110D01*
X131446915Y-96264591D01*
X131436607Y-96298569D01*
X131419866Y-96329890D01*
X131397339Y-96357339D01*
X131369890Y-96379866D01*
X131338569Y-96396607D01*
X131304591Y-96406915D01*
X131263110Y-96411000D01*
X130661890Y-96411000D01*
X130620409Y-96406915D01*
X130586431Y-96396607D01*
X130555110Y-96379866D01*
X130527661Y-96357339D01*
X130505134Y-96329890D01*
X130488393Y-96298569D01*
X130478085Y-96264591D01*
X130474000Y-96223110D01*
X130474000Y-95546890D01*
X130478085Y-95505409D01*
X130488393Y-95471431D01*
X130505134Y-95440110D01*
X130527661Y-95412661D01*
X130555110Y-95390134D01*
X130586431Y-95373393D01*
X130620409Y-95363085D01*
X130661890Y-95359000D01*
X131263110Y-95359000D01*
X131304591Y-95363085D01*
G37*
G36*
X134301591Y-94220085D02*
G01*
X134335569Y-94230393D01*
X134366890Y-94247134D01*
X134394339Y-94269661D01*
X134416866Y-94297110D01*
X134433607Y-94328431D01*
X134443915Y-94362409D01*
X134448000Y-94403890D01*
X134448000Y-95080110D01*
X134443915Y-95121591D01*
X134433607Y-95155569D01*
X134416866Y-95186890D01*
X134394339Y-95214339D01*
X134366890Y-95236866D01*
X134335569Y-95253607D01*
X134301591Y-95263915D01*
X134260110Y-95268000D01*
X133658890Y-95268000D01*
X133617409Y-95263915D01*
X133583431Y-95253607D01*
X133552110Y-95236866D01*
X133524661Y-95214339D01*
X133502134Y-95186890D01*
X133485393Y-95155569D01*
X133475085Y-95121591D01*
X133471000Y-95080110D01*
X133471000Y-94403890D01*
X133475085Y-94362409D01*
X133485393Y-94328431D01*
X133502134Y-94297110D01*
X133524661Y-94269661D01*
X133552110Y-94247134D01*
X133583431Y-94230393D01*
X133617409Y-94220085D01*
X133658890Y-94216000D01*
X134260110Y-94216000D01*
X134301591Y-94220085D01*
G37*
G36*
X135876591Y-94220085D02*
G01*
X135910569Y-94230393D01*
X135941890Y-94247134D01*
X135969339Y-94269661D01*
X135991866Y-94297110D01*
X136008607Y-94328431D01*
X136018915Y-94362409D01*
X136023000Y-94403890D01*
X136023000Y-95080110D01*
X136018915Y-95121591D01*
X136008607Y-95155569D01*
X135991866Y-95186890D01*
X135969339Y-95214339D01*
X135941890Y-95236866D01*
X135910569Y-95253607D01*
X135876591Y-95263915D01*
X135835110Y-95268000D01*
X135233890Y-95268000D01*
X135192409Y-95263915D01*
X135158431Y-95253607D01*
X135127110Y-95236866D01*
X135099661Y-95214339D01*
X135077134Y-95186890D01*
X135060393Y-95155569D01*
X135050085Y-95121591D01*
X135046000Y-95080110D01*
X135046000Y-94403890D01*
X135050085Y-94362409D01*
X135060393Y-94328431D01*
X135077134Y-94297110D01*
X135099661Y-94269661D01*
X135127110Y-94247134D01*
X135158431Y-94230393D01*
X135192409Y-94220085D01*
X135233890Y-94216000D01*
X135835110Y-94216000D01*
X135876591Y-94220085D01*
G37*
G36*
X137476591Y-94220085D02*
G01*
X137510569Y-94230393D01*
X137541890Y-94247134D01*
X137569339Y-94269661D01*
X137591866Y-94297110D01*
X137608607Y-94328431D01*
X137618915Y-94362409D01*
X137623000Y-94403890D01*
X137623000Y-95080110D01*
X137618915Y-95121591D01*
X137608607Y-95155569D01*
X137591866Y-95186890D01*
X137569339Y-95214339D01*
X137541890Y-95236866D01*
X137510569Y-95253607D01*
X137476591Y-95263915D01*
X137435110Y-95268000D01*
X136833890Y-95268000D01*
X136792409Y-95263915D01*
X136758431Y-95253607D01*
X136727110Y-95236866D01*
X136699661Y-95214339D01*
X136677134Y-95186890D01*
X136660393Y-95155569D01*
X136650085Y-95121591D01*
X136646000Y-95080110D01*
X136646000Y-94403890D01*
X136650085Y-94362409D01*
X136660393Y-94328431D01*
X136677134Y-94297110D01*
X136699661Y-94269661D01*
X136727110Y-94247134D01*
X136758431Y-94230393D01*
X136792409Y-94220085D01*
X136833890Y-94216000D01*
X137435110Y-94216000D01*
X137476591Y-94220085D01*
G37*
G36*
X139051591Y-94220085D02*
G01*
X139085569Y-94230393D01*
X139116890Y-94247134D01*
X139144339Y-94269661D01*
X139166866Y-94297110D01*
X139183607Y-94328431D01*
X139193915Y-94362409D01*
X139198000Y-94403890D01*
X139198000Y-95080110D01*
X139193915Y-95121591D01*
X139183607Y-95155569D01*
X139166866Y-95186890D01*
X139144339Y-95214339D01*
X139116890Y-95236866D01*
X139085569Y-95253607D01*
X139051591Y-95263915D01*
X139010110Y-95268000D01*
X138408890Y-95268000D01*
X138367409Y-95263915D01*
X138333431Y-95253607D01*
X138302110Y-95236866D01*
X138274661Y-95214339D01*
X138252134Y-95186890D01*
X138235393Y-95155569D01*
X138225085Y-95121591D01*
X138221000Y-95080110D01*
X138221000Y-94403890D01*
X138225085Y-94362409D01*
X138235393Y-94328431D01*
X138252134Y-94297110D01*
X138274661Y-94269661D01*
X138302110Y-94247134D01*
X138333431Y-94230393D01*
X138367409Y-94220085D01*
X138408890Y-94216000D01*
X139010110Y-94216000D01*
X139051591Y-94220085D01*
G37*
G36*
X141286591Y-94220085D02*
G01*
X141320569Y-94230393D01*
X141351890Y-94247134D01*
X141379339Y-94269661D01*
X141401866Y-94297110D01*
X141418607Y-94328431D01*
X141428915Y-94362409D01*
X141433000Y-94403890D01*
X141433000Y-95080110D01*
X141428915Y-95121591D01*
X141418607Y-95155569D01*
X141401866Y-95186890D01*
X141379339Y-95214339D01*
X141351890Y-95236866D01*
X141320569Y-95253607D01*
X141286591Y-95263915D01*
X141245110Y-95268000D01*
X140643890Y-95268000D01*
X140602409Y-95263915D01*
X140568431Y-95253607D01*
X140537110Y-95236866D01*
X140509661Y-95214339D01*
X140487134Y-95186890D01*
X140470393Y-95155569D01*
X140460085Y-95121591D01*
X140456000Y-95080110D01*
X140456000Y-94403890D01*
X140460085Y-94362409D01*
X140470393Y-94328431D01*
X140487134Y-94297110D01*
X140509661Y-94269661D01*
X140537110Y-94247134D01*
X140568431Y-94230393D01*
X140602409Y-94220085D01*
X140643890Y-94216000D01*
X141245110Y-94216000D01*
X141286591Y-94220085D01*
G37*
G36*
X142861591Y-94220085D02*
G01*
X142895569Y-94230393D01*
X142926890Y-94247134D01*
X142954339Y-94269661D01*
X142976866Y-94297110D01*
X142993607Y-94328431D01*
X143003915Y-94362409D01*
X143008000Y-94403890D01*
X143008000Y-95080110D01*
X143003915Y-95121591D01*
X142993607Y-95155569D01*
X142976866Y-95186890D01*
X142954339Y-95214339D01*
X142926890Y-95236866D01*
X142895569Y-95253607D01*
X142861591Y-95263915D01*
X142820110Y-95268000D01*
X142218890Y-95268000D01*
X142177409Y-95263915D01*
X142143431Y-95253607D01*
X142112110Y-95236866D01*
X142084661Y-95214339D01*
X142062134Y-95186890D01*
X142045393Y-95155569D01*
X142035085Y-95121591D01*
X142031000Y-95080110D01*
X142031000Y-94403890D01*
X142035085Y-94362409D01*
X142045393Y-94328431D01*
X142062134Y-94297110D01*
X142084661Y-94269661D01*
X142112110Y-94247134D01*
X142143431Y-94230393D01*
X142177409Y-94220085D01*
X142218890Y-94216000D01*
X142820110Y-94216000D01*
X142861591Y-94220085D01*
G37*
G36*
X145159591Y-94283085D02*
G01*
X145193569Y-94293393D01*
X145224890Y-94310134D01*
X145252339Y-94332661D01*
X145274866Y-94360110D01*
X145291607Y-94391431D01*
X145301915Y-94425409D01*
X145306000Y-94466890D01*
X145306000Y-95068110D01*
X145301915Y-95109591D01*
X145291607Y-95143569D01*
X145274866Y-95174890D01*
X145252339Y-95202339D01*
X145224890Y-95224866D01*
X145193569Y-95241607D01*
X145159591Y-95251915D01*
X145118110Y-95256000D01*
X144441890Y-95256000D01*
X144400409Y-95251915D01*
X144366431Y-95241607D01*
X144335110Y-95224866D01*
X144307661Y-95202339D01*
X144285134Y-95174890D01*
X144268393Y-95143569D01*
X144258085Y-95109591D01*
X144254000Y-95068110D01*
X144254000Y-94466890D01*
X144258085Y-94425409D01*
X144268393Y-94391431D01*
X144285134Y-94360110D01*
X144307661Y-94332661D01*
X144335110Y-94310134D01*
X144366431Y-94293393D01*
X144400409Y-94283085D01*
X144441890Y-94279000D01*
X145118110Y-94279000D01*
X145159591Y-94283085D01*
G37*
G36*
X147064591Y-94283085D02*
G01*
X147098569Y-94293393D01*
X147129890Y-94310134D01*
X147157339Y-94332661D01*
X147179866Y-94360110D01*
X147196607Y-94391431D01*
X147206915Y-94425409D01*
X147211000Y-94466890D01*
X147211000Y-95068110D01*
X147206915Y-95109591D01*
X147196607Y-95143569D01*
X147179866Y-95174890D01*
X147157339Y-95202339D01*
X147129890Y-95224866D01*
X147098569Y-95241607D01*
X147064591Y-95251915D01*
X147023110Y-95256000D01*
X146346890Y-95256000D01*
X146305409Y-95251915D01*
X146271431Y-95241607D01*
X146240110Y-95224866D01*
X146212661Y-95202339D01*
X146190134Y-95174890D01*
X146173393Y-95143569D01*
X146163085Y-95109591D01*
X146159000Y-95068110D01*
X146159000Y-94466890D01*
X146163085Y-94425409D01*
X146173393Y-94391431D01*
X146190134Y-94360110D01*
X146212661Y-94332661D01*
X146240110Y-94310134D01*
X146271431Y-94293393D01*
X146305409Y-94283085D01*
X146346890Y-94279000D01*
X147023110Y-94279000D01*
X147064591Y-94283085D01*
G37*
G36*
X129729591Y-92823085D02*
G01*
X129763569Y-92833393D01*
X129794890Y-92850134D01*
X129822339Y-92872661D01*
X129844866Y-92900110D01*
X129861607Y-92931431D01*
X129871915Y-92965409D01*
X129876000Y-93006890D01*
X129876000Y-93683110D01*
X129871915Y-93724591D01*
X129861607Y-93758569D01*
X129844866Y-93789890D01*
X129822339Y-93817339D01*
X129794890Y-93839866D01*
X129763569Y-93856607D01*
X129729591Y-93866915D01*
X129688110Y-93871000D01*
X129086890Y-93871000D01*
X129045409Y-93866915D01*
X129011431Y-93856607D01*
X128980110Y-93839866D01*
X128952661Y-93817339D01*
X128930134Y-93789890D01*
X128913393Y-93758569D01*
X128903085Y-93724591D01*
X128899000Y-93683110D01*
X128899000Y-93006890D01*
X128903085Y-92965409D01*
X128913393Y-92931431D01*
X128930134Y-92900110D01*
X128952661Y-92872661D01*
X128980110Y-92850134D01*
X129011431Y-92833393D01*
X129045409Y-92823085D01*
X129086890Y-92819000D01*
X129688110Y-92819000D01*
X129729591Y-92823085D01*
G37*
G36*
X131304591Y-92823085D02*
G01*
X131338569Y-92833393D01*
X131369890Y-92850134D01*
X131397339Y-92872661D01*
X131419866Y-92900110D01*
X131436607Y-92931431D01*
X131446915Y-92965409D01*
X131451000Y-93006890D01*
X131451000Y-93683110D01*
X131446915Y-93724591D01*
X131436607Y-93758569D01*
X131419866Y-93789890D01*
X131397339Y-93817339D01*
X131369890Y-93839866D01*
X131338569Y-93856607D01*
X131304591Y-93866915D01*
X131263110Y-93871000D01*
X130661890Y-93871000D01*
X130620409Y-93866915D01*
X130586431Y-93856607D01*
X130555110Y-93839866D01*
X130527661Y-93817339D01*
X130505134Y-93789890D01*
X130488393Y-93758569D01*
X130478085Y-93724591D01*
X130474000Y-93683110D01*
X130474000Y-93006890D01*
X130478085Y-92965409D01*
X130488393Y-92931431D01*
X130505134Y-92900110D01*
X130527661Y-92872661D01*
X130555110Y-92850134D01*
X130586431Y-92833393D01*
X130620409Y-92823085D01*
X130661890Y-92819000D01*
X131263110Y-92819000D01*
X131304591Y-92823085D01*
G37*
G36*
X145159591Y-92708085D02*
G01*
X145193569Y-92718393D01*
X145224890Y-92735134D01*
X145252339Y-92757661D01*
X145274866Y-92785110D01*
X145291607Y-92816431D01*
X145301915Y-92850409D01*
X145306000Y-92891890D01*
X145306000Y-93493110D01*
X145301915Y-93534591D01*
X145291607Y-93568569D01*
X145274866Y-93599890D01*
X145252339Y-93627339D01*
X145224890Y-93649866D01*
X145193569Y-93666607D01*
X145159591Y-93676915D01*
X145118110Y-93681000D01*
X144441890Y-93681000D01*
X144400409Y-93676915D01*
X144366431Y-93666607D01*
X144335110Y-93649866D01*
X144307661Y-93627339D01*
X144285134Y-93599890D01*
X144268393Y-93568569D01*
X144258085Y-93534591D01*
X144254000Y-93493110D01*
X144254000Y-92891890D01*
X144258085Y-92850409D01*
X144268393Y-92816431D01*
X144285134Y-92785110D01*
X144307661Y-92757661D01*
X144335110Y-92735134D01*
X144366431Y-92718393D01*
X144400409Y-92708085D01*
X144441890Y-92704000D01*
X145118110Y-92704000D01*
X145159591Y-92708085D01*
G37*
G36*
X147064591Y-92708085D02*
G01*
X147098569Y-92718393D01*
X147129890Y-92735134D01*
X147157339Y-92757661D01*
X147179866Y-92785110D01*
X147196607Y-92816431D01*
X147206915Y-92850409D01*
X147211000Y-92891890D01*
X147211000Y-93493110D01*
X147206915Y-93534591D01*
X147196607Y-93568569D01*
X147179866Y-93599890D01*
X147157339Y-93627339D01*
X147129890Y-93649866D01*
X147098569Y-93666607D01*
X147064591Y-93676915D01*
X147023110Y-93681000D01*
X146346890Y-93681000D01*
X146305409Y-93676915D01*
X146271431Y-93666607D01*
X146240110Y-93649866D01*
X146212661Y-93627339D01*
X146190134Y-93599890D01*
X146173393Y-93568569D01*
X146163085Y-93534591D01*
X146159000Y-93493110D01*
X146159000Y-92891890D01*
X146163085Y-92850409D01*
X146173393Y-92816431D01*
X146190134Y-92785110D01*
X146212661Y-92757661D01*
X146240110Y-92735134D01*
X146271431Y-92718393D01*
X146305409Y-92708085D01*
X146346890Y-92704000D01*
X147023110Y-92704000D01*
X147064591Y-92708085D01*
G37*
G36*
X137666591Y-92505085D02*
G01*
X137700569Y-92515393D01*
X137731890Y-92532134D01*
X137759339Y-92554661D01*
X137781866Y-92582110D01*
X137798607Y-92613431D01*
X137808915Y-92647409D01*
X137813000Y-92688890D01*
X137813000Y-93290110D01*
X137808915Y-93331591D01*
X137798607Y-93365569D01*
X137781866Y-93396890D01*
X137759339Y-93424339D01*
X137731890Y-93446866D01*
X137700569Y-93463607D01*
X137666591Y-93473915D01*
X137625110Y-93478000D01*
X136948890Y-93478000D01*
X136907409Y-93473915D01*
X136873431Y-93463607D01*
X136842110Y-93446866D01*
X136814661Y-93424339D01*
X136792134Y-93396890D01*
X136775393Y-93365569D01*
X136765085Y-93331591D01*
X136761000Y-93290110D01*
X136761000Y-92688890D01*
X136765085Y-92647409D01*
X136775393Y-92613431D01*
X136792134Y-92582110D01*
X136814661Y-92554661D01*
X136842110Y-92532134D01*
X136873431Y-92515393D01*
X136907409Y-92505085D01*
X136948890Y-92501000D01*
X137625110Y-92501000D01*
X137666591Y-92505085D01*
G37*
G36*
X141476591Y-92505085D02*
G01*
X141510569Y-92515393D01*
X141541890Y-92532134D01*
X141569339Y-92554661D01*
X141591866Y-92582110D01*
X141608607Y-92613431D01*
X141618915Y-92647409D01*
X141623000Y-92688890D01*
X141623000Y-93290110D01*
X141618915Y-93331591D01*
X141608607Y-93365569D01*
X141591866Y-93396890D01*
X141569339Y-93424339D01*
X141541890Y-93446866D01*
X141510569Y-93463607D01*
X141476591Y-93473915D01*
X141435110Y-93478000D01*
X140758890Y-93478000D01*
X140717409Y-93473915D01*
X140683431Y-93463607D01*
X140652110Y-93446866D01*
X140624661Y-93424339D01*
X140602134Y-93396890D01*
X140585393Y-93365569D01*
X140575085Y-93331591D01*
X140571000Y-93290110D01*
X140571000Y-92688890D01*
X140575085Y-92647409D01*
X140585393Y-92613431D01*
X140602134Y-92582110D01*
X140624661Y-92554661D01*
X140652110Y-92532134D01*
X140683431Y-92515393D01*
X140717409Y-92505085D01*
X140758890Y-92501000D01*
X141435110Y-92501000D01*
X141476591Y-92505085D01*
G37*
G36*
X134491591Y-92505085D02*
G01*
X134525569Y-92515393D01*
X134556890Y-92532134D01*
X134584339Y-92554661D01*
X134606866Y-92582110D01*
X134623607Y-92613431D01*
X134633915Y-92647409D01*
X134638000Y-92688890D01*
X134638000Y-93290110D01*
X134633915Y-93331591D01*
X134623607Y-93365569D01*
X134606866Y-93396890D01*
X134584339Y-93424339D01*
X134556890Y-93446866D01*
X134525569Y-93463607D01*
X134491591Y-93473915D01*
X134450110Y-93478000D01*
X133773890Y-93478000D01*
X133732409Y-93473915D01*
X133698431Y-93463607D01*
X133667110Y-93446866D01*
X133639661Y-93424339D01*
X133617134Y-93396890D01*
X133600393Y-93365569D01*
X133590085Y-93331591D01*
X133586000Y-93290110D01*
X133586000Y-92688890D01*
X133590085Y-92647409D01*
X133600393Y-92613431D01*
X133617134Y-92582110D01*
X133639661Y-92554661D01*
X133667110Y-92532134D01*
X133698431Y-92515393D01*
X133732409Y-92505085D01*
X133773890Y-92501000D01*
X134450110Y-92501000D01*
X134491591Y-92505085D01*
G37*
G36*
X152100000Y-93225299D02*
G01*
X151430000Y-93225299D01*
X151430000Y-91381901D01*
X152100000Y-91381901D01*
X152100000Y-93225299D01*
G37*
G36*
X157180000Y-93225299D02*
G01*
X156510000Y-93225299D01*
X156510000Y-91381901D01*
X157180000Y-91381901D01*
X157180000Y-93225299D01*
G37*
G36*
X155910000Y-93225299D02*
G01*
X155240000Y-93225299D01*
X155240000Y-91381901D01*
X155910000Y-91381901D01*
X155910000Y-93225299D01*
G37*
G36*
X154640000Y-93225299D02*
G01*
X153970000Y-93225299D01*
X153970000Y-91381901D01*
X154640000Y-91381901D01*
X154640000Y-93225299D01*
G37*
G36*
X153370000Y-93225299D02*
G01*
X152700000Y-93225299D01*
X152700000Y-91381901D01*
X153370000Y-91381901D01*
X153370000Y-93225299D01*
G37*
G36*
X150830000Y-93225299D02*
G01*
X150160000Y-93225299D01*
X150160000Y-91381901D01*
X150830000Y-91381901D01*
X150830000Y-93225299D01*
G37*
G36*
X149560000Y-93225299D02*
G01*
X148890000Y-93225299D01*
X148890000Y-91381901D01*
X149560000Y-91381901D01*
X149560000Y-93225299D01*
G37*
G36*
X141476591Y-90930085D02*
G01*
X141510569Y-90940393D01*
X141541890Y-90957134D01*
X141569339Y-90979661D01*
X141591866Y-91007110D01*
X141608607Y-91038431D01*
X141618915Y-91072409D01*
X141623000Y-91113890D01*
X141623000Y-91715110D01*
X141618915Y-91756591D01*
X141608607Y-91790569D01*
X141591866Y-91821890D01*
X141569339Y-91849339D01*
X141541890Y-91871866D01*
X141510569Y-91888607D01*
X141476591Y-91898915D01*
X141435110Y-91903000D01*
X140758890Y-91903000D01*
X140717409Y-91898915D01*
X140683431Y-91888607D01*
X140652110Y-91871866D01*
X140624661Y-91849339D01*
X140602134Y-91821890D01*
X140585393Y-91790569D01*
X140575085Y-91756591D01*
X140571000Y-91715110D01*
X140571000Y-91113890D01*
X140575085Y-91072409D01*
X140585393Y-91038431D01*
X140602134Y-91007110D01*
X140624661Y-90979661D01*
X140652110Y-90957134D01*
X140683431Y-90940393D01*
X140717409Y-90930085D01*
X140758890Y-90926000D01*
X141435110Y-90926000D01*
X141476591Y-90930085D01*
G37*
G36*
X134491591Y-90930085D02*
G01*
X134525569Y-90940393D01*
X134556890Y-90957134D01*
X134584339Y-90979661D01*
X134606866Y-91007110D01*
X134623607Y-91038431D01*
X134633915Y-91072409D01*
X134638000Y-91113890D01*
X134638000Y-91715110D01*
X134633915Y-91756591D01*
X134623607Y-91790569D01*
X134606866Y-91821890D01*
X134584339Y-91849339D01*
X134556890Y-91871866D01*
X134525569Y-91888607D01*
X134491591Y-91898915D01*
X134450110Y-91903000D01*
X133773890Y-91903000D01*
X133732409Y-91898915D01*
X133698431Y-91888607D01*
X133667110Y-91871866D01*
X133639661Y-91849339D01*
X133617134Y-91821890D01*
X133600393Y-91790569D01*
X133590085Y-91756591D01*
X133586000Y-91715110D01*
X133586000Y-91113890D01*
X133590085Y-91072409D01*
X133600393Y-91038431D01*
X133617134Y-91007110D01*
X133639661Y-90979661D01*
X133667110Y-90957134D01*
X133698431Y-90940393D01*
X133732409Y-90930085D01*
X133773890Y-90926000D01*
X134450110Y-90926000D01*
X134491591Y-90930085D01*
G37*
G36*
X137666591Y-90930085D02*
G01*
X137700569Y-90940393D01*
X137731890Y-90957134D01*
X137759339Y-90979661D01*
X137781866Y-91007110D01*
X137798607Y-91038431D01*
X137808915Y-91072409D01*
X137813000Y-91113890D01*
X137813000Y-91715110D01*
X137808915Y-91756591D01*
X137798607Y-91790569D01*
X137781866Y-91821890D01*
X137759339Y-91849339D01*
X137731890Y-91871866D01*
X137700569Y-91888607D01*
X137666591Y-91898915D01*
X137625110Y-91903000D01*
X136948890Y-91903000D01*
X136907409Y-91898915D01*
X136873431Y-91888607D01*
X136842110Y-91871866D01*
X136814661Y-91849339D01*
X136792134Y-91821890D01*
X136775393Y-91790569D01*
X136765085Y-91756591D01*
X136761000Y-91715110D01*
X136761000Y-91113890D01*
X136765085Y-91072409D01*
X136775393Y-91038431D01*
X136792134Y-91007110D01*
X136814661Y-90979661D01*
X136842110Y-90957134D01*
X136873431Y-90940393D01*
X136907409Y-90930085D01*
X136948890Y-90926000D01*
X137625110Y-90926000D01*
X137666591Y-90930085D01*
G37*
G36*
X147568228Y-87446703D02*
G01*
X147723100Y-87510853D01*
X147862481Y-87603985D01*
X147981015Y-87722519D01*
X148074147Y-87861900D01*
X148138297Y-88016772D01*
X148171000Y-88181184D01*
X148171000Y-88348816D01*
X148138297Y-88513228D01*
X148074147Y-88668100D01*
X147981015Y-88807481D01*
X147862481Y-88926015D01*
X147723100Y-89019147D01*
X147568228Y-89083297D01*
X147403816Y-89116000D01*
X147236184Y-89116000D01*
X147071772Y-89083297D01*
X146916900Y-89019147D01*
X146777519Y-88926015D01*
X146658985Y-88807481D01*
X146565853Y-88668100D01*
X146501703Y-88513228D01*
X146469000Y-88348816D01*
X146469000Y-88181184D01*
X146501703Y-88016772D01*
X146565853Y-87861900D01*
X146658985Y-87722519D01*
X146777519Y-87603985D01*
X146916900Y-87510853D01*
X147071772Y-87446703D01*
X147236184Y-87414000D01*
X147403816Y-87414000D01*
X147568228Y-87446703D01*
G37*
G36*
X132328228Y-87446703D02*
G01*
X132483100Y-87510853D01*
X132622481Y-87603985D01*
X132741015Y-87722519D01*
X132834147Y-87861900D01*
X132898297Y-88016772D01*
X132931000Y-88181184D01*
X132931000Y-88348816D01*
X132898297Y-88513228D01*
X132834147Y-88668100D01*
X132741015Y-88807481D01*
X132622481Y-88926015D01*
X132483100Y-89019147D01*
X132328228Y-89083297D01*
X132163816Y-89116000D01*
X131996184Y-89116000D01*
X131831772Y-89083297D01*
X131676900Y-89019147D01*
X131537519Y-88926015D01*
X131418985Y-88807481D01*
X131325853Y-88668100D01*
X131261703Y-88513228D01*
X131229000Y-88348816D01*
X131229000Y-88181184D01*
X131261703Y-88016772D01*
X131325853Y-87861900D01*
X131418985Y-87722519D01*
X131537519Y-87603985D01*
X131676900Y-87510853D01*
X131831772Y-87446703D01*
X131996184Y-87414000D01*
X132163816Y-87414000D01*
X132328228Y-87446703D01*
G37*
G36*
X127248228Y-87446703D02*
G01*
X127403100Y-87510853D01*
X127542481Y-87603985D01*
X127661015Y-87722519D01*
X127754147Y-87861900D01*
X127818297Y-88016772D01*
X127851000Y-88181184D01*
X127851000Y-88348816D01*
X127818297Y-88513228D01*
X127754147Y-88668100D01*
X127661015Y-88807481D01*
X127542481Y-88926015D01*
X127403100Y-89019147D01*
X127248228Y-89083297D01*
X127083816Y-89116000D01*
X126916184Y-89116000D01*
X126751772Y-89083297D01*
X126596900Y-89019147D01*
X126457519Y-88926015D01*
X126338985Y-88807481D01*
X126245853Y-88668100D01*
X126181703Y-88513228D01*
X126149000Y-88348816D01*
X126149000Y-88181184D01*
X126181703Y-88016772D01*
X126245853Y-87861900D01*
X126338985Y-87722519D01*
X126457519Y-87603985D01*
X126596900Y-87510853D01*
X126751772Y-87446703D01*
X126916184Y-87414000D01*
X127083816Y-87414000D01*
X127248228Y-87446703D01*
G37*
G36*
X124708228Y-87446703D02*
G01*
X124863100Y-87510853D01*
X125002481Y-87603985D01*
X125121015Y-87722519D01*
X125214147Y-87861900D01*
X125278297Y-88016772D01*
X125311000Y-88181184D01*
X125311000Y-88348816D01*
X125278297Y-88513228D01*
X125214147Y-88668100D01*
X125121015Y-88807481D01*
X125002481Y-88926015D01*
X124863100Y-89019147D01*
X124708228Y-89083297D01*
X124543816Y-89116000D01*
X124376184Y-89116000D01*
X124211772Y-89083297D01*
X124056900Y-89019147D01*
X123917519Y-88926015D01*
X123798985Y-88807481D01*
X123705853Y-88668100D01*
X123641703Y-88513228D01*
X123609000Y-88348816D01*
X123609000Y-88181184D01*
X123641703Y-88016772D01*
X123705853Y-87861900D01*
X123798985Y-87722519D01*
X123917519Y-87603985D01*
X124056900Y-87510853D01*
X124211772Y-87446703D01*
X124376184Y-87414000D01*
X124543816Y-87414000D01*
X124708228Y-87446703D01*
G37*
G36*
X134868228Y-87446703D02*
G01*
X135023100Y-87510853D01*
X135162481Y-87603985D01*
X135281015Y-87722519D01*
X135374147Y-87861900D01*
X135438297Y-88016772D01*
X135471000Y-88181184D01*
X135471000Y-88348816D01*
X135438297Y-88513228D01*
X135374147Y-88668100D01*
X135281015Y-88807481D01*
X135162481Y-88926015D01*
X135023100Y-89019147D01*
X134868228Y-89083297D01*
X134703816Y-89116000D01*
X134536184Y-89116000D01*
X134371772Y-89083297D01*
X134216900Y-89019147D01*
X134077519Y-88926015D01*
X133958985Y-88807481D01*
X133865853Y-88668100D01*
X133801703Y-88513228D01*
X133769000Y-88348816D01*
X133769000Y-88181184D01*
X133801703Y-88016772D01*
X133865853Y-87861900D01*
X133958985Y-87722519D01*
X134077519Y-87603985D01*
X134216900Y-87510853D01*
X134371772Y-87446703D01*
X134536184Y-87414000D01*
X134703816Y-87414000D01*
X134868228Y-87446703D01*
G37*
G36*
X157728228Y-87446703D02*
G01*
X157883100Y-87510853D01*
X158022481Y-87603985D01*
X158141015Y-87722519D01*
X158234147Y-87861900D01*
X158298297Y-88016772D01*
X158331000Y-88181184D01*
X158331000Y-88348816D01*
X158298297Y-88513228D01*
X158234147Y-88668100D01*
X158141015Y-88807481D01*
X158022481Y-88926015D01*
X157883100Y-89019147D01*
X157728228Y-89083297D01*
X157563816Y-89116000D01*
X157396184Y-89116000D01*
X157231772Y-89083297D01*
X157076900Y-89019147D01*
X156937519Y-88926015D01*
X156818985Y-88807481D01*
X156725853Y-88668100D01*
X156661703Y-88513228D01*
X156629000Y-88348816D01*
X156629000Y-88181184D01*
X156661703Y-88016772D01*
X156725853Y-87861900D01*
X156818985Y-87722519D01*
X156937519Y-87603985D01*
X157076900Y-87510853D01*
X157231772Y-87446703D01*
X157396184Y-87414000D01*
X157563816Y-87414000D01*
X157728228Y-87446703D01*
G37*
G36*
X129788228Y-87446703D02*
G01*
X129943100Y-87510853D01*
X130082481Y-87603985D01*
X130201015Y-87722519D01*
X130294147Y-87861900D01*
X130358297Y-88016772D01*
X130391000Y-88181184D01*
X130391000Y-88348816D01*
X130358297Y-88513228D01*
X130294147Y-88668100D01*
X130201015Y-88807481D01*
X130082481Y-88926015D01*
X129943100Y-89019147D01*
X129788228Y-89083297D01*
X129623816Y-89116000D01*
X129456184Y-89116000D01*
X129291772Y-89083297D01*
X129136900Y-89019147D01*
X128997519Y-88926015D01*
X128878985Y-88807481D01*
X128785853Y-88668100D01*
X128721703Y-88513228D01*
X128689000Y-88348816D01*
X128689000Y-88181184D01*
X128721703Y-88016772D01*
X128785853Y-87861900D01*
X128878985Y-87722519D01*
X128997519Y-87603985D01*
X129136900Y-87510853D01*
X129291772Y-87446703D01*
X129456184Y-87414000D01*
X129623816Y-87414000D01*
X129788228Y-87446703D01*
G37*
G36*
X150108228Y-87446703D02*
G01*
X150263100Y-87510853D01*
X150402481Y-87603985D01*
X150521015Y-87722519D01*
X150614147Y-87861900D01*
X150678297Y-88016772D01*
X150711000Y-88181184D01*
X150711000Y-88348816D01*
X150678297Y-88513228D01*
X150614147Y-88668100D01*
X150521015Y-88807481D01*
X150402481Y-88926015D01*
X150263100Y-89019147D01*
X150108228Y-89083297D01*
X149943816Y-89116000D01*
X149776184Y-89116000D01*
X149611772Y-89083297D01*
X149456900Y-89019147D01*
X149317519Y-88926015D01*
X149198985Y-88807481D01*
X149105853Y-88668100D01*
X149041703Y-88513228D01*
X149009000Y-88348816D01*
X149009000Y-88181184D01*
X149041703Y-88016772D01*
X149105853Y-87861900D01*
X149198985Y-87722519D01*
X149317519Y-87603985D01*
X149456900Y-87510853D01*
X149611772Y-87446703D01*
X149776184Y-87414000D01*
X149943816Y-87414000D01*
X150108228Y-87446703D01*
G37*
G36*
X137408228Y-87446703D02*
G01*
X137563100Y-87510853D01*
X137702481Y-87603985D01*
X137821015Y-87722519D01*
X137914147Y-87861900D01*
X137978297Y-88016772D01*
X138011000Y-88181184D01*
X138011000Y-88348816D01*
X137978297Y-88513228D01*
X137914147Y-88668100D01*
X137821015Y-88807481D01*
X137702481Y-88926015D01*
X137563100Y-89019147D01*
X137408228Y-89083297D01*
X137243816Y-89116000D01*
X137076184Y-89116000D01*
X136911772Y-89083297D01*
X136756900Y-89019147D01*
X136617519Y-88926015D01*
X136498985Y-88807481D01*
X136405853Y-88668100D01*
X136341703Y-88513228D01*
X136309000Y-88348816D01*
X136309000Y-88181184D01*
X136341703Y-88016772D01*
X136405853Y-87861900D01*
X136498985Y-87722519D01*
X136617519Y-87603985D01*
X136756900Y-87510853D01*
X136911772Y-87446703D01*
X137076184Y-87414000D01*
X137243816Y-87414000D01*
X137408228Y-87446703D01*
G37*
G36*
X139948228Y-87446703D02*
G01*
X140103100Y-87510853D01*
X140242481Y-87603985D01*
X140361015Y-87722519D01*
X140454147Y-87861900D01*
X140518297Y-88016772D01*
X140551000Y-88181184D01*
X140551000Y-88348816D01*
X140518297Y-88513228D01*
X140454147Y-88668100D01*
X140361015Y-88807481D01*
X140242481Y-88926015D01*
X140103100Y-89019147D01*
X139948228Y-89083297D01*
X139783816Y-89116000D01*
X139616184Y-89116000D01*
X139451772Y-89083297D01*
X139296900Y-89019147D01*
X139157519Y-88926015D01*
X139038985Y-88807481D01*
X138945853Y-88668100D01*
X138881703Y-88513228D01*
X138849000Y-88348816D01*
X138849000Y-88181184D01*
X138881703Y-88016772D01*
X138945853Y-87861900D01*
X139038985Y-87722519D01*
X139157519Y-87603985D01*
X139296900Y-87510853D01*
X139451772Y-87446703D01*
X139616184Y-87414000D01*
X139783816Y-87414000D01*
X139948228Y-87446703D01*
G37*
G36*
X155188228Y-87446703D02*
G01*
X155343100Y-87510853D01*
X155482481Y-87603985D01*
X155601015Y-87722519D01*
X155694147Y-87861900D01*
X155758297Y-88016772D01*
X155791000Y-88181184D01*
X155791000Y-88348816D01*
X155758297Y-88513228D01*
X155694147Y-88668100D01*
X155601015Y-88807481D01*
X155482481Y-88926015D01*
X155343100Y-89019147D01*
X155188228Y-89083297D01*
X155023816Y-89116000D01*
X154856184Y-89116000D01*
X154691772Y-89083297D01*
X154536900Y-89019147D01*
X154397519Y-88926015D01*
X154278985Y-88807481D01*
X154185853Y-88668100D01*
X154121703Y-88513228D01*
X154089000Y-88348816D01*
X154089000Y-88181184D01*
X154121703Y-88016772D01*
X154185853Y-87861900D01*
X154278985Y-87722519D01*
X154397519Y-87603985D01*
X154536900Y-87510853D01*
X154691772Y-87446703D01*
X154856184Y-87414000D01*
X155023816Y-87414000D01*
X155188228Y-87446703D01*
G37*
G36*
X142488228Y-87446703D02*
G01*
X142643100Y-87510853D01*
X142782481Y-87603985D01*
X142901015Y-87722519D01*
X142994147Y-87861900D01*
X143058297Y-88016772D01*
X143091000Y-88181184D01*
X143091000Y-88348816D01*
X143058297Y-88513228D01*
X142994147Y-88668100D01*
X142901015Y-88807481D01*
X142782481Y-88926015D01*
X142643100Y-89019147D01*
X142488228Y-89083297D01*
X142323816Y-89116000D01*
X142156184Y-89116000D01*
X141991772Y-89083297D01*
X141836900Y-89019147D01*
X141697519Y-88926015D01*
X141578985Y-88807481D01*
X141485853Y-88668100D01*
X141421703Y-88513228D01*
X141389000Y-88348816D01*
X141389000Y-88181184D01*
X141421703Y-88016772D01*
X141485853Y-87861900D01*
X141578985Y-87722519D01*
X141697519Y-87603985D01*
X141836900Y-87510853D01*
X141991772Y-87446703D01*
X142156184Y-87414000D01*
X142323816Y-87414000D01*
X142488228Y-87446703D01*
G37*
G36*
X145028228Y-87446703D02*
G01*
X145183100Y-87510853D01*
X145322481Y-87603985D01*
X145441015Y-87722519D01*
X145534147Y-87861900D01*
X145598297Y-88016772D01*
X145631000Y-88181184D01*
X145631000Y-88348816D01*
X145598297Y-88513228D01*
X145534147Y-88668100D01*
X145441015Y-88807481D01*
X145322481Y-88926015D01*
X145183100Y-89019147D01*
X145028228Y-89083297D01*
X144863816Y-89116000D01*
X144696184Y-89116000D01*
X144531772Y-89083297D01*
X144376900Y-89019147D01*
X144237519Y-88926015D01*
X144118985Y-88807481D01*
X144025853Y-88668100D01*
X143961703Y-88513228D01*
X143929000Y-88348816D01*
X143929000Y-88181184D01*
X143961703Y-88016772D01*
X144025853Y-87861900D01*
X144118985Y-87722519D01*
X144237519Y-87603985D01*
X144376900Y-87510853D01*
X144531772Y-87446703D01*
X144696184Y-87414000D01*
X144863816Y-87414000D01*
X145028228Y-87446703D01*
G37*
G36*
X152648228Y-87446703D02*
G01*
X152803100Y-87510853D01*
X152942481Y-87603985D01*
X153061015Y-87722519D01*
X153154147Y-87861900D01*
X153218297Y-88016772D01*
X153251000Y-88181184D01*
X153251000Y-88348816D01*
X153218297Y-88513228D01*
X153154147Y-88668100D01*
X153061015Y-88807481D01*
X152942481Y-88926015D01*
X152803100Y-89019147D01*
X152648228Y-89083297D01*
X152483816Y-89116000D01*
X152316184Y-89116000D01*
X152151772Y-89083297D01*
X151996900Y-89019147D01*
X151857519Y-88926015D01*
X151738985Y-88807481D01*
X151645853Y-88668100D01*
X151581703Y-88513228D01*
X151549000Y-88348816D01*
X151549000Y-88181184D01*
X151581703Y-88016772D01*
X151645853Y-87861900D01*
X151738985Y-87722519D01*
X151857519Y-87603985D01*
X151996900Y-87510853D01*
X152151772Y-87446703D01*
X152316184Y-87414000D01*
X152483816Y-87414000D01*
X152648228Y-87446703D01*
G37*
G36*
X163419549Y-82201116D02*
G01*
X163530734Y-82223232D01*
X163740203Y-82309997D01*
X163928720Y-82435960D01*
X164089040Y-82596280D01*
X164215003Y-82784797D01*
X164301768Y-82994266D01*
X164346000Y-83216636D01*
X164346000Y-83443364D01*
X164301768Y-83665734D01*
X164215003Y-83875203D01*
X164089040Y-84063720D01*
X163928720Y-84224040D01*
X163740203Y-84350003D01*
X163530734Y-84436768D01*
X163419549Y-84458884D01*
X163308365Y-84481000D01*
X163081635Y-84481000D01*
X162970451Y-84458884D01*
X162859266Y-84436768D01*
X162649797Y-84350003D01*
X162461280Y-84224040D01*
X162300960Y-84063720D01*
X162174997Y-83875203D01*
X162088232Y-83665734D01*
X162044000Y-83443364D01*
X162044000Y-83216636D01*
X162088232Y-82994266D01*
X162174997Y-82784797D01*
X162300960Y-82596280D01*
X162461280Y-82435960D01*
X162649797Y-82309997D01*
X162859266Y-82223232D01*
X162970451Y-82201116D01*
X163081635Y-82179000D01*
X163308365Y-82179000D01*
X163419549Y-82201116D01*
G37*
G36*
X120239549Y-82056116D02*
G01*
X120350734Y-82078232D01*
X120560203Y-82164997D01*
X120748720Y-82290960D01*
X120909040Y-82451280D01*
X121035003Y-82639797D01*
X121035004Y-82639799D01*
X121121768Y-82849267D01*
X121160621Y-83044591D01*
X121166000Y-83071636D01*
X121166000Y-83298364D01*
X121121768Y-83520734D01*
X121035003Y-83730203D01*
X120909040Y-83918720D01*
X120748720Y-84079040D01*
X120560203Y-84205003D01*
X120350734Y-84291768D01*
X120239549Y-84313884D01*
X120128365Y-84336000D01*
X119901635Y-84336000D01*
X119790451Y-84313884D01*
X119679266Y-84291768D01*
X119469797Y-84205003D01*
X119281280Y-84079040D01*
X119120960Y-83918720D01*
X118994997Y-83730203D01*
X118908232Y-83520734D01*
X118864000Y-83298364D01*
X118864000Y-83071636D01*
X118869380Y-83044591D01*
X118908232Y-82849267D01*
X118994996Y-82639799D01*
X118994997Y-82639797D01*
X119120960Y-82451280D01*
X119281280Y-82290960D01*
X119469797Y-82164997D01*
X119679266Y-82078232D01*
X119790451Y-82056116D01*
X119901635Y-82034000D01*
X120128365Y-82034000D01*
X120239549Y-82056116D01*
G37*
G36*
X151128591Y-82218085D02*
G01*
X151162569Y-82228393D01*
X151193890Y-82245134D01*
X151221339Y-82267661D01*
X151243866Y-82295110D01*
X151260607Y-82326431D01*
X151270915Y-82360409D01*
X151275000Y-82401890D01*
X151275000Y-83003110D01*
X151270915Y-83044591D01*
X151260607Y-83078569D01*
X151243866Y-83109890D01*
X151221339Y-83137339D01*
X151193890Y-83159866D01*
X151162569Y-83176607D01*
X151128591Y-83186915D01*
X151087110Y-83191000D01*
X150410890Y-83191000D01*
X150369409Y-83186915D01*
X150335431Y-83176607D01*
X150304110Y-83159866D01*
X150276661Y-83137339D01*
X150254134Y-83109890D01*
X150237393Y-83078569D01*
X150227085Y-83044591D01*
X150223000Y-83003110D01*
X150223000Y-82401890D01*
X150227085Y-82360409D01*
X150237393Y-82326431D01*
X150254134Y-82295110D01*
X150276661Y-82267661D01*
X150304110Y-82245134D01*
X150335431Y-82228393D01*
X150369409Y-82218085D01*
X150410890Y-82214000D01*
X151087110Y-82214000D01*
X151128591Y-82218085D01*
G37*
G36*
X153033591Y-82218085D02*
G01*
X153067569Y-82228393D01*
X153098890Y-82245134D01*
X153126339Y-82267661D01*
X153148866Y-82295110D01*
X153165607Y-82326431D01*
X153175915Y-82360409D01*
X153180000Y-82401890D01*
X153180000Y-83003110D01*
X153175915Y-83044591D01*
X153165607Y-83078569D01*
X153148866Y-83109890D01*
X153126339Y-83137339D01*
X153098890Y-83159866D01*
X153067569Y-83176607D01*
X153033591Y-83186915D01*
X152992110Y-83191000D01*
X152315890Y-83191000D01*
X152274409Y-83186915D01*
X152240431Y-83176607D01*
X152209110Y-83159866D01*
X152181661Y-83137339D01*
X152159134Y-83109890D01*
X152142393Y-83078569D01*
X152132085Y-83044591D01*
X152128000Y-83003110D01*
X152128000Y-82401890D01*
X152132085Y-82360409D01*
X152142393Y-82326431D01*
X152159134Y-82295110D01*
X152181661Y-82267661D01*
X152209110Y-82245134D01*
X152240431Y-82228393D01*
X152274409Y-82218085D01*
X152315890Y-82214000D01*
X152992110Y-82214000D01*
X153033591Y-82218085D01*
G37*
G36*
X153033591Y-80643085D02*
G01*
X153067569Y-80653393D01*
X153098890Y-80670134D01*
X153126339Y-80692661D01*
X153148866Y-80720110D01*
X153165607Y-80751431D01*
X153175915Y-80785409D01*
X153180000Y-80826890D01*
X153180000Y-81428110D01*
X153175915Y-81469591D01*
X153165607Y-81503569D01*
X153148866Y-81534890D01*
X153126339Y-81562339D01*
X153098890Y-81584866D01*
X153067569Y-81601607D01*
X153033591Y-81611915D01*
X152992110Y-81616000D01*
X152315890Y-81616000D01*
X152274409Y-81611915D01*
X152240431Y-81601607D01*
X152209110Y-81584866D01*
X152181661Y-81562339D01*
X152159134Y-81534890D01*
X152142393Y-81503569D01*
X152132085Y-81469591D01*
X152128000Y-81428110D01*
X152128000Y-80826890D01*
X152132085Y-80785409D01*
X152142393Y-80751431D01*
X152159134Y-80720110D01*
X152181661Y-80692661D01*
X152209110Y-80670134D01*
X152240431Y-80653393D01*
X152274409Y-80643085D01*
X152315890Y-80639000D01*
X152992110Y-80639000D01*
X153033591Y-80643085D01*
G37*
G36*
X151128591Y-80643085D02*
G01*
X151162569Y-80653393D01*
X151193890Y-80670134D01*
X151221339Y-80692661D01*
X151243866Y-80720110D01*
X151260607Y-80751431D01*
X151270915Y-80785409D01*
X151275000Y-80826890D01*
X151275000Y-81428110D01*
X151270915Y-81469591D01*
X151260607Y-81503569D01*
X151243866Y-81534890D01*
X151221339Y-81562339D01*
X151193890Y-81584866D01*
X151162569Y-81601607D01*
X151128591Y-81611915D01*
X151087110Y-81616000D01*
X150410890Y-81616000D01*
X150369409Y-81611915D01*
X150335431Y-81601607D01*
X150304110Y-81584866D01*
X150276661Y-81562339D01*
X150254134Y-81534890D01*
X150237393Y-81503569D01*
X150227085Y-81469591D01*
X150223000Y-81428110D01*
X150223000Y-80826890D01*
X150227085Y-80785409D01*
X150237393Y-80751431D01*
X150254134Y-80720110D01*
X150276661Y-80692661D01*
X150304110Y-80670134D01*
X150335431Y-80653393D01*
X150369409Y-80643085D01*
X150410890Y-80639000D01*
X151087110Y-80639000D01*
X151128591Y-80643085D01*
G37*
G36*
X156426000Y-79591000D02*
G01*
X154724000Y-79591000D01*
X154724000Y-77889000D01*
X156426000Y-77889000D01*
X156426000Y-79591000D01*
G37*
G36*
X148203228Y-77921703D02*
G01*
X148358100Y-77985853D01*
X148497481Y-78078985D01*
X148616015Y-78197519D01*
X148709147Y-78336900D01*
X148773297Y-78491772D01*
X148806000Y-78656184D01*
X148806000Y-78823816D01*
X148773297Y-78988228D01*
X148709147Y-79143100D01*
X148616015Y-79282481D01*
X148497481Y-79401015D01*
X148358100Y-79494147D01*
X148203228Y-79558297D01*
X148038816Y-79591000D01*
X147871184Y-79591000D01*
X147706772Y-79558297D01*
X147551900Y-79494147D01*
X147412519Y-79401015D01*
X147293985Y-79282481D01*
X147200853Y-79143100D01*
X147136703Y-78988228D01*
X147104000Y-78823816D01*
X147104000Y-78656184D01*
X147136703Y-78491772D01*
X147200853Y-78336900D01*
X147293985Y-78197519D01*
X147412519Y-78078985D01*
X147551900Y-77985853D01*
X147706772Y-77921703D01*
X147871184Y-77889000D01*
X148038816Y-77889000D01*
X148203228Y-77921703D01*
G37*
G36*
X150743228Y-77921703D02*
G01*
X150898100Y-77985853D01*
X151037481Y-78078985D01*
X151156015Y-78197519D01*
X151249147Y-78336900D01*
X151313297Y-78491772D01*
X151346000Y-78656184D01*
X151346000Y-78823816D01*
X151313297Y-78988228D01*
X151249147Y-79143100D01*
X151156015Y-79282481D01*
X151037481Y-79401015D01*
X150898100Y-79494147D01*
X150743228Y-79558297D01*
X150578816Y-79591000D01*
X150411184Y-79591000D01*
X150246772Y-79558297D01*
X150091900Y-79494147D01*
X149952519Y-79401015D01*
X149833985Y-79282481D01*
X149740853Y-79143100D01*
X149676703Y-78988228D01*
X149644000Y-78823816D01*
X149644000Y-78656184D01*
X149676703Y-78491772D01*
X149740853Y-78336900D01*
X149833985Y-78197519D01*
X149952519Y-78078985D01*
X150091900Y-77985853D01*
X150246772Y-77921703D01*
X150411184Y-77889000D01*
X150578816Y-77889000D01*
X150743228Y-77921703D01*
G37*
G36*
X132963228Y-77921703D02*
G01*
X133118100Y-77985853D01*
X133257481Y-78078985D01*
X133376015Y-78197519D01*
X133469147Y-78336900D01*
X133533297Y-78491772D01*
X133566000Y-78656184D01*
X133566000Y-78823816D01*
X133533297Y-78988228D01*
X133469147Y-79143100D01*
X133376015Y-79282481D01*
X133257481Y-79401015D01*
X133118100Y-79494147D01*
X132963228Y-79558297D01*
X132798816Y-79591000D01*
X132631184Y-79591000D01*
X132466772Y-79558297D01*
X132311900Y-79494147D01*
X132172519Y-79401015D01*
X132053985Y-79282481D01*
X131960853Y-79143100D01*
X131896703Y-78988228D01*
X131864000Y-78823816D01*
X131864000Y-78656184D01*
X131896703Y-78491772D01*
X131960853Y-78336900D01*
X132053985Y-78197519D01*
X132172519Y-78078985D01*
X132311900Y-77985853D01*
X132466772Y-77921703D01*
X132631184Y-77889000D01*
X132798816Y-77889000D01*
X132963228Y-77921703D01*
G37*
G36*
X145663228Y-77921703D02*
G01*
X145818100Y-77985853D01*
X145957481Y-78078985D01*
X146076015Y-78197519D01*
X146169147Y-78336900D01*
X146233297Y-78491772D01*
X146266000Y-78656184D01*
X146266000Y-78823816D01*
X146233297Y-78988228D01*
X146169147Y-79143100D01*
X146076015Y-79282481D01*
X145957481Y-79401015D01*
X145818100Y-79494147D01*
X145663228Y-79558297D01*
X145498816Y-79591000D01*
X145331184Y-79591000D01*
X145166772Y-79558297D01*
X145011900Y-79494147D01*
X144872519Y-79401015D01*
X144753985Y-79282481D01*
X144660853Y-79143100D01*
X144596703Y-78988228D01*
X144564000Y-78823816D01*
X144564000Y-78656184D01*
X144596703Y-78491772D01*
X144660853Y-78336900D01*
X144753985Y-78197519D01*
X144872519Y-78078985D01*
X145011900Y-77985853D01*
X145166772Y-77921703D01*
X145331184Y-77889000D01*
X145498816Y-77889000D01*
X145663228Y-77921703D01*
G37*
G36*
X130423228Y-77921703D02*
G01*
X130578100Y-77985853D01*
X130717481Y-78078985D01*
X130836015Y-78197519D01*
X130929147Y-78336900D01*
X130993297Y-78491772D01*
X131026000Y-78656184D01*
X131026000Y-78823816D01*
X130993297Y-78988228D01*
X130929147Y-79143100D01*
X130836015Y-79282481D01*
X130717481Y-79401015D01*
X130578100Y-79494147D01*
X130423228Y-79558297D01*
X130258816Y-79591000D01*
X130091184Y-79591000D01*
X129926772Y-79558297D01*
X129771900Y-79494147D01*
X129632519Y-79401015D01*
X129513985Y-79282481D01*
X129420853Y-79143100D01*
X129356703Y-78988228D01*
X129324000Y-78823816D01*
X129324000Y-78656184D01*
X129356703Y-78491772D01*
X129420853Y-78336900D01*
X129513985Y-78197519D01*
X129632519Y-78078985D01*
X129771900Y-77985853D01*
X129926772Y-77921703D01*
X130091184Y-77889000D01*
X130258816Y-77889000D01*
X130423228Y-77921703D01*
G37*
G36*
X143123228Y-77921703D02*
G01*
X143278100Y-77985853D01*
X143417481Y-78078985D01*
X143536015Y-78197519D01*
X143629147Y-78336900D01*
X143693297Y-78491772D01*
X143726000Y-78656184D01*
X143726000Y-78823816D01*
X143693297Y-78988228D01*
X143629147Y-79143100D01*
X143536015Y-79282481D01*
X143417481Y-79401015D01*
X143278100Y-79494147D01*
X143123228Y-79558297D01*
X142958816Y-79591000D01*
X142791184Y-79591000D01*
X142626772Y-79558297D01*
X142471900Y-79494147D01*
X142332519Y-79401015D01*
X142213985Y-79282481D01*
X142120853Y-79143100D01*
X142056703Y-78988228D01*
X142024000Y-78823816D01*
X142024000Y-78656184D01*
X142056703Y-78491772D01*
X142120853Y-78336900D01*
X142213985Y-78197519D01*
X142332519Y-78078985D01*
X142471900Y-77985853D01*
X142626772Y-77921703D01*
X142791184Y-77889000D01*
X142958816Y-77889000D01*
X143123228Y-77921703D01*
G37*
G36*
X153283228Y-77921703D02*
G01*
X153438100Y-77985853D01*
X153577481Y-78078985D01*
X153696015Y-78197519D01*
X153789147Y-78336900D01*
X153853297Y-78491772D01*
X153886000Y-78656184D01*
X153886000Y-78823816D01*
X153853297Y-78988228D01*
X153789147Y-79143100D01*
X153696015Y-79282481D01*
X153577481Y-79401015D01*
X153438100Y-79494147D01*
X153283228Y-79558297D01*
X153118816Y-79591000D01*
X152951184Y-79591000D01*
X152786772Y-79558297D01*
X152631900Y-79494147D01*
X152492519Y-79401015D01*
X152373985Y-79282481D01*
X152280853Y-79143100D01*
X152216703Y-78988228D01*
X152184000Y-78823816D01*
X152184000Y-78656184D01*
X152216703Y-78491772D01*
X152280853Y-78336900D01*
X152373985Y-78197519D01*
X152492519Y-78078985D01*
X152631900Y-77985853D01*
X152786772Y-77921703D01*
X152951184Y-77889000D01*
X153118816Y-77889000D01*
X153283228Y-77921703D01*
G37*
G36*
X138043228Y-77921703D02*
G01*
X138198100Y-77985853D01*
X138337481Y-78078985D01*
X138456015Y-78197519D01*
X138549147Y-78336900D01*
X138613297Y-78491772D01*
X138646000Y-78656184D01*
X138646000Y-78823816D01*
X138613297Y-78988228D01*
X138549147Y-79143100D01*
X138456015Y-79282481D01*
X138337481Y-79401015D01*
X138198100Y-79494147D01*
X138043228Y-79558297D01*
X137878816Y-79591000D01*
X137711184Y-79591000D01*
X137546772Y-79558297D01*
X137391900Y-79494147D01*
X137252519Y-79401015D01*
X137133985Y-79282481D01*
X137040853Y-79143100D01*
X136976703Y-78988228D01*
X136944000Y-78823816D01*
X136944000Y-78656184D01*
X136976703Y-78491772D01*
X137040853Y-78336900D01*
X137133985Y-78197519D01*
X137252519Y-78078985D01*
X137391900Y-77985853D01*
X137546772Y-77921703D01*
X137711184Y-77889000D01*
X137878816Y-77889000D01*
X138043228Y-77921703D01*
G37*
G36*
X127883228Y-77921703D02*
G01*
X128038100Y-77985853D01*
X128177481Y-78078985D01*
X128296015Y-78197519D01*
X128389147Y-78336900D01*
X128453297Y-78491772D01*
X128486000Y-78656184D01*
X128486000Y-78823816D01*
X128453297Y-78988228D01*
X128389147Y-79143100D01*
X128296015Y-79282481D01*
X128177481Y-79401015D01*
X128038100Y-79494147D01*
X127883228Y-79558297D01*
X127718816Y-79591000D01*
X127551184Y-79591000D01*
X127386772Y-79558297D01*
X127231900Y-79494147D01*
X127092519Y-79401015D01*
X126973985Y-79282481D01*
X126880853Y-79143100D01*
X126816703Y-78988228D01*
X126784000Y-78823816D01*
X126784000Y-78656184D01*
X126816703Y-78491772D01*
X126880853Y-78336900D01*
X126973985Y-78197519D01*
X127092519Y-78078985D01*
X127231900Y-77985853D01*
X127386772Y-77921703D01*
X127551184Y-77889000D01*
X127718816Y-77889000D01*
X127883228Y-77921703D01*
G37*
G36*
X140583228Y-77921703D02*
G01*
X140738100Y-77985853D01*
X140877481Y-78078985D01*
X140996015Y-78197519D01*
X141089147Y-78336900D01*
X141153297Y-78491772D01*
X141186000Y-78656184D01*
X141186000Y-78823816D01*
X141153297Y-78988228D01*
X141089147Y-79143100D01*
X140996015Y-79282481D01*
X140877481Y-79401015D01*
X140738100Y-79494147D01*
X140583228Y-79558297D01*
X140418816Y-79591000D01*
X140251184Y-79591000D01*
X140086772Y-79558297D01*
X139931900Y-79494147D01*
X139792519Y-79401015D01*
X139673985Y-79282481D01*
X139580853Y-79143100D01*
X139516703Y-78988228D01*
X139484000Y-78823816D01*
X139484000Y-78656184D01*
X139516703Y-78491772D01*
X139580853Y-78336900D01*
X139673985Y-78197519D01*
X139792519Y-78078985D01*
X139931900Y-77985853D01*
X140086772Y-77921703D01*
X140251184Y-77889000D01*
X140418816Y-77889000D01*
X140583228Y-77921703D01*
G37*
G36*
X135503228Y-77921703D02*
G01*
X135658100Y-77985853D01*
X135797481Y-78078985D01*
X135916015Y-78197519D01*
X136009147Y-78336900D01*
X136073297Y-78491772D01*
X136106000Y-78656184D01*
X136106000Y-78823816D01*
X136073297Y-78988228D01*
X136009147Y-79143100D01*
X135916015Y-79282481D01*
X135797481Y-79401015D01*
X135658100Y-79494147D01*
X135503228Y-79558297D01*
X135338816Y-79591000D01*
X135171184Y-79591000D01*
X135006772Y-79558297D01*
X134851900Y-79494147D01*
X134712519Y-79401015D01*
X134593985Y-79282481D01*
X134500853Y-79143100D01*
X134436703Y-78988228D01*
X134404000Y-78823816D01*
X134404000Y-78656184D01*
X134436703Y-78491772D01*
X134500853Y-78336900D01*
X134593985Y-78197519D01*
X134712519Y-78078985D01*
X134851900Y-77985853D01*
X135006772Y-77921703D01*
X135171184Y-77889000D01*
X135338816Y-77889000D01*
X135503228Y-77921703D01*
G37*
G36*
X155954591Y-75868085D02*
G01*
X155988569Y-75878393D01*
X156019890Y-75895134D01*
X156047339Y-75917661D01*
X156069866Y-75945110D01*
X156086607Y-75976431D01*
X156096915Y-76010409D01*
X156101000Y-76051890D01*
X156101000Y-76653110D01*
X156096915Y-76694591D01*
X156086607Y-76728569D01*
X156069866Y-76759890D01*
X156047339Y-76787339D01*
X156019890Y-76809866D01*
X155988569Y-76826607D01*
X155954591Y-76836915D01*
X155913110Y-76841000D01*
X155236890Y-76841000D01*
X155195409Y-76836915D01*
X155161431Y-76826607D01*
X155130110Y-76809866D01*
X155102661Y-76787339D01*
X155080134Y-76759890D01*
X155063393Y-76728569D01*
X155053085Y-76694591D01*
X155049000Y-76653110D01*
X155049000Y-76051890D01*
X155053085Y-76010409D01*
X155063393Y-75976431D01*
X155080134Y-75945110D01*
X155102661Y-75917661D01*
X155130110Y-75895134D01*
X155161431Y-75878393D01*
X155195409Y-75868085D01*
X155236890Y-75864000D01*
X155913110Y-75864000D01*
X155954591Y-75868085D01*
G37*
G36*
X155954591Y-74293085D02*
G01*
X155988569Y-74303393D01*
X156019890Y-74320134D01*
X156047339Y-74342661D01*
X156069866Y-74370110D01*
X156086607Y-74401431D01*
X156096915Y-74435409D01*
X156101000Y-74476890D01*
X156101000Y-75078110D01*
X156096915Y-75119591D01*
X156086607Y-75153569D01*
X156069866Y-75184890D01*
X156047339Y-75212339D01*
X156019890Y-75234866D01*
X155988569Y-75251607D01*
X155954591Y-75261915D01*
X155913110Y-75266000D01*
X155236890Y-75266000D01*
X155195409Y-75261915D01*
X155161431Y-75251607D01*
X155130110Y-75234866D01*
X155102661Y-75212339D01*
X155080134Y-75184890D01*
X155063393Y-75153569D01*
X155053085Y-75119591D01*
X155049000Y-75078110D01*
X155049000Y-74476890D01*
X155053085Y-74435409D01*
X155063393Y-74401431D01*
X155080134Y-74370110D01*
X155102661Y-74342661D01*
X155130110Y-74320134D01*
X155161431Y-74303393D01*
X155195409Y-74293085D01*
X155236890Y-74289000D01*
X155913110Y-74289000D01*
X155954591Y-74293085D01*
G37*
G36*
X149996000Y-75061000D02*
G01*
X148994000Y-75061000D01*
X148994000Y-74159000D01*
X149996000Y-74159000D01*
X149996000Y-75061000D01*
G37*
G36*
X151996000Y-74111000D02*
G01*
X150994000Y-74111000D01*
X150994000Y-73209000D01*
X151996000Y-73209000D01*
X151996000Y-74111000D01*
G37*
G36*
X149996000Y-73161000D02*
G01*
X148994000Y-73161000D01*
X148994000Y-72259000D01*
X149996000Y-72259000D01*
X149996000Y-73161000D01*
G37*
G36*
X153414591Y-72058085D02*
G01*
X153448569Y-72068393D01*
X153479890Y-72085134D01*
X153507339Y-72107661D01*
X153529866Y-72135110D01*
X153546607Y-72166431D01*
X153556915Y-72200409D01*
X153561000Y-72241890D01*
X153561000Y-72843110D01*
X153556915Y-72884591D01*
X153546607Y-72918569D01*
X153529866Y-72949890D01*
X153507339Y-72977339D01*
X153479890Y-72999866D01*
X153448569Y-73016607D01*
X153414591Y-73026915D01*
X153373110Y-73031000D01*
X152696890Y-73031000D01*
X152655409Y-73026915D01*
X152621431Y-73016607D01*
X152590110Y-72999866D01*
X152562661Y-72977339D01*
X152540134Y-72949890D01*
X152523393Y-72918569D01*
X152513085Y-72884591D01*
X152509000Y-72843110D01*
X152509000Y-72241890D01*
X152513085Y-72200409D01*
X152523393Y-72166431D01*
X152540134Y-72135110D01*
X152562661Y-72107661D01*
X152590110Y-72085134D01*
X152621431Y-72068393D01*
X152655409Y-72058085D01*
X152696890Y-72054000D01*
X153373110Y-72054000D01*
X153414591Y-72058085D01*
G37*
G36*
X148144591Y-70598085D02*
G01*
X148178569Y-70608393D01*
X148209890Y-70625134D01*
X148237339Y-70647661D01*
X148259866Y-70675110D01*
X148276607Y-70706431D01*
X148286915Y-70740409D01*
X148291000Y-70781890D01*
X148291000Y-71458110D01*
X148286915Y-71499591D01*
X148276607Y-71533569D01*
X148259866Y-71564890D01*
X148237339Y-71592339D01*
X148209890Y-71614866D01*
X148178569Y-71631607D01*
X148144591Y-71641915D01*
X148103110Y-71646000D01*
X147501890Y-71646000D01*
X147460409Y-71641915D01*
X147426431Y-71631607D01*
X147395110Y-71614866D01*
X147367661Y-71592339D01*
X147345134Y-71564890D01*
X147328393Y-71533569D01*
X147318085Y-71499591D01*
X147314000Y-71458110D01*
X147314000Y-70781890D01*
X147318085Y-70740409D01*
X147328393Y-70706431D01*
X147345134Y-70675110D01*
X147367661Y-70647661D01*
X147395110Y-70625134D01*
X147426431Y-70608393D01*
X147460409Y-70598085D01*
X147501890Y-70594000D01*
X148103110Y-70594000D01*
X148144591Y-70598085D01*
G37*
G36*
X149719591Y-70598085D02*
G01*
X149753569Y-70608393D01*
X149784890Y-70625134D01*
X149812339Y-70647661D01*
X149834866Y-70675110D01*
X149851607Y-70706431D01*
X149861915Y-70740409D01*
X149866000Y-70781890D01*
X149866000Y-71458110D01*
X149861915Y-71499591D01*
X149851607Y-71533569D01*
X149834866Y-71564890D01*
X149812339Y-71592339D01*
X149784890Y-71614866D01*
X149753569Y-71631607D01*
X149719591Y-71641915D01*
X149678110Y-71646000D01*
X149076890Y-71646000D01*
X149035409Y-71641915D01*
X149001431Y-71631607D01*
X148970110Y-71614866D01*
X148942661Y-71592339D01*
X148920134Y-71564890D01*
X148903393Y-71533569D01*
X148893085Y-71499591D01*
X148889000Y-71458110D01*
X148889000Y-70781890D01*
X148893085Y-70740409D01*
X148903393Y-70706431D01*
X148920134Y-70675110D01*
X148942661Y-70647661D01*
X148970110Y-70625134D01*
X149001431Y-70608393D01*
X149035409Y-70598085D01*
X149076890Y-70594000D01*
X149678110Y-70594000D01*
X149719591Y-70598085D01*
G37*
G36*
X153414591Y-70483085D02*
G01*
X153448569Y-70493393D01*
X153479890Y-70510134D01*
X153507339Y-70532661D01*
X153529866Y-70560110D01*
X153546607Y-70591431D01*
X153556915Y-70625409D01*
X153561000Y-70666890D01*
X153561000Y-71268110D01*
X153556915Y-71309591D01*
X153546607Y-71343569D01*
X153529866Y-71374890D01*
X153507339Y-71402339D01*
X153479890Y-71424866D01*
X153448569Y-71441607D01*
X153414591Y-71451915D01*
X153373110Y-71456000D01*
X152696890Y-71456000D01*
X152655409Y-71451915D01*
X152621431Y-71441607D01*
X152590110Y-71424866D01*
X152562661Y-71402339D01*
X152540134Y-71374890D01*
X152523393Y-71343569D01*
X152513085Y-71309591D01*
X152509000Y-71268110D01*
X152509000Y-70666890D01*
X152513085Y-70625409D01*
X152523393Y-70591431D01*
X152540134Y-70560110D01*
X152562661Y-70532661D01*
X152590110Y-70510134D01*
X152621431Y-70493393D01*
X152655409Y-70483085D01*
X152696890Y-70479000D01*
X153373110Y-70479000D01*
X153414591Y-70483085D01*
G37*
G36*
X153283228Y-67761703D02*
G01*
X153438100Y-67825853D01*
X153577481Y-67918985D01*
X153696015Y-68037519D01*
X153789147Y-68176900D01*
X153853297Y-68331772D01*
X153886000Y-68496184D01*
X153886000Y-68663816D01*
X153853297Y-68828228D01*
X153789147Y-68983100D01*
X153696015Y-69122481D01*
X153577481Y-69241015D01*
X153438100Y-69334147D01*
X153283228Y-69398297D01*
X153118816Y-69431000D01*
X152951184Y-69431000D01*
X152786772Y-69398297D01*
X152631900Y-69334147D01*
X152492519Y-69241015D01*
X152373985Y-69122481D01*
X152280853Y-68983100D01*
X152216703Y-68828228D01*
X152184000Y-68663816D01*
X152184000Y-68496184D01*
X152216703Y-68331772D01*
X152280853Y-68176900D01*
X152373985Y-68037519D01*
X152492519Y-67918985D01*
X152631900Y-67825853D01*
X152786772Y-67761703D01*
X152951184Y-67729000D01*
X153118816Y-67729000D01*
X153283228Y-67761703D01*
G37*
G36*
X155823228Y-67761703D02*
G01*
X155978100Y-67825853D01*
X156117481Y-67918985D01*
X156236015Y-68037519D01*
X156329147Y-68176900D01*
X156393297Y-68331772D01*
X156426000Y-68496184D01*
X156426000Y-68663816D01*
X156393297Y-68828228D01*
X156329147Y-68983100D01*
X156236015Y-69122481D01*
X156117481Y-69241015D01*
X155978100Y-69334147D01*
X155823228Y-69398297D01*
X155658816Y-69431000D01*
X155491184Y-69431000D01*
X155326772Y-69398297D01*
X155171900Y-69334147D01*
X155032519Y-69241015D01*
X154913985Y-69122481D01*
X154820853Y-68983100D01*
X154756703Y-68828228D01*
X154724000Y-68663816D01*
X154724000Y-68496184D01*
X154756703Y-68331772D01*
X154820853Y-68176900D01*
X154913985Y-68037519D01*
X155032519Y-67918985D01*
X155171900Y-67825853D01*
X155326772Y-67761703D01*
X155491184Y-67729000D01*
X155658816Y-67729000D01*
X155823228Y-67761703D01*
G37*
G36*
X150743228Y-67761703D02*
G01*
X150898100Y-67825853D01*
X151037481Y-67918985D01*
X151156015Y-68037519D01*
X151249147Y-68176900D01*
X151313297Y-68331772D01*
X151346000Y-68496184D01*
X151346000Y-68663816D01*
X151313297Y-68828228D01*
X151249147Y-68983100D01*
X151156015Y-69122481D01*
X151037481Y-69241015D01*
X150898100Y-69334147D01*
X150743228Y-69398297D01*
X150578816Y-69431000D01*
X150411184Y-69431000D01*
X150246772Y-69398297D01*
X150091900Y-69334147D01*
X149952519Y-69241015D01*
X149833985Y-69122481D01*
X149740853Y-68983100D01*
X149676703Y-68828228D01*
X149644000Y-68663816D01*
X149644000Y-68496184D01*
X149676703Y-68331772D01*
X149740853Y-68176900D01*
X149833985Y-68037519D01*
X149952519Y-67918985D01*
X150091900Y-67825853D01*
X150246772Y-67761703D01*
X150411184Y-67729000D01*
X150578816Y-67729000D01*
X150743228Y-67761703D01*
G37*
G36*
X148203228Y-67761703D02*
G01*
X148358100Y-67825853D01*
X148497481Y-67918985D01*
X148616015Y-68037519D01*
X148709147Y-68176900D01*
X148773297Y-68331772D01*
X148806000Y-68496184D01*
X148806000Y-68663816D01*
X148773297Y-68828228D01*
X148709147Y-68983100D01*
X148616015Y-69122481D01*
X148497481Y-69241015D01*
X148358100Y-69334147D01*
X148203228Y-69398297D01*
X148038816Y-69431000D01*
X147871184Y-69431000D01*
X147706772Y-69398297D01*
X147551900Y-69334147D01*
X147412519Y-69241015D01*
X147293985Y-69122481D01*
X147200853Y-68983100D01*
X147136703Y-68828228D01*
X147104000Y-68663816D01*
X147104000Y-68496184D01*
X147136703Y-68331772D01*
X147200853Y-68176900D01*
X147293985Y-68037519D01*
X147412519Y-67918985D01*
X147551900Y-67825853D01*
X147706772Y-67761703D01*
X147871184Y-67729000D01*
X148038816Y-67729000D01*
X148203228Y-67761703D01*
G37*
G36*
X145663228Y-67761703D02*
G01*
X145818100Y-67825853D01*
X145957481Y-67918985D01*
X146076015Y-68037519D01*
X146169147Y-68176900D01*
X146233297Y-68331772D01*
X146266000Y-68496184D01*
X146266000Y-68663816D01*
X146233297Y-68828228D01*
X146169147Y-68983100D01*
X146076015Y-69122481D01*
X145957481Y-69241015D01*
X145818100Y-69334147D01*
X145663228Y-69398297D01*
X145498816Y-69431000D01*
X145331184Y-69431000D01*
X145166772Y-69398297D01*
X145011900Y-69334147D01*
X144872519Y-69241015D01*
X144753985Y-69122481D01*
X144660853Y-68983100D01*
X144596703Y-68828228D01*
X144564000Y-68663816D01*
X144564000Y-68496184D01*
X144596703Y-68331772D01*
X144660853Y-68176900D01*
X144753985Y-68037519D01*
X144872519Y-67918985D01*
X145011900Y-67825853D01*
X145166772Y-67761703D01*
X145331184Y-67729000D01*
X145498816Y-67729000D01*
X145663228Y-67761703D01*
G37*
G36*
X143123228Y-67761703D02*
G01*
X143278100Y-67825853D01*
X143417481Y-67918985D01*
X143536015Y-68037519D01*
X143629147Y-68176900D01*
X143693297Y-68331772D01*
X143726000Y-68496184D01*
X143726000Y-68663816D01*
X143693297Y-68828228D01*
X143629147Y-68983100D01*
X143536015Y-69122481D01*
X143417481Y-69241015D01*
X143278100Y-69334147D01*
X143123228Y-69398297D01*
X142958816Y-69431000D01*
X142791184Y-69431000D01*
X142626772Y-69398297D01*
X142471900Y-69334147D01*
X142332519Y-69241015D01*
X142213985Y-69122481D01*
X142120853Y-68983100D01*
X142056703Y-68828228D01*
X142024000Y-68663816D01*
X142024000Y-68496184D01*
X142056703Y-68331772D01*
X142120853Y-68176900D01*
X142213985Y-68037519D01*
X142332519Y-67918985D01*
X142471900Y-67825853D01*
X142626772Y-67761703D01*
X142791184Y-67729000D01*
X142958816Y-67729000D01*
X143123228Y-67761703D01*
G37*
G36*
X140583228Y-67761703D02*
G01*
X140738100Y-67825853D01*
X140877481Y-67918985D01*
X140996015Y-68037519D01*
X141089147Y-68176900D01*
X141153297Y-68331772D01*
X141186000Y-68496184D01*
X141186000Y-68663816D01*
X141153297Y-68828228D01*
X141089147Y-68983100D01*
X140996015Y-69122481D01*
X140877481Y-69241015D01*
X140738100Y-69334147D01*
X140583228Y-69398297D01*
X140418816Y-69431000D01*
X140251184Y-69431000D01*
X140086772Y-69398297D01*
X139931900Y-69334147D01*
X139792519Y-69241015D01*
X139673985Y-69122481D01*
X139580853Y-68983100D01*
X139516703Y-68828228D01*
X139484000Y-68663816D01*
X139484000Y-68496184D01*
X139516703Y-68331772D01*
X139580853Y-68176900D01*
X139673985Y-68037519D01*
X139792519Y-67918985D01*
X139931900Y-67825853D01*
X140086772Y-67761703D01*
X140251184Y-67729000D01*
X140418816Y-67729000D01*
X140583228Y-67761703D01*
G37*
G36*
X138043228Y-67761703D02*
G01*
X138198100Y-67825853D01*
X138337481Y-67918985D01*
X138456015Y-68037519D01*
X138549147Y-68176900D01*
X138613297Y-68331772D01*
X138646000Y-68496184D01*
X138646000Y-68663816D01*
X138613297Y-68828228D01*
X138549147Y-68983100D01*
X138456015Y-69122481D01*
X138337481Y-69241015D01*
X138198100Y-69334147D01*
X138043228Y-69398297D01*
X137878816Y-69431000D01*
X137711184Y-69431000D01*
X137546772Y-69398297D01*
X137391900Y-69334147D01*
X137252519Y-69241015D01*
X137133985Y-69122481D01*
X137040853Y-68983100D01*
X136976703Y-68828228D01*
X136944000Y-68663816D01*
X136944000Y-68496184D01*
X136976703Y-68331772D01*
X137040853Y-68176900D01*
X137133985Y-68037519D01*
X137252519Y-67918985D01*
X137391900Y-67825853D01*
X137546772Y-67761703D01*
X137711184Y-67729000D01*
X137878816Y-67729000D01*
X138043228Y-67761703D01*
G37*
G36*
X135503228Y-67761703D02*
G01*
X135658100Y-67825853D01*
X135797481Y-67918985D01*
X135916015Y-68037519D01*
X136009147Y-68176900D01*
X136073297Y-68331772D01*
X136106000Y-68496184D01*
X136106000Y-68663816D01*
X136073297Y-68828228D01*
X136009147Y-68983100D01*
X135916015Y-69122481D01*
X135797481Y-69241015D01*
X135658100Y-69334147D01*
X135503228Y-69398297D01*
X135338816Y-69431000D01*
X135171184Y-69431000D01*
X135006772Y-69398297D01*
X134851900Y-69334147D01*
X134712519Y-69241015D01*
X134593985Y-69122481D01*
X134500853Y-68983100D01*
X134436703Y-68828228D01*
X134404000Y-68663816D01*
X134404000Y-68496184D01*
X134436703Y-68331772D01*
X134500853Y-68176900D01*
X134593985Y-68037519D01*
X134712519Y-67918985D01*
X134851900Y-67825853D01*
X135006772Y-67761703D01*
X135171184Y-67729000D01*
X135338816Y-67729000D01*
X135503228Y-67761703D01*
G37*
G36*
X132963228Y-67761703D02*
G01*
X133118100Y-67825853D01*
X133257481Y-67918985D01*
X133376015Y-68037519D01*
X133469147Y-68176900D01*
X133533297Y-68331772D01*
X133566000Y-68496184D01*
X133566000Y-68663816D01*
X133533297Y-68828228D01*
X133469147Y-68983100D01*
X133376015Y-69122481D01*
X133257481Y-69241015D01*
X133118100Y-69334147D01*
X132963228Y-69398297D01*
X132798816Y-69431000D01*
X132631184Y-69431000D01*
X132466772Y-69398297D01*
X132311900Y-69334147D01*
X132172519Y-69241015D01*
X132053985Y-69122481D01*
X131960853Y-68983100D01*
X131896703Y-68828228D01*
X131864000Y-68663816D01*
X131864000Y-68496184D01*
X131896703Y-68331772D01*
X131960853Y-68176900D01*
X132053985Y-68037519D01*
X132172519Y-67918985D01*
X132311900Y-67825853D01*
X132466772Y-67761703D01*
X132631184Y-67729000D01*
X132798816Y-67729000D01*
X132963228Y-67761703D01*
G37*
G36*
X130423228Y-67761703D02*
G01*
X130578100Y-67825853D01*
X130717481Y-67918985D01*
X130836015Y-68037519D01*
X130929147Y-68176900D01*
X130993297Y-68331772D01*
X131026000Y-68496184D01*
X131026000Y-68663816D01*
X130993297Y-68828228D01*
X130929147Y-68983100D01*
X130836015Y-69122481D01*
X130717481Y-69241015D01*
X130578100Y-69334147D01*
X130423228Y-69398297D01*
X130258816Y-69431000D01*
X130091184Y-69431000D01*
X129926772Y-69398297D01*
X129771900Y-69334147D01*
X129632519Y-69241015D01*
X129513985Y-69122481D01*
X129420853Y-68983100D01*
X129356703Y-68828228D01*
X129324000Y-68663816D01*
X129324000Y-68496184D01*
X129356703Y-68331772D01*
X129420853Y-68176900D01*
X129513985Y-68037519D01*
X129632519Y-67918985D01*
X129771900Y-67825853D01*
X129926772Y-67761703D01*
X130091184Y-67729000D01*
X130258816Y-67729000D01*
X130423228Y-67761703D01*
G37*
G36*
X127883228Y-67761703D02*
G01*
X128038100Y-67825853D01*
X128177481Y-67918985D01*
X128296015Y-68037519D01*
X128389147Y-68176900D01*
X128453297Y-68331772D01*
X128486000Y-68496184D01*
X128486000Y-68663816D01*
X128453297Y-68828228D01*
X128389147Y-68983100D01*
X128296015Y-69122481D01*
X128177481Y-69241015D01*
X128038100Y-69334147D01*
X127883228Y-69398297D01*
X127718816Y-69431000D01*
X127551184Y-69431000D01*
X127386772Y-69398297D01*
X127231900Y-69334147D01*
X127092519Y-69241015D01*
X126973985Y-69122481D01*
X126880853Y-68983100D01*
X126816703Y-68828228D01*
X126784000Y-68663816D01*
X126784000Y-68496184D01*
X126816703Y-68331772D01*
X126880853Y-68176900D01*
X126973985Y-68037519D01*
X127092519Y-67918985D01*
X127231900Y-67825853D01*
X127386772Y-67761703D01*
X127551184Y-67729000D01*
X127718816Y-67729000D01*
X127883228Y-67761703D01*
G37*
G36*
X163419549Y-62371116D02*
G01*
X163530734Y-62393232D01*
X163740203Y-62479997D01*
X163928720Y-62605960D01*
X164089040Y-62766280D01*
X164215003Y-62954797D01*
X164301768Y-63164266D01*
X164346000Y-63386636D01*
X164346000Y-63613364D01*
X164301768Y-63835734D01*
X164215003Y-64045203D01*
X164089040Y-64233720D01*
X163928720Y-64394040D01*
X163740203Y-64520003D01*
X163530734Y-64606768D01*
X163419549Y-64628884D01*
X163308365Y-64651000D01*
X163081635Y-64651000D01*
X162970451Y-64628884D01*
X162859266Y-64606768D01*
X162649797Y-64520003D01*
X162461280Y-64394040D01*
X162300960Y-64233720D01*
X162174997Y-64045203D01*
X162088232Y-63835734D01*
X162044000Y-63613364D01*
X162044000Y-63386636D01*
X162088232Y-63164266D01*
X162174997Y-62954797D01*
X162300960Y-62766280D01*
X162461280Y-62605960D01*
X162649797Y-62479997D01*
X162859266Y-62393232D01*
X162970451Y-62371116D01*
X163081635Y-62349000D01*
X163308365Y-62349000D01*
X163419549Y-62371116D01*
G37*
G36*
X120239549Y-62371116D02*
G01*
X120350734Y-62393232D01*
X120560203Y-62479997D01*
X120748720Y-62605960D01*
X120909040Y-62766280D01*
X121035003Y-62954797D01*
X121121768Y-63164266D01*
X121166000Y-63386636D01*
X121166000Y-63613364D01*
X121121768Y-63835734D01*
X121035003Y-64045203D01*
X120909040Y-64233720D01*
X120748720Y-64394040D01*
X120560203Y-64520003D01*
X120350734Y-64606768D01*
X120239549Y-64628884D01*
X120128365Y-64651000D01*
X119901635Y-64651000D01*
X119790451Y-64628884D01*
X119679266Y-64606768D01*
X119469797Y-64520003D01*
X119281280Y-64394040D01*
X119120960Y-64233720D01*
X118994997Y-64045203D01*
X118908232Y-63835734D01*
X118864000Y-63613364D01*
X118864000Y-63386636D01*
X118908232Y-63164266D01*
X118994997Y-62954797D01*
X119120960Y-62766280D01*
X119281280Y-62605960D01*
X119469797Y-62479997D01*
X119679266Y-62393232D01*
X119790451Y-62371116D01*
X119901635Y-62349000D01*
X120128365Y-62349000D01*
X120239549Y-62371116D01*
G37*
M02*
