M48
; DRILL file {KiCad 5.1.5-52549c5~84~ubuntu18.04.1} date Sun 22 Mar 2020 11:19:35 PM EDT
; FORMAT={-:-/ absolute / inch / decimal}
; #@! TF.CreationDate,2020-03-22T23:19:35-04:00
; #@! TF.GenerationSoftware,Kicad,Pcbnew,5.1.5-52549c5~84~ubuntu18.04.1
; #@! TF.FileFunction,Plated,1,2,PTH
FMAT,2
INCH
T1C0.0157
T2C0.0315
%
G90
G05
T1
X5.18Y-3.82
X5.28Y-3.83
X5.3Y-3.56
X5.4Y-3.8029
X5.4Y-3.86
X5.42Y-3.56
X5.54Y-3.94
X5.55Y-3.7744
X5.58Y-3.56
X5.66Y-3.73
X5.7Y-3.92
X5.83Y-3.92
X5.92Y-3.9692
X5.97Y-3.86
X6.02Y-3.9915
X6.07Y-3.86
X6.12Y-3.98
X6.17Y-3.86
X6.19Y-2.94
T2
X5.025Y-2.7
X5.025Y-3.1
X5.125Y-2.7
X5.125Y-3.1
X5.225Y-2.7
X5.225Y-3.1
X5.325Y-2.7
X5.325Y-3.1
X5.425Y-2.7
X5.425Y-3.1
X5.525Y-2.7
X5.525Y-3.1
X5.625Y-2.7
X5.625Y-3.1
X5.725Y-2.7
X5.725Y-3.1
X5.825Y-2.7
X5.825Y-3.1
X5.925Y-2.7
X5.925Y-3.1
X6.025Y-2.7
X6.025Y-3.1
X6.125Y-2.7
X6.125Y-3.1
X4.9Y-3.475
X4.9Y-4.075
X5.0Y-3.475
X5.0Y-4.075
X5.1Y-3.475
X5.1Y-4.075
X5.2Y-3.475
X5.2Y-4.075
X5.3Y-3.475
X5.3Y-4.075
X5.4Y-3.475
X5.4Y-4.075
X5.5Y-3.475
X5.5Y-4.075
X5.6Y-3.475
X5.6Y-4.075
X5.7Y-3.475
X5.7Y-4.075
X5.8Y-3.475
X5.8Y-4.075
X5.9Y-3.475
X5.9Y-4.075
X6.0Y-3.475
X6.0Y-4.075
X6.1Y-3.475
X6.1Y-4.075
X6.2Y-3.475
X6.2Y-4.075
T0
M30
