G04 #@! TF.GenerationSoftware,KiCad,Pcbnew,5.1.5-52549c5~84~ubuntu18.04.1*
G04 #@! TF.CreationDate,2020-03-22T23:19:32-04:00*
G04 #@! TF.ProjectId,tcd1304_v1,74636431-3330-4345-9f76-312e6b696361,rev?*
G04 #@! TF.SameCoordinates,Original*
G04 #@! TF.FileFunction,Soldermask,Bot*
G04 #@! TF.FilePolarity,Negative*
%FSLAX46Y46*%
G04 Gerber Fmt 4.6, Leading zero omitted, Abs format (unit mm)*
G04 Created by KiCad (PCBNEW 5.1.5-52549c5~84~ubuntu18.04.1) date 2020-03-22 23:19:32*
%MOMM*%
%LPD*%
G04 APERTURE LIST*
%ADD10C,0.100000*%
G04 APERTURE END LIST*
D10*
G36*
X157728228Y-102686703D02*
G01*
X157883100Y-102750853D01*
X158022481Y-102843985D01*
X158141015Y-102962519D01*
X158234147Y-103101900D01*
X158298297Y-103256772D01*
X158331000Y-103421184D01*
X158331000Y-103588816D01*
X158298297Y-103753228D01*
X158234147Y-103908100D01*
X158141015Y-104047481D01*
X158022481Y-104166015D01*
X157883100Y-104259147D01*
X157728228Y-104323297D01*
X157563816Y-104356000D01*
X157396184Y-104356000D01*
X157231772Y-104323297D01*
X157076900Y-104259147D01*
X156937519Y-104166015D01*
X156818985Y-104047481D01*
X156725853Y-103908100D01*
X156661703Y-103753228D01*
X156629000Y-103588816D01*
X156629000Y-103421184D01*
X156661703Y-103256772D01*
X156725853Y-103101900D01*
X156818985Y-102962519D01*
X156937519Y-102843985D01*
X157076900Y-102750853D01*
X157231772Y-102686703D01*
X157396184Y-102654000D01*
X157563816Y-102654000D01*
X157728228Y-102686703D01*
G37*
G36*
X155188228Y-102686703D02*
G01*
X155343100Y-102750853D01*
X155482481Y-102843985D01*
X155601015Y-102962519D01*
X155694147Y-103101900D01*
X155758297Y-103256772D01*
X155791000Y-103421184D01*
X155791000Y-103588816D01*
X155758297Y-103753228D01*
X155694147Y-103908100D01*
X155601015Y-104047481D01*
X155482481Y-104166015D01*
X155343100Y-104259147D01*
X155188228Y-104323297D01*
X155023816Y-104356000D01*
X154856184Y-104356000D01*
X154691772Y-104323297D01*
X154536900Y-104259147D01*
X154397519Y-104166015D01*
X154278985Y-104047481D01*
X154185853Y-103908100D01*
X154121703Y-103753228D01*
X154089000Y-103588816D01*
X154089000Y-103421184D01*
X154121703Y-103256772D01*
X154185853Y-103101900D01*
X154278985Y-102962519D01*
X154397519Y-102843985D01*
X154536900Y-102750853D01*
X154691772Y-102686703D01*
X154856184Y-102654000D01*
X155023816Y-102654000D01*
X155188228Y-102686703D01*
G37*
G36*
X125311000Y-104356000D02*
G01*
X123609000Y-104356000D01*
X123609000Y-102654000D01*
X125311000Y-102654000D01*
X125311000Y-104356000D01*
G37*
G36*
X127248228Y-102686703D02*
G01*
X127403100Y-102750853D01*
X127542481Y-102843985D01*
X127661015Y-102962519D01*
X127754147Y-103101900D01*
X127818297Y-103256772D01*
X127851000Y-103421184D01*
X127851000Y-103588816D01*
X127818297Y-103753228D01*
X127754147Y-103908100D01*
X127661015Y-104047481D01*
X127542481Y-104166015D01*
X127403100Y-104259147D01*
X127248228Y-104323297D01*
X127083816Y-104356000D01*
X126916184Y-104356000D01*
X126751772Y-104323297D01*
X126596900Y-104259147D01*
X126457519Y-104166015D01*
X126338985Y-104047481D01*
X126245853Y-103908100D01*
X126181703Y-103753228D01*
X126149000Y-103588816D01*
X126149000Y-103421184D01*
X126181703Y-103256772D01*
X126245853Y-103101900D01*
X126338985Y-102962519D01*
X126457519Y-102843985D01*
X126596900Y-102750853D01*
X126751772Y-102686703D01*
X126916184Y-102654000D01*
X127083816Y-102654000D01*
X127248228Y-102686703D01*
G37*
G36*
X129788228Y-102686703D02*
G01*
X129943100Y-102750853D01*
X130082481Y-102843985D01*
X130201015Y-102962519D01*
X130294147Y-103101900D01*
X130358297Y-103256772D01*
X130391000Y-103421184D01*
X130391000Y-103588816D01*
X130358297Y-103753228D01*
X130294147Y-103908100D01*
X130201015Y-104047481D01*
X130082481Y-104166015D01*
X129943100Y-104259147D01*
X129788228Y-104323297D01*
X129623816Y-104356000D01*
X129456184Y-104356000D01*
X129291772Y-104323297D01*
X129136900Y-104259147D01*
X128997519Y-104166015D01*
X128878985Y-104047481D01*
X128785853Y-103908100D01*
X128721703Y-103753228D01*
X128689000Y-103588816D01*
X128689000Y-103421184D01*
X128721703Y-103256772D01*
X128785853Y-103101900D01*
X128878985Y-102962519D01*
X128997519Y-102843985D01*
X129136900Y-102750853D01*
X129291772Y-102686703D01*
X129456184Y-102654000D01*
X129623816Y-102654000D01*
X129788228Y-102686703D01*
G37*
G36*
X132328228Y-102686703D02*
G01*
X132483100Y-102750853D01*
X132622481Y-102843985D01*
X132741015Y-102962519D01*
X132834147Y-103101900D01*
X132898297Y-103256772D01*
X132931000Y-103421184D01*
X132931000Y-103588816D01*
X132898297Y-103753228D01*
X132834147Y-103908100D01*
X132741015Y-104047481D01*
X132622481Y-104166015D01*
X132483100Y-104259147D01*
X132328228Y-104323297D01*
X132163816Y-104356000D01*
X131996184Y-104356000D01*
X131831772Y-104323297D01*
X131676900Y-104259147D01*
X131537519Y-104166015D01*
X131418985Y-104047481D01*
X131325853Y-103908100D01*
X131261703Y-103753228D01*
X131229000Y-103588816D01*
X131229000Y-103421184D01*
X131261703Y-103256772D01*
X131325853Y-103101900D01*
X131418985Y-102962519D01*
X131537519Y-102843985D01*
X131676900Y-102750853D01*
X131831772Y-102686703D01*
X131996184Y-102654000D01*
X132163816Y-102654000D01*
X132328228Y-102686703D01*
G37*
G36*
X134868228Y-102686703D02*
G01*
X135023100Y-102750853D01*
X135162481Y-102843985D01*
X135281015Y-102962519D01*
X135374147Y-103101900D01*
X135438297Y-103256772D01*
X135471000Y-103421184D01*
X135471000Y-103588816D01*
X135438297Y-103753228D01*
X135374147Y-103908100D01*
X135281015Y-104047481D01*
X135162481Y-104166015D01*
X135023100Y-104259147D01*
X134868228Y-104323297D01*
X134703816Y-104356000D01*
X134536184Y-104356000D01*
X134371772Y-104323297D01*
X134216900Y-104259147D01*
X134077519Y-104166015D01*
X133958985Y-104047481D01*
X133865853Y-103908100D01*
X133801703Y-103753228D01*
X133769000Y-103588816D01*
X133769000Y-103421184D01*
X133801703Y-103256772D01*
X133865853Y-103101900D01*
X133958985Y-102962519D01*
X134077519Y-102843985D01*
X134216900Y-102750853D01*
X134371772Y-102686703D01*
X134536184Y-102654000D01*
X134703816Y-102654000D01*
X134868228Y-102686703D01*
G37*
G36*
X137408228Y-102686703D02*
G01*
X137563100Y-102750853D01*
X137702481Y-102843985D01*
X137821015Y-102962519D01*
X137914147Y-103101900D01*
X137978297Y-103256772D01*
X138011000Y-103421184D01*
X138011000Y-103588816D01*
X137978297Y-103753228D01*
X137914147Y-103908100D01*
X137821015Y-104047481D01*
X137702481Y-104166015D01*
X137563100Y-104259147D01*
X137408228Y-104323297D01*
X137243816Y-104356000D01*
X137076184Y-104356000D01*
X136911772Y-104323297D01*
X136756900Y-104259147D01*
X136617519Y-104166015D01*
X136498985Y-104047481D01*
X136405853Y-103908100D01*
X136341703Y-103753228D01*
X136309000Y-103588816D01*
X136309000Y-103421184D01*
X136341703Y-103256772D01*
X136405853Y-103101900D01*
X136498985Y-102962519D01*
X136617519Y-102843985D01*
X136756900Y-102750853D01*
X136911772Y-102686703D01*
X137076184Y-102654000D01*
X137243816Y-102654000D01*
X137408228Y-102686703D01*
G37*
G36*
X142488228Y-102686703D02*
G01*
X142643100Y-102750853D01*
X142782481Y-102843985D01*
X142901015Y-102962519D01*
X142994147Y-103101900D01*
X143058297Y-103256772D01*
X143091000Y-103421184D01*
X143091000Y-103588816D01*
X143058297Y-103753228D01*
X142994147Y-103908100D01*
X142901015Y-104047481D01*
X142782481Y-104166015D01*
X142643100Y-104259147D01*
X142488228Y-104323297D01*
X142323816Y-104356000D01*
X142156184Y-104356000D01*
X141991772Y-104323297D01*
X141836900Y-104259147D01*
X141697519Y-104166015D01*
X141578985Y-104047481D01*
X141485853Y-103908100D01*
X141421703Y-103753228D01*
X141389000Y-103588816D01*
X141389000Y-103421184D01*
X141421703Y-103256772D01*
X141485853Y-103101900D01*
X141578985Y-102962519D01*
X141697519Y-102843985D01*
X141836900Y-102750853D01*
X141991772Y-102686703D01*
X142156184Y-102654000D01*
X142323816Y-102654000D01*
X142488228Y-102686703D01*
G37*
G36*
X145028228Y-102686703D02*
G01*
X145183100Y-102750853D01*
X145322481Y-102843985D01*
X145441015Y-102962519D01*
X145534147Y-103101900D01*
X145598297Y-103256772D01*
X145631000Y-103421184D01*
X145631000Y-103588816D01*
X145598297Y-103753228D01*
X145534147Y-103908100D01*
X145441015Y-104047481D01*
X145322481Y-104166015D01*
X145183100Y-104259147D01*
X145028228Y-104323297D01*
X144863816Y-104356000D01*
X144696184Y-104356000D01*
X144531772Y-104323297D01*
X144376900Y-104259147D01*
X144237519Y-104166015D01*
X144118985Y-104047481D01*
X144025853Y-103908100D01*
X143961703Y-103753228D01*
X143929000Y-103588816D01*
X143929000Y-103421184D01*
X143961703Y-103256772D01*
X144025853Y-103101900D01*
X144118985Y-102962519D01*
X144237519Y-102843985D01*
X144376900Y-102750853D01*
X144531772Y-102686703D01*
X144696184Y-102654000D01*
X144863816Y-102654000D01*
X145028228Y-102686703D01*
G37*
G36*
X147568228Y-102686703D02*
G01*
X147723100Y-102750853D01*
X147862481Y-102843985D01*
X147981015Y-102962519D01*
X148074147Y-103101900D01*
X148138297Y-103256772D01*
X148171000Y-103421184D01*
X148171000Y-103588816D01*
X148138297Y-103753228D01*
X148074147Y-103908100D01*
X147981015Y-104047481D01*
X147862481Y-104166015D01*
X147723100Y-104259147D01*
X147568228Y-104323297D01*
X147403816Y-104356000D01*
X147236184Y-104356000D01*
X147071772Y-104323297D01*
X146916900Y-104259147D01*
X146777519Y-104166015D01*
X146658985Y-104047481D01*
X146565853Y-103908100D01*
X146501703Y-103753228D01*
X146469000Y-103588816D01*
X146469000Y-103421184D01*
X146501703Y-103256772D01*
X146565853Y-103101900D01*
X146658985Y-102962519D01*
X146777519Y-102843985D01*
X146916900Y-102750853D01*
X147071772Y-102686703D01*
X147236184Y-102654000D01*
X147403816Y-102654000D01*
X147568228Y-102686703D01*
G37*
G36*
X150108228Y-102686703D02*
G01*
X150263100Y-102750853D01*
X150402481Y-102843985D01*
X150521015Y-102962519D01*
X150614147Y-103101900D01*
X150678297Y-103256772D01*
X150711000Y-103421184D01*
X150711000Y-103588816D01*
X150678297Y-103753228D01*
X150614147Y-103908100D01*
X150521015Y-104047481D01*
X150402481Y-104166015D01*
X150263100Y-104259147D01*
X150108228Y-104323297D01*
X149943816Y-104356000D01*
X149776184Y-104356000D01*
X149611772Y-104323297D01*
X149456900Y-104259147D01*
X149317519Y-104166015D01*
X149198985Y-104047481D01*
X149105853Y-103908100D01*
X149041703Y-103753228D01*
X149009000Y-103588816D01*
X149009000Y-103421184D01*
X149041703Y-103256772D01*
X149105853Y-103101900D01*
X149198985Y-102962519D01*
X149317519Y-102843985D01*
X149456900Y-102750853D01*
X149611772Y-102686703D01*
X149776184Y-102654000D01*
X149943816Y-102654000D01*
X150108228Y-102686703D01*
G37*
G36*
X152648228Y-102686703D02*
G01*
X152803100Y-102750853D01*
X152942481Y-102843985D01*
X153061015Y-102962519D01*
X153154147Y-103101900D01*
X153218297Y-103256772D01*
X153251000Y-103421184D01*
X153251000Y-103588816D01*
X153218297Y-103753228D01*
X153154147Y-103908100D01*
X153061015Y-104047481D01*
X152942481Y-104166015D01*
X152803100Y-104259147D01*
X152648228Y-104323297D01*
X152483816Y-104356000D01*
X152316184Y-104356000D01*
X152151772Y-104323297D01*
X151996900Y-104259147D01*
X151857519Y-104166015D01*
X151738985Y-104047481D01*
X151645853Y-103908100D01*
X151581703Y-103753228D01*
X151549000Y-103588816D01*
X151549000Y-103421184D01*
X151581703Y-103256772D01*
X151645853Y-103101900D01*
X151738985Y-102962519D01*
X151857519Y-102843985D01*
X151996900Y-102750853D01*
X152151772Y-102686703D01*
X152316184Y-102654000D01*
X152483816Y-102654000D01*
X152648228Y-102686703D01*
G37*
G36*
X139948228Y-102686703D02*
G01*
X140103100Y-102750853D01*
X140242481Y-102843985D01*
X140361015Y-102962519D01*
X140454147Y-103101900D01*
X140518297Y-103256772D01*
X140551000Y-103421184D01*
X140551000Y-103588816D01*
X140518297Y-103753228D01*
X140454147Y-103908100D01*
X140361015Y-104047481D01*
X140242481Y-104166015D01*
X140103100Y-104259147D01*
X139948228Y-104323297D01*
X139783816Y-104356000D01*
X139616184Y-104356000D01*
X139451772Y-104323297D01*
X139296900Y-104259147D01*
X139157519Y-104166015D01*
X139038985Y-104047481D01*
X138945853Y-103908100D01*
X138881703Y-103753228D01*
X138849000Y-103588816D01*
X138849000Y-103421184D01*
X138881703Y-103256772D01*
X138945853Y-103101900D01*
X139038985Y-102962519D01*
X139157519Y-102843985D01*
X139296900Y-102750853D01*
X139451772Y-102686703D01*
X139616184Y-102654000D01*
X139783816Y-102654000D01*
X139948228Y-102686703D01*
G37*
G36*
X155188228Y-87446703D02*
G01*
X155343100Y-87510853D01*
X155482481Y-87603985D01*
X155601015Y-87722519D01*
X155694147Y-87861900D01*
X155758297Y-88016772D01*
X155791000Y-88181184D01*
X155791000Y-88348816D01*
X155758297Y-88513228D01*
X155694147Y-88668100D01*
X155601015Y-88807481D01*
X155482481Y-88926015D01*
X155343100Y-89019147D01*
X155188228Y-89083297D01*
X155023816Y-89116000D01*
X154856184Y-89116000D01*
X154691772Y-89083297D01*
X154536900Y-89019147D01*
X154397519Y-88926015D01*
X154278985Y-88807481D01*
X154185853Y-88668100D01*
X154121703Y-88513228D01*
X154089000Y-88348816D01*
X154089000Y-88181184D01*
X154121703Y-88016772D01*
X154185853Y-87861900D01*
X154278985Y-87722519D01*
X154397519Y-87603985D01*
X154536900Y-87510853D01*
X154691772Y-87446703D01*
X154856184Y-87414000D01*
X155023816Y-87414000D01*
X155188228Y-87446703D01*
G37*
G36*
X145028228Y-87446703D02*
G01*
X145183100Y-87510853D01*
X145322481Y-87603985D01*
X145441015Y-87722519D01*
X145534147Y-87861900D01*
X145598297Y-88016772D01*
X145631000Y-88181184D01*
X145631000Y-88348816D01*
X145598297Y-88513228D01*
X145534147Y-88668100D01*
X145441015Y-88807481D01*
X145322481Y-88926015D01*
X145183100Y-89019147D01*
X145028228Y-89083297D01*
X144863816Y-89116000D01*
X144696184Y-89116000D01*
X144531772Y-89083297D01*
X144376900Y-89019147D01*
X144237519Y-88926015D01*
X144118985Y-88807481D01*
X144025853Y-88668100D01*
X143961703Y-88513228D01*
X143929000Y-88348816D01*
X143929000Y-88181184D01*
X143961703Y-88016772D01*
X144025853Y-87861900D01*
X144118985Y-87722519D01*
X144237519Y-87603985D01*
X144376900Y-87510853D01*
X144531772Y-87446703D01*
X144696184Y-87414000D01*
X144863816Y-87414000D01*
X145028228Y-87446703D01*
G37*
G36*
X147568228Y-87446703D02*
G01*
X147723100Y-87510853D01*
X147862481Y-87603985D01*
X147981015Y-87722519D01*
X148074147Y-87861900D01*
X148138297Y-88016772D01*
X148171000Y-88181184D01*
X148171000Y-88348816D01*
X148138297Y-88513228D01*
X148074147Y-88668100D01*
X147981015Y-88807481D01*
X147862481Y-88926015D01*
X147723100Y-89019147D01*
X147568228Y-89083297D01*
X147403816Y-89116000D01*
X147236184Y-89116000D01*
X147071772Y-89083297D01*
X146916900Y-89019147D01*
X146777519Y-88926015D01*
X146658985Y-88807481D01*
X146565853Y-88668100D01*
X146501703Y-88513228D01*
X146469000Y-88348816D01*
X146469000Y-88181184D01*
X146501703Y-88016772D01*
X146565853Y-87861900D01*
X146658985Y-87722519D01*
X146777519Y-87603985D01*
X146916900Y-87510853D01*
X147071772Y-87446703D01*
X147236184Y-87414000D01*
X147403816Y-87414000D01*
X147568228Y-87446703D01*
G37*
G36*
X142488228Y-87446703D02*
G01*
X142643100Y-87510853D01*
X142782481Y-87603985D01*
X142901015Y-87722519D01*
X142994147Y-87861900D01*
X143058297Y-88016772D01*
X143091000Y-88181184D01*
X143091000Y-88348816D01*
X143058297Y-88513228D01*
X142994147Y-88668100D01*
X142901015Y-88807481D01*
X142782481Y-88926015D01*
X142643100Y-89019147D01*
X142488228Y-89083297D01*
X142323816Y-89116000D01*
X142156184Y-89116000D01*
X141991772Y-89083297D01*
X141836900Y-89019147D01*
X141697519Y-88926015D01*
X141578985Y-88807481D01*
X141485853Y-88668100D01*
X141421703Y-88513228D01*
X141389000Y-88348816D01*
X141389000Y-88181184D01*
X141421703Y-88016772D01*
X141485853Y-87861900D01*
X141578985Y-87722519D01*
X141697519Y-87603985D01*
X141836900Y-87510853D01*
X141991772Y-87446703D01*
X142156184Y-87414000D01*
X142323816Y-87414000D01*
X142488228Y-87446703D01*
G37*
G36*
X139948228Y-87446703D02*
G01*
X140103100Y-87510853D01*
X140242481Y-87603985D01*
X140361015Y-87722519D01*
X140454147Y-87861900D01*
X140518297Y-88016772D01*
X140551000Y-88181184D01*
X140551000Y-88348816D01*
X140518297Y-88513228D01*
X140454147Y-88668100D01*
X140361015Y-88807481D01*
X140242481Y-88926015D01*
X140103100Y-89019147D01*
X139948228Y-89083297D01*
X139783816Y-89116000D01*
X139616184Y-89116000D01*
X139451772Y-89083297D01*
X139296900Y-89019147D01*
X139157519Y-88926015D01*
X139038985Y-88807481D01*
X138945853Y-88668100D01*
X138881703Y-88513228D01*
X138849000Y-88348816D01*
X138849000Y-88181184D01*
X138881703Y-88016772D01*
X138945853Y-87861900D01*
X139038985Y-87722519D01*
X139157519Y-87603985D01*
X139296900Y-87510853D01*
X139451772Y-87446703D01*
X139616184Y-87414000D01*
X139783816Y-87414000D01*
X139948228Y-87446703D01*
G37*
G36*
X150108228Y-87446703D02*
G01*
X150263100Y-87510853D01*
X150402481Y-87603985D01*
X150521015Y-87722519D01*
X150614147Y-87861900D01*
X150678297Y-88016772D01*
X150711000Y-88181184D01*
X150711000Y-88348816D01*
X150678297Y-88513228D01*
X150614147Y-88668100D01*
X150521015Y-88807481D01*
X150402481Y-88926015D01*
X150263100Y-89019147D01*
X150108228Y-89083297D01*
X149943816Y-89116000D01*
X149776184Y-89116000D01*
X149611772Y-89083297D01*
X149456900Y-89019147D01*
X149317519Y-88926015D01*
X149198985Y-88807481D01*
X149105853Y-88668100D01*
X149041703Y-88513228D01*
X149009000Y-88348816D01*
X149009000Y-88181184D01*
X149041703Y-88016772D01*
X149105853Y-87861900D01*
X149198985Y-87722519D01*
X149317519Y-87603985D01*
X149456900Y-87510853D01*
X149611772Y-87446703D01*
X149776184Y-87414000D01*
X149943816Y-87414000D01*
X150108228Y-87446703D01*
G37*
G36*
X137408228Y-87446703D02*
G01*
X137563100Y-87510853D01*
X137702481Y-87603985D01*
X137821015Y-87722519D01*
X137914147Y-87861900D01*
X137978297Y-88016772D01*
X138011000Y-88181184D01*
X138011000Y-88348816D01*
X137978297Y-88513228D01*
X137914147Y-88668100D01*
X137821015Y-88807481D01*
X137702481Y-88926015D01*
X137563100Y-89019147D01*
X137408228Y-89083297D01*
X137243816Y-89116000D01*
X137076184Y-89116000D01*
X136911772Y-89083297D01*
X136756900Y-89019147D01*
X136617519Y-88926015D01*
X136498985Y-88807481D01*
X136405853Y-88668100D01*
X136341703Y-88513228D01*
X136309000Y-88348816D01*
X136309000Y-88181184D01*
X136341703Y-88016772D01*
X136405853Y-87861900D01*
X136498985Y-87722519D01*
X136617519Y-87603985D01*
X136756900Y-87510853D01*
X136911772Y-87446703D01*
X137076184Y-87414000D01*
X137243816Y-87414000D01*
X137408228Y-87446703D01*
G37*
G36*
X152648228Y-87446703D02*
G01*
X152803100Y-87510853D01*
X152942481Y-87603985D01*
X153061015Y-87722519D01*
X153154147Y-87861900D01*
X153218297Y-88016772D01*
X153251000Y-88181184D01*
X153251000Y-88348816D01*
X153218297Y-88513228D01*
X153154147Y-88668100D01*
X153061015Y-88807481D01*
X152942481Y-88926015D01*
X152803100Y-89019147D01*
X152648228Y-89083297D01*
X152483816Y-89116000D01*
X152316184Y-89116000D01*
X152151772Y-89083297D01*
X151996900Y-89019147D01*
X151857519Y-88926015D01*
X151738985Y-88807481D01*
X151645853Y-88668100D01*
X151581703Y-88513228D01*
X151549000Y-88348816D01*
X151549000Y-88181184D01*
X151581703Y-88016772D01*
X151645853Y-87861900D01*
X151738985Y-87722519D01*
X151857519Y-87603985D01*
X151996900Y-87510853D01*
X152151772Y-87446703D01*
X152316184Y-87414000D01*
X152483816Y-87414000D01*
X152648228Y-87446703D01*
G37*
G36*
X132328228Y-87446703D02*
G01*
X132483100Y-87510853D01*
X132622481Y-87603985D01*
X132741015Y-87722519D01*
X132834147Y-87861900D01*
X132898297Y-88016772D01*
X132931000Y-88181184D01*
X132931000Y-88348816D01*
X132898297Y-88513228D01*
X132834147Y-88668100D01*
X132741015Y-88807481D01*
X132622481Y-88926015D01*
X132483100Y-89019147D01*
X132328228Y-89083297D01*
X132163816Y-89116000D01*
X131996184Y-89116000D01*
X131831772Y-89083297D01*
X131676900Y-89019147D01*
X131537519Y-88926015D01*
X131418985Y-88807481D01*
X131325853Y-88668100D01*
X131261703Y-88513228D01*
X131229000Y-88348816D01*
X131229000Y-88181184D01*
X131261703Y-88016772D01*
X131325853Y-87861900D01*
X131418985Y-87722519D01*
X131537519Y-87603985D01*
X131676900Y-87510853D01*
X131831772Y-87446703D01*
X131996184Y-87414000D01*
X132163816Y-87414000D01*
X132328228Y-87446703D01*
G37*
G36*
X129788228Y-87446703D02*
G01*
X129943100Y-87510853D01*
X130082481Y-87603985D01*
X130201015Y-87722519D01*
X130294147Y-87861900D01*
X130358297Y-88016772D01*
X130391000Y-88181184D01*
X130391000Y-88348816D01*
X130358297Y-88513228D01*
X130294147Y-88668100D01*
X130201015Y-88807481D01*
X130082481Y-88926015D01*
X129943100Y-89019147D01*
X129788228Y-89083297D01*
X129623816Y-89116000D01*
X129456184Y-89116000D01*
X129291772Y-89083297D01*
X129136900Y-89019147D01*
X128997519Y-88926015D01*
X128878985Y-88807481D01*
X128785853Y-88668100D01*
X128721703Y-88513228D01*
X128689000Y-88348816D01*
X128689000Y-88181184D01*
X128721703Y-88016772D01*
X128785853Y-87861900D01*
X128878985Y-87722519D01*
X128997519Y-87603985D01*
X129136900Y-87510853D01*
X129291772Y-87446703D01*
X129456184Y-87414000D01*
X129623816Y-87414000D01*
X129788228Y-87446703D01*
G37*
G36*
X127248228Y-87446703D02*
G01*
X127403100Y-87510853D01*
X127542481Y-87603985D01*
X127661015Y-87722519D01*
X127754147Y-87861900D01*
X127818297Y-88016772D01*
X127851000Y-88181184D01*
X127851000Y-88348816D01*
X127818297Y-88513228D01*
X127754147Y-88668100D01*
X127661015Y-88807481D01*
X127542481Y-88926015D01*
X127403100Y-89019147D01*
X127248228Y-89083297D01*
X127083816Y-89116000D01*
X126916184Y-89116000D01*
X126751772Y-89083297D01*
X126596900Y-89019147D01*
X126457519Y-88926015D01*
X126338985Y-88807481D01*
X126245853Y-88668100D01*
X126181703Y-88513228D01*
X126149000Y-88348816D01*
X126149000Y-88181184D01*
X126181703Y-88016772D01*
X126245853Y-87861900D01*
X126338985Y-87722519D01*
X126457519Y-87603985D01*
X126596900Y-87510853D01*
X126751772Y-87446703D01*
X126916184Y-87414000D01*
X127083816Y-87414000D01*
X127248228Y-87446703D01*
G37*
G36*
X157728228Y-87446703D02*
G01*
X157883100Y-87510853D01*
X158022481Y-87603985D01*
X158141015Y-87722519D01*
X158234147Y-87861900D01*
X158298297Y-88016772D01*
X158331000Y-88181184D01*
X158331000Y-88348816D01*
X158298297Y-88513228D01*
X158234147Y-88668100D01*
X158141015Y-88807481D01*
X158022481Y-88926015D01*
X157883100Y-89019147D01*
X157728228Y-89083297D01*
X157563816Y-89116000D01*
X157396184Y-89116000D01*
X157231772Y-89083297D01*
X157076900Y-89019147D01*
X156937519Y-88926015D01*
X156818985Y-88807481D01*
X156725853Y-88668100D01*
X156661703Y-88513228D01*
X156629000Y-88348816D01*
X156629000Y-88181184D01*
X156661703Y-88016772D01*
X156725853Y-87861900D01*
X156818985Y-87722519D01*
X156937519Y-87603985D01*
X157076900Y-87510853D01*
X157231772Y-87446703D01*
X157396184Y-87414000D01*
X157563816Y-87414000D01*
X157728228Y-87446703D01*
G37*
G36*
X124708228Y-87446703D02*
G01*
X124863100Y-87510853D01*
X125002481Y-87603985D01*
X125121015Y-87722519D01*
X125214147Y-87861900D01*
X125278297Y-88016772D01*
X125311000Y-88181184D01*
X125311000Y-88348816D01*
X125278297Y-88513228D01*
X125214147Y-88668100D01*
X125121015Y-88807481D01*
X125002481Y-88926015D01*
X124863100Y-89019147D01*
X124708228Y-89083297D01*
X124543816Y-89116000D01*
X124376184Y-89116000D01*
X124211772Y-89083297D01*
X124056900Y-89019147D01*
X123917519Y-88926015D01*
X123798985Y-88807481D01*
X123705853Y-88668100D01*
X123641703Y-88513228D01*
X123609000Y-88348816D01*
X123609000Y-88181184D01*
X123641703Y-88016772D01*
X123705853Y-87861900D01*
X123798985Y-87722519D01*
X123917519Y-87603985D01*
X124056900Y-87510853D01*
X124211772Y-87446703D01*
X124376184Y-87414000D01*
X124543816Y-87414000D01*
X124708228Y-87446703D01*
G37*
G36*
X134868228Y-87446703D02*
G01*
X135023100Y-87510853D01*
X135162481Y-87603985D01*
X135281015Y-87722519D01*
X135374147Y-87861900D01*
X135438297Y-88016772D01*
X135471000Y-88181184D01*
X135471000Y-88348816D01*
X135438297Y-88513228D01*
X135374147Y-88668100D01*
X135281015Y-88807481D01*
X135162481Y-88926015D01*
X135023100Y-89019147D01*
X134868228Y-89083297D01*
X134703816Y-89116000D01*
X134536184Y-89116000D01*
X134371772Y-89083297D01*
X134216900Y-89019147D01*
X134077519Y-88926015D01*
X133958985Y-88807481D01*
X133865853Y-88668100D01*
X133801703Y-88513228D01*
X133769000Y-88348816D01*
X133769000Y-88181184D01*
X133801703Y-88016772D01*
X133865853Y-87861900D01*
X133958985Y-87722519D01*
X134077519Y-87603985D01*
X134216900Y-87510853D01*
X134371772Y-87446703D01*
X134536184Y-87414000D01*
X134703816Y-87414000D01*
X134868228Y-87446703D01*
G37*
G36*
X163419549Y-82201116D02*
G01*
X163530734Y-82223232D01*
X163740203Y-82309997D01*
X163928720Y-82435960D01*
X164089040Y-82596280D01*
X164215003Y-82784797D01*
X164301768Y-82994266D01*
X164346000Y-83216636D01*
X164346000Y-83443364D01*
X164301768Y-83665734D01*
X164215003Y-83875203D01*
X164089040Y-84063720D01*
X163928720Y-84224040D01*
X163740203Y-84350003D01*
X163530734Y-84436768D01*
X163419549Y-84458884D01*
X163308365Y-84481000D01*
X163081635Y-84481000D01*
X162970451Y-84458884D01*
X162859266Y-84436768D01*
X162649797Y-84350003D01*
X162461280Y-84224040D01*
X162300960Y-84063720D01*
X162174997Y-83875203D01*
X162088232Y-83665734D01*
X162044000Y-83443364D01*
X162044000Y-83216636D01*
X162088232Y-82994266D01*
X162174997Y-82784797D01*
X162300960Y-82596280D01*
X162461280Y-82435960D01*
X162649797Y-82309997D01*
X162859266Y-82223232D01*
X162970451Y-82201116D01*
X163081635Y-82179000D01*
X163308365Y-82179000D01*
X163419549Y-82201116D01*
G37*
G36*
X120239549Y-82056116D02*
G01*
X120350734Y-82078232D01*
X120560203Y-82164997D01*
X120748720Y-82290960D01*
X120909040Y-82451280D01*
X121035003Y-82639797D01*
X121121768Y-82849266D01*
X121166000Y-83071636D01*
X121166000Y-83298364D01*
X121121768Y-83520734D01*
X121035003Y-83730203D01*
X120909040Y-83918720D01*
X120748720Y-84079040D01*
X120560203Y-84205003D01*
X120350734Y-84291768D01*
X120239549Y-84313884D01*
X120128365Y-84336000D01*
X119901635Y-84336000D01*
X119790451Y-84313884D01*
X119679266Y-84291768D01*
X119469797Y-84205003D01*
X119281280Y-84079040D01*
X119120960Y-83918720D01*
X118994997Y-83730203D01*
X118908232Y-83520734D01*
X118864000Y-83298364D01*
X118864000Y-83071636D01*
X118908232Y-82849266D01*
X118994997Y-82639797D01*
X119120960Y-82451280D01*
X119281280Y-82290960D01*
X119469797Y-82164997D01*
X119679266Y-82078232D01*
X119790451Y-82056116D01*
X119901635Y-82034000D01*
X120128365Y-82034000D01*
X120239549Y-82056116D01*
G37*
G36*
X156426000Y-79591000D02*
G01*
X154724000Y-79591000D01*
X154724000Y-77889000D01*
X156426000Y-77889000D01*
X156426000Y-79591000D01*
G37*
G36*
X140583228Y-77921703D02*
G01*
X140738100Y-77985853D01*
X140877481Y-78078985D01*
X140996015Y-78197519D01*
X141089147Y-78336900D01*
X141153297Y-78491772D01*
X141186000Y-78656184D01*
X141186000Y-78823816D01*
X141153297Y-78988228D01*
X141089147Y-79143100D01*
X140996015Y-79282481D01*
X140877481Y-79401015D01*
X140738100Y-79494147D01*
X140583228Y-79558297D01*
X140418816Y-79591000D01*
X140251184Y-79591000D01*
X140086772Y-79558297D01*
X139931900Y-79494147D01*
X139792519Y-79401015D01*
X139673985Y-79282481D01*
X139580853Y-79143100D01*
X139516703Y-78988228D01*
X139484000Y-78823816D01*
X139484000Y-78656184D01*
X139516703Y-78491772D01*
X139580853Y-78336900D01*
X139673985Y-78197519D01*
X139792519Y-78078985D01*
X139931900Y-77985853D01*
X140086772Y-77921703D01*
X140251184Y-77889000D01*
X140418816Y-77889000D01*
X140583228Y-77921703D01*
G37*
G36*
X138043228Y-77921703D02*
G01*
X138198100Y-77985853D01*
X138337481Y-78078985D01*
X138456015Y-78197519D01*
X138549147Y-78336900D01*
X138613297Y-78491772D01*
X138646000Y-78656184D01*
X138646000Y-78823816D01*
X138613297Y-78988228D01*
X138549147Y-79143100D01*
X138456015Y-79282481D01*
X138337481Y-79401015D01*
X138198100Y-79494147D01*
X138043228Y-79558297D01*
X137878816Y-79591000D01*
X137711184Y-79591000D01*
X137546772Y-79558297D01*
X137391900Y-79494147D01*
X137252519Y-79401015D01*
X137133985Y-79282481D01*
X137040853Y-79143100D01*
X136976703Y-78988228D01*
X136944000Y-78823816D01*
X136944000Y-78656184D01*
X136976703Y-78491772D01*
X137040853Y-78336900D01*
X137133985Y-78197519D01*
X137252519Y-78078985D01*
X137391900Y-77985853D01*
X137546772Y-77921703D01*
X137711184Y-77889000D01*
X137878816Y-77889000D01*
X138043228Y-77921703D01*
G37*
G36*
X135503228Y-77921703D02*
G01*
X135658100Y-77985853D01*
X135797481Y-78078985D01*
X135916015Y-78197519D01*
X136009147Y-78336900D01*
X136073297Y-78491772D01*
X136106000Y-78656184D01*
X136106000Y-78823816D01*
X136073297Y-78988228D01*
X136009147Y-79143100D01*
X135916015Y-79282481D01*
X135797481Y-79401015D01*
X135658100Y-79494147D01*
X135503228Y-79558297D01*
X135338816Y-79591000D01*
X135171184Y-79591000D01*
X135006772Y-79558297D01*
X134851900Y-79494147D01*
X134712519Y-79401015D01*
X134593985Y-79282481D01*
X134500853Y-79143100D01*
X134436703Y-78988228D01*
X134404000Y-78823816D01*
X134404000Y-78656184D01*
X134436703Y-78491772D01*
X134500853Y-78336900D01*
X134593985Y-78197519D01*
X134712519Y-78078985D01*
X134851900Y-77985853D01*
X135006772Y-77921703D01*
X135171184Y-77889000D01*
X135338816Y-77889000D01*
X135503228Y-77921703D01*
G37*
G36*
X132963228Y-77921703D02*
G01*
X133118100Y-77985853D01*
X133257481Y-78078985D01*
X133376015Y-78197519D01*
X133469147Y-78336900D01*
X133533297Y-78491772D01*
X133566000Y-78656184D01*
X133566000Y-78823816D01*
X133533297Y-78988228D01*
X133469147Y-79143100D01*
X133376015Y-79282481D01*
X133257481Y-79401015D01*
X133118100Y-79494147D01*
X132963228Y-79558297D01*
X132798816Y-79591000D01*
X132631184Y-79591000D01*
X132466772Y-79558297D01*
X132311900Y-79494147D01*
X132172519Y-79401015D01*
X132053985Y-79282481D01*
X131960853Y-79143100D01*
X131896703Y-78988228D01*
X131864000Y-78823816D01*
X131864000Y-78656184D01*
X131896703Y-78491772D01*
X131960853Y-78336900D01*
X132053985Y-78197519D01*
X132172519Y-78078985D01*
X132311900Y-77985853D01*
X132466772Y-77921703D01*
X132631184Y-77889000D01*
X132798816Y-77889000D01*
X132963228Y-77921703D01*
G37*
G36*
X130423228Y-77921703D02*
G01*
X130578100Y-77985853D01*
X130717481Y-78078985D01*
X130836015Y-78197519D01*
X130929147Y-78336900D01*
X130993297Y-78491772D01*
X131026000Y-78656184D01*
X131026000Y-78823816D01*
X130993297Y-78988228D01*
X130929147Y-79143100D01*
X130836015Y-79282481D01*
X130717481Y-79401015D01*
X130578100Y-79494147D01*
X130423228Y-79558297D01*
X130258816Y-79591000D01*
X130091184Y-79591000D01*
X129926772Y-79558297D01*
X129771900Y-79494147D01*
X129632519Y-79401015D01*
X129513985Y-79282481D01*
X129420853Y-79143100D01*
X129356703Y-78988228D01*
X129324000Y-78823816D01*
X129324000Y-78656184D01*
X129356703Y-78491772D01*
X129420853Y-78336900D01*
X129513985Y-78197519D01*
X129632519Y-78078985D01*
X129771900Y-77985853D01*
X129926772Y-77921703D01*
X130091184Y-77889000D01*
X130258816Y-77889000D01*
X130423228Y-77921703D01*
G37*
G36*
X127883228Y-77921703D02*
G01*
X128038100Y-77985853D01*
X128177481Y-78078985D01*
X128296015Y-78197519D01*
X128389147Y-78336900D01*
X128453297Y-78491772D01*
X128486000Y-78656184D01*
X128486000Y-78823816D01*
X128453297Y-78988228D01*
X128389147Y-79143100D01*
X128296015Y-79282481D01*
X128177481Y-79401015D01*
X128038100Y-79494147D01*
X127883228Y-79558297D01*
X127718816Y-79591000D01*
X127551184Y-79591000D01*
X127386772Y-79558297D01*
X127231900Y-79494147D01*
X127092519Y-79401015D01*
X126973985Y-79282481D01*
X126880853Y-79143100D01*
X126816703Y-78988228D01*
X126784000Y-78823816D01*
X126784000Y-78656184D01*
X126816703Y-78491772D01*
X126880853Y-78336900D01*
X126973985Y-78197519D01*
X127092519Y-78078985D01*
X127231900Y-77985853D01*
X127386772Y-77921703D01*
X127551184Y-77889000D01*
X127718816Y-77889000D01*
X127883228Y-77921703D01*
G37*
G36*
X150743228Y-77921703D02*
G01*
X150898100Y-77985853D01*
X151037481Y-78078985D01*
X151156015Y-78197519D01*
X151249147Y-78336900D01*
X151313297Y-78491772D01*
X151346000Y-78656184D01*
X151346000Y-78823816D01*
X151313297Y-78988228D01*
X151249147Y-79143100D01*
X151156015Y-79282481D01*
X151037481Y-79401015D01*
X150898100Y-79494147D01*
X150743228Y-79558297D01*
X150578816Y-79591000D01*
X150411184Y-79591000D01*
X150246772Y-79558297D01*
X150091900Y-79494147D01*
X149952519Y-79401015D01*
X149833985Y-79282481D01*
X149740853Y-79143100D01*
X149676703Y-78988228D01*
X149644000Y-78823816D01*
X149644000Y-78656184D01*
X149676703Y-78491772D01*
X149740853Y-78336900D01*
X149833985Y-78197519D01*
X149952519Y-78078985D01*
X150091900Y-77985853D01*
X150246772Y-77921703D01*
X150411184Y-77889000D01*
X150578816Y-77889000D01*
X150743228Y-77921703D01*
G37*
G36*
X153283228Y-77921703D02*
G01*
X153438100Y-77985853D01*
X153577481Y-78078985D01*
X153696015Y-78197519D01*
X153789147Y-78336900D01*
X153853297Y-78491772D01*
X153886000Y-78656184D01*
X153886000Y-78823816D01*
X153853297Y-78988228D01*
X153789147Y-79143100D01*
X153696015Y-79282481D01*
X153577481Y-79401015D01*
X153438100Y-79494147D01*
X153283228Y-79558297D01*
X153118816Y-79591000D01*
X152951184Y-79591000D01*
X152786772Y-79558297D01*
X152631900Y-79494147D01*
X152492519Y-79401015D01*
X152373985Y-79282481D01*
X152280853Y-79143100D01*
X152216703Y-78988228D01*
X152184000Y-78823816D01*
X152184000Y-78656184D01*
X152216703Y-78491772D01*
X152280853Y-78336900D01*
X152373985Y-78197519D01*
X152492519Y-78078985D01*
X152631900Y-77985853D01*
X152786772Y-77921703D01*
X152951184Y-77889000D01*
X153118816Y-77889000D01*
X153283228Y-77921703D01*
G37*
G36*
X145663228Y-77921703D02*
G01*
X145818100Y-77985853D01*
X145957481Y-78078985D01*
X146076015Y-78197519D01*
X146169147Y-78336900D01*
X146233297Y-78491772D01*
X146266000Y-78656184D01*
X146266000Y-78823816D01*
X146233297Y-78988228D01*
X146169147Y-79143100D01*
X146076015Y-79282481D01*
X145957481Y-79401015D01*
X145818100Y-79494147D01*
X145663228Y-79558297D01*
X145498816Y-79591000D01*
X145331184Y-79591000D01*
X145166772Y-79558297D01*
X145011900Y-79494147D01*
X144872519Y-79401015D01*
X144753985Y-79282481D01*
X144660853Y-79143100D01*
X144596703Y-78988228D01*
X144564000Y-78823816D01*
X144564000Y-78656184D01*
X144596703Y-78491772D01*
X144660853Y-78336900D01*
X144753985Y-78197519D01*
X144872519Y-78078985D01*
X145011900Y-77985853D01*
X145166772Y-77921703D01*
X145331184Y-77889000D01*
X145498816Y-77889000D01*
X145663228Y-77921703D01*
G37*
G36*
X143123228Y-77921703D02*
G01*
X143278100Y-77985853D01*
X143417481Y-78078985D01*
X143536015Y-78197519D01*
X143629147Y-78336900D01*
X143693297Y-78491772D01*
X143726000Y-78656184D01*
X143726000Y-78823816D01*
X143693297Y-78988228D01*
X143629147Y-79143100D01*
X143536015Y-79282481D01*
X143417481Y-79401015D01*
X143278100Y-79494147D01*
X143123228Y-79558297D01*
X142958816Y-79591000D01*
X142791184Y-79591000D01*
X142626772Y-79558297D01*
X142471900Y-79494147D01*
X142332519Y-79401015D01*
X142213985Y-79282481D01*
X142120853Y-79143100D01*
X142056703Y-78988228D01*
X142024000Y-78823816D01*
X142024000Y-78656184D01*
X142056703Y-78491772D01*
X142120853Y-78336900D01*
X142213985Y-78197519D01*
X142332519Y-78078985D01*
X142471900Y-77985853D01*
X142626772Y-77921703D01*
X142791184Y-77889000D01*
X142958816Y-77889000D01*
X143123228Y-77921703D01*
G37*
G36*
X148203228Y-77921703D02*
G01*
X148358100Y-77985853D01*
X148497481Y-78078985D01*
X148616015Y-78197519D01*
X148709147Y-78336900D01*
X148773297Y-78491772D01*
X148806000Y-78656184D01*
X148806000Y-78823816D01*
X148773297Y-78988228D01*
X148709147Y-79143100D01*
X148616015Y-79282481D01*
X148497481Y-79401015D01*
X148358100Y-79494147D01*
X148203228Y-79558297D01*
X148038816Y-79591000D01*
X147871184Y-79591000D01*
X147706772Y-79558297D01*
X147551900Y-79494147D01*
X147412519Y-79401015D01*
X147293985Y-79282481D01*
X147200853Y-79143100D01*
X147136703Y-78988228D01*
X147104000Y-78823816D01*
X147104000Y-78656184D01*
X147136703Y-78491772D01*
X147200853Y-78336900D01*
X147293985Y-78197519D01*
X147412519Y-78078985D01*
X147551900Y-77985853D01*
X147706772Y-77921703D01*
X147871184Y-77889000D01*
X148038816Y-77889000D01*
X148203228Y-77921703D01*
G37*
G36*
X155823228Y-67761703D02*
G01*
X155978100Y-67825853D01*
X156117481Y-67918985D01*
X156236015Y-68037519D01*
X156329147Y-68176900D01*
X156393297Y-68331772D01*
X156426000Y-68496184D01*
X156426000Y-68663816D01*
X156393297Y-68828228D01*
X156329147Y-68983100D01*
X156236015Y-69122481D01*
X156117481Y-69241015D01*
X155978100Y-69334147D01*
X155823228Y-69398297D01*
X155658816Y-69431000D01*
X155491184Y-69431000D01*
X155326772Y-69398297D01*
X155171900Y-69334147D01*
X155032519Y-69241015D01*
X154913985Y-69122481D01*
X154820853Y-68983100D01*
X154756703Y-68828228D01*
X154724000Y-68663816D01*
X154724000Y-68496184D01*
X154756703Y-68331772D01*
X154820853Y-68176900D01*
X154913985Y-68037519D01*
X155032519Y-67918985D01*
X155171900Y-67825853D01*
X155326772Y-67761703D01*
X155491184Y-67729000D01*
X155658816Y-67729000D01*
X155823228Y-67761703D01*
G37*
G36*
X127883228Y-67761703D02*
G01*
X128038100Y-67825853D01*
X128177481Y-67918985D01*
X128296015Y-68037519D01*
X128389147Y-68176900D01*
X128453297Y-68331772D01*
X128486000Y-68496184D01*
X128486000Y-68663816D01*
X128453297Y-68828228D01*
X128389147Y-68983100D01*
X128296015Y-69122481D01*
X128177481Y-69241015D01*
X128038100Y-69334147D01*
X127883228Y-69398297D01*
X127718816Y-69431000D01*
X127551184Y-69431000D01*
X127386772Y-69398297D01*
X127231900Y-69334147D01*
X127092519Y-69241015D01*
X126973985Y-69122481D01*
X126880853Y-68983100D01*
X126816703Y-68828228D01*
X126784000Y-68663816D01*
X126784000Y-68496184D01*
X126816703Y-68331772D01*
X126880853Y-68176900D01*
X126973985Y-68037519D01*
X127092519Y-67918985D01*
X127231900Y-67825853D01*
X127386772Y-67761703D01*
X127551184Y-67729000D01*
X127718816Y-67729000D01*
X127883228Y-67761703D01*
G37*
G36*
X130423228Y-67761703D02*
G01*
X130578100Y-67825853D01*
X130717481Y-67918985D01*
X130836015Y-68037519D01*
X130929147Y-68176900D01*
X130993297Y-68331772D01*
X131026000Y-68496184D01*
X131026000Y-68663816D01*
X130993297Y-68828228D01*
X130929147Y-68983100D01*
X130836015Y-69122481D01*
X130717481Y-69241015D01*
X130578100Y-69334147D01*
X130423228Y-69398297D01*
X130258816Y-69431000D01*
X130091184Y-69431000D01*
X129926772Y-69398297D01*
X129771900Y-69334147D01*
X129632519Y-69241015D01*
X129513985Y-69122481D01*
X129420853Y-68983100D01*
X129356703Y-68828228D01*
X129324000Y-68663816D01*
X129324000Y-68496184D01*
X129356703Y-68331772D01*
X129420853Y-68176900D01*
X129513985Y-68037519D01*
X129632519Y-67918985D01*
X129771900Y-67825853D01*
X129926772Y-67761703D01*
X130091184Y-67729000D01*
X130258816Y-67729000D01*
X130423228Y-67761703D01*
G37*
G36*
X132963228Y-67761703D02*
G01*
X133118100Y-67825853D01*
X133257481Y-67918985D01*
X133376015Y-68037519D01*
X133469147Y-68176900D01*
X133533297Y-68331772D01*
X133566000Y-68496184D01*
X133566000Y-68663816D01*
X133533297Y-68828228D01*
X133469147Y-68983100D01*
X133376015Y-69122481D01*
X133257481Y-69241015D01*
X133118100Y-69334147D01*
X132963228Y-69398297D01*
X132798816Y-69431000D01*
X132631184Y-69431000D01*
X132466772Y-69398297D01*
X132311900Y-69334147D01*
X132172519Y-69241015D01*
X132053985Y-69122481D01*
X131960853Y-68983100D01*
X131896703Y-68828228D01*
X131864000Y-68663816D01*
X131864000Y-68496184D01*
X131896703Y-68331772D01*
X131960853Y-68176900D01*
X132053985Y-68037519D01*
X132172519Y-67918985D01*
X132311900Y-67825853D01*
X132466772Y-67761703D01*
X132631184Y-67729000D01*
X132798816Y-67729000D01*
X132963228Y-67761703D01*
G37*
G36*
X140583228Y-67761703D02*
G01*
X140738100Y-67825853D01*
X140877481Y-67918985D01*
X140996015Y-68037519D01*
X141089147Y-68176900D01*
X141153297Y-68331772D01*
X141186000Y-68496184D01*
X141186000Y-68663816D01*
X141153297Y-68828228D01*
X141089147Y-68983100D01*
X140996015Y-69122481D01*
X140877481Y-69241015D01*
X140738100Y-69334147D01*
X140583228Y-69398297D01*
X140418816Y-69431000D01*
X140251184Y-69431000D01*
X140086772Y-69398297D01*
X139931900Y-69334147D01*
X139792519Y-69241015D01*
X139673985Y-69122481D01*
X139580853Y-68983100D01*
X139516703Y-68828228D01*
X139484000Y-68663816D01*
X139484000Y-68496184D01*
X139516703Y-68331772D01*
X139580853Y-68176900D01*
X139673985Y-68037519D01*
X139792519Y-67918985D01*
X139931900Y-67825853D01*
X140086772Y-67761703D01*
X140251184Y-67729000D01*
X140418816Y-67729000D01*
X140583228Y-67761703D01*
G37*
G36*
X143123228Y-67761703D02*
G01*
X143278100Y-67825853D01*
X143417481Y-67918985D01*
X143536015Y-68037519D01*
X143629147Y-68176900D01*
X143693297Y-68331772D01*
X143726000Y-68496184D01*
X143726000Y-68663816D01*
X143693297Y-68828228D01*
X143629147Y-68983100D01*
X143536015Y-69122481D01*
X143417481Y-69241015D01*
X143278100Y-69334147D01*
X143123228Y-69398297D01*
X142958816Y-69431000D01*
X142791184Y-69431000D01*
X142626772Y-69398297D01*
X142471900Y-69334147D01*
X142332519Y-69241015D01*
X142213985Y-69122481D01*
X142120853Y-68983100D01*
X142056703Y-68828228D01*
X142024000Y-68663816D01*
X142024000Y-68496184D01*
X142056703Y-68331772D01*
X142120853Y-68176900D01*
X142213985Y-68037519D01*
X142332519Y-67918985D01*
X142471900Y-67825853D01*
X142626772Y-67761703D01*
X142791184Y-67729000D01*
X142958816Y-67729000D01*
X143123228Y-67761703D01*
G37*
G36*
X145663228Y-67761703D02*
G01*
X145818100Y-67825853D01*
X145957481Y-67918985D01*
X146076015Y-68037519D01*
X146169147Y-68176900D01*
X146233297Y-68331772D01*
X146266000Y-68496184D01*
X146266000Y-68663816D01*
X146233297Y-68828228D01*
X146169147Y-68983100D01*
X146076015Y-69122481D01*
X145957481Y-69241015D01*
X145818100Y-69334147D01*
X145663228Y-69398297D01*
X145498816Y-69431000D01*
X145331184Y-69431000D01*
X145166772Y-69398297D01*
X145011900Y-69334147D01*
X144872519Y-69241015D01*
X144753985Y-69122481D01*
X144660853Y-68983100D01*
X144596703Y-68828228D01*
X144564000Y-68663816D01*
X144564000Y-68496184D01*
X144596703Y-68331772D01*
X144660853Y-68176900D01*
X144753985Y-68037519D01*
X144872519Y-67918985D01*
X145011900Y-67825853D01*
X145166772Y-67761703D01*
X145331184Y-67729000D01*
X145498816Y-67729000D01*
X145663228Y-67761703D01*
G37*
G36*
X148203228Y-67761703D02*
G01*
X148358100Y-67825853D01*
X148497481Y-67918985D01*
X148616015Y-68037519D01*
X148709147Y-68176900D01*
X148773297Y-68331772D01*
X148806000Y-68496184D01*
X148806000Y-68663816D01*
X148773297Y-68828228D01*
X148709147Y-68983100D01*
X148616015Y-69122481D01*
X148497481Y-69241015D01*
X148358100Y-69334147D01*
X148203228Y-69398297D01*
X148038816Y-69431000D01*
X147871184Y-69431000D01*
X147706772Y-69398297D01*
X147551900Y-69334147D01*
X147412519Y-69241015D01*
X147293985Y-69122481D01*
X147200853Y-68983100D01*
X147136703Y-68828228D01*
X147104000Y-68663816D01*
X147104000Y-68496184D01*
X147136703Y-68331772D01*
X147200853Y-68176900D01*
X147293985Y-68037519D01*
X147412519Y-67918985D01*
X147551900Y-67825853D01*
X147706772Y-67761703D01*
X147871184Y-67729000D01*
X148038816Y-67729000D01*
X148203228Y-67761703D01*
G37*
G36*
X150743228Y-67761703D02*
G01*
X150898100Y-67825853D01*
X151037481Y-67918985D01*
X151156015Y-68037519D01*
X151249147Y-68176900D01*
X151313297Y-68331772D01*
X151346000Y-68496184D01*
X151346000Y-68663816D01*
X151313297Y-68828228D01*
X151249147Y-68983100D01*
X151156015Y-69122481D01*
X151037481Y-69241015D01*
X150898100Y-69334147D01*
X150743228Y-69398297D01*
X150578816Y-69431000D01*
X150411184Y-69431000D01*
X150246772Y-69398297D01*
X150091900Y-69334147D01*
X149952519Y-69241015D01*
X149833985Y-69122481D01*
X149740853Y-68983100D01*
X149676703Y-68828228D01*
X149644000Y-68663816D01*
X149644000Y-68496184D01*
X149676703Y-68331772D01*
X149740853Y-68176900D01*
X149833985Y-68037519D01*
X149952519Y-67918985D01*
X150091900Y-67825853D01*
X150246772Y-67761703D01*
X150411184Y-67729000D01*
X150578816Y-67729000D01*
X150743228Y-67761703D01*
G37*
G36*
X138043228Y-67761703D02*
G01*
X138198100Y-67825853D01*
X138337481Y-67918985D01*
X138456015Y-68037519D01*
X138549147Y-68176900D01*
X138613297Y-68331772D01*
X138646000Y-68496184D01*
X138646000Y-68663816D01*
X138613297Y-68828228D01*
X138549147Y-68983100D01*
X138456015Y-69122481D01*
X138337481Y-69241015D01*
X138198100Y-69334147D01*
X138043228Y-69398297D01*
X137878816Y-69431000D01*
X137711184Y-69431000D01*
X137546772Y-69398297D01*
X137391900Y-69334147D01*
X137252519Y-69241015D01*
X137133985Y-69122481D01*
X137040853Y-68983100D01*
X136976703Y-68828228D01*
X136944000Y-68663816D01*
X136944000Y-68496184D01*
X136976703Y-68331772D01*
X137040853Y-68176900D01*
X137133985Y-68037519D01*
X137252519Y-67918985D01*
X137391900Y-67825853D01*
X137546772Y-67761703D01*
X137711184Y-67729000D01*
X137878816Y-67729000D01*
X138043228Y-67761703D01*
G37*
G36*
X153283228Y-67761703D02*
G01*
X153438100Y-67825853D01*
X153577481Y-67918985D01*
X153696015Y-68037519D01*
X153789147Y-68176900D01*
X153853297Y-68331772D01*
X153886000Y-68496184D01*
X153886000Y-68663816D01*
X153853297Y-68828228D01*
X153789147Y-68983100D01*
X153696015Y-69122481D01*
X153577481Y-69241015D01*
X153438100Y-69334147D01*
X153283228Y-69398297D01*
X153118816Y-69431000D01*
X152951184Y-69431000D01*
X152786772Y-69398297D01*
X152631900Y-69334147D01*
X152492519Y-69241015D01*
X152373985Y-69122481D01*
X152280853Y-68983100D01*
X152216703Y-68828228D01*
X152184000Y-68663816D01*
X152184000Y-68496184D01*
X152216703Y-68331772D01*
X152280853Y-68176900D01*
X152373985Y-68037519D01*
X152492519Y-67918985D01*
X152631900Y-67825853D01*
X152786772Y-67761703D01*
X152951184Y-67729000D01*
X153118816Y-67729000D01*
X153283228Y-67761703D01*
G37*
G36*
X135503228Y-67761703D02*
G01*
X135658100Y-67825853D01*
X135797481Y-67918985D01*
X135916015Y-68037519D01*
X136009147Y-68176900D01*
X136073297Y-68331772D01*
X136106000Y-68496184D01*
X136106000Y-68663816D01*
X136073297Y-68828228D01*
X136009147Y-68983100D01*
X135916015Y-69122481D01*
X135797481Y-69241015D01*
X135658100Y-69334147D01*
X135503228Y-69398297D01*
X135338816Y-69431000D01*
X135171184Y-69431000D01*
X135006772Y-69398297D01*
X134851900Y-69334147D01*
X134712519Y-69241015D01*
X134593985Y-69122481D01*
X134500853Y-68983100D01*
X134436703Y-68828228D01*
X134404000Y-68663816D01*
X134404000Y-68496184D01*
X134436703Y-68331772D01*
X134500853Y-68176900D01*
X134593985Y-68037519D01*
X134712519Y-67918985D01*
X134851900Y-67825853D01*
X135006772Y-67761703D01*
X135171184Y-67729000D01*
X135338816Y-67729000D01*
X135503228Y-67761703D01*
G37*
G36*
X163419549Y-62371116D02*
G01*
X163530734Y-62393232D01*
X163740203Y-62479997D01*
X163928720Y-62605960D01*
X164089040Y-62766280D01*
X164215003Y-62954797D01*
X164301768Y-63164266D01*
X164346000Y-63386636D01*
X164346000Y-63613364D01*
X164301768Y-63835734D01*
X164215003Y-64045203D01*
X164089040Y-64233720D01*
X163928720Y-64394040D01*
X163740203Y-64520003D01*
X163530734Y-64606768D01*
X163419549Y-64628884D01*
X163308365Y-64651000D01*
X163081635Y-64651000D01*
X162970451Y-64628884D01*
X162859266Y-64606768D01*
X162649797Y-64520003D01*
X162461280Y-64394040D01*
X162300960Y-64233720D01*
X162174997Y-64045203D01*
X162088232Y-63835734D01*
X162044000Y-63613364D01*
X162044000Y-63386636D01*
X162088232Y-63164266D01*
X162174997Y-62954797D01*
X162300960Y-62766280D01*
X162461280Y-62605960D01*
X162649797Y-62479997D01*
X162859266Y-62393232D01*
X162970451Y-62371116D01*
X163081635Y-62349000D01*
X163308365Y-62349000D01*
X163419549Y-62371116D01*
G37*
G36*
X120239549Y-62371116D02*
G01*
X120350734Y-62393232D01*
X120560203Y-62479997D01*
X120748720Y-62605960D01*
X120909040Y-62766280D01*
X121035003Y-62954797D01*
X121121768Y-63164266D01*
X121166000Y-63386636D01*
X121166000Y-63613364D01*
X121121768Y-63835734D01*
X121035003Y-64045203D01*
X120909040Y-64233720D01*
X120748720Y-64394040D01*
X120560203Y-64520003D01*
X120350734Y-64606768D01*
X120239549Y-64628884D01*
X120128365Y-64651000D01*
X119901635Y-64651000D01*
X119790451Y-64628884D01*
X119679266Y-64606768D01*
X119469797Y-64520003D01*
X119281280Y-64394040D01*
X119120960Y-64233720D01*
X118994997Y-64045203D01*
X118908232Y-63835734D01*
X118864000Y-63613364D01*
X118864000Y-63386636D01*
X118908232Y-63164266D01*
X118994997Y-62954797D01*
X119120960Y-62766280D01*
X119281280Y-62605960D01*
X119469797Y-62479997D01*
X119679266Y-62393232D01*
X119790451Y-62371116D01*
X119901635Y-62349000D01*
X120128365Y-62349000D01*
X120239549Y-62371116D01*
G37*
M02*
