G04 #@! TF.GenerationSoftware,KiCad,Pcbnew,5.1.5-52549c5~84~ubuntu18.04.1*
G04 #@! TF.CreationDate,2020-03-22T23:19:32-04:00*
G04 #@! TF.ProjectId,tcd1304_v1,74636431-3330-4345-9f76-312e6b696361,rev?*
G04 #@! TF.SameCoordinates,Original*
G04 #@! TF.FileFunction,Paste,Top*
G04 #@! TF.FilePolarity,Positive*
%FSLAX46Y46*%
G04 Gerber Fmt 4.6, Leading zero omitted, Abs format (unit mm)*
G04 Created by KiCad (PCBNEW 5.1.5-52549c5~84~ubuntu18.04.1) date 2020-03-22 23:19:32*
%MOMM*%
%LPD*%
G04 APERTURE LIST*
%ADD10R,0.568000X1.741399*%
%ADD11C,0.100000*%
%ADD12R,0.900000X0.800000*%
G04 APERTURE END LIST*
D10*
X156845000Y-99466400D03*
X155575000Y-99466400D03*
X154305000Y-99466400D03*
X153035000Y-99466400D03*
X151765000Y-99466400D03*
X150495000Y-99466400D03*
X149225000Y-99466400D03*
X149225000Y-92303600D03*
X150495000Y-92303600D03*
X151765000Y-92303600D03*
X153035000Y-92303600D03*
X154305000Y-92303600D03*
X155575000Y-92303600D03*
X156845000Y-92303600D03*
D11*
G36*
X134389691Y-90978053D02*
G01*
X134410926Y-90981203D01*
X134431750Y-90986419D01*
X134451962Y-90993651D01*
X134471368Y-91002830D01*
X134489781Y-91013866D01*
X134507024Y-91026654D01*
X134522930Y-91041070D01*
X134537346Y-91056976D01*
X134550134Y-91074219D01*
X134561170Y-91092632D01*
X134570349Y-91112038D01*
X134577581Y-91132250D01*
X134582797Y-91153074D01*
X134585947Y-91174309D01*
X134587000Y-91195750D01*
X134587000Y-91633250D01*
X134585947Y-91654691D01*
X134582797Y-91675926D01*
X134577581Y-91696750D01*
X134570349Y-91716962D01*
X134561170Y-91736368D01*
X134550134Y-91754781D01*
X134537346Y-91772024D01*
X134522930Y-91787930D01*
X134507024Y-91802346D01*
X134489781Y-91815134D01*
X134471368Y-91826170D01*
X134451962Y-91835349D01*
X134431750Y-91842581D01*
X134410926Y-91847797D01*
X134389691Y-91850947D01*
X134368250Y-91852000D01*
X133855750Y-91852000D01*
X133834309Y-91850947D01*
X133813074Y-91847797D01*
X133792250Y-91842581D01*
X133772038Y-91835349D01*
X133752632Y-91826170D01*
X133734219Y-91815134D01*
X133716976Y-91802346D01*
X133701070Y-91787930D01*
X133686654Y-91772024D01*
X133673866Y-91754781D01*
X133662830Y-91736368D01*
X133653651Y-91716962D01*
X133646419Y-91696750D01*
X133641203Y-91675926D01*
X133638053Y-91654691D01*
X133637000Y-91633250D01*
X133637000Y-91195750D01*
X133638053Y-91174309D01*
X133641203Y-91153074D01*
X133646419Y-91132250D01*
X133653651Y-91112038D01*
X133662830Y-91092632D01*
X133673866Y-91074219D01*
X133686654Y-91056976D01*
X133701070Y-91041070D01*
X133716976Y-91026654D01*
X133734219Y-91013866D01*
X133752632Y-91002830D01*
X133772038Y-90993651D01*
X133792250Y-90986419D01*
X133813074Y-90981203D01*
X133834309Y-90978053D01*
X133855750Y-90977000D01*
X134368250Y-90977000D01*
X134389691Y-90978053D01*
G37*
G36*
X134389691Y-92553053D02*
G01*
X134410926Y-92556203D01*
X134431750Y-92561419D01*
X134451962Y-92568651D01*
X134471368Y-92577830D01*
X134489781Y-92588866D01*
X134507024Y-92601654D01*
X134522930Y-92616070D01*
X134537346Y-92631976D01*
X134550134Y-92649219D01*
X134561170Y-92667632D01*
X134570349Y-92687038D01*
X134577581Y-92707250D01*
X134582797Y-92728074D01*
X134585947Y-92749309D01*
X134587000Y-92770750D01*
X134587000Y-93208250D01*
X134585947Y-93229691D01*
X134582797Y-93250926D01*
X134577581Y-93271750D01*
X134570349Y-93291962D01*
X134561170Y-93311368D01*
X134550134Y-93329781D01*
X134537346Y-93347024D01*
X134522930Y-93362930D01*
X134507024Y-93377346D01*
X134489781Y-93390134D01*
X134471368Y-93401170D01*
X134451962Y-93410349D01*
X134431750Y-93417581D01*
X134410926Y-93422797D01*
X134389691Y-93425947D01*
X134368250Y-93427000D01*
X133855750Y-93427000D01*
X133834309Y-93425947D01*
X133813074Y-93422797D01*
X133792250Y-93417581D01*
X133772038Y-93410349D01*
X133752632Y-93401170D01*
X133734219Y-93390134D01*
X133716976Y-93377346D01*
X133701070Y-93362930D01*
X133686654Y-93347024D01*
X133673866Y-93329781D01*
X133662830Y-93311368D01*
X133653651Y-93291962D01*
X133646419Y-93271750D01*
X133641203Y-93250926D01*
X133638053Y-93229691D01*
X133637000Y-93208250D01*
X133637000Y-92770750D01*
X133638053Y-92749309D01*
X133641203Y-92728074D01*
X133646419Y-92707250D01*
X133653651Y-92687038D01*
X133662830Y-92667632D01*
X133673866Y-92649219D01*
X133686654Y-92631976D01*
X133701070Y-92616070D01*
X133716976Y-92601654D01*
X133734219Y-92588866D01*
X133752632Y-92577830D01*
X133772038Y-92568651D01*
X133792250Y-92561419D01*
X133813074Y-92556203D01*
X133834309Y-92553053D01*
X133855750Y-92552000D01*
X134368250Y-92552000D01*
X134389691Y-92553053D01*
G37*
G36*
X137564691Y-90978053D02*
G01*
X137585926Y-90981203D01*
X137606750Y-90986419D01*
X137626962Y-90993651D01*
X137646368Y-91002830D01*
X137664781Y-91013866D01*
X137682024Y-91026654D01*
X137697930Y-91041070D01*
X137712346Y-91056976D01*
X137725134Y-91074219D01*
X137736170Y-91092632D01*
X137745349Y-91112038D01*
X137752581Y-91132250D01*
X137757797Y-91153074D01*
X137760947Y-91174309D01*
X137762000Y-91195750D01*
X137762000Y-91633250D01*
X137760947Y-91654691D01*
X137757797Y-91675926D01*
X137752581Y-91696750D01*
X137745349Y-91716962D01*
X137736170Y-91736368D01*
X137725134Y-91754781D01*
X137712346Y-91772024D01*
X137697930Y-91787930D01*
X137682024Y-91802346D01*
X137664781Y-91815134D01*
X137646368Y-91826170D01*
X137626962Y-91835349D01*
X137606750Y-91842581D01*
X137585926Y-91847797D01*
X137564691Y-91850947D01*
X137543250Y-91852000D01*
X137030750Y-91852000D01*
X137009309Y-91850947D01*
X136988074Y-91847797D01*
X136967250Y-91842581D01*
X136947038Y-91835349D01*
X136927632Y-91826170D01*
X136909219Y-91815134D01*
X136891976Y-91802346D01*
X136876070Y-91787930D01*
X136861654Y-91772024D01*
X136848866Y-91754781D01*
X136837830Y-91736368D01*
X136828651Y-91716962D01*
X136821419Y-91696750D01*
X136816203Y-91675926D01*
X136813053Y-91654691D01*
X136812000Y-91633250D01*
X136812000Y-91195750D01*
X136813053Y-91174309D01*
X136816203Y-91153074D01*
X136821419Y-91132250D01*
X136828651Y-91112038D01*
X136837830Y-91092632D01*
X136848866Y-91074219D01*
X136861654Y-91056976D01*
X136876070Y-91041070D01*
X136891976Y-91026654D01*
X136909219Y-91013866D01*
X136927632Y-91002830D01*
X136947038Y-90993651D01*
X136967250Y-90986419D01*
X136988074Y-90981203D01*
X137009309Y-90978053D01*
X137030750Y-90977000D01*
X137543250Y-90977000D01*
X137564691Y-90978053D01*
G37*
G36*
X137564691Y-92553053D02*
G01*
X137585926Y-92556203D01*
X137606750Y-92561419D01*
X137626962Y-92568651D01*
X137646368Y-92577830D01*
X137664781Y-92588866D01*
X137682024Y-92601654D01*
X137697930Y-92616070D01*
X137712346Y-92631976D01*
X137725134Y-92649219D01*
X137736170Y-92667632D01*
X137745349Y-92687038D01*
X137752581Y-92707250D01*
X137757797Y-92728074D01*
X137760947Y-92749309D01*
X137762000Y-92770750D01*
X137762000Y-93208250D01*
X137760947Y-93229691D01*
X137757797Y-93250926D01*
X137752581Y-93271750D01*
X137745349Y-93291962D01*
X137736170Y-93311368D01*
X137725134Y-93329781D01*
X137712346Y-93347024D01*
X137697930Y-93362930D01*
X137682024Y-93377346D01*
X137664781Y-93390134D01*
X137646368Y-93401170D01*
X137626962Y-93410349D01*
X137606750Y-93417581D01*
X137585926Y-93422797D01*
X137564691Y-93425947D01*
X137543250Y-93427000D01*
X137030750Y-93427000D01*
X137009309Y-93425947D01*
X136988074Y-93422797D01*
X136967250Y-93417581D01*
X136947038Y-93410349D01*
X136927632Y-93401170D01*
X136909219Y-93390134D01*
X136891976Y-93377346D01*
X136876070Y-93362930D01*
X136861654Y-93347024D01*
X136848866Y-93329781D01*
X136837830Y-93311368D01*
X136828651Y-93291962D01*
X136821419Y-93271750D01*
X136816203Y-93250926D01*
X136813053Y-93229691D01*
X136812000Y-93208250D01*
X136812000Y-92770750D01*
X136813053Y-92749309D01*
X136816203Y-92728074D01*
X136821419Y-92707250D01*
X136828651Y-92687038D01*
X136837830Y-92667632D01*
X136848866Y-92649219D01*
X136861654Y-92631976D01*
X136876070Y-92616070D01*
X136891976Y-92601654D01*
X136909219Y-92588866D01*
X136927632Y-92577830D01*
X136947038Y-92568651D01*
X136967250Y-92561419D01*
X136988074Y-92556203D01*
X137009309Y-92553053D01*
X137030750Y-92552000D01*
X137543250Y-92552000D01*
X137564691Y-92553053D01*
G37*
G36*
X141374691Y-90978053D02*
G01*
X141395926Y-90981203D01*
X141416750Y-90986419D01*
X141436962Y-90993651D01*
X141456368Y-91002830D01*
X141474781Y-91013866D01*
X141492024Y-91026654D01*
X141507930Y-91041070D01*
X141522346Y-91056976D01*
X141535134Y-91074219D01*
X141546170Y-91092632D01*
X141555349Y-91112038D01*
X141562581Y-91132250D01*
X141567797Y-91153074D01*
X141570947Y-91174309D01*
X141572000Y-91195750D01*
X141572000Y-91633250D01*
X141570947Y-91654691D01*
X141567797Y-91675926D01*
X141562581Y-91696750D01*
X141555349Y-91716962D01*
X141546170Y-91736368D01*
X141535134Y-91754781D01*
X141522346Y-91772024D01*
X141507930Y-91787930D01*
X141492024Y-91802346D01*
X141474781Y-91815134D01*
X141456368Y-91826170D01*
X141436962Y-91835349D01*
X141416750Y-91842581D01*
X141395926Y-91847797D01*
X141374691Y-91850947D01*
X141353250Y-91852000D01*
X140840750Y-91852000D01*
X140819309Y-91850947D01*
X140798074Y-91847797D01*
X140777250Y-91842581D01*
X140757038Y-91835349D01*
X140737632Y-91826170D01*
X140719219Y-91815134D01*
X140701976Y-91802346D01*
X140686070Y-91787930D01*
X140671654Y-91772024D01*
X140658866Y-91754781D01*
X140647830Y-91736368D01*
X140638651Y-91716962D01*
X140631419Y-91696750D01*
X140626203Y-91675926D01*
X140623053Y-91654691D01*
X140622000Y-91633250D01*
X140622000Y-91195750D01*
X140623053Y-91174309D01*
X140626203Y-91153074D01*
X140631419Y-91132250D01*
X140638651Y-91112038D01*
X140647830Y-91092632D01*
X140658866Y-91074219D01*
X140671654Y-91056976D01*
X140686070Y-91041070D01*
X140701976Y-91026654D01*
X140719219Y-91013866D01*
X140737632Y-91002830D01*
X140757038Y-90993651D01*
X140777250Y-90986419D01*
X140798074Y-90981203D01*
X140819309Y-90978053D01*
X140840750Y-90977000D01*
X141353250Y-90977000D01*
X141374691Y-90978053D01*
G37*
G36*
X141374691Y-92553053D02*
G01*
X141395926Y-92556203D01*
X141416750Y-92561419D01*
X141436962Y-92568651D01*
X141456368Y-92577830D01*
X141474781Y-92588866D01*
X141492024Y-92601654D01*
X141507930Y-92616070D01*
X141522346Y-92631976D01*
X141535134Y-92649219D01*
X141546170Y-92667632D01*
X141555349Y-92687038D01*
X141562581Y-92707250D01*
X141567797Y-92728074D01*
X141570947Y-92749309D01*
X141572000Y-92770750D01*
X141572000Y-93208250D01*
X141570947Y-93229691D01*
X141567797Y-93250926D01*
X141562581Y-93271750D01*
X141555349Y-93291962D01*
X141546170Y-93311368D01*
X141535134Y-93329781D01*
X141522346Y-93347024D01*
X141507930Y-93362930D01*
X141492024Y-93377346D01*
X141474781Y-93390134D01*
X141456368Y-93401170D01*
X141436962Y-93410349D01*
X141416750Y-93417581D01*
X141395926Y-93422797D01*
X141374691Y-93425947D01*
X141353250Y-93427000D01*
X140840750Y-93427000D01*
X140819309Y-93425947D01*
X140798074Y-93422797D01*
X140777250Y-93417581D01*
X140757038Y-93410349D01*
X140737632Y-93401170D01*
X140719219Y-93390134D01*
X140701976Y-93377346D01*
X140686070Y-93362930D01*
X140671654Y-93347024D01*
X140658866Y-93329781D01*
X140647830Y-93311368D01*
X140638651Y-93291962D01*
X140631419Y-93271750D01*
X140626203Y-93250926D01*
X140623053Y-93229691D01*
X140622000Y-93208250D01*
X140622000Y-92770750D01*
X140623053Y-92749309D01*
X140626203Y-92728074D01*
X140631419Y-92707250D01*
X140638651Y-92687038D01*
X140647830Y-92667632D01*
X140658866Y-92649219D01*
X140671654Y-92631976D01*
X140686070Y-92616070D01*
X140701976Y-92601654D01*
X140719219Y-92588866D01*
X140737632Y-92577830D01*
X140757038Y-92568651D01*
X140777250Y-92561419D01*
X140798074Y-92556203D01*
X140819309Y-92553053D01*
X140840750Y-92552000D01*
X141353250Y-92552000D01*
X141374691Y-92553053D01*
G37*
G36*
X135088691Y-98586053D02*
G01*
X135109926Y-98589203D01*
X135130750Y-98594419D01*
X135150962Y-98601651D01*
X135170368Y-98610830D01*
X135188781Y-98621866D01*
X135206024Y-98634654D01*
X135221930Y-98649070D01*
X135236346Y-98664976D01*
X135249134Y-98682219D01*
X135260170Y-98700632D01*
X135269349Y-98720038D01*
X135276581Y-98740250D01*
X135281797Y-98761074D01*
X135284947Y-98782309D01*
X135286000Y-98803750D01*
X135286000Y-99316250D01*
X135284947Y-99337691D01*
X135281797Y-99358926D01*
X135276581Y-99379750D01*
X135269349Y-99399962D01*
X135260170Y-99419368D01*
X135249134Y-99437781D01*
X135236346Y-99455024D01*
X135221930Y-99470930D01*
X135206024Y-99485346D01*
X135188781Y-99498134D01*
X135170368Y-99509170D01*
X135150962Y-99518349D01*
X135130750Y-99525581D01*
X135109926Y-99530797D01*
X135088691Y-99533947D01*
X135067250Y-99535000D01*
X134629750Y-99535000D01*
X134608309Y-99533947D01*
X134587074Y-99530797D01*
X134566250Y-99525581D01*
X134546038Y-99518349D01*
X134526632Y-99509170D01*
X134508219Y-99498134D01*
X134490976Y-99485346D01*
X134475070Y-99470930D01*
X134460654Y-99455024D01*
X134447866Y-99437781D01*
X134436830Y-99419368D01*
X134427651Y-99399962D01*
X134420419Y-99379750D01*
X134415203Y-99358926D01*
X134412053Y-99337691D01*
X134411000Y-99316250D01*
X134411000Y-98803750D01*
X134412053Y-98782309D01*
X134415203Y-98761074D01*
X134420419Y-98740250D01*
X134427651Y-98720038D01*
X134436830Y-98700632D01*
X134447866Y-98682219D01*
X134460654Y-98664976D01*
X134475070Y-98649070D01*
X134490976Y-98634654D01*
X134508219Y-98621866D01*
X134526632Y-98610830D01*
X134546038Y-98601651D01*
X134566250Y-98594419D01*
X134587074Y-98589203D01*
X134608309Y-98586053D01*
X134629750Y-98585000D01*
X135067250Y-98585000D01*
X135088691Y-98586053D01*
G37*
G36*
X136663691Y-98586053D02*
G01*
X136684926Y-98589203D01*
X136705750Y-98594419D01*
X136725962Y-98601651D01*
X136745368Y-98610830D01*
X136763781Y-98621866D01*
X136781024Y-98634654D01*
X136796930Y-98649070D01*
X136811346Y-98664976D01*
X136824134Y-98682219D01*
X136835170Y-98700632D01*
X136844349Y-98720038D01*
X136851581Y-98740250D01*
X136856797Y-98761074D01*
X136859947Y-98782309D01*
X136861000Y-98803750D01*
X136861000Y-99316250D01*
X136859947Y-99337691D01*
X136856797Y-99358926D01*
X136851581Y-99379750D01*
X136844349Y-99399962D01*
X136835170Y-99419368D01*
X136824134Y-99437781D01*
X136811346Y-99455024D01*
X136796930Y-99470930D01*
X136781024Y-99485346D01*
X136763781Y-99498134D01*
X136745368Y-99509170D01*
X136725962Y-99518349D01*
X136705750Y-99525581D01*
X136684926Y-99530797D01*
X136663691Y-99533947D01*
X136642250Y-99535000D01*
X136204750Y-99535000D01*
X136183309Y-99533947D01*
X136162074Y-99530797D01*
X136141250Y-99525581D01*
X136121038Y-99518349D01*
X136101632Y-99509170D01*
X136083219Y-99498134D01*
X136065976Y-99485346D01*
X136050070Y-99470930D01*
X136035654Y-99455024D01*
X136022866Y-99437781D01*
X136011830Y-99419368D01*
X136002651Y-99399962D01*
X135995419Y-99379750D01*
X135990203Y-99358926D01*
X135987053Y-99337691D01*
X135986000Y-99316250D01*
X135986000Y-98803750D01*
X135987053Y-98782309D01*
X135990203Y-98761074D01*
X135995419Y-98740250D01*
X136002651Y-98720038D01*
X136011830Y-98700632D01*
X136022866Y-98682219D01*
X136035654Y-98664976D01*
X136050070Y-98649070D01*
X136065976Y-98634654D01*
X136083219Y-98621866D01*
X136101632Y-98610830D01*
X136121038Y-98601651D01*
X136141250Y-98594419D01*
X136162074Y-98589203D01*
X136183309Y-98586053D01*
X136204750Y-98585000D01*
X136642250Y-98585000D01*
X136663691Y-98586053D01*
G37*
G36*
X140219691Y-98586053D02*
G01*
X140240926Y-98589203D01*
X140261750Y-98594419D01*
X140281962Y-98601651D01*
X140301368Y-98610830D01*
X140319781Y-98621866D01*
X140337024Y-98634654D01*
X140352930Y-98649070D01*
X140367346Y-98664976D01*
X140380134Y-98682219D01*
X140391170Y-98700632D01*
X140400349Y-98720038D01*
X140407581Y-98740250D01*
X140412797Y-98761074D01*
X140415947Y-98782309D01*
X140417000Y-98803750D01*
X140417000Y-99316250D01*
X140415947Y-99337691D01*
X140412797Y-99358926D01*
X140407581Y-99379750D01*
X140400349Y-99399962D01*
X140391170Y-99419368D01*
X140380134Y-99437781D01*
X140367346Y-99455024D01*
X140352930Y-99470930D01*
X140337024Y-99485346D01*
X140319781Y-99498134D01*
X140301368Y-99509170D01*
X140281962Y-99518349D01*
X140261750Y-99525581D01*
X140240926Y-99530797D01*
X140219691Y-99533947D01*
X140198250Y-99535000D01*
X139760750Y-99535000D01*
X139739309Y-99533947D01*
X139718074Y-99530797D01*
X139697250Y-99525581D01*
X139677038Y-99518349D01*
X139657632Y-99509170D01*
X139639219Y-99498134D01*
X139621976Y-99485346D01*
X139606070Y-99470930D01*
X139591654Y-99455024D01*
X139578866Y-99437781D01*
X139567830Y-99419368D01*
X139558651Y-99399962D01*
X139551419Y-99379750D01*
X139546203Y-99358926D01*
X139543053Y-99337691D01*
X139542000Y-99316250D01*
X139542000Y-98803750D01*
X139543053Y-98782309D01*
X139546203Y-98761074D01*
X139551419Y-98740250D01*
X139558651Y-98720038D01*
X139567830Y-98700632D01*
X139578866Y-98682219D01*
X139591654Y-98664976D01*
X139606070Y-98649070D01*
X139621976Y-98634654D01*
X139639219Y-98621866D01*
X139657632Y-98610830D01*
X139677038Y-98601651D01*
X139697250Y-98594419D01*
X139718074Y-98589203D01*
X139739309Y-98586053D01*
X139760750Y-98585000D01*
X140198250Y-98585000D01*
X140219691Y-98586053D01*
G37*
G36*
X138644691Y-98586053D02*
G01*
X138665926Y-98589203D01*
X138686750Y-98594419D01*
X138706962Y-98601651D01*
X138726368Y-98610830D01*
X138744781Y-98621866D01*
X138762024Y-98634654D01*
X138777930Y-98649070D01*
X138792346Y-98664976D01*
X138805134Y-98682219D01*
X138816170Y-98700632D01*
X138825349Y-98720038D01*
X138832581Y-98740250D01*
X138837797Y-98761074D01*
X138840947Y-98782309D01*
X138842000Y-98803750D01*
X138842000Y-99316250D01*
X138840947Y-99337691D01*
X138837797Y-99358926D01*
X138832581Y-99379750D01*
X138825349Y-99399962D01*
X138816170Y-99419368D01*
X138805134Y-99437781D01*
X138792346Y-99455024D01*
X138777930Y-99470930D01*
X138762024Y-99485346D01*
X138744781Y-99498134D01*
X138726368Y-99509170D01*
X138706962Y-99518349D01*
X138686750Y-99525581D01*
X138665926Y-99530797D01*
X138644691Y-99533947D01*
X138623250Y-99535000D01*
X138185750Y-99535000D01*
X138164309Y-99533947D01*
X138143074Y-99530797D01*
X138122250Y-99525581D01*
X138102038Y-99518349D01*
X138082632Y-99509170D01*
X138064219Y-99498134D01*
X138046976Y-99485346D01*
X138031070Y-99470930D01*
X138016654Y-99455024D01*
X138003866Y-99437781D01*
X137992830Y-99419368D01*
X137983651Y-99399962D01*
X137976419Y-99379750D01*
X137971203Y-99358926D01*
X137968053Y-99337691D01*
X137967000Y-99316250D01*
X137967000Y-98803750D01*
X137968053Y-98782309D01*
X137971203Y-98761074D01*
X137976419Y-98740250D01*
X137983651Y-98720038D01*
X137992830Y-98700632D01*
X138003866Y-98682219D01*
X138016654Y-98664976D01*
X138031070Y-98649070D01*
X138046976Y-98634654D01*
X138064219Y-98621866D01*
X138082632Y-98610830D01*
X138102038Y-98601651D01*
X138122250Y-98594419D01*
X138143074Y-98589203D01*
X138164309Y-98586053D01*
X138185750Y-98585000D01*
X138623250Y-98585000D01*
X138644691Y-98586053D01*
G37*
G36*
X144283691Y-98586053D02*
G01*
X144304926Y-98589203D01*
X144325750Y-98594419D01*
X144345962Y-98601651D01*
X144365368Y-98610830D01*
X144383781Y-98621866D01*
X144401024Y-98634654D01*
X144416930Y-98649070D01*
X144431346Y-98664976D01*
X144444134Y-98682219D01*
X144455170Y-98700632D01*
X144464349Y-98720038D01*
X144471581Y-98740250D01*
X144476797Y-98761074D01*
X144479947Y-98782309D01*
X144481000Y-98803750D01*
X144481000Y-99316250D01*
X144479947Y-99337691D01*
X144476797Y-99358926D01*
X144471581Y-99379750D01*
X144464349Y-99399962D01*
X144455170Y-99419368D01*
X144444134Y-99437781D01*
X144431346Y-99455024D01*
X144416930Y-99470930D01*
X144401024Y-99485346D01*
X144383781Y-99498134D01*
X144365368Y-99509170D01*
X144345962Y-99518349D01*
X144325750Y-99525581D01*
X144304926Y-99530797D01*
X144283691Y-99533947D01*
X144262250Y-99535000D01*
X143824750Y-99535000D01*
X143803309Y-99533947D01*
X143782074Y-99530797D01*
X143761250Y-99525581D01*
X143741038Y-99518349D01*
X143721632Y-99509170D01*
X143703219Y-99498134D01*
X143685976Y-99485346D01*
X143670070Y-99470930D01*
X143655654Y-99455024D01*
X143642866Y-99437781D01*
X143631830Y-99419368D01*
X143622651Y-99399962D01*
X143615419Y-99379750D01*
X143610203Y-99358926D01*
X143607053Y-99337691D01*
X143606000Y-99316250D01*
X143606000Y-98803750D01*
X143607053Y-98782309D01*
X143610203Y-98761074D01*
X143615419Y-98740250D01*
X143622651Y-98720038D01*
X143631830Y-98700632D01*
X143642866Y-98682219D01*
X143655654Y-98664976D01*
X143670070Y-98649070D01*
X143685976Y-98634654D01*
X143703219Y-98621866D01*
X143721632Y-98610830D01*
X143741038Y-98601651D01*
X143761250Y-98594419D01*
X143782074Y-98589203D01*
X143803309Y-98586053D01*
X143824750Y-98585000D01*
X144262250Y-98585000D01*
X144283691Y-98586053D01*
G37*
G36*
X142708691Y-98586053D02*
G01*
X142729926Y-98589203D01*
X142750750Y-98594419D01*
X142770962Y-98601651D01*
X142790368Y-98610830D01*
X142808781Y-98621866D01*
X142826024Y-98634654D01*
X142841930Y-98649070D01*
X142856346Y-98664976D01*
X142869134Y-98682219D01*
X142880170Y-98700632D01*
X142889349Y-98720038D01*
X142896581Y-98740250D01*
X142901797Y-98761074D01*
X142904947Y-98782309D01*
X142906000Y-98803750D01*
X142906000Y-99316250D01*
X142904947Y-99337691D01*
X142901797Y-99358926D01*
X142896581Y-99379750D01*
X142889349Y-99399962D01*
X142880170Y-99419368D01*
X142869134Y-99437781D01*
X142856346Y-99455024D01*
X142841930Y-99470930D01*
X142826024Y-99485346D01*
X142808781Y-99498134D01*
X142790368Y-99509170D01*
X142770962Y-99518349D01*
X142750750Y-99525581D01*
X142729926Y-99530797D01*
X142708691Y-99533947D01*
X142687250Y-99535000D01*
X142249750Y-99535000D01*
X142228309Y-99533947D01*
X142207074Y-99530797D01*
X142186250Y-99525581D01*
X142166038Y-99518349D01*
X142146632Y-99509170D01*
X142128219Y-99498134D01*
X142110976Y-99485346D01*
X142095070Y-99470930D01*
X142080654Y-99455024D01*
X142067866Y-99437781D01*
X142056830Y-99419368D01*
X142047651Y-99399962D01*
X142040419Y-99379750D01*
X142035203Y-99358926D01*
X142032053Y-99337691D01*
X142031000Y-99316250D01*
X142031000Y-98803750D01*
X142032053Y-98782309D01*
X142035203Y-98761074D01*
X142040419Y-98740250D01*
X142047651Y-98720038D01*
X142056830Y-98700632D01*
X142067866Y-98682219D01*
X142080654Y-98664976D01*
X142095070Y-98649070D01*
X142110976Y-98634654D01*
X142128219Y-98621866D01*
X142146632Y-98610830D01*
X142166038Y-98601651D01*
X142186250Y-98594419D01*
X142207074Y-98589203D01*
X142228309Y-98586053D01*
X142249750Y-98585000D01*
X142687250Y-98585000D01*
X142708691Y-98586053D01*
G37*
G36*
X151026691Y-80691053D02*
G01*
X151047926Y-80694203D01*
X151068750Y-80699419D01*
X151088962Y-80706651D01*
X151108368Y-80715830D01*
X151126781Y-80726866D01*
X151144024Y-80739654D01*
X151159930Y-80754070D01*
X151174346Y-80769976D01*
X151187134Y-80787219D01*
X151198170Y-80805632D01*
X151207349Y-80825038D01*
X151214581Y-80845250D01*
X151219797Y-80866074D01*
X151222947Y-80887309D01*
X151224000Y-80908750D01*
X151224000Y-81346250D01*
X151222947Y-81367691D01*
X151219797Y-81388926D01*
X151214581Y-81409750D01*
X151207349Y-81429962D01*
X151198170Y-81449368D01*
X151187134Y-81467781D01*
X151174346Y-81485024D01*
X151159930Y-81500930D01*
X151144024Y-81515346D01*
X151126781Y-81528134D01*
X151108368Y-81539170D01*
X151088962Y-81548349D01*
X151068750Y-81555581D01*
X151047926Y-81560797D01*
X151026691Y-81563947D01*
X151005250Y-81565000D01*
X150492750Y-81565000D01*
X150471309Y-81563947D01*
X150450074Y-81560797D01*
X150429250Y-81555581D01*
X150409038Y-81548349D01*
X150389632Y-81539170D01*
X150371219Y-81528134D01*
X150353976Y-81515346D01*
X150338070Y-81500930D01*
X150323654Y-81485024D01*
X150310866Y-81467781D01*
X150299830Y-81449368D01*
X150290651Y-81429962D01*
X150283419Y-81409750D01*
X150278203Y-81388926D01*
X150275053Y-81367691D01*
X150274000Y-81346250D01*
X150274000Y-80908750D01*
X150275053Y-80887309D01*
X150278203Y-80866074D01*
X150283419Y-80845250D01*
X150290651Y-80825038D01*
X150299830Y-80805632D01*
X150310866Y-80787219D01*
X150323654Y-80769976D01*
X150338070Y-80754070D01*
X150353976Y-80739654D01*
X150371219Y-80726866D01*
X150389632Y-80715830D01*
X150409038Y-80706651D01*
X150429250Y-80699419D01*
X150450074Y-80694203D01*
X150471309Y-80691053D01*
X150492750Y-80690000D01*
X151005250Y-80690000D01*
X151026691Y-80691053D01*
G37*
G36*
X151026691Y-82266053D02*
G01*
X151047926Y-82269203D01*
X151068750Y-82274419D01*
X151088962Y-82281651D01*
X151108368Y-82290830D01*
X151126781Y-82301866D01*
X151144024Y-82314654D01*
X151159930Y-82329070D01*
X151174346Y-82344976D01*
X151187134Y-82362219D01*
X151198170Y-82380632D01*
X151207349Y-82400038D01*
X151214581Y-82420250D01*
X151219797Y-82441074D01*
X151222947Y-82462309D01*
X151224000Y-82483750D01*
X151224000Y-82921250D01*
X151222947Y-82942691D01*
X151219797Y-82963926D01*
X151214581Y-82984750D01*
X151207349Y-83004962D01*
X151198170Y-83024368D01*
X151187134Y-83042781D01*
X151174346Y-83060024D01*
X151159930Y-83075930D01*
X151144024Y-83090346D01*
X151126781Y-83103134D01*
X151108368Y-83114170D01*
X151088962Y-83123349D01*
X151068750Y-83130581D01*
X151047926Y-83135797D01*
X151026691Y-83138947D01*
X151005250Y-83140000D01*
X150492750Y-83140000D01*
X150471309Y-83138947D01*
X150450074Y-83135797D01*
X150429250Y-83130581D01*
X150409038Y-83123349D01*
X150389632Y-83114170D01*
X150371219Y-83103134D01*
X150353976Y-83090346D01*
X150338070Y-83075930D01*
X150323654Y-83060024D01*
X150310866Y-83042781D01*
X150299830Y-83024368D01*
X150290651Y-83004962D01*
X150283419Y-82984750D01*
X150278203Y-82963926D01*
X150275053Y-82942691D01*
X150274000Y-82921250D01*
X150274000Y-82483750D01*
X150275053Y-82462309D01*
X150278203Y-82441074D01*
X150283419Y-82420250D01*
X150290651Y-82400038D01*
X150299830Y-82380632D01*
X150310866Y-82362219D01*
X150323654Y-82344976D01*
X150338070Y-82329070D01*
X150353976Y-82314654D01*
X150371219Y-82301866D01*
X150389632Y-82290830D01*
X150409038Y-82281651D01*
X150429250Y-82274419D01*
X150450074Y-82269203D01*
X150471309Y-82266053D01*
X150492750Y-82265000D01*
X151005250Y-82265000D01*
X151026691Y-82266053D01*
G37*
G36*
X152931691Y-80691053D02*
G01*
X152952926Y-80694203D01*
X152973750Y-80699419D01*
X152993962Y-80706651D01*
X153013368Y-80715830D01*
X153031781Y-80726866D01*
X153049024Y-80739654D01*
X153064930Y-80754070D01*
X153079346Y-80769976D01*
X153092134Y-80787219D01*
X153103170Y-80805632D01*
X153112349Y-80825038D01*
X153119581Y-80845250D01*
X153124797Y-80866074D01*
X153127947Y-80887309D01*
X153129000Y-80908750D01*
X153129000Y-81346250D01*
X153127947Y-81367691D01*
X153124797Y-81388926D01*
X153119581Y-81409750D01*
X153112349Y-81429962D01*
X153103170Y-81449368D01*
X153092134Y-81467781D01*
X153079346Y-81485024D01*
X153064930Y-81500930D01*
X153049024Y-81515346D01*
X153031781Y-81528134D01*
X153013368Y-81539170D01*
X152993962Y-81548349D01*
X152973750Y-81555581D01*
X152952926Y-81560797D01*
X152931691Y-81563947D01*
X152910250Y-81565000D01*
X152397750Y-81565000D01*
X152376309Y-81563947D01*
X152355074Y-81560797D01*
X152334250Y-81555581D01*
X152314038Y-81548349D01*
X152294632Y-81539170D01*
X152276219Y-81528134D01*
X152258976Y-81515346D01*
X152243070Y-81500930D01*
X152228654Y-81485024D01*
X152215866Y-81467781D01*
X152204830Y-81449368D01*
X152195651Y-81429962D01*
X152188419Y-81409750D01*
X152183203Y-81388926D01*
X152180053Y-81367691D01*
X152179000Y-81346250D01*
X152179000Y-80908750D01*
X152180053Y-80887309D01*
X152183203Y-80866074D01*
X152188419Y-80845250D01*
X152195651Y-80825038D01*
X152204830Y-80805632D01*
X152215866Y-80787219D01*
X152228654Y-80769976D01*
X152243070Y-80754070D01*
X152258976Y-80739654D01*
X152276219Y-80726866D01*
X152294632Y-80715830D01*
X152314038Y-80706651D01*
X152334250Y-80699419D01*
X152355074Y-80694203D01*
X152376309Y-80691053D01*
X152397750Y-80690000D01*
X152910250Y-80690000D01*
X152931691Y-80691053D01*
G37*
G36*
X152931691Y-82266053D02*
G01*
X152952926Y-82269203D01*
X152973750Y-82274419D01*
X152993962Y-82281651D01*
X153013368Y-82290830D01*
X153031781Y-82301866D01*
X153049024Y-82314654D01*
X153064930Y-82329070D01*
X153079346Y-82344976D01*
X153092134Y-82362219D01*
X153103170Y-82380632D01*
X153112349Y-82400038D01*
X153119581Y-82420250D01*
X153124797Y-82441074D01*
X153127947Y-82462309D01*
X153129000Y-82483750D01*
X153129000Y-82921250D01*
X153127947Y-82942691D01*
X153124797Y-82963926D01*
X153119581Y-82984750D01*
X153112349Y-83004962D01*
X153103170Y-83024368D01*
X153092134Y-83042781D01*
X153079346Y-83060024D01*
X153064930Y-83075930D01*
X153049024Y-83090346D01*
X153031781Y-83103134D01*
X153013368Y-83114170D01*
X152993962Y-83123349D01*
X152973750Y-83130581D01*
X152952926Y-83135797D01*
X152931691Y-83138947D01*
X152910250Y-83140000D01*
X152397750Y-83140000D01*
X152376309Y-83138947D01*
X152355074Y-83135797D01*
X152334250Y-83130581D01*
X152314038Y-83123349D01*
X152294632Y-83114170D01*
X152276219Y-83103134D01*
X152258976Y-83090346D01*
X152243070Y-83075930D01*
X152228654Y-83060024D01*
X152215866Y-83042781D01*
X152204830Y-83024368D01*
X152195651Y-83004962D01*
X152188419Y-82984750D01*
X152183203Y-82963926D01*
X152180053Y-82942691D01*
X152179000Y-82921250D01*
X152179000Y-82483750D01*
X152180053Y-82462309D01*
X152183203Y-82441074D01*
X152188419Y-82420250D01*
X152195651Y-82400038D01*
X152204830Y-82380632D01*
X152215866Y-82362219D01*
X152228654Y-82344976D01*
X152243070Y-82329070D01*
X152258976Y-82314654D01*
X152276219Y-82301866D01*
X152294632Y-82290830D01*
X152314038Y-82281651D01*
X152334250Y-82274419D01*
X152355074Y-82269203D01*
X152376309Y-82266053D01*
X152397750Y-82265000D01*
X152910250Y-82265000D01*
X152931691Y-82266053D01*
G37*
G36*
X134199691Y-94268053D02*
G01*
X134220926Y-94271203D01*
X134241750Y-94276419D01*
X134261962Y-94283651D01*
X134281368Y-94292830D01*
X134299781Y-94303866D01*
X134317024Y-94316654D01*
X134332930Y-94331070D01*
X134347346Y-94346976D01*
X134360134Y-94364219D01*
X134371170Y-94382632D01*
X134380349Y-94402038D01*
X134387581Y-94422250D01*
X134392797Y-94443074D01*
X134395947Y-94464309D01*
X134397000Y-94485750D01*
X134397000Y-94998250D01*
X134395947Y-95019691D01*
X134392797Y-95040926D01*
X134387581Y-95061750D01*
X134380349Y-95081962D01*
X134371170Y-95101368D01*
X134360134Y-95119781D01*
X134347346Y-95137024D01*
X134332930Y-95152930D01*
X134317024Y-95167346D01*
X134299781Y-95180134D01*
X134281368Y-95191170D01*
X134261962Y-95200349D01*
X134241750Y-95207581D01*
X134220926Y-95212797D01*
X134199691Y-95215947D01*
X134178250Y-95217000D01*
X133740750Y-95217000D01*
X133719309Y-95215947D01*
X133698074Y-95212797D01*
X133677250Y-95207581D01*
X133657038Y-95200349D01*
X133637632Y-95191170D01*
X133619219Y-95180134D01*
X133601976Y-95167346D01*
X133586070Y-95152930D01*
X133571654Y-95137024D01*
X133558866Y-95119781D01*
X133547830Y-95101368D01*
X133538651Y-95081962D01*
X133531419Y-95061750D01*
X133526203Y-95040926D01*
X133523053Y-95019691D01*
X133522000Y-94998250D01*
X133522000Y-94485750D01*
X133523053Y-94464309D01*
X133526203Y-94443074D01*
X133531419Y-94422250D01*
X133538651Y-94402038D01*
X133547830Y-94382632D01*
X133558866Y-94364219D01*
X133571654Y-94346976D01*
X133586070Y-94331070D01*
X133601976Y-94316654D01*
X133619219Y-94303866D01*
X133637632Y-94292830D01*
X133657038Y-94283651D01*
X133677250Y-94276419D01*
X133698074Y-94271203D01*
X133719309Y-94268053D01*
X133740750Y-94267000D01*
X134178250Y-94267000D01*
X134199691Y-94268053D01*
G37*
G36*
X135774691Y-94268053D02*
G01*
X135795926Y-94271203D01*
X135816750Y-94276419D01*
X135836962Y-94283651D01*
X135856368Y-94292830D01*
X135874781Y-94303866D01*
X135892024Y-94316654D01*
X135907930Y-94331070D01*
X135922346Y-94346976D01*
X135935134Y-94364219D01*
X135946170Y-94382632D01*
X135955349Y-94402038D01*
X135962581Y-94422250D01*
X135967797Y-94443074D01*
X135970947Y-94464309D01*
X135972000Y-94485750D01*
X135972000Y-94998250D01*
X135970947Y-95019691D01*
X135967797Y-95040926D01*
X135962581Y-95061750D01*
X135955349Y-95081962D01*
X135946170Y-95101368D01*
X135935134Y-95119781D01*
X135922346Y-95137024D01*
X135907930Y-95152930D01*
X135892024Y-95167346D01*
X135874781Y-95180134D01*
X135856368Y-95191170D01*
X135836962Y-95200349D01*
X135816750Y-95207581D01*
X135795926Y-95212797D01*
X135774691Y-95215947D01*
X135753250Y-95217000D01*
X135315750Y-95217000D01*
X135294309Y-95215947D01*
X135273074Y-95212797D01*
X135252250Y-95207581D01*
X135232038Y-95200349D01*
X135212632Y-95191170D01*
X135194219Y-95180134D01*
X135176976Y-95167346D01*
X135161070Y-95152930D01*
X135146654Y-95137024D01*
X135133866Y-95119781D01*
X135122830Y-95101368D01*
X135113651Y-95081962D01*
X135106419Y-95061750D01*
X135101203Y-95040926D01*
X135098053Y-95019691D01*
X135097000Y-94998250D01*
X135097000Y-94485750D01*
X135098053Y-94464309D01*
X135101203Y-94443074D01*
X135106419Y-94422250D01*
X135113651Y-94402038D01*
X135122830Y-94382632D01*
X135133866Y-94364219D01*
X135146654Y-94346976D01*
X135161070Y-94331070D01*
X135176976Y-94316654D01*
X135194219Y-94303866D01*
X135212632Y-94292830D01*
X135232038Y-94283651D01*
X135252250Y-94276419D01*
X135273074Y-94271203D01*
X135294309Y-94268053D01*
X135315750Y-94267000D01*
X135753250Y-94267000D01*
X135774691Y-94268053D01*
G37*
G36*
X137374691Y-94268053D02*
G01*
X137395926Y-94271203D01*
X137416750Y-94276419D01*
X137436962Y-94283651D01*
X137456368Y-94292830D01*
X137474781Y-94303866D01*
X137492024Y-94316654D01*
X137507930Y-94331070D01*
X137522346Y-94346976D01*
X137535134Y-94364219D01*
X137546170Y-94382632D01*
X137555349Y-94402038D01*
X137562581Y-94422250D01*
X137567797Y-94443074D01*
X137570947Y-94464309D01*
X137572000Y-94485750D01*
X137572000Y-94998250D01*
X137570947Y-95019691D01*
X137567797Y-95040926D01*
X137562581Y-95061750D01*
X137555349Y-95081962D01*
X137546170Y-95101368D01*
X137535134Y-95119781D01*
X137522346Y-95137024D01*
X137507930Y-95152930D01*
X137492024Y-95167346D01*
X137474781Y-95180134D01*
X137456368Y-95191170D01*
X137436962Y-95200349D01*
X137416750Y-95207581D01*
X137395926Y-95212797D01*
X137374691Y-95215947D01*
X137353250Y-95217000D01*
X136915750Y-95217000D01*
X136894309Y-95215947D01*
X136873074Y-95212797D01*
X136852250Y-95207581D01*
X136832038Y-95200349D01*
X136812632Y-95191170D01*
X136794219Y-95180134D01*
X136776976Y-95167346D01*
X136761070Y-95152930D01*
X136746654Y-95137024D01*
X136733866Y-95119781D01*
X136722830Y-95101368D01*
X136713651Y-95081962D01*
X136706419Y-95061750D01*
X136701203Y-95040926D01*
X136698053Y-95019691D01*
X136697000Y-94998250D01*
X136697000Y-94485750D01*
X136698053Y-94464309D01*
X136701203Y-94443074D01*
X136706419Y-94422250D01*
X136713651Y-94402038D01*
X136722830Y-94382632D01*
X136733866Y-94364219D01*
X136746654Y-94346976D01*
X136761070Y-94331070D01*
X136776976Y-94316654D01*
X136794219Y-94303866D01*
X136812632Y-94292830D01*
X136832038Y-94283651D01*
X136852250Y-94276419D01*
X136873074Y-94271203D01*
X136894309Y-94268053D01*
X136915750Y-94267000D01*
X137353250Y-94267000D01*
X137374691Y-94268053D01*
G37*
G36*
X138949691Y-94268053D02*
G01*
X138970926Y-94271203D01*
X138991750Y-94276419D01*
X139011962Y-94283651D01*
X139031368Y-94292830D01*
X139049781Y-94303866D01*
X139067024Y-94316654D01*
X139082930Y-94331070D01*
X139097346Y-94346976D01*
X139110134Y-94364219D01*
X139121170Y-94382632D01*
X139130349Y-94402038D01*
X139137581Y-94422250D01*
X139142797Y-94443074D01*
X139145947Y-94464309D01*
X139147000Y-94485750D01*
X139147000Y-94998250D01*
X139145947Y-95019691D01*
X139142797Y-95040926D01*
X139137581Y-95061750D01*
X139130349Y-95081962D01*
X139121170Y-95101368D01*
X139110134Y-95119781D01*
X139097346Y-95137024D01*
X139082930Y-95152930D01*
X139067024Y-95167346D01*
X139049781Y-95180134D01*
X139031368Y-95191170D01*
X139011962Y-95200349D01*
X138991750Y-95207581D01*
X138970926Y-95212797D01*
X138949691Y-95215947D01*
X138928250Y-95217000D01*
X138490750Y-95217000D01*
X138469309Y-95215947D01*
X138448074Y-95212797D01*
X138427250Y-95207581D01*
X138407038Y-95200349D01*
X138387632Y-95191170D01*
X138369219Y-95180134D01*
X138351976Y-95167346D01*
X138336070Y-95152930D01*
X138321654Y-95137024D01*
X138308866Y-95119781D01*
X138297830Y-95101368D01*
X138288651Y-95081962D01*
X138281419Y-95061750D01*
X138276203Y-95040926D01*
X138273053Y-95019691D01*
X138272000Y-94998250D01*
X138272000Y-94485750D01*
X138273053Y-94464309D01*
X138276203Y-94443074D01*
X138281419Y-94422250D01*
X138288651Y-94402038D01*
X138297830Y-94382632D01*
X138308866Y-94364219D01*
X138321654Y-94346976D01*
X138336070Y-94331070D01*
X138351976Y-94316654D01*
X138369219Y-94303866D01*
X138387632Y-94292830D01*
X138407038Y-94283651D01*
X138427250Y-94276419D01*
X138448074Y-94271203D01*
X138469309Y-94268053D01*
X138490750Y-94267000D01*
X138928250Y-94267000D01*
X138949691Y-94268053D01*
G37*
G36*
X141184691Y-94268053D02*
G01*
X141205926Y-94271203D01*
X141226750Y-94276419D01*
X141246962Y-94283651D01*
X141266368Y-94292830D01*
X141284781Y-94303866D01*
X141302024Y-94316654D01*
X141317930Y-94331070D01*
X141332346Y-94346976D01*
X141345134Y-94364219D01*
X141356170Y-94382632D01*
X141365349Y-94402038D01*
X141372581Y-94422250D01*
X141377797Y-94443074D01*
X141380947Y-94464309D01*
X141382000Y-94485750D01*
X141382000Y-94998250D01*
X141380947Y-95019691D01*
X141377797Y-95040926D01*
X141372581Y-95061750D01*
X141365349Y-95081962D01*
X141356170Y-95101368D01*
X141345134Y-95119781D01*
X141332346Y-95137024D01*
X141317930Y-95152930D01*
X141302024Y-95167346D01*
X141284781Y-95180134D01*
X141266368Y-95191170D01*
X141246962Y-95200349D01*
X141226750Y-95207581D01*
X141205926Y-95212797D01*
X141184691Y-95215947D01*
X141163250Y-95217000D01*
X140725750Y-95217000D01*
X140704309Y-95215947D01*
X140683074Y-95212797D01*
X140662250Y-95207581D01*
X140642038Y-95200349D01*
X140622632Y-95191170D01*
X140604219Y-95180134D01*
X140586976Y-95167346D01*
X140571070Y-95152930D01*
X140556654Y-95137024D01*
X140543866Y-95119781D01*
X140532830Y-95101368D01*
X140523651Y-95081962D01*
X140516419Y-95061750D01*
X140511203Y-95040926D01*
X140508053Y-95019691D01*
X140507000Y-94998250D01*
X140507000Y-94485750D01*
X140508053Y-94464309D01*
X140511203Y-94443074D01*
X140516419Y-94422250D01*
X140523651Y-94402038D01*
X140532830Y-94382632D01*
X140543866Y-94364219D01*
X140556654Y-94346976D01*
X140571070Y-94331070D01*
X140586976Y-94316654D01*
X140604219Y-94303866D01*
X140622632Y-94292830D01*
X140642038Y-94283651D01*
X140662250Y-94276419D01*
X140683074Y-94271203D01*
X140704309Y-94268053D01*
X140725750Y-94267000D01*
X141163250Y-94267000D01*
X141184691Y-94268053D01*
G37*
G36*
X142759691Y-94268053D02*
G01*
X142780926Y-94271203D01*
X142801750Y-94276419D01*
X142821962Y-94283651D01*
X142841368Y-94292830D01*
X142859781Y-94303866D01*
X142877024Y-94316654D01*
X142892930Y-94331070D01*
X142907346Y-94346976D01*
X142920134Y-94364219D01*
X142931170Y-94382632D01*
X142940349Y-94402038D01*
X142947581Y-94422250D01*
X142952797Y-94443074D01*
X142955947Y-94464309D01*
X142957000Y-94485750D01*
X142957000Y-94998250D01*
X142955947Y-95019691D01*
X142952797Y-95040926D01*
X142947581Y-95061750D01*
X142940349Y-95081962D01*
X142931170Y-95101368D01*
X142920134Y-95119781D01*
X142907346Y-95137024D01*
X142892930Y-95152930D01*
X142877024Y-95167346D01*
X142859781Y-95180134D01*
X142841368Y-95191170D01*
X142821962Y-95200349D01*
X142801750Y-95207581D01*
X142780926Y-95212797D01*
X142759691Y-95215947D01*
X142738250Y-95217000D01*
X142300750Y-95217000D01*
X142279309Y-95215947D01*
X142258074Y-95212797D01*
X142237250Y-95207581D01*
X142217038Y-95200349D01*
X142197632Y-95191170D01*
X142179219Y-95180134D01*
X142161976Y-95167346D01*
X142146070Y-95152930D01*
X142131654Y-95137024D01*
X142118866Y-95119781D01*
X142107830Y-95101368D01*
X142098651Y-95081962D01*
X142091419Y-95061750D01*
X142086203Y-95040926D01*
X142083053Y-95019691D01*
X142082000Y-94998250D01*
X142082000Y-94485750D01*
X142083053Y-94464309D01*
X142086203Y-94443074D01*
X142091419Y-94422250D01*
X142098651Y-94402038D01*
X142107830Y-94382632D01*
X142118866Y-94364219D01*
X142131654Y-94346976D01*
X142146070Y-94331070D01*
X142161976Y-94316654D01*
X142179219Y-94303866D01*
X142197632Y-94292830D01*
X142217038Y-94283651D01*
X142237250Y-94276419D01*
X142258074Y-94271203D01*
X142279309Y-94268053D01*
X142300750Y-94267000D01*
X142738250Y-94267000D01*
X142759691Y-94268053D01*
G37*
G36*
X146962691Y-94331053D02*
G01*
X146983926Y-94334203D01*
X147004750Y-94339419D01*
X147024962Y-94346651D01*
X147044368Y-94355830D01*
X147062781Y-94366866D01*
X147080024Y-94379654D01*
X147095930Y-94394070D01*
X147110346Y-94409976D01*
X147123134Y-94427219D01*
X147134170Y-94445632D01*
X147143349Y-94465038D01*
X147150581Y-94485250D01*
X147155797Y-94506074D01*
X147158947Y-94527309D01*
X147160000Y-94548750D01*
X147160000Y-94986250D01*
X147158947Y-95007691D01*
X147155797Y-95028926D01*
X147150581Y-95049750D01*
X147143349Y-95069962D01*
X147134170Y-95089368D01*
X147123134Y-95107781D01*
X147110346Y-95125024D01*
X147095930Y-95140930D01*
X147080024Y-95155346D01*
X147062781Y-95168134D01*
X147044368Y-95179170D01*
X147024962Y-95188349D01*
X147004750Y-95195581D01*
X146983926Y-95200797D01*
X146962691Y-95203947D01*
X146941250Y-95205000D01*
X146428750Y-95205000D01*
X146407309Y-95203947D01*
X146386074Y-95200797D01*
X146365250Y-95195581D01*
X146345038Y-95188349D01*
X146325632Y-95179170D01*
X146307219Y-95168134D01*
X146289976Y-95155346D01*
X146274070Y-95140930D01*
X146259654Y-95125024D01*
X146246866Y-95107781D01*
X146235830Y-95089368D01*
X146226651Y-95069962D01*
X146219419Y-95049750D01*
X146214203Y-95028926D01*
X146211053Y-95007691D01*
X146210000Y-94986250D01*
X146210000Y-94548750D01*
X146211053Y-94527309D01*
X146214203Y-94506074D01*
X146219419Y-94485250D01*
X146226651Y-94465038D01*
X146235830Y-94445632D01*
X146246866Y-94427219D01*
X146259654Y-94409976D01*
X146274070Y-94394070D01*
X146289976Y-94379654D01*
X146307219Y-94366866D01*
X146325632Y-94355830D01*
X146345038Y-94346651D01*
X146365250Y-94339419D01*
X146386074Y-94334203D01*
X146407309Y-94331053D01*
X146428750Y-94330000D01*
X146941250Y-94330000D01*
X146962691Y-94331053D01*
G37*
G36*
X146962691Y-92756053D02*
G01*
X146983926Y-92759203D01*
X147004750Y-92764419D01*
X147024962Y-92771651D01*
X147044368Y-92780830D01*
X147062781Y-92791866D01*
X147080024Y-92804654D01*
X147095930Y-92819070D01*
X147110346Y-92834976D01*
X147123134Y-92852219D01*
X147134170Y-92870632D01*
X147143349Y-92890038D01*
X147150581Y-92910250D01*
X147155797Y-92931074D01*
X147158947Y-92952309D01*
X147160000Y-92973750D01*
X147160000Y-93411250D01*
X147158947Y-93432691D01*
X147155797Y-93453926D01*
X147150581Y-93474750D01*
X147143349Y-93494962D01*
X147134170Y-93514368D01*
X147123134Y-93532781D01*
X147110346Y-93550024D01*
X147095930Y-93565930D01*
X147080024Y-93580346D01*
X147062781Y-93593134D01*
X147044368Y-93604170D01*
X147024962Y-93613349D01*
X147004750Y-93620581D01*
X146983926Y-93625797D01*
X146962691Y-93628947D01*
X146941250Y-93630000D01*
X146428750Y-93630000D01*
X146407309Y-93628947D01*
X146386074Y-93625797D01*
X146365250Y-93620581D01*
X146345038Y-93613349D01*
X146325632Y-93604170D01*
X146307219Y-93593134D01*
X146289976Y-93580346D01*
X146274070Y-93565930D01*
X146259654Y-93550024D01*
X146246866Y-93532781D01*
X146235830Y-93514368D01*
X146226651Y-93494962D01*
X146219419Y-93474750D01*
X146214203Y-93453926D01*
X146211053Y-93432691D01*
X146210000Y-93411250D01*
X146210000Y-92973750D01*
X146211053Y-92952309D01*
X146214203Y-92931074D01*
X146219419Y-92910250D01*
X146226651Y-92890038D01*
X146235830Y-92870632D01*
X146246866Y-92852219D01*
X146259654Y-92834976D01*
X146274070Y-92819070D01*
X146289976Y-92804654D01*
X146307219Y-92791866D01*
X146325632Y-92780830D01*
X146345038Y-92771651D01*
X146365250Y-92764419D01*
X146386074Y-92759203D01*
X146407309Y-92756053D01*
X146428750Y-92755000D01*
X146941250Y-92755000D01*
X146962691Y-92756053D01*
G37*
G36*
X145057691Y-94331053D02*
G01*
X145078926Y-94334203D01*
X145099750Y-94339419D01*
X145119962Y-94346651D01*
X145139368Y-94355830D01*
X145157781Y-94366866D01*
X145175024Y-94379654D01*
X145190930Y-94394070D01*
X145205346Y-94409976D01*
X145218134Y-94427219D01*
X145229170Y-94445632D01*
X145238349Y-94465038D01*
X145245581Y-94485250D01*
X145250797Y-94506074D01*
X145253947Y-94527309D01*
X145255000Y-94548750D01*
X145255000Y-94986250D01*
X145253947Y-95007691D01*
X145250797Y-95028926D01*
X145245581Y-95049750D01*
X145238349Y-95069962D01*
X145229170Y-95089368D01*
X145218134Y-95107781D01*
X145205346Y-95125024D01*
X145190930Y-95140930D01*
X145175024Y-95155346D01*
X145157781Y-95168134D01*
X145139368Y-95179170D01*
X145119962Y-95188349D01*
X145099750Y-95195581D01*
X145078926Y-95200797D01*
X145057691Y-95203947D01*
X145036250Y-95205000D01*
X144523750Y-95205000D01*
X144502309Y-95203947D01*
X144481074Y-95200797D01*
X144460250Y-95195581D01*
X144440038Y-95188349D01*
X144420632Y-95179170D01*
X144402219Y-95168134D01*
X144384976Y-95155346D01*
X144369070Y-95140930D01*
X144354654Y-95125024D01*
X144341866Y-95107781D01*
X144330830Y-95089368D01*
X144321651Y-95069962D01*
X144314419Y-95049750D01*
X144309203Y-95028926D01*
X144306053Y-95007691D01*
X144305000Y-94986250D01*
X144305000Y-94548750D01*
X144306053Y-94527309D01*
X144309203Y-94506074D01*
X144314419Y-94485250D01*
X144321651Y-94465038D01*
X144330830Y-94445632D01*
X144341866Y-94427219D01*
X144354654Y-94409976D01*
X144369070Y-94394070D01*
X144384976Y-94379654D01*
X144402219Y-94366866D01*
X144420632Y-94355830D01*
X144440038Y-94346651D01*
X144460250Y-94339419D01*
X144481074Y-94334203D01*
X144502309Y-94331053D01*
X144523750Y-94330000D01*
X145036250Y-94330000D01*
X145057691Y-94331053D01*
G37*
G36*
X145057691Y-92756053D02*
G01*
X145078926Y-92759203D01*
X145099750Y-92764419D01*
X145119962Y-92771651D01*
X145139368Y-92780830D01*
X145157781Y-92791866D01*
X145175024Y-92804654D01*
X145190930Y-92819070D01*
X145205346Y-92834976D01*
X145218134Y-92852219D01*
X145229170Y-92870632D01*
X145238349Y-92890038D01*
X145245581Y-92910250D01*
X145250797Y-92931074D01*
X145253947Y-92952309D01*
X145255000Y-92973750D01*
X145255000Y-93411250D01*
X145253947Y-93432691D01*
X145250797Y-93453926D01*
X145245581Y-93474750D01*
X145238349Y-93494962D01*
X145229170Y-93514368D01*
X145218134Y-93532781D01*
X145205346Y-93550024D01*
X145190930Y-93565930D01*
X145175024Y-93580346D01*
X145157781Y-93593134D01*
X145139368Y-93604170D01*
X145119962Y-93613349D01*
X145099750Y-93620581D01*
X145078926Y-93625797D01*
X145057691Y-93628947D01*
X145036250Y-93630000D01*
X144523750Y-93630000D01*
X144502309Y-93628947D01*
X144481074Y-93625797D01*
X144460250Y-93620581D01*
X144440038Y-93613349D01*
X144420632Y-93604170D01*
X144402219Y-93593134D01*
X144384976Y-93580346D01*
X144369070Y-93565930D01*
X144354654Y-93550024D01*
X144341866Y-93532781D01*
X144330830Y-93514368D01*
X144321651Y-93494962D01*
X144314419Y-93474750D01*
X144309203Y-93453926D01*
X144306053Y-93432691D01*
X144305000Y-93411250D01*
X144305000Y-92973750D01*
X144306053Y-92952309D01*
X144309203Y-92931074D01*
X144314419Y-92910250D01*
X144321651Y-92890038D01*
X144330830Y-92870632D01*
X144341866Y-92852219D01*
X144354654Y-92834976D01*
X144369070Y-92819070D01*
X144384976Y-92804654D01*
X144402219Y-92791866D01*
X144420632Y-92780830D01*
X144440038Y-92771651D01*
X144460250Y-92764419D01*
X144481074Y-92759203D01*
X144502309Y-92756053D01*
X144523750Y-92755000D01*
X145036250Y-92755000D01*
X145057691Y-92756053D01*
G37*
G36*
X131202691Y-92871053D02*
G01*
X131223926Y-92874203D01*
X131244750Y-92879419D01*
X131264962Y-92886651D01*
X131284368Y-92895830D01*
X131302781Y-92906866D01*
X131320024Y-92919654D01*
X131335930Y-92934070D01*
X131350346Y-92949976D01*
X131363134Y-92967219D01*
X131374170Y-92985632D01*
X131383349Y-93005038D01*
X131390581Y-93025250D01*
X131395797Y-93046074D01*
X131398947Y-93067309D01*
X131400000Y-93088750D01*
X131400000Y-93601250D01*
X131398947Y-93622691D01*
X131395797Y-93643926D01*
X131390581Y-93664750D01*
X131383349Y-93684962D01*
X131374170Y-93704368D01*
X131363134Y-93722781D01*
X131350346Y-93740024D01*
X131335930Y-93755930D01*
X131320024Y-93770346D01*
X131302781Y-93783134D01*
X131284368Y-93794170D01*
X131264962Y-93803349D01*
X131244750Y-93810581D01*
X131223926Y-93815797D01*
X131202691Y-93818947D01*
X131181250Y-93820000D01*
X130743750Y-93820000D01*
X130722309Y-93818947D01*
X130701074Y-93815797D01*
X130680250Y-93810581D01*
X130660038Y-93803349D01*
X130640632Y-93794170D01*
X130622219Y-93783134D01*
X130604976Y-93770346D01*
X130589070Y-93755930D01*
X130574654Y-93740024D01*
X130561866Y-93722781D01*
X130550830Y-93704368D01*
X130541651Y-93684962D01*
X130534419Y-93664750D01*
X130529203Y-93643926D01*
X130526053Y-93622691D01*
X130525000Y-93601250D01*
X130525000Y-93088750D01*
X130526053Y-93067309D01*
X130529203Y-93046074D01*
X130534419Y-93025250D01*
X130541651Y-93005038D01*
X130550830Y-92985632D01*
X130561866Y-92967219D01*
X130574654Y-92949976D01*
X130589070Y-92934070D01*
X130604976Y-92919654D01*
X130622219Y-92906866D01*
X130640632Y-92895830D01*
X130660038Y-92886651D01*
X130680250Y-92879419D01*
X130701074Y-92874203D01*
X130722309Y-92871053D01*
X130743750Y-92870000D01*
X131181250Y-92870000D01*
X131202691Y-92871053D01*
G37*
G36*
X129627691Y-92871053D02*
G01*
X129648926Y-92874203D01*
X129669750Y-92879419D01*
X129689962Y-92886651D01*
X129709368Y-92895830D01*
X129727781Y-92906866D01*
X129745024Y-92919654D01*
X129760930Y-92934070D01*
X129775346Y-92949976D01*
X129788134Y-92967219D01*
X129799170Y-92985632D01*
X129808349Y-93005038D01*
X129815581Y-93025250D01*
X129820797Y-93046074D01*
X129823947Y-93067309D01*
X129825000Y-93088750D01*
X129825000Y-93601250D01*
X129823947Y-93622691D01*
X129820797Y-93643926D01*
X129815581Y-93664750D01*
X129808349Y-93684962D01*
X129799170Y-93704368D01*
X129788134Y-93722781D01*
X129775346Y-93740024D01*
X129760930Y-93755930D01*
X129745024Y-93770346D01*
X129727781Y-93783134D01*
X129709368Y-93794170D01*
X129689962Y-93803349D01*
X129669750Y-93810581D01*
X129648926Y-93815797D01*
X129627691Y-93818947D01*
X129606250Y-93820000D01*
X129168750Y-93820000D01*
X129147309Y-93818947D01*
X129126074Y-93815797D01*
X129105250Y-93810581D01*
X129085038Y-93803349D01*
X129065632Y-93794170D01*
X129047219Y-93783134D01*
X129029976Y-93770346D01*
X129014070Y-93755930D01*
X128999654Y-93740024D01*
X128986866Y-93722781D01*
X128975830Y-93704368D01*
X128966651Y-93684962D01*
X128959419Y-93664750D01*
X128954203Y-93643926D01*
X128951053Y-93622691D01*
X128950000Y-93601250D01*
X128950000Y-93088750D01*
X128951053Y-93067309D01*
X128954203Y-93046074D01*
X128959419Y-93025250D01*
X128966651Y-93005038D01*
X128975830Y-92985632D01*
X128986866Y-92967219D01*
X128999654Y-92949976D01*
X129014070Y-92934070D01*
X129029976Y-92919654D01*
X129047219Y-92906866D01*
X129065632Y-92895830D01*
X129085038Y-92886651D01*
X129105250Y-92879419D01*
X129126074Y-92874203D01*
X129147309Y-92871053D01*
X129168750Y-92870000D01*
X129606250Y-92870000D01*
X129627691Y-92871053D01*
G37*
G36*
X131202691Y-95411053D02*
G01*
X131223926Y-95414203D01*
X131244750Y-95419419D01*
X131264962Y-95426651D01*
X131284368Y-95435830D01*
X131302781Y-95446866D01*
X131320024Y-95459654D01*
X131335930Y-95474070D01*
X131350346Y-95489976D01*
X131363134Y-95507219D01*
X131374170Y-95525632D01*
X131383349Y-95545038D01*
X131390581Y-95565250D01*
X131395797Y-95586074D01*
X131398947Y-95607309D01*
X131400000Y-95628750D01*
X131400000Y-96141250D01*
X131398947Y-96162691D01*
X131395797Y-96183926D01*
X131390581Y-96204750D01*
X131383349Y-96224962D01*
X131374170Y-96244368D01*
X131363134Y-96262781D01*
X131350346Y-96280024D01*
X131335930Y-96295930D01*
X131320024Y-96310346D01*
X131302781Y-96323134D01*
X131284368Y-96334170D01*
X131264962Y-96343349D01*
X131244750Y-96350581D01*
X131223926Y-96355797D01*
X131202691Y-96358947D01*
X131181250Y-96360000D01*
X130743750Y-96360000D01*
X130722309Y-96358947D01*
X130701074Y-96355797D01*
X130680250Y-96350581D01*
X130660038Y-96343349D01*
X130640632Y-96334170D01*
X130622219Y-96323134D01*
X130604976Y-96310346D01*
X130589070Y-96295930D01*
X130574654Y-96280024D01*
X130561866Y-96262781D01*
X130550830Y-96244368D01*
X130541651Y-96224962D01*
X130534419Y-96204750D01*
X130529203Y-96183926D01*
X130526053Y-96162691D01*
X130525000Y-96141250D01*
X130525000Y-95628750D01*
X130526053Y-95607309D01*
X130529203Y-95586074D01*
X130534419Y-95565250D01*
X130541651Y-95545038D01*
X130550830Y-95525632D01*
X130561866Y-95507219D01*
X130574654Y-95489976D01*
X130589070Y-95474070D01*
X130604976Y-95459654D01*
X130622219Y-95446866D01*
X130640632Y-95435830D01*
X130660038Y-95426651D01*
X130680250Y-95419419D01*
X130701074Y-95414203D01*
X130722309Y-95411053D01*
X130743750Y-95410000D01*
X131181250Y-95410000D01*
X131202691Y-95411053D01*
G37*
G36*
X129627691Y-95411053D02*
G01*
X129648926Y-95414203D01*
X129669750Y-95419419D01*
X129689962Y-95426651D01*
X129709368Y-95435830D01*
X129727781Y-95446866D01*
X129745024Y-95459654D01*
X129760930Y-95474070D01*
X129775346Y-95489976D01*
X129788134Y-95507219D01*
X129799170Y-95525632D01*
X129808349Y-95545038D01*
X129815581Y-95565250D01*
X129820797Y-95586074D01*
X129823947Y-95607309D01*
X129825000Y-95628750D01*
X129825000Y-96141250D01*
X129823947Y-96162691D01*
X129820797Y-96183926D01*
X129815581Y-96204750D01*
X129808349Y-96224962D01*
X129799170Y-96244368D01*
X129788134Y-96262781D01*
X129775346Y-96280024D01*
X129760930Y-96295930D01*
X129745024Y-96310346D01*
X129727781Y-96323134D01*
X129709368Y-96334170D01*
X129689962Y-96343349D01*
X129669750Y-96350581D01*
X129648926Y-96355797D01*
X129627691Y-96358947D01*
X129606250Y-96360000D01*
X129168750Y-96360000D01*
X129147309Y-96358947D01*
X129126074Y-96355797D01*
X129105250Y-96350581D01*
X129085038Y-96343349D01*
X129065632Y-96334170D01*
X129047219Y-96323134D01*
X129029976Y-96310346D01*
X129014070Y-96295930D01*
X128999654Y-96280024D01*
X128986866Y-96262781D01*
X128975830Y-96244368D01*
X128966651Y-96224962D01*
X128959419Y-96204750D01*
X128954203Y-96183926D01*
X128951053Y-96162691D01*
X128950000Y-96141250D01*
X128950000Y-95628750D01*
X128951053Y-95607309D01*
X128954203Y-95586074D01*
X128959419Y-95565250D01*
X128966651Y-95545038D01*
X128975830Y-95525632D01*
X128986866Y-95507219D01*
X128999654Y-95489976D01*
X129014070Y-95474070D01*
X129029976Y-95459654D01*
X129047219Y-95446866D01*
X129065632Y-95435830D01*
X129085038Y-95426651D01*
X129105250Y-95419419D01*
X129126074Y-95414203D01*
X129147309Y-95411053D01*
X129168750Y-95410000D01*
X129606250Y-95410000D01*
X129627691Y-95411053D01*
G37*
G36*
X135088691Y-100618053D02*
G01*
X135109926Y-100621203D01*
X135130750Y-100626419D01*
X135150962Y-100633651D01*
X135170368Y-100642830D01*
X135188781Y-100653866D01*
X135206024Y-100666654D01*
X135221930Y-100681070D01*
X135236346Y-100696976D01*
X135249134Y-100714219D01*
X135260170Y-100732632D01*
X135269349Y-100752038D01*
X135276581Y-100772250D01*
X135281797Y-100793074D01*
X135284947Y-100814309D01*
X135286000Y-100835750D01*
X135286000Y-101348250D01*
X135284947Y-101369691D01*
X135281797Y-101390926D01*
X135276581Y-101411750D01*
X135269349Y-101431962D01*
X135260170Y-101451368D01*
X135249134Y-101469781D01*
X135236346Y-101487024D01*
X135221930Y-101502930D01*
X135206024Y-101517346D01*
X135188781Y-101530134D01*
X135170368Y-101541170D01*
X135150962Y-101550349D01*
X135130750Y-101557581D01*
X135109926Y-101562797D01*
X135088691Y-101565947D01*
X135067250Y-101567000D01*
X134629750Y-101567000D01*
X134608309Y-101565947D01*
X134587074Y-101562797D01*
X134566250Y-101557581D01*
X134546038Y-101550349D01*
X134526632Y-101541170D01*
X134508219Y-101530134D01*
X134490976Y-101517346D01*
X134475070Y-101502930D01*
X134460654Y-101487024D01*
X134447866Y-101469781D01*
X134436830Y-101451368D01*
X134427651Y-101431962D01*
X134420419Y-101411750D01*
X134415203Y-101390926D01*
X134412053Y-101369691D01*
X134411000Y-101348250D01*
X134411000Y-100835750D01*
X134412053Y-100814309D01*
X134415203Y-100793074D01*
X134420419Y-100772250D01*
X134427651Y-100752038D01*
X134436830Y-100732632D01*
X134447866Y-100714219D01*
X134460654Y-100696976D01*
X134475070Y-100681070D01*
X134490976Y-100666654D01*
X134508219Y-100653866D01*
X134526632Y-100642830D01*
X134546038Y-100633651D01*
X134566250Y-100626419D01*
X134587074Y-100621203D01*
X134608309Y-100618053D01*
X134629750Y-100617000D01*
X135067250Y-100617000D01*
X135088691Y-100618053D01*
G37*
G36*
X136663691Y-100618053D02*
G01*
X136684926Y-100621203D01*
X136705750Y-100626419D01*
X136725962Y-100633651D01*
X136745368Y-100642830D01*
X136763781Y-100653866D01*
X136781024Y-100666654D01*
X136796930Y-100681070D01*
X136811346Y-100696976D01*
X136824134Y-100714219D01*
X136835170Y-100732632D01*
X136844349Y-100752038D01*
X136851581Y-100772250D01*
X136856797Y-100793074D01*
X136859947Y-100814309D01*
X136861000Y-100835750D01*
X136861000Y-101348250D01*
X136859947Y-101369691D01*
X136856797Y-101390926D01*
X136851581Y-101411750D01*
X136844349Y-101431962D01*
X136835170Y-101451368D01*
X136824134Y-101469781D01*
X136811346Y-101487024D01*
X136796930Y-101502930D01*
X136781024Y-101517346D01*
X136763781Y-101530134D01*
X136745368Y-101541170D01*
X136725962Y-101550349D01*
X136705750Y-101557581D01*
X136684926Y-101562797D01*
X136663691Y-101565947D01*
X136642250Y-101567000D01*
X136204750Y-101567000D01*
X136183309Y-101565947D01*
X136162074Y-101562797D01*
X136141250Y-101557581D01*
X136121038Y-101550349D01*
X136101632Y-101541170D01*
X136083219Y-101530134D01*
X136065976Y-101517346D01*
X136050070Y-101502930D01*
X136035654Y-101487024D01*
X136022866Y-101469781D01*
X136011830Y-101451368D01*
X136002651Y-101431962D01*
X135995419Y-101411750D01*
X135990203Y-101390926D01*
X135987053Y-101369691D01*
X135986000Y-101348250D01*
X135986000Y-100835750D01*
X135987053Y-100814309D01*
X135990203Y-100793074D01*
X135995419Y-100772250D01*
X136002651Y-100752038D01*
X136011830Y-100732632D01*
X136022866Y-100714219D01*
X136035654Y-100696976D01*
X136050070Y-100681070D01*
X136065976Y-100666654D01*
X136083219Y-100653866D01*
X136101632Y-100642830D01*
X136121038Y-100633651D01*
X136141250Y-100626419D01*
X136162074Y-100621203D01*
X136183309Y-100618053D01*
X136204750Y-100617000D01*
X136642250Y-100617000D01*
X136663691Y-100618053D01*
G37*
G36*
X138644691Y-100618053D02*
G01*
X138665926Y-100621203D01*
X138686750Y-100626419D01*
X138706962Y-100633651D01*
X138726368Y-100642830D01*
X138744781Y-100653866D01*
X138762024Y-100666654D01*
X138777930Y-100681070D01*
X138792346Y-100696976D01*
X138805134Y-100714219D01*
X138816170Y-100732632D01*
X138825349Y-100752038D01*
X138832581Y-100772250D01*
X138837797Y-100793074D01*
X138840947Y-100814309D01*
X138842000Y-100835750D01*
X138842000Y-101348250D01*
X138840947Y-101369691D01*
X138837797Y-101390926D01*
X138832581Y-101411750D01*
X138825349Y-101431962D01*
X138816170Y-101451368D01*
X138805134Y-101469781D01*
X138792346Y-101487024D01*
X138777930Y-101502930D01*
X138762024Y-101517346D01*
X138744781Y-101530134D01*
X138726368Y-101541170D01*
X138706962Y-101550349D01*
X138686750Y-101557581D01*
X138665926Y-101562797D01*
X138644691Y-101565947D01*
X138623250Y-101567000D01*
X138185750Y-101567000D01*
X138164309Y-101565947D01*
X138143074Y-101562797D01*
X138122250Y-101557581D01*
X138102038Y-101550349D01*
X138082632Y-101541170D01*
X138064219Y-101530134D01*
X138046976Y-101517346D01*
X138031070Y-101502930D01*
X138016654Y-101487024D01*
X138003866Y-101469781D01*
X137992830Y-101451368D01*
X137983651Y-101431962D01*
X137976419Y-101411750D01*
X137971203Y-101390926D01*
X137968053Y-101369691D01*
X137967000Y-101348250D01*
X137967000Y-100835750D01*
X137968053Y-100814309D01*
X137971203Y-100793074D01*
X137976419Y-100772250D01*
X137983651Y-100752038D01*
X137992830Y-100732632D01*
X138003866Y-100714219D01*
X138016654Y-100696976D01*
X138031070Y-100681070D01*
X138046976Y-100666654D01*
X138064219Y-100653866D01*
X138082632Y-100642830D01*
X138102038Y-100633651D01*
X138122250Y-100626419D01*
X138143074Y-100621203D01*
X138164309Y-100618053D01*
X138185750Y-100617000D01*
X138623250Y-100617000D01*
X138644691Y-100618053D01*
G37*
G36*
X140219691Y-100618053D02*
G01*
X140240926Y-100621203D01*
X140261750Y-100626419D01*
X140281962Y-100633651D01*
X140301368Y-100642830D01*
X140319781Y-100653866D01*
X140337024Y-100666654D01*
X140352930Y-100681070D01*
X140367346Y-100696976D01*
X140380134Y-100714219D01*
X140391170Y-100732632D01*
X140400349Y-100752038D01*
X140407581Y-100772250D01*
X140412797Y-100793074D01*
X140415947Y-100814309D01*
X140417000Y-100835750D01*
X140417000Y-101348250D01*
X140415947Y-101369691D01*
X140412797Y-101390926D01*
X140407581Y-101411750D01*
X140400349Y-101431962D01*
X140391170Y-101451368D01*
X140380134Y-101469781D01*
X140367346Y-101487024D01*
X140352930Y-101502930D01*
X140337024Y-101517346D01*
X140319781Y-101530134D01*
X140301368Y-101541170D01*
X140281962Y-101550349D01*
X140261750Y-101557581D01*
X140240926Y-101562797D01*
X140219691Y-101565947D01*
X140198250Y-101567000D01*
X139760750Y-101567000D01*
X139739309Y-101565947D01*
X139718074Y-101562797D01*
X139697250Y-101557581D01*
X139677038Y-101550349D01*
X139657632Y-101541170D01*
X139639219Y-101530134D01*
X139621976Y-101517346D01*
X139606070Y-101502930D01*
X139591654Y-101487024D01*
X139578866Y-101469781D01*
X139567830Y-101451368D01*
X139558651Y-101431962D01*
X139551419Y-101411750D01*
X139546203Y-101390926D01*
X139543053Y-101369691D01*
X139542000Y-101348250D01*
X139542000Y-100835750D01*
X139543053Y-100814309D01*
X139546203Y-100793074D01*
X139551419Y-100772250D01*
X139558651Y-100752038D01*
X139567830Y-100732632D01*
X139578866Y-100714219D01*
X139591654Y-100696976D01*
X139606070Y-100681070D01*
X139621976Y-100666654D01*
X139639219Y-100653866D01*
X139657632Y-100642830D01*
X139677038Y-100633651D01*
X139697250Y-100626419D01*
X139718074Y-100621203D01*
X139739309Y-100618053D01*
X139760750Y-100617000D01*
X140198250Y-100617000D01*
X140219691Y-100618053D01*
G37*
G36*
X144283691Y-100618053D02*
G01*
X144304926Y-100621203D01*
X144325750Y-100626419D01*
X144345962Y-100633651D01*
X144365368Y-100642830D01*
X144383781Y-100653866D01*
X144401024Y-100666654D01*
X144416930Y-100681070D01*
X144431346Y-100696976D01*
X144444134Y-100714219D01*
X144455170Y-100732632D01*
X144464349Y-100752038D01*
X144471581Y-100772250D01*
X144476797Y-100793074D01*
X144479947Y-100814309D01*
X144481000Y-100835750D01*
X144481000Y-101348250D01*
X144479947Y-101369691D01*
X144476797Y-101390926D01*
X144471581Y-101411750D01*
X144464349Y-101431962D01*
X144455170Y-101451368D01*
X144444134Y-101469781D01*
X144431346Y-101487024D01*
X144416930Y-101502930D01*
X144401024Y-101517346D01*
X144383781Y-101530134D01*
X144365368Y-101541170D01*
X144345962Y-101550349D01*
X144325750Y-101557581D01*
X144304926Y-101562797D01*
X144283691Y-101565947D01*
X144262250Y-101567000D01*
X143824750Y-101567000D01*
X143803309Y-101565947D01*
X143782074Y-101562797D01*
X143761250Y-101557581D01*
X143741038Y-101550349D01*
X143721632Y-101541170D01*
X143703219Y-101530134D01*
X143685976Y-101517346D01*
X143670070Y-101502930D01*
X143655654Y-101487024D01*
X143642866Y-101469781D01*
X143631830Y-101451368D01*
X143622651Y-101431962D01*
X143615419Y-101411750D01*
X143610203Y-101390926D01*
X143607053Y-101369691D01*
X143606000Y-101348250D01*
X143606000Y-100835750D01*
X143607053Y-100814309D01*
X143610203Y-100793074D01*
X143615419Y-100772250D01*
X143622651Y-100752038D01*
X143631830Y-100732632D01*
X143642866Y-100714219D01*
X143655654Y-100696976D01*
X143670070Y-100681070D01*
X143685976Y-100666654D01*
X143703219Y-100653866D01*
X143721632Y-100642830D01*
X143741038Y-100633651D01*
X143761250Y-100626419D01*
X143782074Y-100621203D01*
X143803309Y-100618053D01*
X143824750Y-100617000D01*
X144262250Y-100617000D01*
X144283691Y-100618053D01*
G37*
G36*
X142708691Y-100618053D02*
G01*
X142729926Y-100621203D01*
X142750750Y-100626419D01*
X142770962Y-100633651D01*
X142790368Y-100642830D01*
X142808781Y-100653866D01*
X142826024Y-100666654D01*
X142841930Y-100681070D01*
X142856346Y-100696976D01*
X142869134Y-100714219D01*
X142880170Y-100732632D01*
X142889349Y-100752038D01*
X142896581Y-100772250D01*
X142901797Y-100793074D01*
X142904947Y-100814309D01*
X142906000Y-100835750D01*
X142906000Y-101348250D01*
X142904947Y-101369691D01*
X142901797Y-101390926D01*
X142896581Y-101411750D01*
X142889349Y-101431962D01*
X142880170Y-101451368D01*
X142869134Y-101469781D01*
X142856346Y-101487024D01*
X142841930Y-101502930D01*
X142826024Y-101517346D01*
X142808781Y-101530134D01*
X142790368Y-101541170D01*
X142770962Y-101550349D01*
X142750750Y-101557581D01*
X142729926Y-101562797D01*
X142708691Y-101565947D01*
X142687250Y-101567000D01*
X142249750Y-101567000D01*
X142228309Y-101565947D01*
X142207074Y-101562797D01*
X142186250Y-101557581D01*
X142166038Y-101550349D01*
X142146632Y-101541170D01*
X142128219Y-101530134D01*
X142110976Y-101517346D01*
X142095070Y-101502930D01*
X142080654Y-101487024D01*
X142067866Y-101469781D01*
X142056830Y-101451368D01*
X142047651Y-101431962D01*
X142040419Y-101411750D01*
X142035203Y-101390926D01*
X142032053Y-101369691D01*
X142031000Y-101348250D01*
X142031000Y-100835750D01*
X142032053Y-100814309D01*
X142035203Y-100793074D01*
X142040419Y-100772250D01*
X142047651Y-100752038D01*
X142056830Y-100732632D01*
X142067866Y-100714219D01*
X142080654Y-100696976D01*
X142095070Y-100681070D01*
X142110976Y-100666654D01*
X142128219Y-100653866D01*
X142146632Y-100642830D01*
X142166038Y-100633651D01*
X142186250Y-100626419D01*
X142207074Y-100621203D01*
X142228309Y-100618053D01*
X142249750Y-100617000D01*
X142687250Y-100617000D01*
X142708691Y-100618053D01*
G37*
G36*
X153312691Y-70531053D02*
G01*
X153333926Y-70534203D01*
X153354750Y-70539419D01*
X153374962Y-70546651D01*
X153394368Y-70555830D01*
X153412781Y-70566866D01*
X153430024Y-70579654D01*
X153445930Y-70594070D01*
X153460346Y-70609976D01*
X153473134Y-70627219D01*
X153484170Y-70645632D01*
X153493349Y-70665038D01*
X153500581Y-70685250D01*
X153505797Y-70706074D01*
X153508947Y-70727309D01*
X153510000Y-70748750D01*
X153510000Y-71186250D01*
X153508947Y-71207691D01*
X153505797Y-71228926D01*
X153500581Y-71249750D01*
X153493349Y-71269962D01*
X153484170Y-71289368D01*
X153473134Y-71307781D01*
X153460346Y-71325024D01*
X153445930Y-71340930D01*
X153430024Y-71355346D01*
X153412781Y-71368134D01*
X153394368Y-71379170D01*
X153374962Y-71388349D01*
X153354750Y-71395581D01*
X153333926Y-71400797D01*
X153312691Y-71403947D01*
X153291250Y-71405000D01*
X152778750Y-71405000D01*
X152757309Y-71403947D01*
X152736074Y-71400797D01*
X152715250Y-71395581D01*
X152695038Y-71388349D01*
X152675632Y-71379170D01*
X152657219Y-71368134D01*
X152639976Y-71355346D01*
X152624070Y-71340930D01*
X152609654Y-71325024D01*
X152596866Y-71307781D01*
X152585830Y-71289368D01*
X152576651Y-71269962D01*
X152569419Y-71249750D01*
X152564203Y-71228926D01*
X152561053Y-71207691D01*
X152560000Y-71186250D01*
X152560000Y-70748750D01*
X152561053Y-70727309D01*
X152564203Y-70706074D01*
X152569419Y-70685250D01*
X152576651Y-70665038D01*
X152585830Y-70645632D01*
X152596866Y-70627219D01*
X152609654Y-70609976D01*
X152624070Y-70594070D01*
X152639976Y-70579654D01*
X152657219Y-70566866D01*
X152675632Y-70555830D01*
X152695038Y-70546651D01*
X152715250Y-70539419D01*
X152736074Y-70534203D01*
X152757309Y-70531053D01*
X152778750Y-70530000D01*
X153291250Y-70530000D01*
X153312691Y-70531053D01*
G37*
G36*
X153312691Y-72106053D02*
G01*
X153333926Y-72109203D01*
X153354750Y-72114419D01*
X153374962Y-72121651D01*
X153394368Y-72130830D01*
X153412781Y-72141866D01*
X153430024Y-72154654D01*
X153445930Y-72169070D01*
X153460346Y-72184976D01*
X153473134Y-72202219D01*
X153484170Y-72220632D01*
X153493349Y-72240038D01*
X153500581Y-72260250D01*
X153505797Y-72281074D01*
X153508947Y-72302309D01*
X153510000Y-72323750D01*
X153510000Y-72761250D01*
X153508947Y-72782691D01*
X153505797Y-72803926D01*
X153500581Y-72824750D01*
X153493349Y-72844962D01*
X153484170Y-72864368D01*
X153473134Y-72882781D01*
X153460346Y-72900024D01*
X153445930Y-72915930D01*
X153430024Y-72930346D01*
X153412781Y-72943134D01*
X153394368Y-72954170D01*
X153374962Y-72963349D01*
X153354750Y-72970581D01*
X153333926Y-72975797D01*
X153312691Y-72978947D01*
X153291250Y-72980000D01*
X152778750Y-72980000D01*
X152757309Y-72978947D01*
X152736074Y-72975797D01*
X152715250Y-72970581D01*
X152695038Y-72963349D01*
X152675632Y-72954170D01*
X152657219Y-72943134D01*
X152639976Y-72930346D01*
X152624070Y-72915930D01*
X152609654Y-72900024D01*
X152596866Y-72882781D01*
X152585830Y-72864368D01*
X152576651Y-72844962D01*
X152569419Y-72824750D01*
X152564203Y-72803926D01*
X152561053Y-72782691D01*
X152560000Y-72761250D01*
X152560000Y-72323750D01*
X152561053Y-72302309D01*
X152564203Y-72281074D01*
X152569419Y-72260250D01*
X152576651Y-72240038D01*
X152585830Y-72220632D01*
X152596866Y-72202219D01*
X152609654Y-72184976D01*
X152624070Y-72169070D01*
X152639976Y-72154654D01*
X152657219Y-72141866D01*
X152675632Y-72130830D01*
X152695038Y-72121651D01*
X152715250Y-72114419D01*
X152736074Y-72109203D01*
X152757309Y-72106053D01*
X152778750Y-72105000D01*
X153291250Y-72105000D01*
X153312691Y-72106053D01*
G37*
G36*
X155852691Y-74341053D02*
G01*
X155873926Y-74344203D01*
X155894750Y-74349419D01*
X155914962Y-74356651D01*
X155934368Y-74365830D01*
X155952781Y-74376866D01*
X155970024Y-74389654D01*
X155985930Y-74404070D01*
X156000346Y-74419976D01*
X156013134Y-74437219D01*
X156024170Y-74455632D01*
X156033349Y-74475038D01*
X156040581Y-74495250D01*
X156045797Y-74516074D01*
X156048947Y-74537309D01*
X156050000Y-74558750D01*
X156050000Y-74996250D01*
X156048947Y-75017691D01*
X156045797Y-75038926D01*
X156040581Y-75059750D01*
X156033349Y-75079962D01*
X156024170Y-75099368D01*
X156013134Y-75117781D01*
X156000346Y-75135024D01*
X155985930Y-75150930D01*
X155970024Y-75165346D01*
X155952781Y-75178134D01*
X155934368Y-75189170D01*
X155914962Y-75198349D01*
X155894750Y-75205581D01*
X155873926Y-75210797D01*
X155852691Y-75213947D01*
X155831250Y-75215000D01*
X155318750Y-75215000D01*
X155297309Y-75213947D01*
X155276074Y-75210797D01*
X155255250Y-75205581D01*
X155235038Y-75198349D01*
X155215632Y-75189170D01*
X155197219Y-75178134D01*
X155179976Y-75165346D01*
X155164070Y-75150930D01*
X155149654Y-75135024D01*
X155136866Y-75117781D01*
X155125830Y-75099368D01*
X155116651Y-75079962D01*
X155109419Y-75059750D01*
X155104203Y-75038926D01*
X155101053Y-75017691D01*
X155100000Y-74996250D01*
X155100000Y-74558750D01*
X155101053Y-74537309D01*
X155104203Y-74516074D01*
X155109419Y-74495250D01*
X155116651Y-74475038D01*
X155125830Y-74455632D01*
X155136866Y-74437219D01*
X155149654Y-74419976D01*
X155164070Y-74404070D01*
X155179976Y-74389654D01*
X155197219Y-74376866D01*
X155215632Y-74365830D01*
X155235038Y-74356651D01*
X155255250Y-74349419D01*
X155276074Y-74344203D01*
X155297309Y-74341053D01*
X155318750Y-74340000D01*
X155831250Y-74340000D01*
X155852691Y-74341053D01*
G37*
G36*
X155852691Y-75916053D02*
G01*
X155873926Y-75919203D01*
X155894750Y-75924419D01*
X155914962Y-75931651D01*
X155934368Y-75940830D01*
X155952781Y-75951866D01*
X155970024Y-75964654D01*
X155985930Y-75979070D01*
X156000346Y-75994976D01*
X156013134Y-76012219D01*
X156024170Y-76030632D01*
X156033349Y-76050038D01*
X156040581Y-76070250D01*
X156045797Y-76091074D01*
X156048947Y-76112309D01*
X156050000Y-76133750D01*
X156050000Y-76571250D01*
X156048947Y-76592691D01*
X156045797Y-76613926D01*
X156040581Y-76634750D01*
X156033349Y-76654962D01*
X156024170Y-76674368D01*
X156013134Y-76692781D01*
X156000346Y-76710024D01*
X155985930Y-76725930D01*
X155970024Y-76740346D01*
X155952781Y-76753134D01*
X155934368Y-76764170D01*
X155914962Y-76773349D01*
X155894750Y-76780581D01*
X155873926Y-76785797D01*
X155852691Y-76788947D01*
X155831250Y-76790000D01*
X155318750Y-76790000D01*
X155297309Y-76788947D01*
X155276074Y-76785797D01*
X155255250Y-76780581D01*
X155235038Y-76773349D01*
X155215632Y-76764170D01*
X155197219Y-76753134D01*
X155179976Y-76740346D01*
X155164070Y-76725930D01*
X155149654Y-76710024D01*
X155136866Y-76692781D01*
X155125830Y-76674368D01*
X155116651Y-76654962D01*
X155109419Y-76634750D01*
X155104203Y-76613926D01*
X155101053Y-76592691D01*
X155100000Y-76571250D01*
X155100000Y-76133750D01*
X155101053Y-76112309D01*
X155104203Y-76091074D01*
X155109419Y-76070250D01*
X155116651Y-76050038D01*
X155125830Y-76030632D01*
X155136866Y-76012219D01*
X155149654Y-75994976D01*
X155164070Y-75979070D01*
X155179976Y-75964654D01*
X155197219Y-75951866D01*
X155215632Y-75940830D01*
X155235038Y-75931651D01*
X155255250Y-75924419D01*
X155276074Y-75919203D01*
X155297309Y-75916053D01*
X155318750Y-75915000D01*
X155831250Y-75915000D01*
X155852691Y-75916053D01*
G37*
G36*
X148042691Y-70646053D02*
G01*
X148063926Y-70649203D01*
X148084750Y-70654419D01*
X148104962Y-70661651D01*
X148124368Y-70670830D01*
X148142781Y-70681866D01*
X148160024Y-70694654D01*
X148175930Y-70709070D01*
X148190346Y-70724976D01*
X148203134Y-70742219D01*
X148214170Y-70760632D01*
X148223349Y-70780038D01*
X148230581Y-70800250D01*
X148235797Y-70821074D01*
X148238947Y-70842309D01*
X148240000Y-70863750D01*
X148240000Y-71376250D01*
X148238947Y-71397691D01*
X148235797Y-71418926D01*
X148230581Y-71439750D01*
X148223349Y-71459962D01*
X148214170Y-71479368D01*
X148203134Y-71497781D01*
X148190346Y-71515024D01*
X148175930Y-71530930D01*
X148160024Y-71545346D01*
X148142781Y-71558134D01*
X148124368Y-71569170D01*
X148104962Y-71578349D01*
X148084750Y-71585581D01*
X148063926Y-71590797D01*
X148042691Y-71593947D01*
X148021250Y-71595000D01*
X147583750Y-71595000D01*
X147562309Y-71593947D01*
X147541074Y-71590797D01*
X147520250Y-71585581D01*
X147500038Y-71578349D01*
X147480632Y-71569170D01*
X147462219Y-71558134D01*
X147444976Y-71545346D01*
X147429070Y-71530930D01*
X147414654Y-71515024D01*
X147401866Y-71497781D01*
X147390830Y-71479368D01*
X147381651Y-71459962D01*
X147374419Y-71439750D01*
X147369203Y-71418926D01*
X147366053Y-71397691D01*
X147365000Y-71376250D01*
X147365000Y-70863750D01*
X147366053Y-70842309D01*
X147369203Y-70821074D01*
X147374419Y-70800250D01*
X147381651Y-70780038D01*
X147390830Y-70760632D01*
X147401866Y-70742219D01*
X147414654Y-70724976D01*
X147429070Y-70709070D01*
X147444976Y-70694654D01*
X147462219Y-70681866D01*
X147480632Y-70670830D01*
X147500038Y-70661651D01*
X147520250Y-70654419D01*
X147541074Y-70649203D01*
X147562309Y-70646053D01*
X147583750Y-70645000D01*
X148021250Y-70645000D01*
X148042691Y-70646053D01*
G37*
G36*
X149617691Y-70646053D02*
G01*
X149638926Y-70649203D01*
X149659750Y-70654419D01*
X149679962Y-70661651D01*
X149699368Y-70670830D01*
X149717781Y-70681866D01*
X149735024Y-70694654D01*
X149750930Y-70709070D01*
X149765346Y-70724976D01*
X149778134Y-70742219D01*
X149789170Y-70760632D01*
X149798349Y-70780038D01*
X149805581Y-70800250D01*
X149810797Y-70821074D01*
X149813947Y-70842309D01*
X149815000Y-70863750D01*
X149815000Y-71376250D01*
X149813947Y-71397691D01*
X149810797Y-71418926D01*
X149805581Y-71439750D01*
X149798349Y-71459962D01*
X149789170Y-71479368D01*
X149778134Y-71497781D01*
X149765346Y-71515024D01*
X149750930Y-71530930D01*
X149735024Y-71545346D01*
X149717781Y-71558134D01*
X149699368Y-71569170D01*
X149679962Y-71578349D01*
X149659750Y-71585581D01*
X149638926Y-71590797D01*
X149617691Y-71593947D01*
X149596250Y-71595000D01*
X149158750Y-71595000D01*
X149137309Y-71593947D01*
X149116074Y-71590797D01*
X149095250Y-71585581D01*
X149075038Y-71578349D01*
X149055632Y-71569170D01*
X149037219Y-71558134D01*
X149019976Y-71545346D01*
X149004070Y-71530930D01*
X148989654Y-71515024D01*
X148976866Y-71497781D01*
X148965830Y-71479368D01*
X148956651Y-71459962D01*
X148949419Y-71439750D01*
X148944203Y-71418926D01*
X148941053Y-71397691D01*
X148940000Y-71376250D01*
X148940000Y-70863750D01*
X148941053Y-70842309D01*
X148944203Y-70821074D01*
X148949419Y-70800250D01*
X148956651Y-70780038D01*
X148965830Y-70760632D01*
X148976866Y-70742219D01*
X148989654Y-70724976D01*
X149004070Y-70709070D01*
X149019976Y-70694654D01*
X149037219Y-70681866D01*
X149055632Y-70670830D01*
X149075038Y-70661651D01*
X149095250Y-70654419D01*
X149116074Y-70649203D01*
X149137309Y-70646053D01*
X149158750Y-70645000D01*
X149596250Y-70645000D01*
X149617691Y-70646053D01*
G37*
D12*
X151495000Y-73660000D03*
X149495000Y-74610000D03*
X149495000Y-72710000D03*
M02*
