G04 #@! TF.GenerationSoftware,KiCad,Pcbnew,5.1.5-52549c5~84~ubuntu18.04.1*
G04 #@! TF.CreationDate,2020-03-22T23:19:32-04:00*
G04 #@! TF.ProjectId,tcd1304_v1,74636431-3330-4345-9f76-312e6b696361,rev?*
G04 #@! TF.SameCoordinates,Original*
G04 #@! TF.FileFunction,Copper,L1,Top*
G04 #@! TF.FilePolarity,Positive*
%FSLAX46Y46*%
G04 Gerber Fmt 4.6, Leading zero omitted, Abs format (unit mm)*
G04 Created by KiCad (PCBNEW 5.1.5-52549c5~84~ubuntu18.04.1) date 2020-03-22 23:19:32*
%MOMM*%
%LPD*%
G04 APERTURE LIST*
%ADD10R,0.568000X1.741399*%
%ADD11O,1.600000X1.600000*%
%ADD12R,1.600000X1.600000*%
%ADD13C,0.100000*%
%ADD14R,0.900000X0.800000*%
%ADD15C,0.800000*%
%ADD16C,0.250000*%
%ADD17C,0.254000*%
G04 APERTURE END LIST*
D10*
X156845000Y-99466400D03*
X155575000Y-99466400D03*
X154305000Y-99466400D03*
X153035000Y-99466400D03*
X151765000Y-99466400D03*
X150495000Y-99466400D03*
X149225000Y-99466400D03*
X149225000Y-92303600D03*
X150495000Y-92303600D03*
X151765000Y-92303600D03*
X153035000Y-92303600D03*
X154305000Y-92303600D03*
X155575000Y-92303600D03*
X156845000Y-92303600D03*
D11*
X124460000Y-88265000D03*
X157480000Y-103505000D03*
X127000000Y-88265000D03*
X154940000Y-103505000D03*
X129540000Y-88265000D03*
X152400000Y-103505000D03*
X132080000Y-88265000D03*
X149860000Y-103505000D03*
X134620000Y-88265000D03*
X147320000Y-103505000D03*
X137160000Y-88265000D03*
X144780000Y-103505000D03*
X139700000Y-88265000D03*
X142240000Y-103505000D03*
X142240000Y-88265000D03*
X139700000Y-103505000D03*
X144780000Y-88265000D03*
X137160000Y-103505000D03*
X147320000Y-88265000D03*
X134620000Y-103505000D03*
X149860000Y-88265000D03*
X132080000Y-103505000D03*
X152400000Y-88265000D03*
X129540000Y-103505000D03*
X154940000Y-88265000D03*
X127000000Y-103505000D03*
X157480000Y-88265000D03*
D12*
X124460000Y-103505000D03*
X155575000Y-78740000D03*
D11*
X127635000Y-68580000D03*
X153035000Y-78740000D03*
X130175000Y-68580000D03*
X150495000Y-78740000D03*
X132715000Y-68580000D03*
X147955000Y-78740000D03*
X135255000Y-68580000D03*
X145415000Y-78740000D03*
X137795000Y-68580000D03*
X142875000Y-78740000D03*
X140335000Y-68580000D03*
X140335000Y-78740000D03*
X142875000Y-68580000D03*
X137795000Y-78740000D03*
X145415000Y-68580000D03*
X135255000Y-78740000D03*
X147955000Y-68580000D03*
X132715000Y-78740000D03*
X150495000Y-68580000D03*
X130175000Y-78740000D03*
X153035000Y-68580000D03*
X127635000Y-78740000D03*
X155575000Y-68580000D03*
G04 #@! TA.AperFunction,SMDPad,CuDef*
D13*
G36*
X134389691Y-90978053D02*
G01*
X134410926Y-90981203D01*
X134431750Y-90986419D01*
X134451962Y-90993651D01*
X134471368Y-91002830D01*
X134489781Y-91013866D01*
X134507024Y-91026654D01*
X134522930Y-91041070D01*
X134537346Y-91056976D01*
X134550134Y-91074219D01*
X134561170Y-91092632D01*
X134570349Y-91112038D01*
X134577581Y-91132250D01*
X134582797Y-91153074D01*
X134585947Y-91174309D01*
X134587000Y-91195750D01*
X134587000Y-91633250D01*
X134585947Y-91654691D01*
X134582797Y-91675926D01*
X134577581Y-91696750D01*
X134570349Y-91716962D01*
X134561170Y-91736368D01*
X134550134Y-91754781D01*
X134537346Y-91772024D01*
X134522930Y-91787930D01*
X134507024Y-91802346D01*
X134489781Y-91815134D01*
X134471368Y-91826170D01*
X134451962Y-91835349D01*
X134431750Y-91842581D01*
X134410926Y-91847797D01*
X134389691Y-91850947D01*
X134368250Y-91852000D01*
X133855750Y-91852000D01*
X133834309Y-91850947D01*
X133813074Y-91847797D01*
X133792250Y-91842581D01*
X133772038Y-91835349D01*
X133752632Y-91826170D01*
X133734219Y-91815134D01*
X133716976Y-91802346D01*
X133701070Y-91787930D01*
X133686654Y-91772024D01*
X133673866Y-91754781D01*
X133662830Y-91736368D01*
X133653651Y-91716962D01*
X133646419Y-91696750D01*
X133641203Y-91675926D01*
X133638053Y-91654691D01*
X133637000Y-91633250D01*
X133637000Y-91195750D01*
X133638053Y-91174309D01*
X133641203Y-91153074D01*
X133646419Y-91132250D01*
X133653651Y-91112038D01*
X133662830Y-91092632D01*
X133673866Y-91074219D01*
X133686654Y-91056976D01*
X133701070Y-91041070D01*
X133716976Y-91026654D01*
X133734219Y-91013866D01*
X133752632Y-91002830D01*
X133772038Y-90993651D01*
X133792250Y-90986419D01*
X133813074Y-90981203D01*
X133834309Y-90978053D01*
X133855750Y-90977000D01*
X134368250Y-90977000D01*
X134389691Y-90978053D01*
G37*
G04 #@! TD.AperFunction*
G04 #@! TA.AperFunction,SMDPad,CuDef*
G36*
X134389691Y-92553053D02*
G01*
X134410926Y-92556203D01*
X134431750Y-92561419D01*
X134451962Y-92568651D01*
X134471368Y-92577830D01*
X134489781Y-92588866D01*
X134507024Y-92601654D01*
X134522930Y-92616070D01*
X134537346Y-92631976D01*
X134550134Y-92649219D01*
X134561170Y-92667632D01*
X134570349Y-92687038D01*
X134577581Y-92707250D01*
X134582797Y-92728074D01*
X134585947Y-92749309D01*
X134587000Y-92770750D01*
X134587000Y-93208250D01*
X134585947Y-93229691D01*
X134582797Y-93250926D01*
X134577581Y-93271750D01*
X134570349Y-93291962D01*
X134561170Y-93311368D01*
X134550134Y-93329781D01*
X134537346Y-93347024D01*
X134522930Y-93362930D01*
X134507024Y-93377346D01*
X134489781Y-93390134D01*
X134471368Y-93401170D01*
X134451962Y-93410349D01*
X134431750Y-93417581D01*
X134410926Y-93422797D01*
X134389691Y-93425947D01*
X134368250Y-93427000D01*
X133855750Y-93427000D01*
X133834309Y-93425947D01*
X133813074Y-93422797D01*
X133792250Y-93417581D01*
X133772038Y-93410349D01*
X133752632Y-93401170D01*
X133734219Y-93390134D01*
X133716976Y-93377346D01*
X133701070Y-93362930D01*
X133686654Y-93347024D01*
X133673866Y-93329781D01*
X133662830Y-93311368D01*
X133653651Y-93291962D01*
X133646419Y-93271750D01*
X133641203Y-93250926D01*
X133638053Y-93229691D01*
X133637000Y-93208250D01*
X133637000Y-92770750D01*
X133638053Y-92749309D01*
X133641203Y-92728074D01*
X133646419Y-92707250D01*
X133653651Y-92687038D01*
X133662830Y-92667632D01*
X133673866Y-92649219D01*
X133686654Y-92631976D01*
X133701070Y-92616070D01*
X133716976Y-92601654D01*
X133734219Y-92588866D01*
X133752632Y-92577830D01*
X133772038Y-92568651D01*
X133792250Y-92561419D01*
X133813074Y-92556203D01*
X133834309Y-92553053D01*
X133855750Y-92552000D01*
X134368250Y-92552000D01*
X134389691Y-92553053D01*
G37*
G04 #@! TD.AperFunction*
G04 #@! TA.AperFunction,SMDPad,CuDef*
G36*
X137564691Y-90978053D02*
G01*
X137585926Y-90981203D01*
X137606750Y-90986419D01*
X137626962Y-90993651D01*
X137646368Y-91002830D01*
X137664781Y-91013866D01*
X137682024Y-91026654D01*
X137697930Y-91041070D01*
X137712346Y-91056976D01*
X137725134Y-91074219D01*
X137736170Y-91092632D01*
X137745349Y-91112038D01*
X137752581Y-91132250D01*
X137757797Y-91153074D01*
X137760947Y-91174309D01*
X137762000Y-91195750D01*
X137762000Y-91633250D01*
X137760947Y-91654691D01*
X137757797Y-91675926D01*
X137752581Y-91696750D01*
X137745349Y-91716962D01*
X137736170Y-91736368D01*
X137725134Y-91754781D01*
X137712346Y-91772024D01*
X137697930Y-91787930D01*
X137682024Y-91802346D01*
X137664781Y-91815134D01*
X137646368Y-91826170D01*
X137626962Y-91835349D01*
X137606750Y-91842581D01*
X137585926Y-91847797D01*
X137564691Y-91850947D01*
X137543250Y-91852000D01*
X137030750Y-91852000D01*
X137009309Y-91850947D01*
X136988074Y-91847797D01*
X136967250Y-91842581D01*
X136947038Y-91835349D01*
X136927632Y-91826170D01*
X136909219Y-91815134D01*
X136891976Y-91802346D01*
X136876070Y-91787930D01*
X136861654Y-91772024D01*
X136848866Y-91754781D01*
X136837830Y-91736368D01*
X136828651Y-91716962D01*
X136821419Y-91696750D01*
X136816203Y-91675926D01*
X136813053Y-91654691D01*
X136812000Y-91633250D01*
X136812000Y-91195750D01*
X136813053Y-91174309D01*
X136816203Y-91153074D01*
X136821419Y-91132250D01*
X136828651Y-91112038D01*
X136837830Y-91092632D01*
X136848866Y-91074219D01*
X136861654Y-91056976D01*
X136876070Y-91041070D01*
X136891976Y-91026654D01*
X136909219Y-91013866D01*
X136927632Y-91002830D01*
X136947038Y-90993651D01*
X136967250Y-90986419D01*
X136988074Y-90981203D01*
X137009309Y-90978053D01*
X137030750Y-90977000D01*
X137543250Y-90977000D01*
X137564691Y-90978053D01*
G37*
G04 #@! TD.AperFunction*
G04 #@! TA.AperFunction,SMDPad,CuDef*
G36*
X137564691Y-92553053D02*
G01*
X137585926Y-92556203D01*
X137606750Y-92561419D01*
X137626962Y-92568651D01*
X137646368Y-92577830D01*
X137664781Y-92588866D01*
X137682024Y-92601654D01*
X137697930Y-92616070D01*
X137712346Y-92631976D01*
X137725134Y-92649219D01*
X137736170Y-92667632D01*
X137745349Y-92687038D01*
X137752581Y-92707250D01*
X137757797Y-92728074D01*
X137760947Y-92749309D01*
X137762000Y-92770750D01*
X137762000Y-93208250D01*
X137760947Y-93229691D01*
X137757797Y-93250926D01*
X137752581Y-93271750D01*
X137745349Y-93291962D01*
X137736170Y-93311368D01*
X137725134Y-93329781D01*
X137712346Y-93347024D01*
X137697930Y-93362930D01*
X137682024Y-93377346D01*
X137664781Y-93390134D01*
X137646368Y-93401170D01*
X137626962Y-93410349D01*
X137606750Y-93417581D01*
X137585926Y-93422797D01*
X137564691Y-93425947D01*
X137543250Y-93427000D01*
X137030750Y-93427000D01*
X137009309Y-93425947D01*
X136988074Y-93422797D01*
X136967250Y-93417581D01*
X136947038Y-93410349D01*
X136927632Y-93401170D01*
X136909219Y-93390134D01*
X136891976Y-93377346D01*
X136876070Y-93362930D01*
X136861654Y-93347024D01*
X136848866Y-93329781D01*
X136837830Y-93311368D01*
X136828651Y-93291962D01*
X136821419Y-93271750D01*
X136816203Y-93250926D01*
X136813053Y-93229691D01*
X136812000Y-93208250D01*
X136812000Y-92770750D01*
X136813053Y-92749309D01*
X136816203Y-92728074D01*
X136821419Y-92707250D01*
X136828651Y-92687038D01*
X136837830Y-92667632D01*
X136848866Y-92649219D01*
X136861654Y-92631976D01*
X136876070Y-92616070D01*
X136891976Y-92601654D01*
X136909219Y-92588866D01*
X136927632Y-92577830D01*
X136947038Y-92568651D01*
X136967250Y-92561419D01*
X136988074Y-92556203D01*
X137009309Y-92553053D01*
X137030750Y-92552000D01*
X137543250Y-92552000D01*
X137564691Y-92553053D01*
G37*
G04 #@! TD.AperFunction*
G04 #@! TA.AperFunction,SMDPad,CuDef*
G36*
X141374691Y-90978053D02*
G01*
X141395926Y-90981203D01*
X141416750Y-90986419D01*
X141436962Y-90993651D01*
X141456368Y-91002830D01*
X141474781Y-91013866D01*
X141492024Y-91026654D01*
X141507930Y-91041070D01*
X141522346Y-91056976D01*
X141535134Y-91074219D01*
X141546170Y-91092632D01*
X141555349Y-91112038D01*
X141562581Y-91132250D01*
X141567797Y-91153074D01*
X141570947Y-91174309D01*
X141572000Y-91195750D01*
X141572000Y-91633250D01*
X141570947Y-91654691D01*
X141567797Y-91675926D01*
X141562581Y-91696750D01*
X141555349Y-91716962D01*
X141546170Y-91736368D01*
X141535134Y-91754781D01*
X141522346Y-91772024D01*
X141507930Y-91787930D01*
X141492024Y-91802346D01*
X141474781Y-91815134D01*
X141456368Y-91826170D01*
X141436962Y-91835349D01*
X141416750Y-91842581D01*
X141395926Y-91847797D01*
X141374691Y-91850947D01*
X141353250Y-91852000D01*
X140840750Y-91852000D01*
X140819309Y-91850947D01*
X140798074Y-91847797D01*
X140777250Y-91842581D01*
X140757038Y-91835349D01*
X140737632Y-91826170D01*
X140719219Y-91815134D01*
X140701976Y-91802346D01*
X140686070Y-91787930D01*
X140671654Y-91772024D01*
X140658866Y-91754781D01*
X140647830Y-91736368D01*
X140638651Y-91716962D01*
X140631419Y-91696750D01*
X140626203Y-91675926D01*
X140623053Y-91654691D01*
X140622000Y-91633250D01*
X140622000Y-91195750D01*
X140623053Y-91174309D01*
X140626203Y-91153074D01*
X140631419Y-91132250D01*
X140638651Y-91112038D01*
X140647830Y-91092632D01*
X140658866Y-91074219D01*
X140671654Y-91056976D01*
X140686070Y-91041070D01*
X140701976Y-91026654D01*
X140719219Y-91013866D01*
X140737632Y-91002830D01*
X140757038Y-90993651D01*
X140777250Y-90986419D01*
X140798074Y-90981203D01*
X140819309Y-90978053D01*
X140840750Y-90977000D01*
X141353250Y-90977000D01*
X141374691Y-90978053D01*
G37*
G04 #@! TD.AperFunction*
G04 #@! TA.AperFunction,SMDPad,CuDef*
G36*
X141374691Y-92553053D02*
G01*
X141395926Y-92556203D01*
X141416750Y-92561419D01*
X141436962Y-92568651D01*
X141456368Y-92577830D01*
X141474781Y-92588866D01*
X141492024Y-92601654D01*
X141507930Y-92616070D01*
X141522346Y-92631976D01*
X141535134Y-92649219D01*
X141546170Y-92667632D01*
X141555349Y-92687038D01*
X141562581Y-92707250D01*
X141567797Y-92728074D01*
X141570947Y-92749309D01*
X141572000Y-92770750D01*
X141572000Y-93208250D01*
X141570947Y-93229691D01*
X141567797Y-93250926D01*
X141562581Y-93271750D01*
X141555349Y-93291962D01*
X141546170Y-93311368D01*
X141535134Y-93329781D01*
X141522346Y-93347024D01*
X141507930Y-93362930D01*
X141492024Y-93377346D01*
X141474781Y-93390134D01*
X141456368Y-93401170D01*
X141436962Y-93410349D01*
X141416750Y-93417581D01*
X141395926Y-93422797D01*
X141374691Y-93425947D01*
X141353250Y-93427000D01*
X140840750Y-93427000D01*
X140819309Y-93425947D01*
X140798074Y-93422797D01*
X140777250Y-93417581D01*
X140757038Y-93410349D01*
X140737632Y-93401170D01*
X140719219Y-93390134D01*
X140701976Y-93377346D01*
X140686070Y-93362930D01*
X140671654Y-93347024D01*
X140658866Y-93329781D01*
X140647830Y-93311368D01*
X140638651Y-93291962D01*
X140631419Y-93271750D01*
X140626203Y-93250926D01*
X140623053Y-93229691D01*
X140622000Y-93208250D01*
X140622000Y-92770750D01*
X140623053Y-92749309D01*
X140626203Y-92728074D01*
X140631419Y-92707250D01*
X140638651Y-92687038D01*
X140647830Y-92667632D01*
X140658866Y-92649219D01*
X140671654Y-92631976D01*
X140686070Y-92616070D01*
X140701976Y-92601654D01*
X140719219Y-92588866D01*
X140737632Y-92577830D01*
X140757038Y-92568651D01*
X140777250Y-92561419D01*
X140798074Y-92556203D01*
X140819309Y-92553053D01*
X140840750Y-92552000D01*
X141353250Y-92552000D01*
X141374691Y-92553053D01*
G37*
G04 #@! TD.AperFunction*
G04 #@! TA.AperFunction,SMDPad,CuDef*
G36*
X135088691Y-98586053D02*
G01*
X135109926Y-98589203D01*
X135130750Y-98594419D01*
X135150962Y-98601651D01*
X135170368Y-98610830D01*
X135188781Y-98621866D01*
X135206024Y-98634654D01*
X135221930Y-98649070D01*
X135236346Y-98664976D01*
X135249134Y-98682219D01*
X135260170Y-98700632D01*
X135269349Y-98720038D01*
X135276581Y-98740250D01*
X135281797Y-98761074D01*
X135284947Y-98782309D01*
X135286000Y-98803750D01*
X135286000Y-99316250D01*
X135284947Y-99337691D01*
X135281797Y-99358926D01*
X135276581Y-99379750D01*
X135269349Y-99399962D01*
X135260170Y-99419368D01*
X135249134Y-99437781D01*
X135236346Y-99455024D01*
X135221930Y-99470930D01*
X135206024Y-99485346D01*
X135188781Y-99498134D01*
X135170368Y-99509170D01*
X135150962Y-99518349D01*
X135130750Y-99525581D01*
X135109926Y-99530797D01*
X135088691Y-99533947D01*
X135067250Y-99535000D01*
X134629750Y-99535000D01*
X134608309Y-99533947D01*
X134587074Y-99530797D01*
X134566250Y-99525581D01*
X134546038Y-99518349D01*
X134526632Y-99509170D01*
X134508219Y-99498134D01*
X134490976Y-99485346D01*
X134475070Y-99470930D01*
X134460654Y-99455024D01*
X134447866Y-99437781D01*
X134436830Y-99419368D01*
X134427651Y-99399962D01*
X134420419Y-99379750D01*
X134415203Y-99358926D01*
X134412053Y-99337691D01*
X134411000Y-99316250D01*
X134411000Y-98803750D01*
X134412053Y-98782309D01*
X134415203Y-98761074D01*
X134420419Y-98740250D01*
X134427651Y-98720038D01*
X134436830Y-98700632D01*
X134447866Y-98682219D01*
X134460654Y-98664976D01*
X134475070Y-98649070D01*
X134490976Y-98634654D01*
X134508219Y-98621866D01*
X134526632Y-98610830D01*
X134546038Y-98601651D01*
X134566250Y-98594419D01*
X134587074Y-98589203D01*
X134608309Y-98586053D01*
X134629750Y-98585000D01*
X135067250Y-98585000D01*
X135088691Y-98586053D01*
G37*
G04 #@! TD.AperFunction*
G04 #@! TA.AperFunction,SMDPad,CuDef*
G36*
X136663691Y-98586053D02*
G01*
X136684926Y-98589203D01*
X136705750Y-98594419D01*
X136725962Y-98601651D01*
X136745368Y-98610830D01*
X136763781Y-98621866D01*
X136781024Y-98634654D01*
X136796930Y-98649070D01*
X136811346Y-98664976D01*
X136824134Y-98682219D01*
X136835170Y-98700632D01*
X136844349Y-98720038D01*
X136851581Y-98740250D01*
X136856797Y-98761074D01*
X136859947Y-98782309D01*
X136861000Y-98803750D01*
X136861000Y-99316250D01*
X136859947Y-99337691D01*
X136856797Y-99358926D01*
X136851581Y-99379750D01*
X136844349Y-99399962D01*
X136835170Y-99419368D01*
X136824134Y-99437781D01*
X136811346Y-99455024D01*
X136796930Y-99470930D01*
X136781024Y-99485346D01*
X136763781Y-99498134D01*
X136745368Y-99509170D01*
X136725962Y-99518349D01*
X136705750Y-99525581D01*
X136684926Y-99530797D01*
X136663691Y-99533947D01*
X136642250Y-99535000D01*
X136204750Y-99535000D01*
X136183309Y-99533947D01*
X136162074Y-99530797D01*
X136141250Y-99525581D01*
X136121038Y-99518349D01*
X136101632Y-99509170D01*
X136083219Y-99498134D01*
X136065976Y-99485346D01*
X136050070Y-99470930D01*
X136035654Y-99455024D01*
X136022866Y-99437781D01*
X136011830Y-99419368D01*
X136002651Y-99399962D01*
X135995419Y-99379750D01*
X135990203Y-99358926D01*
X135987053Y-99337691D01*
X135986000Y-99316250D01*
X135986000Y-98803750D01*
X135987053Y-98782309D01*
X135990203Y-98761074D01*
X135995419Y-98740250D01*
X136002651Y-98720038D01*
X136011830Y-98700632D01*
X136022866Y-98682219D01*
X136035654Y-98664976D01*
X136050070Y-98649070D01*
X136065976Y-98634654D01*
X136083219Y-98621866D01*
X136101632Y-98610830D01*
X136121038Y-98601651D01*
X136141250Y-98594419D01*
X136162074Y-98589203D01*
X136183309Y-98586053D01*
X136204750Y-98585000D01*
X136642250Y-98585000D01*
X136663691Y-98586053D01*
G37*
G04 #@! TD.AperFunction*
G04 #@! TA.AperFunction,SMDPad,CuDef*
G36*
X140219691Y-98586053D02*
G01*
X140240926Y-98589203D01*
X140261750Y-98594419D01*
X140281962Y-98601651D01*
X140301368Y-98610830D01*
X140319781Y-98621866D01*
X140337024Y-98634654D01*
X140352930Y-98649070D01*
X140367346Y-98664976D01*
X140380134Y-98682219D01*
X140391170Y-98700632D01*
X140400349Y-98720038D01*
X140407581Y-98740250D01*
X140412797Y-98761074D01*
X140415947Y-98782309D01*
X140417000Y-98803750D01*
X140417000Y-99316250D01*
X140415947Y-99337691D01*
X140412797Y-99358926D01*
X140407581Y-99379750D01*
X140400349Y-99399962D01*
X140391170Y-99419368D01*
X140380134Y-99437781D01*
X140367346Y-99455024D01*
X140352930Y-99470930D01*
X140337024Y-99485346D01*
X140319781Y-99498134D01*
X140301368Y-99509170D01*
X140281962Y-99518349D01*
X140261750Y-99525581D01*
X140240926Y-99530797D01*
X140219691Y-99533947D01*
X140198250Y-99535000D01*
X139760750Y-99535000D01*
X139739309Y-99533947D01*
X139718074Y-99530797D01*
X139697250Y-99525581D01*
X139677038Y-99518349D01*
X139657632Y-99509170D01*
X139639219Y-99498134D01*
X139621976Y-99485346D01*
X139606070Y-99470930D01*
X139591654Y-99455024D01*
X139578866Y-99437781D01*
X139567830Y-99419368D01*
X139558651Y-99399962D01*
X139551419Y-99379750D01*
X139546203Y-99358926D01*
X139543053Y-99337691D01*
X139542000Y-99316250D01*
X139542000Y-98803750D01*
X139543053Y-98782309D01*
X139546203Y-98761074D01*
X139551419Y-98740250D01*
X139558651Y-98720038D01*
X139567830Y-98700632D01*
X139578866Y-98682219D01*
X139591654Y-98664976D01*
X139606070Y-98649070D01*
X139621976Y-98634654D01*
X139639219Y-98621866D01*
X139657632Y-98610830D01*
X139677038Y-98601651D01*
X139697250Y-98594419D01*
X139718074Y-98589203D01*
X139739309Y-98586053D01*
X139760750Y-98585000D01*
X140198250Y-98585000D01*
X140219691Y-98586053D01*
G37*
G04 #@! TD.AperFunction*
G04 #@! TA.AperFunction,SMDPad,CuDef*
G36*
X138644691Y-98586053D02*
G01*
X138665926Y-98589203D01*
X138686750Y-98594419D01*
X138706962Y-98601651D01*
X138726368Y-98610830D01*
X138744781Y-98621866D01*
X138762024Y-98634654D01*
X138777930Y-98649070D01*
X138792346Y-98664976D01*
X138805134Y-98682219D01*
X138816170Y-98700632D01*
X138825349Y-98720038D01*
X138832581Y-98740250D01*
X138837797Y-98761074D01*
X138840947Y-98782309D01*
X138842000Y-98803750D01*
X138842000Y-99316250D01*
X138840947Y-99337691D01*
X138837797Y-99358926D01*
X138832581Y-99379750D01*
X138825349Y-99399962D01*
X138816170Y-99419368D01*
X138805134Y-99437781D01*
X138792346Y-99455024D01*
X138777930Y-99470930D01*
X138762024Y-99485346D01*
X138744781Y-99498134D01*
X138726368Y-99509170D01*
X138706962Y-99518349D01*
X138686750Y-99525581D01*
X138665926Y-99530797D01*
X138644691Y-99533947D01*
X138623250Y-99535000D01*
X138185750Y-99535000D01*
X138164309Y-99533947D01*
X138143074Y-99530797D01*
X138122250Y-99525581D01*
X138102038Y-99518349D01*
X138082632Y-99509170D01*
X138064219Y-99498134D01*
X138046976Y-99485346D01*
X138031070Y-99470930D01*
X138016654Y-99455024D01*
X138003866Y-99437781D01*
X137992830Y-99419368D01*
X137983651Y-99399962D01*
X137976419Y-99379750D01*
X137971203Y-99358926D01*
X137968053Y-99337691D01*
X137967000Y-99316250D01*
X137967000Y-98803750D01*
X137968053Y-98782309D01*
X137971203Y-98761074D01*
X137976419Y-98740250D01*
X137983651Y-98720038D01*
X137992830Y-98700632D01*
X138003866Y-98682219D01*
X138016654Y-98664976D01*
X138031070Y-98649070D01*
X138046976Y-98634654D01*
X138064219Y-98621866D01*
X138082632Y-98610830D01*
X138102038Y-98601651D01*
X138122250Y-98594419D01*
X138143074Y-98589203D01*
X138164309Y-98586053D01*
X138185750Y-98585000D01*
X138623250Y-98585000D01*
X138644691Y-98586053D01*
G37*
G04 #@! TD.AperFunction*
G04 #@! TA.AperFunction,SMDPad,CuDef*
G36*
X144283691Y-98586053D02*
G01*
X144304926Y-98589203D01*
X144325750Y-98594419D01*
X144345962Y-98601651D01*
X144365368Y-98610830D01*
X144383781Y-98621866D01*
X144401024Y-98634654D01*
X144416930Y-98649070D01*
X144431346Y-98664976D01*
X144444134Y-98682219D01*
X144455170Y-98700632D01*
X144464349Y-98720038D01*
X144471581Y-98740250D01*
X144476797Y-98761074D01*
X144479947Y-98782309D01*
X144481000Y-98803750D01*
X144481000Y-99316250D01*
X144479947Y-99337691D01*
X144476797Y-99358926D01*
X144471581Y-99379750D01*
X144464349Y-99399962D01*
X144455170Y-99419368D01*
X144444134Y-99437781D01*
X144431346Y-99455024D01*
X144416930Y-99470930D01*
X144401024Y-99485346D01*
X144383781Y-99498134D01*
X144365368Y-99509170D01*
X144345962Y-99518349D01*
X144325750Y-99525581D01*
X144304926Y-99530797D01*
X144283691Y-99533947D01*
X144262250Y-99535000D01*
X143824750Y-99535000D01*
X143803309Y-99533947D01*
X143782074Y-99530797D01*
X143761250Y-99525581D01*
X143741038Y-99518349D01*
X143721632Y-99509170D01*
X143703219Y-99498134D01*
X143685976Y-99485346D01*
X143670070Y-99470930D01*
X143655654Y-99455024D01*
X143642866Y-99437781D01*
X143631830Y-99419368D01*
X143622651Y-99399962D01*
X143615419Y-99379750D01*
X143610203Y-99358926D01*
X143607053Y-99337691D01*
X143606000Y-99316250D01*
X143606000Y-98803750D01*
X143607053Y-98782309D01*
X143610203Y-98761074D01*
X143615419Y-98740250D01*
X143622651Y-98720038D01*
X143631830Y-98700632D01*
X143642866Y-98682219D01*
X143655654Y-98664976D01*
X143670070Y-98649070D01*
X143685976Y-98634654D01*
X143703219Y-98621866D01*
X143721632Y-98610830D01*
X143741038Y-98601651D01*
X143761250Y-98594419D01*
X143782074Y-98589203D01*
X143803309Y-98586053D01*
X143824750Y-98585000D01*
X144262250Y-98585000D01*
X144283691Y-98586053D01*
G37*
G04 #@! TD.AperFunction*
G04 #@! TA.AperFunction,SMDPad,CuDef*
G36*
X142708691Y-98586053D02*
G01*
X142729926Y-98589203D01*
X142750750Y-98594419D01*
X142770962Y-98601651D01*
X142790368Y-98610830D01*
X142808781Y-98621866D01*
X142826024Y-98634654D01*
X142841930Y-98649070D01*
X142856346Y-98664976D01*
X142869134Y-98682219D01*
X142880170Y-98700632D01*
X142889349Y-98720038D01*
X142896581Y-98740250D01*
X142901797Y-98761074D01*
X142904947Y-98782309D01*
X142906000Y-98803750D01*
X142906000Y-99316250D01*
X142904947Y-99337691D01*
X142901797Y-99358926D01*
X142896581Y-99379750D01*
X142889349Y-99399962D01*
X142880170Y-99419368D01*
X142869134Y-99437781D01*
X142856346Y-99455024D01*
X142841930Y-99470930D01*
X142826024Y-99485346D01*
X142808781Y-99498134D01*
X142790368Y-99509170D01*
X142770962Y-99518349D01*
X142750750Y-99525581D01*
X142729926Y-99530797D01*
X142708691Y-99533947D01*
X142687250Y-99535000D01*
X142249750Y-99535000D01*
X142228309Y-99533947D01*
X142207074Y-99530797D01*
X142186250Y-99525581D01*
X142166038Y-99518349D01*
X142146632Y-99509170D01*
X142128219Y-99498134D01*
X142110976Y-99485346D01*
X142095070Y-99470930D01*
X142080654Y-99455024D01*
X142067866Y-99437781D01*
X142056830Y-99419368D01*
X142047651Y-99399962D01*
X142040419Y-99379750D01*
X142035203Y-99358926D01*
X142032053Y-99337691D01*
X142031000Y-99316250D01*
X142031000Y-98803750D01*
X142032053Y-98782309D01*
X142035203Y-98761074D01*
X142040419Y-98740250D01*
X142047651Y-98720038D01*
X142056830Y-98700632D01*
X142067866Y-98682219D01*
X142080654Y-98664976D01*
X142095070Y-98649070D01*
X142110976Y-98634654D01*
X142128219Y-98621866D01*
X142146632Y-98610830D01*
X142166038Y-98601651D01*
X142186250Y-98594419D01*
X142207074Y-98589203D01*
X142228309Y-98586053D01*
X142249750Y-98585000D01*
X142687250Y-98585000D01*
X142708691Y-98586053D01*
G37*
G04 #@! TD.AperFunction*
G04 #@! TA.AperFunction,SMDPad,CuDef*
G36*
X151026691Y-80691053D02*
G01*
X151047926Y-80694203D01*
X151068750Y-80699419D01*
X151088962Y-80706651D01*
X151108368Y-80715830D01*
X151126781Y-80726866D01*
X151144024Y-80739654D01*
X151159930Y-80754070D01*
X151174346Y-80769976D01*
X151187134Y-80787219D01*
X151198170Y-80805632D01*
X151207349Y-80825038D01*
X151214581Y-80845250D01*
X151219797Y-80866074D01*
X151222947Y-80887309D01*
X151224000Y-80908750D01*
X151224000Y-81346250D01*
X151222947Y-81367691D01*
X151219797Y-81388926D01*
X151214581Y-81409750D01*
X151207349Y-81429962D01*
X151198170Y-81449368D01*
X151187134Y-81467781D01*
X151174346Y-81485024D01*
X151159930Y-81500930D01*
X151144024Y-81515346D01*
X151126781Y-81528134D01*
X151108368Y-81539170D01*
X151088962Y-81548349D01*
X151068750Y-81555581D01*
X151047926Y-81560797D01*
X151026691Y-81563947D01*
X151005250Y-81565000D01*
X150492750Y-81565000D01*
X150471309Y-81563947D01*
X150450074Y-81560797D01*
X150429250Y-81555581D01*
X150409038Y-81548349D01*
X150389632Y-81539170D01*
X150371219Y-81528134D01*
X150353976Y-81515346D01*
X150338070Y-81500930D01*
X150323654Y-81485024D01*
X150310866Y-81467781D01*
X150299830Y-81449368D01*
X150290651Y-81429962D01*
X150283419Y-81409750D01*
X150278203Y-81388926D01*
X150275053Y-81367691D01*
X150274000Y-81346250D01*
X150274000Y-80908750D01*
X150275053Y-80887309D01*
X150278203Y-80866074D01*
X150283419Y-80845250D01*
X150290651Y-80825038D01*
X150299830Y-80805632D01*
X150310866Y-80787219D01*
X150323654Y-80769976D01*
X150338070Y-80754070D01*
X150353976Y-80739654D01*
X150371219Y-80726866D01*
X150389632Y-80715830D01*
X150409038Y-80706651D01*
X150429250Y-80699419D01*
X150450074Y-80694203D01*
X150471309Y-80691053D01*
X150492750Y-80690000D01*
X151005250Y-80690000D01*
X151026691Y-80691053D01*
G37*
G04 #@! TD.AperFunction*
G04 #@! TA.AperFunction,SMDPad,CuDef*
G36*
X151026691Y-82266053D02*
G01*
X151047926Y-82269203D01*
X151068750Y-82274419D01*
X151088962Y-82281651D01*
X151108368Y-82290830D01*
X151126781Y-82301866D01*
X151144024Y-82314654D01*
X151159930Y-82329070D01*
X151174346Y-82344976D01*
X151187134Y-82362219D01*
X151198170Y-82380632D01*
X151207349Y-82400038D01*
X151214581Y-82420250D01*
X151219797Y-82441074D01*
X151222947Y-82462309D01*
X151224000Y-82483750D01*
X151224000Y-82921250D01*
X151222947Y-82942691D01*
X151219797Y-82963926D01*
X151214581Y-82984750D01*
X151207349Y-83004962D01*
X151198170Y-83024368D01*
X151187134Y-83042781D01*
X151174346Y-83060024D01*
X151159930Y-83075930D01*
X151144024Y-83090346D01*
X151126781Y-83103134D01*
X151108368Y-83114170D01*
X151088962Y-83123349D01*
X151068750Y-83130581D01*
X151047926Y-83135797D01*
X151026691Y-83138947D01*
X151005250Y-83140000D01*
X150492750Y-83140000D01*
X150471309Y-83138947D01*
X150450074Y-83135797D01*
X150429250Y-83130581D01*
X150409038Y-83123349D01*
X150389632Y-83114170D01*
X150371219Y-83103134D01*
X150353976Y-83090346D01*
X150338070Y-83075930D01*
X150323654Y-83060024D01*
X150310866Y-83042781D01*
X150299830Y-83024368D01*
X150290651Y-83004962D01*
X150283419Y-82984750D01*
X150278203Y-82963926D01*
X150275053Y-82942691D01*
X150274000Y-82921250D01*
X150274000Y-82483750D01*
X150275053Y-82462309D01*
X150278203Y-82441074D01*
X150283419Y-82420250D01*
X150290651Y-82400038D01*
X150299830Y-82380632D01*
X150310866Y-82362219D01*
X150323654Y-82344976D01*
X150338070Y-82329070D01*
X150353976Y-82314654D01*
X150371219Y-82301866D01*
X150389632Y-82290830D01*
X150409038Y-82281651D01*
X150429250Y-82274419D01*
X150450074Y-82269203D01*
X150471309Y-82266053D01*
X150492750Y-82265000D01*
X151005250Y-82265000D01*
X151026691Y-82266053D01*
G37*
G04 #@! TD.AperFunction*
G04 #@! TA.AperFunction,SMDPad,CuDef*
G36*
X152931691Y-80691053D02*
G01*
X152952926Y-80694203D01*
X152973750Y-80699419D01*
X152993962Y-80706651D01*
X153013368Y-80715830D01*
X153031781Y-80726866D01*
X153049024Y-80739654D01*
X153064930Y-80754070D01*
X153079346Y-80769976D01*
X153092134Y-80787219D01*
X153103170Y-80805632D01*
X153112349Y-80825038D01*
X153119581Y-80845250D01*
X153124797Y-80866074D01*
X153127947Y-80887309D01*
X153129000Y-80908750D01*
X153129000Y-81346250D01*
X153127947Y-81367691D01*
X153124797Y-81388926D01*
X153119581Y-81409750D01*
X153112349Y-81429962D01*
X153103170Y-81449368D01*
X153092134Y-81467781D01*
X153079346Y-81485024D01*
X153064930Y-81500930D01*
X153049024Y-81515346D01*
X153031781Y-81528134D01*
X153013368Y-81539170D01*
X152993962Y-81548349D01*
X152973750Y-81555581D01*
X152952926Y-81560797D01*
X152931691Y-81563947D01*
X152910250Y-81565000D01*
X152397750Y-81565000D01*
X152376309Y-81563947D01*
X152355074Y-81560797D01*
X152334250Y-81555581D01*
X152314038Y-81548349D01*
X152294632Y-81539170D01*
X152276219Y-81528134D01*
X152258976Y-81515346D01*
X152243070Y-81500930D01*
X152228654Y-81485024D01*
X152215866Y-81467781D01*
X152204830Y-81449368D01*
X152195651Y-81429962D01*
X152188419Y-81409750D01*
X152183203Y-81388926D01*
X152180053Y-81367691D01*
X152179000Y-81346250D01*
X152179000Y-80908750D01*
X152180053Y-80887309D01*
X152183203Y-80866074D01*
X152188419Y-80845250D01*
X152195651Y-80825038D01*
X152204830Y-80805632D01*
X152215866Y-80787219D01*
X152228654Y-80769976D01*
X152243070Y-80754070D01*
X152258976Y-80739654D01*
X152276219Y-80726866D01*
X152294632Y-80715830D01*
X152314038Y-80706651D01*
X152334250Y-80699419D01*
X152355074Y-80694203D01*
X152376309Y-80691053D01*
X152397750Y-80690000D01*
X152910250Y-80690000D01*
X152931691Y-80691053D01*
G37*
G04 #@! TD.AperFunction*
G04 #@! TA.AperFunction,SMDPad,CuDef*
G36*
X152931691Y-82266053D02*
G01*
X152952926Y-82269203D01*
X152973750Y-82274419D01*
X152993962Y-82281651D01*
X153013368Y-82290830D01*
X153031781Y-82301866D01*
X153049024Y-82314654D01*
X153064930Y-82329070D01*
X153079346Y-82344976D01*
X153092134Y-82362219D01*
X153103170Y-82380632D01*
X153112349Y-82400038D01*
X153119581Y-82420250D01*
X153124797Y-82441074D01*
X153127947Y-82462309D01*
X153129000Y-82483750D01*
X153129000Y-82921250D01*
X153127947Y-82942691D01*
X153124797Y-82963926D01*
X153119581Y-82984750D01*
X153112349Y-83004962D01*
X153103170Y-83024368D01*
X153092134Y-83042781D01*
X153079346Y-83060024D01*
X153064930Y-83075930D01*
X153049024Y-83090346D01*
X153031781Y-83103134D01*
X153013368Y-83114170D01*
X152993962Y-83123349D01*
X152973750Y-83130581D01*
X152952926Y-83135797D01*
X152931691Y-83138947D01*
X152910250Y-83140000D01*
X152397750Y-83140000D01*
X152376309Y-83138947D01*
X152355074Y-83135797D01*
X152334250Y-83130581D01*
X152314038Y-83123349D01*
X152294632Y-83114170D01*
X152276219Y-83103134D01*
X152258976Y-83090346D01*
X152243070Y-83075930D01*
X152228654Y-83060024D01*
X152215866Y-83042781D01*
X152204830Y-83024368D01*
X152195651Y-83004962D01*
X152188419Y-82984750D01*
X152183203Y-82963926D01*
X152180053Y-82942691D01*
X152179000Y-82921250D01*
X152179000Y-82483750D01*
X152180053Y-82462309D01*
X152183203Y-82441074D01*
X152188419Y-82420250D01*
X152195651Y-82400038D01*
X152204830Y-82380632D01*
X152215866Y-82362219D01*
X152228654Y-82344976D01*
X152243070Y-82329070D01*
X152258976Y-82314654D01*
X152276219Y-82301866D01*
X152294632Y-82290830D01*
X152314038Y-82281651D01*
X152334250Y-82274419D01*
X152355074Y-82269203D01*
X152376309Y-82266053D01*
X152397750Y-82265000D01*
X152910250Y-82265000D01*
X152931691Y-82266053D01*
G37*
G04 #@! TD.AperFunction*
G04 #@! TA.AperFunction,SMDPad,CuDef*
G36*
X134199691Y-94268053D02*
G01*
X134220926Y-94271203D01*
X134241750Y-94276419D01*
X134261962Y-94283651D01*
X134281368Y-94292830D01*
X134299781Y-94303866D01*
X134317024Y-94316654D01*
X134332930Y-94331070D01*
X134347346Y-94346976D01*
X134360134Y-94364219D01*
X134371170Y-94382632D01*
X134380349Y-94402038D01*
X134387581Y-94422250D01*
X134392797Y-94443074D01*
X134395947Y-94464309D01*
X134397000Y-94485750D01*
X134397000Y-94998250D01*
X134395947Y-95019691D01*
X134392797Y-95040926D01*
X134387581Y-95061750D01*
X134380349Y-95081962D01*
X134371170Y-95101368D01*
X134360134Y-95119781D01*
X134347346Y-95137024D01*
X134332930Y-95152930D01*
X134317024Y-95167346D01*
X134299781Y-95180134D01*
X134281368Y-95191170D01*
X134261962Y-95200349D01*
X134241750Y-95207581D01*
X134220926Y-95212797D01*
X134199691Y-95215947D01*
X134178250Y-95217000D01*
X133740750Y-95217000D01*
X133719309Y-95215947D01*
X133698074Y-95212797D01*
X133677250Y-95207581D01*
X133657038Y-95200349D01*
X133637632Y-95191170D01*
X133619219Y-95180134D01*
X133601976Y-95167346D01*
X133586070Y-95152930D01*
X133571654Y-95137024D01*
X133558866Y-95119781D01*
X133547830Y-95101368D01*
X133538651Y-95081962D01*
X133531419Y-95061750D01*
X133526203Y-95040926D01*
X133523053Y-95019691D01*
X133522000Y-94998250D01*
X133522000Y-94485750D01*
X133523053Y-94464309D01*
X133526203Y-94443074D01*
X133531419Y-94422250D01*
X133538651Y-94402038D01*
X133547830Y-94382632D01*
X133558866Y-94364219D01*
X133571654Y-94346976D01*
X133586070Y-94331070D01*
X133601976Y-94316654D01*
X133619219Y-94303866D01*
X133637632Y-94292830D01*
X133657038Y-94283651D01*
X133677250Y-94276419D01*
X133698074Y-94271203D01*
X133719309Y-94268053D01*
X133740750Y-94267000D01*
X134178250Y-94267000D01*
X134199691Y-94268053D01*
G37*
G04 #@! TD.AperFunction*
G04 #@! TA.AperFunction,SMDPad,CuDef*
G36*
X135774691Y-94268053D02*
G01*
X135795926Y-94271203D01*
X135816750Y-94276419D01*
X135836962Y-94283651D01*
X135856368Y-94292830D01*
X135874781Y-94303866D01*
X135892024Y-94316654D01*
X135907930Y-94331070D01*
X135922346Y-94346976D01*
X135935134Y-94364219D01*
X135946170Y-94382632D01*
X135955349Y-94402038D01*
X135962581Y-94422250D01*
X135967797Y-94443074D01*
X135970947Y-94464309D01*
X135972000Y-94485750D01*
X135972000Y-94998250D01*
X135970947Y-95019691D01*
X135967797Y-95040926D01*
X135962581Y-95061750D01*
X135955349Y-95081962D01*
X135946170Y-95101368D01*
X135935134Y-95119781D01*
X135922346Y-95137024D01*
X135907930Y-95152930D01*
X135892024Y-95167346D01*
X135874781Y-95180134D01*
X135856368Y-95191170D01*
X135836962Y-95200349D01*
X135816750Y-95207581D01*
X135795926Y-95212797D01*
X135774691Y-95215947D01*
X135753250Y-95217000D01*
X135315750Y-95217000D01*
X135294309Y-95215947D01*
X135273074Y-95212797D01*
X135252250Y-95207581D01*
X135232038Y-95200349D01*
X135212632Y-95191170D01*
X135194219Y-95180134D01*
X135176976Y-95167346D01*
X135161070Y-95152930D01*
X135146654Y-95137024D01*
X135133866Y-95119781D01*
X135122830Y-95101368D01*
X135113651Y-95081962D01*
X135106419Y-95061750D01*
X135101203Y-95040926D01*
X135098053Y-95019691D01*
X135097000Y-94998250D01*
X135097000Y-94485750D01*
X135098053Y-94464309D01*
X135101203Y-94443074D01*
X135106419Y-94422250D01*
X135113651Y-94402038D01*
X135122830Y-94382632D01*
X135133866Y-94364219D01*
X135146654Y-94346976D01*
X135161070Y-94331070D01*
X135176976Y-94316654D01*
X135194219Y-94303866D01*
X135212632Y-94292830D01*
X135232038Y-94283651D01*
X135252250Y-94276419D01*
X135273074Y-94271203D01*
X135294309Y-94268053D01*
X135315750Y-94267000D01*
X135753250Y-94267000D01*
X135774691Y-94268053D01*
G37*
G04 #@! TD.AperFunction*
G04 #@! TA.AperFunction,SMDPad,CuDef*
G36*
X137374691Y-94268053D02*
G01*
X137395926Y-94271203D01*
X137416750Y-94276419D01*
X137436962Y-94283651D01*
X137456368Y-94292830D01*
X137474781Y-94303866D01*
X137492024Y-94316654D01*
X137507930Y-94331070D01*
X137522346Y-94346976D01*
X137535134Y-94364219D01*
X137546170Y-94382632D01*
X137555349Y-94402038D01*
X137562581Y-94422250D01*
X137567797Y-94443074D01*
X137570947Y-94464309D01*
X137572000Y-94485750D01*
X137572000Y-94998250D01*
X137570947Y-95019691D01*
X137567797Y-95040926D01*
X137562581Y-95061750D01*
X137555349Y-95081962D01*
X137546170Y-95101368D01*
X137535134Y-95119781D01*
X137522346Y-95137024D01*
X137507930Y-95152930D01*
X137492024Y-95167346D01*
X137474781Y-95180134D01*
X137456368Y-95191170D01*
X137436962Y-95200349D01*
X137416750Y-95207581D01*
X137395926Y-95212797D01*
X137374691Y-95215947D01*
X137353250Y-95217000D01*
X136915750Y-95217000D01*
X136894309Y-95215947D01*
X136873074Y-95212797D01*
X136852250Y-95207581D01*
X136832038Y-95200349D01*
X136812632Y-95191170D01*
X136794219Y-95180134D01*
X136776976Y-95167346D01*
X136761070Y-95152930D01*
X136746654Y-95137024D01*
X136733866Y-95119781D01*
X136722830Y-95101368D01*
X136713651Y-95081962D01*
X136706419Y-95061750D01*
X136701203Y-95040926D01*
X136698053Y-95019691D01*
X136697000Y-94998250D01*
X136697000Y-94485750D01*
X136698053Y-94464309D01*
X136701203Y-94443074D01*
X136706419Y-94422250D01*
X136713651Y-94402038D01*
X136722830Y-94382632D01*
X136733866Y-94364219D01*
X136746654Y-94346976D01*
X136761070Y-94331070D01*
X136776976Y-94316654D01*
X136794219Y-94303866D01*
X136812632Y-94292830D01*
X136832038Y-94283651D01*
X136852250Y-94276419D01*
X136873074Y-94271203D01*
X136894309Y-94268053D01*
X136915750Y-94267000D01*
X137353250Y-94267000D01*
X137374691Y-94268053D01*
G37*
G04 #@! TD.AperFunction*
G04 #@! TA.AperFunction,SMDPad,CuDef*
G36*
X138949691Y-94268053D02*
G01*
X138970926Y-94271203D01*
X138991750Y-94276419D01*
X139011962Y-94283651D01*
X139031368Y-94292830D01*
X139049781Y-94303866D01*
X139067024Y-94316654D01*
X139082930Y-94331070D01*
X139097346Y-94346976D01*
X139110134Y-94364219D01*
X139121170Y-94382632D01*
X139130349Y-94402038D01*
X139137581Y-94422250D01*
X139142797Y-94443074D01*
X139145947Y-94464309D01*
X139147000Y-94485750D01*
X139147000Y-94998250D01*
X139145947Y-95019691D01*
X139142797Y-95040926D01*
X139137581Y-95061750D01*
X139130349Y-95081962D01*
X139121170Y-95101368D01*
X139110134Y-95119781D01*
X139097346Y-95137024D01*
X139082930Y-95152930D01*
X139067024Y-95167346D01*
X139049781Y-95180134D01*
X139031368Y-95191170D01*
X139011962Y-95200349D01*
X138991750Y-95207581D01*
X138970926Y-95212797D01*
X138949691Y-95215947D01*
X138928250Y-95217000D01*
X138490750Y-95217000D01*
X138469309Y-95215947D01*
X138448074Y-95212797D01*
X138427250Y-95207581D01*
X138407038Y-95200349D01*
X138387632Y-95191170D01*
X138369219Y-95180134D01*
X138351976Y-95167346D01*
X138336070Y-95152930D01*
X138321654Y-95137024D01*
X138308866Y-95119781D01*
X138297830Y-95101368D01*
X138288651Y-95081962D01*
X138281419Y-95061750D01*
X138276203Y-95040926D01*
X138273053Y-95019691D01*
X138272000Y-94998250D01*
X138272000Y-94485750D01*
X138273053Y-94464309D01*
X138276203Y-94443074D01*
X138281419Y-94422250D01*
X138288651Y-94402038D01*
X138297830Y-94382632D01*
X138308866Y-94364219D01*
X138321654Y-94346976D01*
X138336070Y-94331070D01*
X138351976Y-94316654D01*
X138369219Y-94303866D01*
X138387632Y-94292830D01*
X138407038Y-94283651D01*
X138427250Y-94276419D01*
X138448074Y-94271203D01*
X138469309Y-94268053D01*
X138490750Y-94267000D01*
X138928250Y-94267000D01*
X138949691Y-94268053D01*
G37*
G04 #@! TD.AperFunction*
G04 #@! TA.AperFunction,SMDPad,CuDef*
G36*
X141184691Y-94268053D02*
G01*
X141205926Y-94271203D01*
X141226750Y-94276419D01*
X141246962Y-94283651D01*
X141266368Y-94292830D01*
X141284781Y-94303866D01*
X141302024Y-94316654D01*
X141317930Y-94331070D01*
X141332346Y-94346976D01*
X141345134Y-94364219D01*
X141356170Y-94382632D01*
X141365349Y-94402038D01*
X141372581Y-94422250D01*
X141377797Y-94443074D01*
X141380947Y-94464309D01*
X141382000Y-94485750D01*
X141382000Y-94998250D01*
X141380947Y-95019691D01*
X141377797Y-95040926D01*
X141372581Y-95061750D01*
X141365349Y-95081962D01*
X141356170Y-95101368D01*
X141345134Y-95119781D01*
X141332346Y-95137024D01*
X141317930Y-95152930D01*
X141302024Y-95167346D01*
X141284781Y-95180134D01*
X141266368Y-95191170D01*
X141246962Y-95200349D01*
X141226750Y-95207581D01*
X141205926Y-95212797D01*
X141184691Y-95215947D01*
X141163250Y-95217000D01*
X140725750Y-95217000D01*
X140704309Y-95215947D01*
X140683074Y-95212797D01*
X140662250Y-95207581D01*
X140642038Y-95200349D01*
X140622632Y-95191170D01*
X140604219Y-95180134D01*
X140586976Y-95167346D01*
X140571070Y-95152930D01*
X140556654Y-95137024D01*
X140543866Y-95119781D01*
X140532830Y-95101368D01*
X140523651Y-95081962D01*
X140516419Y-95061750D01*
X140511203Y-95040926D01*
X140508053Y-95019691D01*
X140507000Y-94998250D01*
X140507000Y-94485750D01*
X140508053Y-94464309D01*
X140511203Y-94443074D01*
X140516419Y-94422250D01*
X140523651Y-94402038D01*
X140532830Y-94382632D01*
X140543866Y-94364219D01*
X140556654Y-94346976D01*
X140571070Y-94331070D01*
X140586976Y-94316654D01*
X140604219Y-94303866D01*
X140622632Y-94292830D01*
X140642038Y-94283651D01*
X140662250Y-94276419D01*
X140683074Y-94271203D01*
X140704309Y-94268053D01*
X140725750Y-94267000D01*
X141163250Y-94267000D01*
X141184691Y-94268053D01*
G37*
G04 #@! TD.AperFunction*
G04 #@! TA.AperFunction,SMDPad,CuDef*
G36*
X142759691Y-94268053D02*
G01*
X142780926Y-94271203D01*
X142801750Y-94276419D01*
X142821962Y-94283651D01*
X142841368Y-94292830D01*
X142859781Y-94303866D01*
X142877024Y-94316654D01*
X142892930Y-94331070D01*
X142907346Y-94346976D01*
X142920134Y-94364219D01*
X142931170Y-94382632D01*
X142940349Y-94402038D01*
X142947581Y-94422250D01*
X142952797Y-94443074D01*
X142955947Y-94464309D01*
X142957000Y-94485750D01*
X142957000Y-94998250D01*
X142955947Y-95019691D01*
X142952797Y-95040926D01*
X142947581Y-95061750D01*
X142940349Y-95081962D01*
X142931170Y-95101368D01*
X142920134Y-95119781D01*
X142907346Y-95137024D01*
X142892930Y-95152930D01*
X142877024Y-95167346D01*
X142859781Y-95180134D01*
X142841368Y-95191170D01*
X142821962Y-95200349D01*
X142801750Y-95207581D01*
X142780926Y-95212797D01*
X142759691Y-95215947D01*
X142738250Y-95217000D01*
X142300750Y-95217000D01*
X142279309Y-95215947D01*
X142258074Y-95212797D01*
X142237250Y-95207581D01*
X142217038Y-95200349D01*
X142197632Y-95191170D01*
X142179219Y-95180134D01*
X142161976Y-95167346D01*
X142146070Y-95152930D01*
X142131654Y-95137024D01*
X142118866Y-95119781D01*
X142107830Y-95101368D01*
X142098651Y-95081962D01*
X142091419Y-95061750D01*
X142086203Y-95040926D01*
X142083053Y-95019691D01*
X142082000Y-94998250D01*
X142082000Y-94485750D01*
X142083053Y-94464309D01*
X142086203Y-94443074D01*
X142091419Y-94422250D01*
X142098651Y-94402038D01*
X142107830Y-94382632D01*
X142118866Y-94364219D01*
X142131654Y-94346976D01*
X142146070Y-94331070D01*
X142161976Y-94316654D01*
X142179219Y-94303866D01*
X142197632Y-94292830D01*
X142217038Y-94283651D01*
X142237250Y-94276419D01*
X142258074Y-94271203D01*
X142279309Y-94268053D01*
X142300750Y-94267000D01*
X142738250Y-94267000D01*
X142759691Y-94268053D01*
G37*
G04 #@! TD.AperFunction*
G04 #@! TA.AperFunction,SMDPad,CuDef*
G36*
X146962691Y-94331053D02*
G01*
X146983926Y-94334203D01*
X147004750Y-94339419D01*
X147024962Y-94346651D01*
X147044368Y-94355830D01*
X147062781Y-94366866D01*
X147080024Y-94379654D01*
X147095930Y-94394070D01*
X147110346Y-94409976D01*
X147123134Y-94427219D01*
X147134170Y-94445632D01*
X147143349Y-94465038D01*
X147150581Y-94485250D01*
X147155797Y-94506074D01*
X147158947Y-94527309D01*
X147160000Y-94548750D01*
X147160000Y-94986250D01*
X147158947Y-95007691D01*
X147155797Y-95028926D01*
X147150581Y-95049750D01*
X147143349Y-95069962D01*
X147134170Y-95089368D01*
X147123134Y-95107781D01*
X147110346Y-95125024D01*
X147095930Y-95140930D01*
X147080024Y-95155346D01*
X147062781Y-95168134D01*
X147044368Y-95179170D01*
X147024962Y-95188349D01*
X147004750Y-95195581D01*
X146983926Y-95200797D01*
X146962691Y-95203947D01*
X146941250Y-95205000D01*
X146428750Y-95205000D01*
X146407309Y-95203947D01*
X146386074Y-95200797D01*
X146365250Y-95195581D01*
X146345038Y-95188349D01*
X146325632Y-95179170D01*
X146307219Y-95168134D01*
X146289976Y-95155346D01*
X146274070Y-95140930D01*
X146259654Y-95125024D01*
X146246866Y-95107781D01*
X146235830Y-95089368D01*
X146226651Y-95069962D01*
X146219419Y-95049750D01*
X146214203Y-95028926D01*
X146211053Y-95007691D01*
X146210000Y-94986250D01*
X146210000Y-94548750D01*
X146211053Y-94527309D01*
X146214203Y-94506074D01*
X146219419Y-94485250D01*
X146226651Y-94465038D01*
X146235830Y-94445632D01*
X146246866Y-94427219D01*
X146259654Y-94409976D01*
X146274070Y-94394070D01*
X146289976Y-94379654D01*
X146307219Y-94366866D01*
X146325632Y-94355830D01*
X146345038Y-94346651D01*
X146365250Y-94339419D01*
X146386074Y-94334203D01*
X146407309Y-94331053D01*
X146428750Y-94330000D01*
X146941250Y-94330000D01*
X146962691Y-94331053D01*
G37*
G04 #@! TD.AperFunction*
G04 #@! TA.AperFunction,SMDPad,CuDef*
G36*
X146962691Y-92756053D02*
G01*
X146983926Y-92759203D01*
X147004750Y-92764419D01*
X147024962Y-92771651D01*
X147044368Y-92780830D01*
X147062781Y-92791866D01*
X147080024Y-92804654D01*
X147095930Y-92819070D01*
X147110346Y-92834976D01*
X147123134Y-92852219D01*
X147134170Y-92870632D01*
X147143349Y-92890038D01*
X147150581Y-92910250D01*
X147155797Y-92931074D01*
X147158947Y-92952309D01*
X147160000Y-92973750D01*
X147160000Y-93411250D01*
X147158947Y-93432691D01*
X147155797Y-93453926D01*
X147150581Y-93474750D01*
X147143349Y-93494962D01*
X147134170Y-93514368D01*
X147123134Y-93532781D01*
X147110346Y-93550024D01*
X147095930Y-93565930D01*
X147080024Y-93580346D01*
X147062781Y-93593134D01*
X147044368Y-93604170D01*
X147024962Y-93613349D01*
X147004750Y-93620581D01*
X146983926Y-93625797D01*
X146962691Y-93628947D01*
X146941250Y-93630000D01*
X146428750Y-93630000D01*
X146407309Y-93628947D01*
X146386074Y-93625797D01*
X146365250Y-93620581D01*
X146345038Y-93613349D01*
X146325632Y-93604170D01*
X146307219Y-93593134D01*
X146289976Y-93580346D01*
X146274070Y-93565930D01*
X146259654Y-93550024D01*
X146246866Y-93532781D01*
X146235830Y-93514368D01*
X146226651Y-93494962D01*
X146219419Y-93474750D01*
X146214203Y-93453926D01*
X146211053Y-93432691D01*
X146210000Y-93411250D01*
X146210000Y-92973750D01*
X146211053Y-92952309D01*
X146214203Y-92931074D01*
X146219419Y-92910250D01*
X146226651Y-92890038D01*
X146235830Y-92870632D01*
X146246866Y-92852219D01*
X146259654Y-92834976D01*
X146274070Y-92819070D01*
X146289976Y-92804654D01*
X146307219Y-92791866D01*
X146325632Y-92780830D01*
X146345038Y-92771651D01*
X146365250Y-92764419D01*
X146386074Y-92759203D01*
X146407309Y-92756053D01*
X146428750Y-92755000D01*
X146941250Y-92755000D01*
X146962691Y-92756053D01*
G37*
G04 #@! TD.AperFunction*
G04 #@! TA.AperFunction,SMDPad,CuDef*
G36*
X145057691Y-94331053D02*
G01*
X145078926Y-94334203D01*
X145099750Y-94339419D01*
X145119962Y-94346651D01*
X145139368Y-94355830D01*
X145157781Y-94366866D01*
X145175024Y-94379654D01*
X145190930Y-94394070D01*
X145205346Y-94409976D01*
X145218134Y-94427219D01*
X145229170Y-94445632D01*
X145238349Y-94465038D01*
X145245581Y-94485250D01*
X145250797Y-94506074D01*
X145253947Y-94527309D01*
X145255000Y-94548750D01*
X145255000Y-94986250D01*
X145253947Y-95007691D01*
X145250797Y-95028926D01*
X145245581Y-95049750D01*
X145238349Y-95069962D01*
X145229170Y-95089368D01*
X145218134Y-95107781D01*
X145205346Y-95125024D01*
X145190930Y-95140930D01*
X145175024Y-95155346D01*
X145157781Y-95168134D01*
X145139368Y-95179170D01*
X145119962Y-95188349D01*
X145099750Y-95195581D01*
X145078926Y-95200797D01*
X145057691Y-95203947D01*
X145036250Y-95205000D01*
X144523750Y-95205000D01*
X144502309Y-95203947D01*
X144481074Y-95200797D01*
X144460250Y-95195581D01*
X144440038Y-95188349D01*
X144420632Y-95179170D01*
X144402219Y-95168134D01*
X144384976Y-95155346D01*
X144369070Y-95140930D01*
X144354654Y-95125024D01*
X144341866Y-95107781D01*
X144330830Y-95089368D01*
X144321651Y-95069962D01*
X144314419Y-95049750D01*
X144309203Y-95028926D01*
X144306053Y-95007691D01*
X144305000Y-94986250D01*
X144305000Y-94548750D01*
X144306053Y-94527309D01*
X144309203Y-94506074D01*
X144314419Y-94485250D01*
X144321651Y-94465038D01*
X144330830Y-94445632D01*
X144341866Y-94427219D01*
X144354654Y-94409976D01*
X144369070Y-94394070D01*
X144384976Y-94379654D01*
X144402219Y-94366866D01*
X144420632Y-94355830D01*
X144440038Y-94346651D01*
X144460250Y-94339419D01*
X144481074Y-94334203D01*
X144502309Y-94331053D01*
X144523750Y-94330000D01*
X145036250Y-94330000D01*
X145057691Y-94331053D01*
G37*
G04 #@! TD.AperFunction*
G04 #@! TA.AperFunction,SMDPad,CuDef*
G36*
X145057691Y-92756053D02*
G01*
X145078926Y-92759203D01*
X145099750Y-92764419D01*
X145119962Y-92771651D01*
X145139368Y-92780830D01*
X145157781Y-92791866D01*
X145175024Y-92804654D01*
X145190930Y-92819070D01*
X145205346Y-92834976D01*
X145218134Y-92852219D01*
X145229170Y-92870632D01*
X145238349Y-92890038D01*
X145245581Y-92910250D01*
X145250797Y-92931074D01*
X145253947Y-92952309D01*
X145255000Y-92973750D01*
X145255000Y-93411250D01*
X145253947Y-93432691D01*
X145250797Y-93453926D01*
X145245581Y-93474750D01*
X145238349Y-93494962D01*
X145229170Y-93514368D01*
X145218134Y-93532781D01*
X145205346Y-93550024D01*
X145190930Y-93565930D01*
X145175024Y-93580346D01*
X145157781Y-93593134D01*
X145139368Y-93604170D01*
X145119962Y-93613349D01*
X145099750Y-93620581D01*
X145078926Y-93625797D01*
X145057691Y-93628947D01*
X145036250Y-93630000D01*
X144523750Y-93630000D01*
X144502309Y-93628947D01*
X144481074Y-93625797D01*
X144460250Y-93620581D01*
X144440038Y-93613349D01*
X144420632Y-93604170D01*
X144402219Y-93593134D01*
X144384976Y-93580346D01*
X144369070Y-93565930D01*
X144354654Y-93550024D01*
X144341866Y-93532781D01*
X144330830Y-93514368D01*
X144321651Y-93494962D01*
X144314419Y-93474750D01*
X144309203Y-93453926D01*
X144306053Y-93432691D01*
X144305000Y-93411250D01*
X144305000Y-92973750D01*
X144306053Y-92952309D01*
X144309203Y-92931074D01*
X144314419Y-92910250D01*
X144321651Y-92890038D01*
X144330830Y-92870632D01*
X144341866Y-92852219D01*
X144354654Y-92834976D01*
X144369070Y-92819070D01*
X144384976Y-92804654D01*
X144402219Y-92791866D01*
X144420632Y-92780830D01*
X144440038Y-92771651D01*
X144460250Y-92764419D01*
X144481074Y-92759203D01*
X144502309Y-92756053D01*
X144523750Y-92755000D01*
X145036250Y-92755000D01*
X145057691Y-92756053D01*
G37*
G04 #@! TD.AperFunction*
G04 #@! TA.AperFunction,SMDPad,CuDef*
G36*
X131202691Y-92871053D02*
G01*
X131223926Y-92874203D01*
X131244750Y-92879419D01*
X131264962Y-92886651D01*
X131284368Y-92895830D01*
X131302781Y-92906866D01*
X131320024Y-92919654D01*
X131335930Y-92934070D01*
X131350346Y-92949976D01*
X131363134Y-92967219D01*
X131374170Y-92985632D01*
X131383349Y-93005038D01*
X131390581Y-93025250D01*
X131395797Y-93046074D01*
X131398947Y-93067309D01*
X131400000Y-93088750D01*
X131400000Y-93601250D01*
X131398947Y-93622691D01*
X131395797Y-93643926D01*
X131390581Y-93664750D01*
X131383349Y-93684962D01*
X131374170Y-93704368D01*
X131363134Y-93722781D01*
X131350346Y-93740024D01*
X131335930Y-93755930D01*
X131320024Y-93770346D01*
X131302781Y-93783134D01*
X131284368Y-93794170D01*
X131264962Y-93803349D01*
X131244750Y-93810581D01*
X131223926Y-93815797D01*
X131202691Y-93818947D01*
X131181250Y-93820000D01*
X130743750Y-93820000D01*
X130722309Y-93818947D01*
X130701074Y-93815797D01*
X130680250Y-93810581D01*
X130660038Y-93803349D01*
X130640632Y-93794170D01*
X130622219Y-93783134D01*
X130604976Y-93770346D01*
X130589070Y-93755930D01*
X130574654Y-93740024D01*
X130561866Y-93722781D01*
X130550830Y-93704368D01*
X130541651Y-93684962D01*
X130534419Y-93664750D01*
X130529203Y-93643926D01*
X130526053Y-93622691D01*
X130525000Y-93601250D01*
X130525000Y-93088750D01*
X130526053Y-93067309D01*
X130529203Y-93046074D01*
X130534419Y-93025250D01*
X130541651Y-93005038D01*
X130550830Y-92985632D01*
X130561866Y-92967219D01*
X130574654Y-92949976D01*
X130589070Y-92934070D01*
X130604976Y-92919654D01*
X130622219Y-92906866D01*
X130640632Y-92895830D01*
X130660038Y-92886651D01*
X130680250Y-92879419D01*
X130701074Y-92874203D01*
X130722309Y-92871053D01*
X130743750Y-92870000D01*
X131181250Y-92870000D01*
X131202691Y-92871053D01*
G37*
G04 #@! TD.AperFunction*
G04 #@! TA.AperFunction,SMDPad,CuDef*
G36*
X129627691Y-92871053D02*
G01*
X129648926Y-92874203D01*
X129669750Y-92879419D01*
X129689962Y-92886651D01*
X129709368Y-92895830D01*
X129727781Y-92906866D01*
X129745024Y-92919654D01*
X129760930Y-92934070D01*
X129775346Y-92949976D01*
X129788134Y-92967219D01*
X129799170Y-92985632D01*
X129808349Y-93005038D01*
X129815581Y-93025250D01*
X129820797Y-93046074D01*
X129823947Y-93067309D01*
X129825000Y-93088750D01*
X129825000Y-93601250D01*
X129823947Y-93622691D01*
X129820797Y-93643926D01*
X129815581Y-93664750D01*
X129808349Y-93684962D01*
X129799170Y-93704368D01*
X129788134Y-93722781D01*
X129775346Y-93740024D01*
X129760930Y-93755930D01*
X129745024Y-93770346D01*
X129727781Y-93783134D01*
X129709368Y-93794170D01*
X129689962Y-93803349D01*
X129669750Y-93810581D01*
X129648926Y-93815797D01*
X129627691Y-93818947D01*
X129606250Y-93820000D01*
X129168750Y-93820000D01*
X129147309Y-93818947D01*
X129126074Y-93815797D01*
X129105250Y-93810581D01*
X129085038Y-93803349D01*
X129065632Y-93794170D01*
X129047219Y-93783134D01*
X129029976Y-93770346D01*
X129014070Y-93755930D01*
X128999654Y-93740024D01*
X128986866Y-93722781D01*
X128975830Y-93704368D01*
X128966651Y-93684962D01*
X128959419Y-93664750D01*
X128954203Y-93643926D01*
X128951053Y-93622691D01*
X128950000Y-93601250D01*
X128950000Y-93088750D01*
X128951053Y-93067309D01*
X128954203Y-93046074D01*
X128959419Y-93025250D01*
X128966651Y-93005038D01*
X128975830Y-92985632D01*
X128986866Y-92967219D01*
X128999654Y-92949976D01*
X129014070Y-92934070D01*
X129029976Y-92919654D01*
X129047219Y-92906866D01*
X129065632Y-92895830D01*
X129085038Y-92886651D01*
X129105250Y-92879419D01*
X129126074Y-92874203D01*
X129147309Y-92871053D01*
X129168750Y-92870000D01*
X129606250Y-92870000D01*
X129627691Y-92871053D01*
G37*
G04 #@! TD.AperFunction*
G04 #@! TA.AperFunction,SMDPad,CuDef*
G36*
X131202691Y-95411053D02*
G01*
X131223926Y-95414203D01*
X131244750Y-95419419D01*
X131264962Y-95426651D01*
X131284368Y-95435830D01*
X131302781Y-95446866D01*
X131320024Y-95459654D01*
X131335930Y-95474070D01*
X131350346Y-95489976D01*
X131363134Y-95507219D01*
X131374170Y-95525632D01*
X131383349Y-95545038D01*
X131390581Y-95565250D01*
X131395797Y-95586074D01*
X131398947Y-95607309D01*
X131400000Y-95628750D01*
X131400000Y-96141250D01*
X131398947Y-96162691D01*
X131395797Y-96183926D01*
X131390581Y-96204750D01*
X131383349Y-96224962D01*
X131374170Y-96244368D01*
X131363134Y-96262781D01*
X131350346Y-96280024D01*
X131335930Y-96295930D01*
X131320024Y-96310346D01*
X131302781Y-96323134D01*
X131284368Y-96334170D01*
X131264962Y-96343349D01*
X131244750Y-96350581D01*
X131223926Y-96355797D01*
X131202691Y-96358947D01*
X131181250Y-96360000D01*
X130743750Y-96360000D01*
X130722309Y-96358947D01*
X130701074Y-96355797D01*
X130680250Y-96350581D01*
X130660038Y-96343349D01*
X130640632Y-96334170D01*
X130622219Y-96323134D01*
X130604976Y-96310346D01*
X130589070Y-96295930D01*
X130574654Y-96280024D01*
X130561866Y-96262781D01*
X130550830Y-96244368D01*
X130541651Y-96224962D01*
X130534419Y-96204750D01*
X130529203Y-96183926D01*
X130526053Y-96162691D01*
X130525000Y-96141250D01*
X130525000Y-95628750D01*
X130526053Y-95607309D01*
X130529203Y-95586074D01*
X130534419Y-95565250D01*
X130541651Y-95545038D01*
X130550830Y-95525632D01*
X130561866Y-95507219D01*
X130574654Y-95489976D01*
X130589070Y-95474070D01*
X130604976Y-95459654D01*
X130622219Y-95446866D01*
X130640632Y-95435830D01*
X130660038Y-95426651D01*
X130680250Y-95419419D01*
X130701074Y-95414203D01*
X130722309Y-95411053D01*
X130743750Y-95410000D01*
X131181250Y-95410000D01*
X131202691Y-95411053D01*
G37*
G04 #@! TD.AperFunction*
G04 #@! TA.AperFunction,SMDPad,CuDef*
G36*
X129627691Y-95411053D02*
G01*
X129648926Y-95414203D01*
X129669750Y-95419419D01*
X129689962Y-95426651D01*
X129709368Y-95435830D01*
X129727781Y-95446866D01*
X129745024Y-95459654D01*
X129760930Y-95474070D01*
X129775346Y-95489976D01*
X129788134Y-95507219D01*
X129799170Y-95525632D01*
X129808349Y-95545038D01*
X129815581Y-95565250D01*
X129820797Y-95586074D01*
X129823947Y-95607309D01*
X129825000Y-95628750D01*
X129825000Y-96141250D01*
X129823947Y-96162691D01*
X129820797Y-96183926D01*
X129815581Y-96204750D01*
X129808349Y-96224962D01*
X129799170Y-96244368D01*
X129788134Y-96262781D01*
X129775346Y-96280024D01*
X129760930Y-96295930D01*
X129745024Y-96310346D01*
X129727781Y-96323134D01*
X129709368Y-96334170D01*
X129689962Y-96343349D01*
X129669750Y-96350581D01*
X129648926Y-96355797D01*
X129627691Y-96358947D01*
X129606250Y-96360000D01*
X129168750Y-96360000D01*
X129147309Y-96358947D01*
X129126074Y-96355797D01*
X129105250Y-96350581D01*
X129085038Y-96343349D01*
X129065632Y-96334170D01*
X129047219Y-96323134D01*
X129029976Y-96310346D01*
X129014070Y-96295930D01*
X128999654Y-96280024D01*
X128986866Y-96262781D01*
X128975830Y-96244368D01*
X128966651Y-96224962D01*
X128959419Y-96204750D01*
X128954203Y-96183926D01*
X128951053Y-96162691D01*
X128950000Y-96141250D01*
X128950000Y-95628750D01*
X128951053Y-95607309D01*
X128954203Y-95586074D01*
X128959419Y-95565250D01*
X128966651Y-95545038D01*
X128975830Y-95525632D01*
X128986866Y-95507219D01*
X128999654Y-95489976D01*
X129014070Y-95474070D01*
X129029976Y-95459654D01*
X129047219Y-95446866D01*
X129065632Y-95435830D01*
X129085038Y-95426651D01*
X129105250Y-95419419D01*
X129126074Y-95414203D01*
X129147309Y-95411053D01*
X129168750Y-95410000D01*
X129606250Y-95410000D01*
X129627691Y-95411053D01*
G37*
G04 #@! TD.AperFunction*
G04 #@! TA.AperFunction,SMDPad,CuDef*
G36*
X135088691Y-100618053D02*
G01*
X135109926Y-100621203D01*
X135130750Y-100626419D01*
X135150962Y-100633651D01*
X135170368Y-100642830D01*
X135188781Y-100653866D01*
X135206024Y-100666654D01*
X135221930Y-100681070D01*
X135236346Y-100696976D01*
X135249134Y-100714219D01*
X135260170Y-100732632D01*
X135269349Y-100752038D01*
X135276581Y-100772250D01*
X135281797Y-100793074D01*
X135284947Y-100814309D01*
X135286000Y-100835750D01*
X135286000Y-101348250D01*
X135284947Y-101369691D01*
X135281797Y-101390926D01*
X135276581Y-101411750D01*
X135269349Y-101431962D01*
X135260170Y-101451368D01*
X135249134Y-101469781D01*
X135236346Y-101487024D01*
X135221930Y-101502930D01*
X135206024Y-101517346D01*
X135188781Y-101530134D01*
X135170368Y-101541170D01*
X135150962Y-101550349D01*
X135130750Y-101557581D01*
X135109926Y-101562797D01*
X135088691Y-101565947D01*
X135067250Y-101567000D01*
X134629750Y-101567000D01*
X134608309Y-101565947D01*
X134587074Y-101562797D01*
X134566250Y-101557581D01*
X134546038Y-101550349D01*
X134526632Y-101541170D01*
X134508219Y-101530134D01*
X134490976Y-101517346D01*
X134475070Y-101502930D01*
X134460654Y-101487024D01*
X134447866Y-101469781D01*
X134436830Y-101451368D01*
X134427651Y-101431962D01*
X134420419Y-101411750D01*
X134415203Y-101390926D01*
X134412053Y-101369691D01*
X134411000Y-101348250D01*
X134411000Y-100835750D01*
X134412053Y-100814309D01*
X134415203Y-100793074D01*
X134420419Y-100772250D01*
X134427651Y-100752038D01*
X134436830Y-100732632D01*
X134447866Y-100714219D01*
X134460654Y-100696976D01*
X134475070Y-100681070D01*
X134490976Y-100666654D01*
X134508219Y-100653866D01*
X134526632Y-100642830D01*
X134546038Y-100633651D01*
X134566250Y-100626419D01*
X134587074Y-100621203D01*
X134608309Y-100618053D01*
X134629750Y-100617000D01*
X135067250Y-100617000D01*
X135088691Y-100618053D01*
G37*
G04 #@! TD.AperFunction*
G04 #@! TA.AperFunction,SMDPad,CuDef*
G36*
X136663691Y-100618053D02*
G01*
X136684926Y-100621203D01*
X136705750Y-100626419D01*
X136725962Y-100633651D01*
X136745368Y-100642830D01*
X136763781Y-100653866D01*
X136781024Y-100666654D01*
X136796930Y-100681070D01*
X136811346Y-100696976D01*
X136824134Y-100714219D01*
X136835170Y-100732632D01*
X136844349Y-100752038D01*
X136851581Y-100772250D01*
X136856797Y-100793074D01*
X136859947Y-100814309D01*
X136861000Y-100835750D01*
X136861000Y-101348250D01*
X136859947Y-101369691D01*
X136856797Y-101390926D01*
X136851581Y-101411750D01*
X136844349Y-101431962D01*
X136835170Y-101451368D01*
X136824134Y-101469781D01*
X136811346Y-101487024D01*
X136796930Y-101502930D01*
X136781024Y-101517346D01*
X136763781Y-101530134D01*
X136745368Y-101541170D01*
X136725962Y-101550349D01*
X136705750Y-101557581D01*
X136684926Y-101562797D01*
X136663691Y-101565947D01*
X136642250Y-101567000D01*
X136204750Y-101567000D01*
X136183309Y-101565947D01*
X136162074Y-101562797D01*
X136141250Y-101557581D01*
X136121038Y-101550349D01*
X136101632Y-101541170D01*
X136083219Y-101530134D01*
X136065976Y-101517346D01*
X136050070Y-101502930D01*
X136035654Y-101487024D01*
X136022866Y-101469781D01*
X136011830Y-101451368D01*
X136002651Y-101431962D01*
X135995419Y-101411750D01*
X135990203Y-101390926D01*
X135987053Y-101369691D01*
X135986000Y-101348250D01*
X135986000Y-100835750D01*
X135987053Y-100814309D01*
X135990203Y-100793074D01*
X135995419Y-100772250D01*
X136002651Y-100752038D01*
X136011830Y-100732632D01*
X136022866Y-100714219D01*
X136035654Y-100696976D01*
X136050070Y-100681070D01*
X136065976Y-100666654D01*
X136083219Y-100653866D01*
X136101632Y-100642830D01*
X136121038Y-100633651D01*
X136141250Y-100626419D01*
X136162074Y-100621203D01*
X136183309Y-100618053D01*
X136204750Y-100617000D01*
X136642250Y-100617000D01*
X136663691Y-100618053D01*
G37*
G04 #@! TD.AperFunction*
G04 #@! TA.AperFunction,SMDPad,CuDef*
G36*
X138644691Y-100618053D02*
G01*
X138665926Y-100621203D01*
X138686750Y-100626419D01*
X138706962Y-100633651D01*
X138726368Y-100642830D01*
X138744781Y-100653866D01*
X138762024Y-100666654D01*
X138777930Y-100681070D01*
X138792346Y-100696976D01*
X138805134Y-100714219D01*
X138816170Y-100732632D01*
X138825349Y-100752038D01*
X138832581Y-100772250D01*
X138837797Y-100793074D01*
X138840947Y-100814309D01*
X138842000Y-100835750D01*
X138842000Y-101348250D01*
X138840947Y-101369691D01*
X138837797Y-101390926D01*
X138832581Y-101411750D01*
X138825349Y-101431962D01*
X138816170Y-101451368D01*
X138805134Y-101469781D01*
X138792346Y-101487024D01*
X138777930Y-101502930D01*
X138762024Y-101517346D01*
X138744781Y-101530134D01*
X138726368Y-101541170D01*
X138706962Y-101550349D01*
X138686750Y-101557581D01*
X138665926Y-101562797D01*
X138644691Y-101565947D01*
X138623250Y-101567000D01*
X138185750Y-101567000D01*
X138164309Y-101565947D01*
X138143074Y-101562797D01*
X138122250Y-101557581D01*
X138102038Y-101550349D01*
X138082632Y-101541170D01*
X138064219Y-101530134D01*
X138046976Y-101517346D01*
X138031070Y-101502930D01*
X138016654Y-101487024D01*
X138003866Y-101469781D01*
X137992830Y-101451368D01*
X137983651Y-101431962D01*
X137976419Y-101411750D01*
X137971203Y-101390926D01*
X137968053Y-101369691D01*
X137967000Y-101348250D01*
X137967000Y-100835750D01*
X137968053Y-100814309D01*
X137971203Y-100793074D01*
X137976419Y-100772250D01*
X137983651Y-100752038D01*
X137992830Y-100732632D01*
X138003866Y-100714219D01*
X138016654Y-100696976D01*
X138031070Y-100681070D01*
X138046976Y-100666654D01*
X138064219Y-100653866D01*
X138082632Y-100642830D01*
X138102038Y-100633651D01*
X138122250Y-100626419D01*
X138143074Y-100621203D01*
X138164309Y-100618053D01*
X138185750Y-100617000D01*
X138623250Y-100617000D01*
X138644691Y-100618053D01*
G37*
G04 #@! TD.AperFunction*
G04 #@! TA.AperFunction,SMDPad,CuDef*
G36*
X140219691Y-100618053D02*
G01*
X140240926Y-100621203D01*
X140261750Y-100626419D01*
X140281962Y-100633651D01*
X140301368Y-100642830D01*
X140319781Y-100653866D01*
X140337024Y-100666654D01*
X140352930Y-100681070D01*
X140367346Y-100696976D01*
X140380134Y-100714219D01*
X140391170Y-100732632D01*
X140400349Y-100752038D01*
X140407581Y-100772250D01*
X140412797Y-100793074D01*
X140415947Y-100814309D01*
X140417000Y-100835750D01*
X140417000Y-101348250D01*
X140415947Y-101369691D01*
X140412797Y-101390926D01*
X140407581Y-101411750D01*
X140400349Y-101431962D01*
X140391170Y-101451368D01*
X140380134Y-101469781D01*
X140367346Y-101487024D01*
X140352930Y-101502930D01*
X140337024Y-101517346D01*
X140319781Y-101530134D01*
X140301368Y-101541170D01*
X140281962Y-101550349D01*
X140261750Y-101557581D01*
X140240926Y-101562797D01*
X140219691Y-101565947D01*
X140198250Y-101567000D01*
X139760750Y-101567000D01*
X139739309Y-101565947D01*
X139718074Y-101562797D01*
X139697250Y-101557581D01*
X139677038Y-101550349D01*
X139657632Y-101541170D01*
X139639219Y-101530134D01*
X139621976Y-101517346D01*
X139606070Y-101502930D01*
X139591654Y-101487024D01*
X139578866Y-101469781D01*
X139567830Y-101451368D01*
X139558651Y-101431962D01*
X139551419Y-101411750D01*
X139546203Y-101390926D01*
X139543053Y-101369691D01*
X139542000Y-101348250D01*
X139542000Y-100835750D01*
X139543053Y-100814309D01*
X139546203Y-100793074D01*
X139551419Y-100772250D01*
X139558651Y-100752038D01*
X139567830Y-100732632D01*
X139578866Y-100714219D01*
X139591654Y-100696976D01*
X139606070Y-100681070D01*
X139621976Y-100666654D01*
X139639219Y-100653866D01*
X139657632Y-100642830D01*
X139677038Y-100633651D01*
X139697250Y-100626419D01*
X139718074Y-100621203D01*
X139739309Y-100618053D01*
X139760750Y-100617000D01*
X140198250Y-100617000D01*
X140219691Y-100618053D01*
G37*
G04 #@! TD.AperFunction*
G04 #@! TA.AperFunction,SMDPad,CuDef*
G36*
X144283691Y-100618053D02*
G01*
X144304926Y-100621203D01*
X144325750Y-100626419D01*
X144345962Y-100633651D01*
X144365368Y-100642830D01*
X144383781Y-100653866D01*
X144401024Y-100666654D01*
X144416930Y-100681070D01*
X144431346Y-100696976D01*
X144444134Y-100714219D01*
X144455170Y-100732632D01*
X144464349Y-100752038D01*
X144471581Y-100772250D01*
X144476797Y-100793074D01*
X144479947Y-100814309D01*
X144481000Y-100835750D01*
X144481000Y-101348250D01*
X144479947Y-101369691D01*
X144476797Y-101390926D01*
X144471581Y-101411750D01*
X144464349Y-101431962D01*
X144455170Y-101451368D01*
X144444134Y-101469781D01*
X144431346Y-101487024D01*
X144416930Y-101502930D01*
X144401024Y-101517346D01*
X144383781Y-101530134D01*
X144365368Y-101541170D01*
X144345962Y-101550349D01*
X144325750Y-101557581D01*
X144304926Y-101562797D01*
X144283691Y-101565947D01*
X144262250Y-101567000D01*
X143824750Y-101567000D01*
X143803309Y-101565947D01*
X143782074Y-101562797D01*
X143761250Y-101557581D01*
X143741038Y-101550349D01*
X143721632Y-101541170D01*
X143703219Y-101530134D01*
X143685976Y-101517346D01*
X143670070Y-101502930D01*
X143655654Y-101487024D01*
X143642866Y-101469781D01*
X143631830Y-101451368D01*
X143622651Y-101431962D01*
X143615419Y-101411750D01*
X143610203Y-101390926D01*
X143607053Y-101369691D01*
X143606000Y-101348250D01*
X143606000Y-100835750D01*
X143607053Y-100814309D01*
X143610203Y-100793074D01*
X143615419Y-100772250D01*
X143622651Y-100752038D01*
X143631830Y-100732632D01*
X143642866Y-100714219D01*
X143655654Y-100696976D01*
X143670070Y-100681070D01*
X143685976Y-100666654D01*
X143703219Y-100653866D01*
X143721632Y-100642830D01*
X143741038Y-100633651D01*
X143761250Y-100626419D01*
X143782074Y-100621203D01*
X143803309Y-100618053D01*
X143824750Y-100617000D01*
X144262250Y-100617000D01*
X144283691Y-100618053D01*
G37*
G04 #@! TD.AperFunction*
G04 #@! TA.AperFunction,SMDPad,CuDef*
G36*
X142708691Y-100618053D02*
G01*
X142729926Y-100621203D01*
X142750750Y-100626419D01*
X142770962Y-100633651D01*
X142790368Y-100642830D01*
X142808781Y-100653866D01*
X142826024Y-100666654D01*
X142841930Y-100681070D01*
X142856346Y-100696976D01*
X142869134Y-100714219D01*
X142880170Y-100732632D01*
X142889349Y-100752038D01*
X142896581Y-100772250D01*
X142901797Y-100793074D01*
X142904947Y-100814309D01*
X142906000Y-100835750D01*
X142906000Y-101348250D01*
X142904947Y-101369691D01*
X142901797Y-101390926D01*
X142896581Y-101411750D01*
X142889349Y-101431962D01*
X142880170Y-101451368D01*
X142869134Y-101469781D01*
X142856346Y-101487024D01*
X142841930Y-101502930D01*
X142826024Y-101517346D01*
X142808781Y-101530134D01*
X142790368Y-101541170D01*
X142770962Y-101550349D01*
X142750750Y-101557581D01*
X142729926Y-101562797D01*
X142708691Y-101565947D01*
X142687250Y-101567000D01*
X142249750Y-101567000D01*
X142228309Y-101565947D01*
X142207074Y-101562797D01*
X142186250Y-101557581D01*
X142166038Y-101550349D01*
X142146632Y-101541170D01*
X142128219Y-101530134D01*
X142110976Y-101517346D01*
X142095070Y-101502930D01*
X142080654Y-101487024D01*
X142067866Y-101469781D01*
X142056830Y-101451368D01*
X142047651Y-101431962D01*
X142040419Y-101411750D01*
X142035203Y-101390926D01*
X142032053Y-101369691D01*
X142031000Y-101348250D01*
X142031000Y-100835750D01*
X142032053Y-100814309D01*
X142035203Y-100793074D01*
X142040419Y-100772250D01*
X142047651Y-100752038D01*
X142056830Y-100732632D01*
X142067866Y-100714219D01*
X142080654Y-100696976D01*
X142095070Y-100681070D01*
X142110976Y-100666654D01*
X142128219Y-100653866D01*
X142146632Y-100642830D01*
X142166038Y-100633651D01*
X142186250Y-100626419D01*
X142207074Y-100621203D01*
X142228309Y-100618053D01*
X142249750Y-100617000D01*
X142687250Y-100617000D01*
X142708691Y-100618053D01*
G37*
G04 #@! TD.AperFunction*
G04 #@! TA.AperFunction,SMDPad,CuDef*
G36*
X153312691Y-70531053D02*
G01*
X153333926Y-70534203D01*
X153354750Y-70539419D01*
X153374962Y-70546651D01*
X153394368Y-70555830D01*
X153412781Y-70566866D01*
X153430024Y-70579654D01*
X153445930Y-70594070D01*
X153460346Y-70609976D01*
X153473134Y-70627219D01*
X153484170Y-70645632D01*
X153493349Y-70665038D01*
X153500581Y-70685250D01*
X153505797Y-70706074D01*
X153508947Y-70727309D01*
X153510000Y-70748750D01*
X153510000Y-71186250D01*
X153508947Y-71207691D01*
X153505797Y-71228926D01*
X153500581Y-71249750D01*
X153493349Y-71269962D01*
X153484170Y-71289368D01*
X153473134Y-71307781D01*
X153460346Y-71325024D01*
X153445930Y-71340930D01*
X153430024Y-71355346D01*
X153412781Y-71368134D01*
X153394368Y-71379170D01*
X153374962Y-71388349D01*
X153354750Y-71395581D01*
X153333926Y-71400797D01*
X153312691Y-71403947D01*
X153291250Y-71405000D01*
X152778750Y-71405000D01*
X152757309Y-71403947D01*
X152736074Y-71400797D01*
X152715250Y-71395581D01*
X152695038Y-71388349D01*
X152675632Y-71379170D01*
X152657219Y-71368134D01*
X152639976Y-71355346D01*
X152624070Y-71340930D01*
X152609654Y-71325024D01*
X152596866Y-71307781D01*
X152585830Y-71289368D01*
X152576651Y-71269962D01*
X152569419Y-71249750D01*
X152564203Y-71228926D01*
X152561053Y-71207691D01*
X152560000Y-71186250D01*
X152560000Y-70748750D01*
X152561053Y-70727309D01*
X152564203Y-70706074D01*
X152569419Y-70685250D01*
X152576651Y-70665038D01*
X152585830Y-70645632D01*
X152596866Y-70627219D01*
X152609654Y-70609976D01*
X152624070Y-70594070D01*
X152639976Y-70579654D01*
X152657219Y-70566866D01*
X152675632Y-70555830D01*
X152695038Y-70546651D01*
X152715250Y-70539419D01*
X152736074Y-70534203D01*
X152757309Y-70531053D01*
X152778750Y-70530000D01*
X153291250Y-70530000D01*
X153312691Y-70531053D01*
G37*
G04 #@! TD.AperFunction*
G04 #@! TA.AperFunction,SMDPad,CuDef*
G36*
X153312691Y-72106053D02*
G01*
X153333926Y-72109203D01*
X153354750Y-72114419D01*
X153374962Y-72121651D01*
X153394368Y-72130830D01*
X153412781Y-72141866D01*
X153430024Y-72154654D01*
X153445930Y-72169070D01*
X153460346Y-72184976D01*
X153473134Y-72202219D01*
X153484170Y-72220632D01*
X153493349Y-72240038D01*
X153500581Y-72260250D01*
X153505797Y-72281074D01*
X153508947Y-72302309D01*
X153510000Y-72323750D01*
X153510000Y-72761250D01*
X153508947Y-72782691D01*
X153505797Y-72803926D01*
X153500581Y-72824750D01*
X153493349Y-72844962D01*
X153484170Y-72864368D01*
X153473134Y-72882781D01*
X153460346Y-72900024D01*
X153445930Y-72915930D01*
X153430024Y-72930346D01*
X153412781Y-72943134D01*
X153394368Y-72954170D01*
X153374962Y-72963349D01*
X153354750Y-72970581D01*
X153333926Y-72975797D01*
X153312691Y-72978947D01*
X153291250Y-72980000D01*
X152778750Y-72980000D01*
X152757309Y-72978947D01*
X152736074Y-72975797D01*
X152715250Y-72970581D01*
X152695038Y-72963349D01*
X152675632Y-72954170D01*
X152657219Y-72943134D01*
X152639976Y-72930346D01*
X152624070Y-72915930D01*
X152609654Y-72900024D01*
X152596866Y-72882781D01*
X152585830Y-72864368D01*
X152576651Y-72844962D01*
X152569419Y-72824750D01*
X152564203Y-72803926D01*
X152561053Y-72782691D01*
X152560000Y-72761250D01*
X152560000Y-72323750D01*
X152561053Y-72302309D01*
X152564203Y-72281074D01*
X152569419Y-72260250D01*
X152576651Y-72240038D01*
X152585830Y-72220632D01*
X152596866Y-72202219D01*
X152609654Y-72184976D01*
X152624070Y-72169070D01*
X152639976Y-72154654D01*
X152657219Y-72141866D01*
X152675632Y-72130830D01*
X152695038Y-72121651D01*
X152715250Y-72114419D01*
X152736074Y-72109203D01*
X152757309Y-72106053D01*
X152778750Y-72105000D01*
X153291250Y-72105000D01*
X153312691Y-72106053D01*
G37*
G04 #@! TD.AperFunction*
G04 #@! TA.AperFunction,SMDPad,CuDef*
G36*
X155852691Y-74341053D02*
G01*
X155873926Y-74344203D01*
X155894750Y-74349419D01*
X155914962Y-74356651D01*
X155934368Y-74365830D01*
X155952781Y-74376866D01*
X155970024Y-74389654D01*
X155985930Y-74404070D01*
X156000346Y-74419976D01*
X156013134Y-74437219D01*
X156024170Y-74455632D01*
X156033349Y-74475038D01*
X156040581Y-74495250D01*
X156045797Y-74516074D01*
X156048947Y-74537309D01*
X156050000Y-74558750D01*
X156050000Y-74996250D01*
X156048947Y-75017691D01*
X156045797Y-75038926D01*
X156040581Y-75059750D01*
X156033349Y-75079962D01*
X156024170Y-75099368D01*
X156013134Y-75117781D01*
X156000346Y-75135024D01*
X155985930Y-75150930D01*
X155970024Y-75165346D01*
X155952781Y-75178134D01*
X155934368Y-75189170D01*
X155914962Y-75198349D01*
X155894750Y-75205581D01*
X155873926Y-75210797D01*
X155852691Y-75213947D01*
X155831250Y-75215000D01*
X155318750Y-75215000D01*
X155297309Y-75213947D01*
X155276074Y-75210797D01*
X155255250Y-75205581D01*
X155235038Y-75198349D01*
X155215632Y-75189170D01*
X155197219Y-75178134D01*
X155179976Y-75165346D01*
X155164070Y-75150930D01*
X155149654Y-75135024D01*
X155136866Y-75117781D01*
X155125830Y-75099368D01*
X155116651Y-75079962D01*
X155109419Y-75059750D01*
X155104203Y-75038926D01*
X155101053Y-75017691D01*
X155100000Y-74996250D01*
X155100000Y-74558750D01*
X155101053Y-74537309D01*
X155104203Y-74516074D01*
X155109419Y-74495250D01*
X155116651Y-74475038D01*
X155125830Y-74455632D01*
X155136866Y-74437219D01*
X155149654Y-74419976D01*
X155164070Y-74404070D01*
X155179976Y-74389654D01*
X155197219Y-74376866D01*
X155215632Y-74365830D01*
X155235038Y-74356651D01*
X155255250Y-74349419D01*
X155276074Y-74344203D01*
X155297309Y-74341053D01*
X155318750Y-74340000D01*
X155831250Y-74340000D01*
X155852691Y-74341053D01*
G37*
G04 #@! TD.AperFunction*
G04 #@! TA.AperFunction,SMDPad,CuDef*
G36*
X155852691Y-75916053D02*
G01*
X155873926Y-75919203D01*
X155894750Y-75924419D01*
X155914962Y-75931651D01*
X155934368Y-75940830D01*
X155952781Y-75951866D01*
X155970024Y-75964654D01*
X155985930Y-75979070D01*
X156000346Y-75994976D01*
X156013134Y-76012219D01*
X156024170Y-76030632D01*
X156033349Y-76050038D01*
X156040581Y-76070250D01*
X156045797Y-76091074D01*
X156048947Y-76112309D01*
X156050000Y-76133750D01*
X156050000Y-76571250D01*
X156048947Y-76592691D01*
X156045797Y-76613926D01*
X156040581Y-76634750D01*
X156033349Y-76654962D01*
X156024170Y-76674368D01*
X156013134Y-76692781D01*
X156000346Y-76710024D01*
X155985930Y-76725930D01*
X155970024Y-76740346D01*
X155952781Y-76753134D01*
X155934368Y-76764170D01*
X155914962Y-76773349D01*
X155894750Y-76780581D01*
X155873926Y-76785797D01*
X155852691Y-76788947D01*
X155831250Y-76790000D01*
X155318750Y-76790000D01*
X155297309Y-76788947D01*
X155276074Y-76785797D01*
X155255250Y-76780581D01*
X155235038Y-76773349D01*
X155215632Y-76764170D01*
X155197219Y-76753134D01*
X155179976Y-76740346D01*
X155164070Y-76725930D01*
X155149654Y-76710024D01*
X155136866Y-76692781D01*
X155125830Y-76674368D01*
X155116651Y-76654962D01*
X155109419Y-76634750D01*
X155104203Y-76613926D01*
X155101053Y-76592691D01*
X155100000Y-76571250D01*
X155100000Y-76133750D01*
X155101053Y-76112309D01*
X155104203Y-76091074D01*
X155109419Y-76070250D01*
X155116651Y-76050038D01*
X155125830Y-76030632D01*
X155136866Y-76012219D01*
X155149654Y-75994976D01*
X155164070Y-75979070D01*
X155179976Y-75964654D01*
X155197219Y-75951866D01*
X155215632Y-75940830D01*
X155235038Y-75931651D01*
X155255250Y-75924419D01*
X155276074Y-75919203D01*
X155297309Y-75916053D01*
X155318750Y-75915000D01*
X155831250Y-75915000D01*
X155852691Y-75916053D01*
G37*
G04 #@! TD.AperFunction*
G04 #@! TA.AperFunction,SMDPad,CuDef*
G36*
X148042691Y-70646053D02*
G01*
X148063926Y-70649203D01*
X148084750Y-70654419D01*
X148104962Y-70661651D01*
X148124368Y-70670830D01*
X148142781Y-70681866D01*
X148160024Y-70694654D01*
X148175930Y-70709070D01*
X148190346Y-70724976D01*
X148203134Y-70742219D01*
X148214170Y-70760632D01*
X148223349Y-70780038D01*
X148230581Y-70800250D01*
X148235797Y-70821074D01*
X148238947Y-70842309D01*
X148240000Y-70863750D01*
X148240000Y-71376250D01*
X148238947Y-71397691D01*
X148235797Y-71418926D01*
X148230581Y-71439750D01*
X148223349Y-71459962D01*
X148214170Y-71479368D01*
X148203134Y-71497781D01*
X148190346Y-71515024D01*
X148175930Y-71530930D01*
X148160024Y-71545346D01*
X148142781Y-71558134D01*
X148124368Y-71569170D01*
X148104962Y-71578349D01*
X148084750Y-71585581D01*
X148063926Y-71590797D01*
X148042691Y-71593947D01*
X148021250Y-71595000D01*
X147583750Y-71595000D01*
X147562309Y-71593947D01*
X147541074Y-71590797D01*
X147520250Y-71585581D01*
X147500038Y-71578349D01*
X147480632Y-71569170D01*
X147462219Y-71558134D01*
X147444976Y-71545346D01*
X147429070Y-71530930D01*
X147414654Y-71515024D01*
X147401866Y-71497781D01*
X147390830Y-71479368D01*
X147381651Y-71459962D01*
X147374419Y-71439750D01*
X147369203Y-71418926D01*
X147366053Y-71397691D01*
X147365000Y-71376250D01*
X147365000Y-70863750D01*
X147366053Y-70842309D01*
X147369203Y-70821074D01*
X147374419Y-70800250D01*
X147381651Y-70780038D01*
X147390830Y-70760632D01*
X147401866Y-70742219D01*
X147414654Y-70724976D01*
X147429070Y-70709070D01*
X147444976Y-70694654D01*
X147462219Y-70681866D01*
X147480632Y-70670830D01*
X147500038Y-70661651D01*
X147520250Y-70654419D01*
X147541074Y-70649203D01*
X147562309Y-70646053D01*
X147583750Y-70645000D01*
X148021250Y-70645000D01*
X148042691Y-70646053D01*
G37*
G04 #@! TD.AperFunction*
G04 #@! TA.AperFunction,SMDPad,CuDef*
G36*
X149617691Y-70646053D02*
G01*
X149638926Y-70649203D01*
X149659750Y-70654419D01*
X149679962Y-70661651D01*
X149699368Y-70670830D01*
X149717781Y-70681866D01*
X149735024Y-70694654D01*
X149750930Y-70709070D01*
X149765346Y-70724976D01*
X149778134Y-70742219D01*
X149789170Y-70760632D01*
X149798349Y-70780038D01*
X149805581Y-70800250D01*
X149810797Y-70821074D01*
X149813947Y-70842309D01*
X149815000Y-70863750D01*
X149815000Y-71376250D01*
X149813947Y-71397691D01*
X149810797Y-71418926D01*
X149805581Y-71439750D01*
X149798349Y-71459962D01*
X149789170Y-71479368D01*
X149778134Y-71497781D01*
X149765346Y-71515024D01*
X149750930Y-71530930D01*
X149735024Y-71545346D01*
X149717781Y-71558134D01*
X149699368Y-71569170D01*
X149679962Y-71578349D01*
X149659750Y-71585581D01*
X149638926Y-71590797D01*
X149617691Y-71593947D01*
X149596250Y-71595000D01*
X149158750Y-71595000D01*
X149137309Y-71593947D01*
X149116074Y-71590797D01*
X149095250Y-71585581D01*
X149075038Y-71578349D01*
X149055632Y-71569170D01*
X149037219Y-71558134D01*
X149019976Y-71545346D01*
X149004070Y-71530930D01*
X148989654Y-71515024D01*
X148976866Y-71497781D01*
X148965830Y-71479368D01*
X148956651Y-71459962D01*
X148949419Y-71439750D01*
X148944203Y-71418926D01*
X148941053Y-71397691D01*
X148940000Y-71376250D01*
X148940000Y-70863750D01*
X148941053Y-70842309D01*
X148944203Y-70821074D01*
X148949419Y-70800250D01*
X148956651Y-70780038D01*
X148965830Y-70760632D01*
X148976866Y-70742219D01*
X148989654Y-70724976D01*
X149004070Y-70709070D01*
X149019976Y-70694654D01*
X149037219Y-70681866D01*
X149055632Y-70670830D01*
X149075038Y-70661651D01*
X149095250Y-70654419D01*
X149116074Y-70649203D01*
X149137309Y-70646053D01*
X149158750Y-70645000D01*
X149596250Y-70645000D01*
X149617691Y-70646053D01*
G37*
G04 #@! TD.AperFunction*
D14*
X151495000Y-73660000D03*
X149495000Y-74610000D03*
X149495000Y-72710000D03*
D15*
X143764000Y-94742000D03*
X156718000Y-98044000D03*
X131572000Y-97028000D03*
X137160000Y-98044000D03*
X150368000Y-100817998D03*
X144780000Y-99568000D03*
X155448000Y-101092000D03*
X154178000Y-98044000D03*
X140970000Y-95868999D03*
X151638000Y-98044000D03*
X137160000Y-96593999D03*
X148082000Y-99568000D03*
X134112000Y-97282000D03*
X137668000Y-90424000D03*
X134620000Y-90424000D03*
X141732000Y-90424000D03*
X157226000Y-74676000D03*
X140716000Y-100076000D03*
X152908000Y-101383000D03*
D16*
X131280001Y-87465001D02*
X132080000Y-88265000D01*
X130954999Y-87139999D02*
X131280001Y-87465001D01*
X128125001Y-87139999D02*
X130954999Y-87139999D01*
X127000000Y-88265000D02*
X128125001Y-87139999D01*
X132080000Y-88265000D02*
X152400000Y-88265000D01*
X127635000Y-68580000D02*
X145415000Y-68580000D01*
X149987000Y-68072000D02*
X150495000Y-68580000D01*
X149112002Y-68072000D02*
X149987000Y-68072000D01*
X145415000Y-68580000D02*
X146540001Y-67454999D01*
X148495001Y-67454999D02*
X149112002Y-68072000D01*
X146540001Y-67454999D02*
X148495001Y-67454999D01*
X127635000Y-78740000D02*
X142875000Y-78740000D01*
X127635000Y-68580000D02*
X127635000Y-78740000D01*
X152882500Y-70967500D02*
X153035000Y-70967500D01*
X150495000Y-68580000D02*
X152882500Y-70967500D01*
X147955000Y-70967500D02*
X147802500Y-71120000D01*
X147955000Y-68580000D02*
X147955000Y-70967500D01*
X130962500Y-89687500D02*
X130962500Y-93345000D01*
X129540000Y-88265000D02*
X130962500Y-89687500D01*
X130962500Y-93345000D02*
X130962500Y-95885000D01*
X144780000Y-94646000D02*
X144780000Y-94208500D01*
X144684000Y-94742000D02*
X144780000Y-94646000D01*
X144780000Y-94767500D02*
X146685000Y-94767500D01*
X155575000Y-76352500D02*
X155575000Y-78740000D01*
X153035000Y-78740000D02*
X155575000Y-78740000D01*
X144780000Y-94767500D02*
X143789500Y-94767500D01*
X143789500Y-94767500D02*
X143764000Y-94742000D01*
X156845000Y-99466400D02*
X156845000Y-98171000D01*
X156845000Y-98171000D02*
X156718000Y-98044000D01*
X152654000Y-79121000D02*
X153035000Y-78740000D01*
X152654000Y-81127500D02*
X152654000Y-79121000D01*
X150749000Y-81127500D02*
X152654000Y-81127500D01*
X130962500Y-95885000D02*
X130962500Y-96418500D01*
X130962500Y-96418500D02*
X131572000Y-97028000D01*
X152612500Y-72542500D02*
X151495000Y-73660000D01*
X153035000Y-72542500D02*
X152612500Y-72542500D01*
X149377500Y-72592500D02*
X149495000Y-72710000D01*
X149377500Y-71120000D02*
X149377500Y-72592500D01*
X136296500Y-99365000D02*
X136144000Y-99212500D01*
X136423500Y-99060000D02*
X136423500Y-98780500D01*
X136423500Y-98780500D02*
X137160000Y-98044000D01*
X150368000Y-99593400D02*
X150495000Y-99466400D01*
X150368000Y-100817998D02*
X150368000Y-99593400D01*
X144043500Y-99060000D02*
X144272000Y-99060000D01*
X144272000Y-99060000D02*
X144780000Y-99568000D01*
X155448000Y-99593400D02*
X155575000Y-99466400D01*
X155448000Y-101092000D02*
X155448000Y-99593400D01*
X142240000Y-101066500D02*
X142341500Y-100965000D01*
X142240000Y-101320500D02*
X142468500Y-101092000D01*
X142240000Y-103505000D02*
X142240000Y-101320500D01*
X142468500Y-101092000D02*
X142468500Y-99060000D01*
X140106500Y-103098500D02*
X139700000Y-103505000D01*
X139979500Y-103225500D02*
X139700000Y-103505000D01*
X139979500Y-101092000D02*
X139979500Y-103225500D01*
X139961500Y-101092000D02*
X139979500Y-101092000D01*
X138404500Y-99060000D02*
X138404500Y-99535000D01*
X138404500Y-99535000D02*
X139961500Y-101092000D01*
X136423500Y-102768500D02*
X137160000Y-103505000D01*
X136423500Y-101092000D02*
X136423500Y-102768500D01*
X134866500Y-99060000D02*
X134848500Y-99060000D01*
X136423500Y-101092000D02*
X136423500Y-100617000D01*
X136423500Y-100617000D02*
X134866500Y-99060000D01*
X140944500Y-93142000D02*
X141097000Y-92989500D01*
X140944500Y-94742000D02*
X140944500Y-93142000D01*
X154305000Y-99466400D02*
X154305000Y-98171000D01*
X154305000Y-98171000D02*
X154178000Y-98044000D01*
X140970000Y-94767500D02*
X140944500Y-94742000D01*
X140970000Y-95868999D02*
X140970000Y-94767500D01*
X137134500Y-93142000D02*
X137287000Y-92989500D01*
X137134500Y-94742000D02*
X137134500Y-93142000D01*
X151765000Y-99466400D02*
X151765000Y-98171000D01*
X151765000Y-98171000D02*
X151638000Y-98044000D01*
X137160000Y-94767500D02*
X137134500Y-94742000D01*
X137160000Y-96593999D02*
X137160000Y-94767500D01*
X134112000Y-94589500D02*
X133959500Y-94742000D01*
X134112000Y-92989500D02*
X134112000Y-94589500D01*
X149225000Y-99466400D02*
X148183600Y-99466400D01*
X148183600Y-99466400D02*
X148082000Y-99568000D01*
X134112000Y-94894500D02*
X133959500Y-94742000D01*
X134112000Y-97282000D02*
X134112000Y-94894500D01*
X137287000Y-91414500D02*
X137287000Y-90805000D01*
X137287000Y-90805000D02*
X137668000Y-90424000D01*
X134112000Y-91414500D02*
X134112000Y-90932000D01*
X134112000Y-90932000D02*
X134620000Y-90424000D01*
X141097000Y-91414500D02*
X141097000Y-91059000D01*
X141097000Y-91059000D02*
X141732000Y-90424000D01*
X155407500Y-74610000D02*
X155575000Y-74777500D01*
X149495000Y-74610000D02*
X155407500Y-74610000D01*
X155575000Y-74777500D02*
X157124500Y-74777500D01*
X157124500Y-74777500D02*
X157226000Y-74676000D01*
X139979500Y-99060000D02*
X139979500Y-99339500D01*
X139979500Y-99339500D02*
X140716000Y-100076000D01*
X152908000Y-99593400D02*
X153035000Y-99466400D01*
X152908000Y-101383000D02*
X152908000Y-99593400D01*
X125510000Y-103505000D02*
X134620000Y-103505000D01*
X124460000Y-103505000D02*
X125510000Y-103505000D01*
X134620000Y-101066500D02*
X134721500Y-100965000D01*
X138531500Y-101440000D02*
X138531500Y-100965000D01*
X137989999Y-104630001D02*
X138531500Y-104088500D01*
X135745001Y-104630001D02*
X137989999Y-104630001D01*
X134620000Y-103505000D02*
X135745001Y-104630001D01*
X139159999Y-104630001D02*
X138531500Y-104001502D01*
X144780000Y-103505000D02*
X143654999Y-104630001D01*
X143654999Y-104630001D02*
X139159999Y-104630001D01*
X144780000Y-103505000D02*
X157480000Y-103505000D01*
X129540000Y-96037500D02*
X129387500Y-95885000D01*
X129540000Y-103505000D02*
X129540000Y-96037500D01*
X129387500Y-95885000D02*
X129387500Y-93345000D01*
X129387500Y-95885000D02*
X129718506Y-95885000D01*
X149225000Y-92303600D02*
X156845000Y-92303600D01*
X144043500Y-102768500D02*
X144780000Y-103505000D01*
X144043500Y-101092000D02*
X144043500Y-102768500D01*
X138531500Y-101694000D02*
X138531500Y-104088500D01*
X138404500Y-101567000D02*
X138531500Y-101694000D01*
X138404500Y-101092000D02*
X138404500Y-101567000D01*
X134848500Y-103276500D02*
X134620000Y-103505000D01*
X134848500Y-101092000D02*
X134848500Y-103276500D01*
X129547500Y-93980000D02*
X129547500Y-95713994D01*
X129387500Y-93820000D02*
X129547500Y-93980000D01*
X129387500Y-93345000D02*
X129387500Y-93820000D01*
X146685000Y-93192500D02*
X144780000Y-93192500D01*
X144280506Y-93168006D02*
X142519500Y-93168006D01*
X144305000Y-93192500D02*
X144280506Y-93168006D01*
X144780000Y-93192500D02*
X144305000Y-93192500D01*
X149225000Y-92890299D02*
X149225000Y-92303600D01*
X148691000Y-93424299D02*
X149225000Y-92890299D01*
X148567899Y-93424299D02*
X148691000Y-93424299D01*
X148336100Y-93192500D02*
X148567899Y-93424299D01*
X146685000Y-93192500D02*
X148336100Y-93192500D01*
X153129000Y-82702500D02*
X152654000Y-82702500D01*
X153525001Y-90692900D02*
X153525001Y-83098501D01*
X153525001Y-83098501D02*
X153129000Y-82702500D01*
X153035000Y-91182901D02*
X153525001Y-90692900D01*
X153035000Y-92303600D02*
X153035000Y-91182901D01*
X152654000Y-82702500D02*
X150749000Y-82702500D01*
X142519500Y-94267000D02*
X142519500Y-94742000D01*
X135534500Y-95217000D02*
X135534500Y-94742000D01*
X131034501Y-98007001D02*
X134460001Y-98007001D01*
X129387500Y-96360000D02*
X131034501Y-98007001D01*
X135534500Y-96932502D02*
X135534500Y-95217000D01*
X134460001Y-98007001D02*
X135534500Y-96932502D01*
X129387500Y-95885000D02*
X129387500Y-96360000D01*
X138709500Y-93168006D02*
X138709500Y-94267000D01*
X137768484Y-92226990D02*
X138709500Y-93168006D01*
X136755536Y-92226990D02*
X137768484Y-92226990D01*
X135534500Y-93448026D02*
X136755536Y-92226990D01*
X135534500Y-94742000D02*
X135534500Y-93448026D01*
X142519500Y-93168006D02*
X142519500Y-94267000D01*
X138709500Y-94267000D02*
X138709500Y-94742000D01*
X141318001Y-96594000D02*
X142519500Y-95392501D01*
X142519500Y-95217000D02*
X142519500Y-94742000D01*
X142519500Y-95392501D02*
X142519500Y-95217000D01*
X140086500Y-96594000D02*
X141318001Y-96594000D01*
X138709500Y-95217000D02*
X140086500Y-96594000D01*
X138709500Y-94742000D02*
X138709500Y-95217000D01*
D17*
G36*
X167537141Y-79121000D02*
G01*
X157013072Y-79121000D01*
X157013072Y-77940000D01*
X157000812Y-77815518D01*
X156964502Y-77695820D01*
X156905537Y-77585506D01*
X156826185Y-77488815D01*
X156729494Y-77409463D01*
X156619180Y-77350498D01*
X156499482Y-77314188D01*
X156375000Y-77301928D01*
X156335000Y-77301928D01*
X156335000Y-77260918D01*
X156437115Y-77177115D01*
X156543671Y-77047275D01*
X156622850Y-76899142D01*
X156671608Y-76738408D01*
X156688072Y-76571250D01*
X156688072Y-76133750D01*
X156671608Y-75966592D01*
X156622850Y-75805858D01*
X156543671Y-75657725D01*
X156467574Y-75565000D01*
X156490143Y-75537500D01*
X156652375Y-75537500D01*
X156735744Y-75593205D01*
X156924102Y-75671226D01*
X157124061Y-75711000D01*
X157327939Y-75711000D01*
X157527898Y-75671226D01*
X157716256Y-75593205D01*
X157885774Y-75479937D01*
X158029937Y-75335774D01*
X158143205Y-75166256D01*
X158221226Y-74977898D01*
X158261000Y-74777939D01*
X158261000Y-74574061D01*
X158221226Y-74374102D01*
X158143205Y-74185744D01*
X158029937Y-74016226D01*
X157885774Y-73872063D01*
X157716256Y-73758795D01*
X157527898Y-73680774D01*
X157327939Y-73641000D01*
X157124061Y-73641000D01*
X156924102Y-73680774D01*
X156735744Y-73758795D01*
X156566226Y-73872063D01*
X156458881Y-73979408D01*
X156437115Y-73952885D01*
X156307275Y-73846329D01*
X156159142Y-73767150D01*
X155998408Y-73718392D01*
X155831250Y-73701928D01*
X155318750Y-73701928D01*
X155151592Y-73718392D01*
X154990858Y-73767150D01*
X154842725Y-73846329D01*
X154838252Y-73850000D01*
X152583072Y-73850000D01*
X152583072Y-73646729D01*
X152626705Y-73603097D01*
X152778750Y-73618072D01*
X153291250Y-73618072D01*
X153458408Y-73601608D01*
X153619142Y-73552850D01*
X153767275Y-73473671D01*
X153897115Y-73367115D01*
X154003671Y-73237275D01*
X154082850Y-73089142D01*
X154131608Y-72928408D01*
X154148072Y-72761250D01*
X154148072Y-72323750D01*
X154131608Y-72156592D01*
X154082850Y-71995858D01*
X154003671Y-71847725D01*
X153897115Y-71717885D01*
X153767275Y-71611329D01*
X153619142Y-71532150D01*
X153458408Y-71483392D01*
X153291250Y-71466928D01*
X152778750Y-71466928D01*
X152611592Y-71483392D01*
X152450858Y-71532150D01*
X152302725Y-71611329D01*
X152172885Y-71717885D01*
X152066329Y-71847725D01*
X151987150Y-71995858D01*
X151944830Y-72135368D01*
X151458271Y-72621928D01*
X151045000Y-72621928D01*
X150920518Y-72634188D01*
X150800820Y-72670498D01*
X150690506Y-72729463D01*
X150593815Y-72808815D01*
X150583072Y-72821905D01*
X150583072Y-72310000D01*
X150570812Y-72185518D01*
X150534502Y-72065820D01*
X150475537Y-71955506D01*
X150396185Y-71858815D01*
X150332925Y-71806899D01*
X150387850Y-71704142D01*
X150436608Y-71543408D01*
X150453072Y-71376250D01*
X150453072Y-70863750D01*
X150436608Y-70696592D01*
X150387850Y-70535858D01*
X150308671Y-70387725D01*
X150202115Y-70257885D01*
X150072275Y-70151329D01*
X149924142Y-70072150D01*
X149763408Y-70023392D01*
X149596250Y-70006928D01*
X149158750Y-70006928D01*
X148991592Y-70023392D01*
X148830858Y-70072150D01*
X148715000Y-70134078D01*
X148715000Y-69798043D01*
X148869759Y-69694637D01*
X149069637Y-69494759D01*
X149226680Y-69259727D01*
X149334853Y-68998574D01*
X149390000Y-68721335D01*
X149390000Y-68438665D01*
X151600000Y-68438665D01*
X151600000Y-68721335D01*
X151655147Y-68998574D01*
X151763320Y-69259727D01*
X151920363Y-69494759D01*
X152120241Y-69694637D01*
X152355273Y-69851680D01*
X152616426Y-69959853D01*
X152893665Y-70015000D01*
X153176335Y-70015000D01*
X153453574Y-69959853D01*
X153714727Y-69851680D01*
X153949759Y-69694637D01*
X154149637Y-69494759D01*
X154305000Y-69262241D01*
X154460363Y-69494759D01*
X154660241Y-69694637D01*
X154895273Y-69851680D01*
X155156426Y-69959853D01*
X155433665Y-70015000D01*
X155716335Y-70015000D01*
X155993574Y-69959853D01*
X156254727Y-69851680D01*
X156489759Y-69694637D01*
X156689637Y-69494759D01*
X156846680Y-69259727D01*
X156954853Y-68998574D01*
X157010000Y-68721335D01*
X157010000Y-68438665D01*
X156954853Y-68161426D01*
X156846680Y-67900273D01*
X156689637Y-67665241D01*
X156489759Y-67465363D01*
X156254727Y-67308320D01*
X155993574Y-67200147D01*
X155716335Y-67145000D01*
X155433665Y-67145000D01*
X155156426Y-67200147D01*
X154895273Y-67308320D01*
X154660241Y-67465363D01*
X154460363Y-67665241D01*
X154305000Y-67897759D01*
X154149637Y-67665241D01*
X153949759Y-67465363D01*
X153714727Y-67308320D01*
X153453574Y-67200147D01*
X153176335Y-67145000D01*
X152893665Y-67145000D01*
X152616426Y-67200147D01*
X152355273Y-67308320D01*
X152120241Y-67465363D01*
X151920363Y-67665241D01*
X151763320Y-67900273D01*
X151655147Y-68161426D01*
X151600000Y-68438665D01*
X149390000Y-68438665D01*
X149334853Y-68161426D01*
X149226680Y-67900273D01*
X149069637Y-67665241D01*
X148869759Y-67465363D01*
X148634727Y-67308320D01*
X148373574Y-67200147D01*
X148096335Y-67145000D01*
X147813665Y-67145000D01*
X147536426Y-67200147D01*
X147275273Y-67308320D01*
X147040241Y-67465363D01*
X146840363Y-67665241D01*
X146683320Y-67900273D01*
X146575147Y-68161426D01*
X146520000Y-68438665D01*
X146520000Y-68721335D01*
X146575147Y-68998574D01*
X146683320Y-69259727D01*
X146840363Y-69494759D01*
X147040241Y-69694637D01*
X147195001Y-69798044D01*
X147195001Y-70104679D01*
X147107725Y-70151329D01*
X146977885Y-70257885D01*
X146871329Y-70387725D01*
X146792150Y-70535858D01*
X146743392Y-70696592D01*
X146726928Y-70863750D01*
X146726928Y-71376250D01*
X146743392Y-71543408D01*
X146792150Y-71704142D01*
X146871329Y-71852275D01*
X146977885Y-71982115D01*
X147107725Y-72088671D01*
X147255858Y-72167850D01*
X147416592Y-72216608D01*
X147583750Y-72233072D01*
X148021250Y-72233072D01*
X148188408Y-72216608D01*
X148349142Y-72167850D01*
X148439140Y-72119745D01*
X148419188Y-72185518D01*
X148406928Y-72310000D01*
X148406928Y-73110000D01*
X148419188Y-73234482D01*
X148455498Y-73354180D01*
X148514463Y-73464494D01*
X148593815Y-73561185D01*
X148690506Y-73640537D01*
X148726918Y-73660000D01*
X148690506Y-73679463D01*
X148593815Y-73758815D01*
X148514463Y-73855506D01*
X148455498Y-73965820D01*
X148419188Y-74085518D01*
X148406928Y-74210000D01*
X148406928Y-75010000D01*
X148419188Y-75134482D01*
X148455498Y-75254180D01*
X148514463Y-75364494D01*
X148593815Y-75461185D01*
X148690506Y-75540537D01*
X148800820Y-75599502D01*
X148920518Y-75635812D01*
X149045000Y-75648072D01*
X149945000Y-75648072D01*
X150069482Y-75635812D01*
X150189180Y-75599502D01*
X150299494Y-75540537D01*
X150396185Y-75461185D01*
X150471018Y-75370000D01*
X154551662Y-75370000D01*
X154606329Y-75472275D01*
X154682426Y-75565000D01*
X154606329Y-75657725D01*
X154527150Y-75805858D01*
X154478392Y-75966592D01*
X154461928Y-76133750D01*
X154461928Y-76571250D01*
X154478392Y-76738408D01*
X154527150Y-76899142D01*
X154606329Y-77047275D01*
X154712885Y-77177115D01*
X154815000Y-77260918D01*
X154815000Y-77301928D01*
X154775000Y-77301928D01*
X154650518Y-77314188D01*
X154530820Y-77350498D01*
X154420506Y-77409463D01*
X154323815Y-77488815D01*
X154244463Y-77585506D01*
X154185498Y-77695820D01*
X154149188Y-77815518D01*
X154148357Y-77823961D01*
X153949759Y-77625363D01*
X153714727Y-77468320D01*
X153453574Y-77360147D01*
X153176335Y-77305000D01*
X152893665Y-77305000D01*
X152616426Y-77360147D01*
X152355273Y-77468320D01*
X152120241Y-77625363D01*
X151920363Y-77825241D01*
X151765000Y-78057759D01*
X151609637Y-77825241D01*
X151409759Y-77625363D01*
X151174727Y-77468320D01*
X150913574Y-77360147D01*
X150636335Y-77305000D01*
X150353665Y-77305000D01*
X150076426Y-77360147D01*
X149815273Y-77468320D01*
X149580241Y-77625363D01*
X149380363Y-77825241D01*
X149225000Y-78057759D01*
X149069637Y-77825241D01*
X148869759Y-77625363D01*
X148634727Y-77468320D01*
X148373574Y-77360147D01*
X148096335Y-77305000D01*
X147813665Y-77305000D01*
X147536426Y-77360147D01*
X147275273Y-77468320D01*
X147040241Y-77625363D01*
X146840363Y-77825241D01*
X146685000Y-78057759D01*
X146529637Y-77825241D01*
X146329759Y-77625363D01*
X146094727Y-77468320D01*
X145833574Y-77360147D01*
X145556335Y-77305000D01*
X145273665Y-77305000D01*
X144996426Y-77360147D01*
X144735273Y-77468320D01*
X144500241Y-77625363D01*
X144300363Y-77825241D01*
X144143320Y-78060273D01*
X144035147Y-78321426D01*
X143980000Y-78598665D01*
X143980000Y-78881335D01*
X144027673Y-79121000D01*
X115640760Y-79121000D01*
X115666981Y-63329117D01*
X118280000Y-63329117D01*
X118280000Y-63670883D01*
X118346675Y-64006081D01*
X118477463Y-64321831D01*
X118667337Y-64605998D01*
X118909002Y-64847663D01*
X119193169Y-65037537D01*
X119508919Y-65168325D01*
X119844117Y-65235000D01*
X120185883Y-65235000D01*
X120521081Y-65168325D01*
X120836831Y-65037537D01*
X121120998Y-64847663D01*
X121362663Y-64605998D01*
X121552537Y-64321831D01*
X121683325Y-64006081D01*
X121750000Y-63670883D01*
X121750000Y-63329117D01*
X161460000Y-63329117D01*
X161460000Y-63670883D01*
X161526675Y-64006081D01*
X161657463Y-64321831D01*
X161847337Y-64605998D01*
X162089002Y-64847663D01*
X162373169Y-65037537D01*
X162688919Y-65168325D01*
X163024117Y-65235000D01*
X163365883Y-65235000D01*
X163701081Y-65168325D01*
X164016831Y-65037537D01*
X164300998Y-64847663D01*
X164542663Y-64605998D01*
X164732537Y-64321831D01*
X164863325Y-64006081D01*
X164930000Y-63670883D01*
X164930000Y-63329117D01*
X164863325Y-62993919D01*
X164732537Y-62678169D01*
X164542663Y-62394002D01*
X164300998Y-62152337D01*
X164016831Y-61962463D01*
X163701081Y-61831675D01*
X163365883Y-61765000D01*
X163024117Y-61765000D01*
X162688919Y-61831675D01*
X162373169Y-61962463D01*
X162089002Y-62152337D01*
X161847337Y-62394002D01*
X161657463Y-62678169D01*
X161526675Y-62993919D01*
X161460000Y-63329117D01*
X121750000Y-63329117D01*
X121683325Y-62993919D01*
X121552537Y-62678169D01*
X121362663Y-62394002D01*
X121120998Y-62152337D01*
X120836831Y-61962463D01*
X120521081Y-61831675D01*
X120185883Y-61765000D01*
X119844117Y-61765000D01*
X119508919Y-61831675D01*
X119193169Y-61962463D01*
X118909002Y-62152337D01*
X118667337Y-62394002D01*
X118477463Y-62678169D01*
X118346675Y-62993919D01*
X118280000Y-63329117D01*
X115666981Y-63329117D01*
X115673904Y-59160000D01*
X167535069Y-59160000D01*
X167537141Y-79121000D01*
G37*
X167537141Y-79121000D02*
X157013072Y-79121000D01*
X157013072Y-77940000D01*
X157000812Y-77815518D01*
X156964502Y-77695820D01*
X156905537Y-77585506D01*
X156826185Y-77488815D01*
X156729494Y-77409463D01*
X156619180Y-77350498D01*
X156499482Y-77314188D01*
X156375000Y-77301928D01*
X156335000Y-77301928D01*
X156335000Y-77260918D01*
X156437115Y-77177115D01*
X156543671Y-77047275D01*
X156622850Y-76899142D01*
X156671608Y-76738408D01*
X156688072Y-76571250D01*
X156688072Y-76133750D01*
X156671608Y-75966592D01*
X156622850Y-75805858D01*
X156543671Y-75657725D01*
X156467574Y-75565000D01*
X156490143Y-75537500D01*
X156652375Y-75537500D01*
X156735744Y-75593205D01*
X156924102Y-75671226D01*
X157124061Y-75711000D01*
X157327939Y-75711000D01*
X157527898Y-75671226D01*
X157716256Y-75593205D01*
X157885774Y-75479937D01*
X158029937Y-75335774D01*
X158143205Y-75166256D01*
X158221226Y-74977898D01*
X158261000Y-74777939D01*
X158261000Y-74574061D01*
X158221226Y-74374102D01*
X158143205Y-74185744D01*
X158029937Y-74016226D01*
X157885774Y-73872063D01*
X157716256Y-73758795D01*
X157527898Y-73680774D01*
X157327939Y-73641000D01*
X157124061Y-73641000D01*
X156924102Y-73680774D01*
X156735744Y-73758795D01*
X156566226Y-73872063D01*
X156458881Y-73979408D01*
X156437115Y-73952885D01*
X156307275Y-73846329D01*
X156159142Y-73767150D01*
X155998408Y-73718392D01*
X155831250Y-73701928D01*
X155318750Y-73701928D01*
X155151592Y-73718392D01*
X154990858Y-73767150D01*
X154842725Y-73846329D01*
X154838252Y-73850000D01*
X152583072Y-73850000D01*
X152583072Y-73646729D01*
X152626705Y-73603097D01*
X152778750Y-73618072D01*
X153291250Y-73618072D01*
X153458408Y-73601608D01*
X153619142Y-73552850D01*
X153767275Y-73473671D01*
X153897115Y-73367115D01*
X154003671Y-73237275D01*
X154082850Y-73089142D01*
X154131608Y-72928408D01*
X154148072Y-72761250D01*
X154148072Y-72323750D01*
X154131608Y-72156592D01*
X154082850Y-71995858D01*
X154003671Y-71847725D01*
X153897115Y-71717885D01*
X153767275Y-71611329D01*
X153619142Y-71532150D01*
X153458408Y-71483392D01*
X153291250Y-71466928D01*
X152778750Y-71466928D01*
X152611592Y-71483392D01*
X152450858Y-71532150D01*
X152302725Y-71611329D01*
X152172885Y-71717885D01*
X152066329Y-71847725D01*
X151987150Y-71995858D01*
X151944830Y-72135368D01*
X151458271Y-72621928D01*
X151045000Y-72621928D01*
X150920518Y-72634188D01*
X150800820Y-72670498D01*
X150690506Y-72729463D01*
X150593815Y-72808815D01*
X150583072Y-72821905D01*
X150583072Y-72310000D01*
X150570812Y-72185518D01*
X150534502Y-72065820D01*
X150475537Y-71955506D01*
X150396185Y-71858815D01*
X150332925Y-71806899D01*
X150387850Y-71704142D01*
X150436608Y-71543408D01*
X150453072Y-71376250D01*
X150453072Y-70863750D01*
X150436608Y-70696592D01*
X150387850Y-70535858D01*
X150308671Y-70387725D01*
X150202115Y-70257885D01*
X150072275Y-70151329D01*
X149924142Y-70072150D01*
X149763408Y-70023392D01*
X149596250Y-70006928D01*
X149158750Y-70006928D01*
X148991592Y-70023392D01*
X148830858Y-70072150D01*
X148715000Y-70134078D01*
X148715000Y-69798043D01*
X148869759Y-69694637D01*
X149069637Y-69494759D01*
X149226680Y-69259727D01*
X149334853Y-68998574D01*
X149390000Y-68721335D01*
X149390000Y-68438665D01*
X151600000Y-68438665D01*
X151600000Y-68721335D01*
X151655147Y-68998574D01*
X151763320Y-69259727D01*
X151920363Y-69494759D01*
X152120241Y-69694637D01*
X152355273Y-69851680D01*
X152616426Y-69959853D01*
X152893665Y-70015000D01*
X153176335Y-70015000D01*
X153453574Y-69959853D01*
X153714727Y-69851680D01*
X153949759Y-69694637D01*
X154149637Y-69494759D01*
X154305000Y-69262241D01*
X154460363Y-69494759D01*
X154660241Y-69694637D01*
X154895273Y-69851680D01*
X155156426Y-69959853D01*
X155433665Y-70015000D01*
X155716335Y-70015000D01*
X155993574Y-69959853D01*
X156254727Y-69851680D01*
X156489759Y-69694637D01*
X156689637Y-69494759D01*
X156846680Y-69259727D01*
X156954853Y-68998574D01*
X157010000Y-68721335D01*
X157010000Y-68438665D01*
X156954853Y-68161426D01*
X156846680Y-67900273D01*
X156689637Y-67665241D01*
X156489759Y-67465363D01*
X156254727Y-67308320D01*
X155993574Y-67200147D01*
X155716335Y-67145000D01*
X155433665Y-67145000D01*
X155156426Y-67200147D01*
X154895273Y-67308320D01*
X154660241Y-67465363D01*
X154460363Y-67665241D01*
X154305000Y-67897759D01*
X154149637Y-67665241D01*
X153949759Y-67465363D01*
X153714727Y-67308320D01*
X153453574Y-67200147D01*
X153176335Y-67145000D01*
X152893665Y-67145000D01*
X152616426Y-67200147D01*
X152355273Y-67308320D01*
X152120241Y-67465363D01*
X151920363Y-67665241D01*
X151763320Y-67900273D01*
X151655147Y-68161426D01*
X151600000Y-68438665D01*
X149390000Y-68438665D01*
X149334853Y-68161426D01*
X149226680Y-67900273D01*
X149069637Y-67665241D01*
X148869759Y-67465363D01*
X148634727Y-67308320D01*
X148373574Y-67200147D01*
X148096335Y-67145000D01*
X147813665Y-67145000D01*
X147536426Y-67200147D01*
X147275273Y-67308320D01*
X147040241Y-67465363D01*
X146840363Y-67665241D01*
X146683320Y-67900273D01*
X146575147Y-68161426D01*
X146520000Y-68438665D01*
X146520000Y-68721335D01*
X146575147Y-68998574D01*
X146683320Y-69259727D01*
X146840363Y-69494759D01*
X147040241Y-69694637D01*
X147195001Y-69798044D01*
X147195001Y-70104679D01*
X147107725Y-70151329D01*
X146977885Y-70257885D01*
X146871329Y-70387725D01*
X146792150Y-70535858D01*
X146743392Y-70696592D01*
X146726928Y-70863750D01*
X146726928Y-71376250D01*
X146743392Y-71543408D01*
X146792150Y-71704142D01*
X146871329Y-71852275D01*
X146977885Y-71982115D01*
X147107725Y-72088671D01*
X147255858Y-72167850D01*
X147416592Y-72216608D01*
X147583750Y-72233072D01*
X148021250Y-72233072D01*
X148188408Y-72216608D01*
X148349142Y-72167850D01*
X148439140Y-72119745D01*
X148419188Y-72185518D01*
X148406928Y-72310000D01*
X148406928Y-73110000D01*
X148419188Y-73234482D01*
X148455498Y-73354180D01*
X148514463Y-73464494D01*
X148593815Y-73561185D01*
X148690506Y-73640537D01*
X148726918Y-73660000D01*
X148690506Y-73679463D01*
X148593815Y-73758815D01*
X148514463Y-73855506D01*
X148455498Y-73965820D01*
X148419188Y-74085518D01*
X148406928Y-74210000D01*
X148406928Y-75010000D01*
X148419188Y-75134482D01*
X148455498Y-75254180D01*
X148514463Y-75364494D01*
X148593815Y-75461185D01*
X148690506Y-75540537D01*
X148800820Y-75599502D01*
X148920518Y-75635812D01*
X149045000Y-75648072D01*
X149945000Y-75648072D01*
X150069482Y-75635812D01*
X150189180Y-75599502D01*
X150299494Y-75540537D01*
X150396185Y-75461185D01*
X150471018Y-75370000D01*
X154551662Y-75370000D01*
X154606329Y-75472275D01*
X154682426Y-75565000D01*
X154606329Y-75657725D01*
X154527150Y-75805858D01*
X154478392Y-75966592D01*
X154461928Y-76133750D01*
X154461928Y-76571250D01*
X154478392Y-76738408D01*
X154527150Y-76899142D01*
X154606329Y-77047275D01*
X154712885Y-77177115D01*
X154815000Y-77260918D01*
X154815000Y-77301928D01*
X154775000Y-77301928D01*
X154650518Y-77314188D01*
X154530820Y-77350498D01*
X154420506Y-77409463D01*
X154323815Y-77488815D01*
X154244463Y-77585506D01*
X154185498Y-77695820D01*
X154149188Y-77815518D01*
X154148357Y-77823961D01*
X153949759Y-77625363D01*
X153714727Y-77468320D01*
X153453574Y-77360147D01*
X153176335Y-77305000D01*
X152893665Y-77305000D01*
X152616426Y-77360147D01*
X152355273Y-77468320D01*
X152120241Y-77625363D01*
X151920363Y-77825241D01*
X151765000Y-78057759D01*
X151609637Y-77825241D01*
X151409759Y-77625363D01*
X151174727Y-77468320D01*
X150913574Y-77360147D01*
X150636335Y-77305000D01*
X150353665Y-77305000D01*
X150076426Y-77360147D01*
X149815273Y-77468320D01*
X149580241Y-77625363D01*
X149380363Y-77825241D01*
X149225000Y-78057759D01*
X149069637Y-77825241D01*
X148869759Y-77625363D01*
X148634727Y-77468320D01*
X148373574Y-77360147D01*
X148096335Y-77305000D01*
X147813665Y-77305000D01*
X147536426Y-77360147D01*
X147275273Y-77468320D01*
X147040241Y-77625363D01*
X146840363Y-77825241D01*
X146685000Y-78057759D01*
X146529637Y-77825241D01*
X146329759Y-77625363D01*
X146094727Y-77468320D01*
X145833574Y-77360147D01*
X145556335Y-77305000D01*
X145273665Y-77305000D01*
X144996426Y-77360147D01*
X144735273Y-77468320D01*
X144500241Y-77625363D01*
X144300363Y-77825241D01*
X144143320Y-78060273D01*
X144035147Y-78321426D01*
X143980000Y-78598665D01*
X143980000Y-78881335D01*
X144027673Y-79121000D01*
X115640760Y-79121000D01*
X115666981Y-63329117D01*
X118280000Y-63329117D01*
X118280000Y-63670883D01*
X118346675Y-64006081D01*
X118477463Y-64321831D01*
X118667337Y-64605998D01*
X118909002Y-64847663D01*
X119193169Y-65037537D01*
X119508919Y-65168325D01*
X119844117Y-65235000D01*
X120185883Y-65235000D01*
X120521081Y-65168325D01*
X120836831Y-65037537D01*
X121120998Y-64847663D01*
X121362663Y-64605998D01*
X121552537Y-64321831D01*
X121683325Y-64006081D01*
X121750000Y-63670883D01*
X121750000Y-63329117D01*
X161460000Y-63329117D01*
X161460000Y-63670883D01*
X161526675Y-64006081D01*
X161657463Y-64321831D01*
X161847337Y-64605998D01*
X162089002Y-64847663D01*
X162373169Y-65037537D01*
X162688919Y-65168325D01*
X163024117Y-65235000D01*
X163365883Y-65235000D01*
X163701081Y-65168325D01*
X164016831Y-65037537D01*
X164300998Y-64847663D01*
X164542663Y-64605998D01*
X164732537Y-64321831D01*
X164863325Y-64006081D01*
X164930000Y-63670883D01*
X164930000Y-63329117D01*
X164863325Y-62993919D01*
X164732537Y-62678169D01*
X164542663Y-62394002D01*
X164300998Y-62152337D01*
X164016831Y-61962463D01*
X163701081Y-61831675D01*
X163365883Y-61765000D01*
X163024117Y-61765000D01*
X162688919Y-61831675D01*
X162373169Y-61962463D01*
X162089002Y-62152337D01*
X161847337Y-62394002D01*
X161657463Y-62678169D01*
X161526675Y-62993919D01*
X161460000Y-63329117D01*
X121750000Y-63329117D01*
X121683325Y-62993919D01*
X121552537Y-62678169D01*
X121362663Y-62394002D01*
X121120998Y-62152337D01*
X120836831Y-61962463D01*
X120521081Y-61831675D01*
X120185883Y-61765000D01*
X119844117Y-61765000D01*
X119508919Y-61831675D01*
X119193169Y-61962463D01*
X118909002Y-62152337D01*
X118667337Y-62394002D01*
X118477463Y-62678169D01*
X118346675Y-62993919D01*
X118280000Y-63329117D01*
X115666981Y-63329117D01*
X115673904Y-59160000D01*
X167535069Y-59160000D01*
X167537141Y-79121000D01*
G36*
X127493665Y-80175000D02*
G01*
X127776335Y-80175000D01*
X127967371Y-80137000D01*
X129842629Y-80137000D01*
X130033665Y-80175000D01*
X130316335Y-80175000D01*
X130507371Y-80137000D01*
X132382629Y-80137000D01*
X132573665Y-80175000D01*
X132856335Y-80175000D01*
X133047371Y-80137000D01*
X134922629Y-80137000D01*
X135113665Y-80175000D01*
X135396335Y-80175000D01*
X135587371Y-80137000D01*
X137462629Y-80137000D01*
X137653665Y-80175000D01*
X137936335Y-80175000D01*
X138127371Y-80137000D01*
X140002629Y-80137000D01*
X140193665Y-80175000D01*
X140476335Y-80175000D01*
X140667371Y-80137000D01*
X142542629Y-80137000D01*
X142733665Y-80175000D01*
X143016335Y-80175000D01*
X143207371Y-80137000D01*
X145082629Y-80137000D01*
X145273665Y-80175000D01*
X145556335Y-80175000D01*
X145747371Y-80137000D01*
X147622629Y-80137000D01*
X147813665Y-80175000D01*
X148096335Y-80175000D01*
X148287371Y-80137000D01*
X150127722Y-80137000D01*
X150016725Y-80196329D01*
X149886885Y-80302885D01*
X149780329Y-80432725D01*
X149701150Y-80580858D01*
X149652392Y-80741592D01*
X149635928Y-80908750D01*
X149635928Y-81346250D01*
X149652392Y-81513408D01*
X149701150Y-81674142D01*
X149780329Y-81822275D01*
X149886885Y-81952115D01*
X150016725Y-82058671D01*
X150164858Y-82137850D01*
X150325592Y-82186608D01*
X150492750Y-82203072D01*
X151005250Y-82203072D01*
X151172408Y-82186608D01*
X151333142Y-82137850D01*
X151481275Y-82058671D01*
X151611115Y-81952115D01*
X151664143Y-81887500D01*
X151738857Y-81887500D01*
X151791885Y-81952115D01*
X151921725Y-82058671D01*
X152069858Y-82137850D01*
X152230592Y-82186608D01*
X152397750Y-82203072D01*
X152910250Y-82203072D01*
X153077408Y-82186608D01*
X153238142Y-82137850D01*
X153386275Y-82058671D01*
X153516115Y-81952115D01*
X153622671Y-81822275D01*
X153701850Y-81674142D01*
X153750608Y-81513408D01*
X153767072Y-81346250D01*
X153767072Y-80908750D01*
X153750608Y-80741592D01*
X153701850Y-80580858D01*
X153622671Y-80432725D01*
X153516115Y-80302885D01*
X153414000Y-80219082D01*
X153414000Y-80137000D01*
X154555538Y-80137000D01*
X154650518Y-80165812D01*
X154775000Y-80178072D01*
X156375000Y-80178072D01*
X156499482Y-80165812D01*
X156594462Y-80137000D01*
X167537246Y-80137000D01*
X167539932Y-106020000D01*
X115596097Y-106020000D01*
X115625812Y-88123665D01*
X123025000Y-88123665D01*
X123025000Y-88406335D01*
X123080147Y-88683574D01*
X123188320Y-88944727D01*
X123345363Y-89179759D01*
X123545241Y-89379637D01*
X123780273Y-89536680D01*
X124041426Y-89644853D01*
X124318665Y-89700000D01*
X124601335Y-89700000D01*
X124878574Y-89644853D01*
X125139727Y-89536680D01*
X125374759Y-89379637D01*
X125574637Y-89179759D01*
X125730000Y-88947241D01*
X125885363Y-89179759D01*
X126085241Y-89379637D01*
X126320273Y-89536680D01*
X126581426Y-89644853D01*
X126858665Y-89700000D01*
X127141335Y-89700000D01*
X127418574Y-89644853D01*
X127679727Y-89536680D01*
X127914759Y-89379637D01*
X128114637Y-89179759D01*
X128270000Y-88947241D01*
X128425363Y-89179759D01*
X128625241Y-89379637D01*
X128860273Y-89536680D01*
X129121426Y-89644853D01*
X129398665Y-89700000D01*
X129681335Y-89700000D01*
X129863886Y-89663688D01*
X130202500Y-90002302D01*
X130202501Y-92429857D01*
X130137885Y-92482885D01*
X130031329Y-92612725D01*
X129952150Y-92760858D01*
X129903392Y-92921592D01*
X129886928Y-93088750D01*
X129886928Y-93601250D01*
X129903392Y-93768408D01*
X129952150Y-93929142D01*
X130031329Y-94077275D01*
X130137885Y-94207115D01*
X130202500Y-94260143D01*
X130202501Y-94969857D01*
X130137885Y-95022885D01*
X130031329Y-95152725D01*
X129952150Y-95300858D01*
X129903392Y-95461592D01*
X129886928Y-95628750D01*
X129886928Y-96141250D01*
X129903392Y-96308408D01*
X129952150Y-96469142D01*
X130031329Y-96617275D01*
X130137885Y-96747115D01*
X130267725Y-96853671D01*
X130390189Y-96919129D01*
X130422500Y-96958501D01*
X130451498Y-96982299D01*
X130537000Y-97067801D01*
X130537000Y-97129939D01*
X130576774Y-97329898D01*
X130654795Y-97518256D01*
X130768063Y-97687774D01*
X130912226Y-97831937D01*
X131081744Y-97945205D01*
X131270102Y-98023226D01*
X131470061Y-98063000D01*
X131673939Y-98063000D01*
X131873898Y-98023226D01*
X132062256Y-97945205D01*
X132231774Y-97831937D01*
X132375937Y-97687774D01*
X132489205Y-97518256D01*
X132567226Y-97329898D01*
X132607000Y-97129939D01*
X132607000Y-96926061D01*
X132567226Y-96726102D01*
X132489205Y-96537744D01*
X132375937Y-96368226D01*
X132231774Y-96224063D01*
X132062256Y-96110795D01*
X132038072Y-96100778D01*
X132038072Y-95628750D01*
X132021608Y-95461592D01*
X131972850Y-95300858D01*
X131893671Y-95152725D01*
X131787115Y-95022885D01*
X131722500Y-94969857D01*
X131722500Y-94260143D01*
X131787115Y-94207115D01*
X131893671Y-94077275D01*
X131972850Y-93929142D01*
X132021608Y-93768408D01*
X132038072Y-93601250D01*
X132038072Y-93088750D01*
X132021608Y-92921592D01*
X131972850Y-92760858D01*
X131893671Y-92612725D01*
X131787115Y-92482885D01*
X131722500Y-92429857D01*
X131722500Y-89724825D01*
X131726176Y-89687500D01*
X131723186Y-89657138D01*
X131938665Y-89700000D01*
X132221335Y-89700000D01*
X132498574Y-89644853D01*
X132759727Y-89536680D01*
X132994759Y-89379637D01*
X133194637Y-89179759D01*
X133298043Y-89025000D01*
X133401957Y-89025000D01*
X133505363Y-89179759D01*
X133705241Y-89379637D01*
X133940273Y-89536680D01*
X134029626Y-89573691D01*
X133960226Y-89620063D01*
X133816063Y-89764226D01*
X133702795Y-89933744D01*
X133624774Y-90122102D01*
X133585000Y-90322061D01*
X133585000Y-90381330D01*
X133574396Y-90390033D01*
X133527858Y-90404150D01*
X133379725Y-90483329D01*
X133249885Y-90589885D01*
X133143329Y-90719725D01*
X133064150Y-90867858D01*
X133015392Y-91028592D01*
X132998928Y-91195750D01*
X132998928Y-91633250D01*
X133015392Y-91800408D01*
X133064150Y-91961142D01*
X133143329Y-92109275D01*
X133219426Y-92202000D01*
X133143329Y-92294725D01*
X133064150Y-92442858D01*
X133015392Y-92603592D01*
X132998928Y-92770750D01*
X132998928Y-93208250D01*
X133015392Y-93375408D01*
X133064150Y-93536142D01*
X133143329Y-93684275D01*
X133235856Y-93797021D01*
X133134885Y-93879885D01*
X133028329Y-94009725D01*
X132949150Y-94157858D01*
X132900392Y-94318592D01*
X132883928Y-94485750D01*
X132883928Y-94998250D01*
X132900392Y-95165408D01*
X132949150Y-95326142D01*
X133028329Y-95474275D01*
X133134885Y-95604115D01*
X133264725Y-95710671D01*
X133352001Y-95757321D01*
X133352000Y-96578289D01*
X133308063Y-96622226D01*
X133194795Y-96791744D01*
X133116774Y-96980102D01*
X133077000Y-97180061D01*
X133077000Y-97383939D01*
X133116774Y-97583898D01*
X133194795Y-97772256D01*
X133308063Y-97941774D01*
X133452226Y-98085937D01*
X133621744Y-98199205D01*
X133810102Y-98277226D01*
X133937909Y-98302648D01*
X133917329Y-98327725D01*
X133838150Y-98475858D01*
X133789392Y-98636592D01*
X133772928Y-98803750D01*
X133772928Y-99316250D01*
X133789392Y-99483408D01*
X133838150Y-99644142D01*
X133917329Y-99792275D01*
X134023885Y-99922115D01*
X134153725Y-100028671D01*
X134301858Y-100107850D01*
X134462592Y-100156608D01*
X134629750Y-100173072D01*
X134904771Y-100173072D01*
X135372747Y-100641049D01*
X135364392Y-100668592D01*
X135347928Y-100835750D01*
X135347928Y-101348250D01*
X135364392Y-101515408D01*
X135413150Y-101676142D01*
X135492329Y-101824275D01*
X135598885Y-101954115D01*
X135663501Y-102007143D01*
X135663501Y-102731168D01*
X135659824Y-102768500D01*
X135663501Y-102805833D01*
X135663543Y-102806254D01*
X135674498Y-102917485D01*
X135717954Y-103060746D01*
X135767002Y-103152508D01*
X135725000Y-103363665D01*
X135725000Y-103646335D01*
X135780147Y-103923574D01*
X135888320Y-104184727D01*
X136045363Y-104419759D01*
X136245241Y-104619637D01*
X136480273Y-104776680D01*
X136741426Y-104884853D01*
X137018665Y-104940000D01*
X137301335Y-104940000D01*
X137578574Y-104884853D01*
X137839727Y-104776680D01*
X138074759Y-104619637D01*
X138274637Y-104419759D01*
X138430000Y-104187241D01*
X138585363Y-104419759D01*
X138785241Y-104619637D01*
X139020273Y-104776680D01*
X139281426Y-104884853D01*
X139558665Y-104940000D01*
X139841335Y-104940000D01*
X140118574Y-104884853D01*
X140379727Y-104776680D01*
X140614759Y-104619637D01*
X140814637Y-104419759D01*
X140970000Y-104187241D01*
X141125363Y-104419759D01*
X141325241Y-104619637D01*
X141560273Y-104776680D01*
X141821426Y-104884853D01*
X142098665Y-104940000D01*
X142381335Y-104940000D01*
X142658574Y-104884853D01*
X142919727Y-104776680D01*
X143154759Y-104619637D01*
X143354637Y-104419759D01*
X143511680Y-104184727D01*
X143619853Y-103923574D01*
X143675000Y-103646335D01*
X143675000Y-103363665D01*
X143619853Y-103086426D01*
X143511680Y-102825273D01*
X143354637Y-102590241D01*
X143154759Y-102390363D01*
X143000000Y-102286957D01*
X143000000Y-102144443D01*
X143015142Y-102139850D01*
X143163275Y-102060671D01*
X143293115Y-101954115D01*
X143399671Y-101824275D01*
X143478850Y-101676142D01*
X143527608Y-101515408D01*
X143544072Y-101348250D01*
X143544072Y-100835750D01*
X143527608Y-100668592D01*
X143478850Y-100507858D01*
X143399671Y-100359725D01*
X143293115Y-100229885D01*
X143228500Y-100176857D01*
X143228500Y-99975143D01*
X143256000Y-99952574D01*
X143348725Y-100028671D01*
X143496858Y-100107850D01*
X143657592Y-100156608D01*
X143824750Y-100173072D01*
X143939512Y-100173072D01*
X143976063Y-100227774D01*
X144120226Y-100371937D01*
X144289744Y-100485205D01*
X144478102Y-100563226D01*
X144678061Y-100603000D01*
X144881939Y-100603000D01*
X145081898Y-100563226D01*
X145270256Y-100485205D01*
X145439774Y-100371937D01*
X145583937Y-100227774D01*
X145697205Y-100058256D01*
X145775226Y-99869898D01*
X145815000Y-99669939D01*
X145815000Y-99466061D01*
X147047000Y-99466061D01*
X147047000Y-99669939D01*
X147086774Y-99869898D01*
X147164795Y-100058256D01*
X147278063Y-100227774D01*
X147422226Y-100371937D01*
X147591744Y-100485205D01*
X147780102Y-100563226D01*
X147980061Y-100603000D01*
X148183939Y-100603000D01*
X148348177Y-100570331D01*
X148351498Y-100581279D01*
X148410463Y-100691593D01*
X148489815Y-100788284D01*
X148586506Y-100867636D01*
X148696820Y-100926601D01*
X148816518Y-100962911D01*
X148941000Y-100975171D01*
X149343987Y-100975171D01*
X149372774Y-101119896D01*
X149450795Y-101308254D01*
X149564063Y-101477772D01*
X149708226Y-101621935D01*
X149877744Y-101735203D01*
X150066102Y-101813224D01*
X150266061Y-101852998D01*
X150469939Y-101852998D01*
X150669898Y-101813224D01*
X150858256Y-101735203D01*
X151027774Y-101621935D01*
X151171937Y-101477772D01*
X151285205Y-101308254D01*
X151363226Y-101119896D01*
X151393723Y-100966575D01*
X151481000Y-100975171D01*
X151956652Y-100975171D01*
X151912774Y-101081102D01*
X151873000Y-101281061D01*
X151873000Y-101484939D01*
X151912774Y-101684898D01*
X151990795Y-101873256D01*
X152104063Y-102042774D01*
X152248226Y-102186937D01*
X152417744Y-102300205D01*
X152606102Y-102378226D01*
X152806061Y-102418000D01*
X153009939Y-102418000D01*
X153209898Y-102378226D01*
X153398256Y-102300205D01*
X153567774Y-102186937D01*
X153711937Y-102042774D01*
X153825205Y-101873256D01*
X153903226Y-101684898D01*
X153943000Y-101484939D01*
X153943000Y-101281061D01*
X153903226Y-101081102D01*
X153848198Y-100948253D01*
X153896518Y-100962911D01*
X154021000Y-100975171D01*
X154415962Y-100975171D01*
X154413000Y-100990061D01*
X154413000Y-101193939D01*
X154452774Y-101393898D01*
X154530795Y-101582256D01*
X154644063Y-101751774D01*
X154788226Y-101895937D01*
X154957744Y-102009205D01*
X155146102Y-102087226D01*
X155346061Y-102127000D01*
X155549939Y-102127000D01*
X155749898Y-102087226D01*
X155938256Y-102009205D01*
X156107774Y-101895937D01*
X156251937Y-101751774D01*
X156365205Y-101582256D01*
X156443226Y-101393898D01*
X156483000Y-101193939D01*
X156483000Y-100990061D01*
X156478420Y-100967038D01*
X156561000Y-100975171D01*
X157129000Y-100975171D01*
X157253482Y-100962911D01*
X157373180Y-100926601D01*
X157483494Y-100867636D01*
X157580185Y-100788284D01*
X157659537Y-100691593D01*
X157718502Y-100581279D01*
X157754812Y-100461581D01*
X157767072Y-100337099D01*
X157767072Y-98595701D01*
X157754812Y-98471219D01*
X157718502Y-98351521D01*
X157713842Y-98342802D01*
X157753000Y-98145939D01*
X157753000Y-97942061D01*
X157713226Y-97742102D01*
X157635205Y-97553744D01*
X157521937Y-97384226D01*
X157377774Y-97240063D01*
X157208256Y-97126795D01*
X157019898Y-97048774D01*
X156819939Y-97009000D01*
X156616061Y-97009000D01*
X156416102Y-97048774D01*
X156227744Y-97126795D01*
X156058226Y-97240063D01*
X155914063Y-97384226D01*
X155800795Y-97553744D01*
X155722774Y-97742102D01*
X155683000Y-97942061D01*
X155683000Y-97957629D01*
X155291000Y-97957629D01*
X155213000Y-97965311D01*
X155213000Y-97942061D01*
X155173226Y-97742102D01*
X155095205Y-97553744D01*
X154981937Y-97384226D01*
X154837774Y-97240063D01*
X154668256Y-97126795D01*
X154479898Y-97048774D01*
X154279939Y-97009000D01*
X154076061Y-97009000D01*
X153876102Y-97048774D01*
X153687744Y-97126795D01*
X153518226Y-97240063D01*
X153374063Y-97384226D01*
X153260795Y-97553744D01*
X153182774Y-97742102D01*
X153143000Y-97942061D01*
X153143000Y-97957629D01*
X152751000Y-97957629D01*
X152673000Y-97965311D01*
X152673000Y-97942061D01*
X152633226Y-97742102D01*
X152555205Y-97553744D01*
X152441937Y-97384226D01*
X152297774Y-97240063D01*
X152128256Y-97126795D01*
X151939898Y-97048774D01*
X151739939Y-97009000D01*
X151536061Y-97009000D01*
X151336102Y-97048774D01*
X151147744Y-97126795D01*
X150978226Y-97240063D01*
X150834063Y-97384226D01*
X150720795Y-97553744D01*
X150642774Y-97742102D01*
X150603000Y-97942061D01*
X150603000Y-97957629D01*
X150211000Y-97957629D01*
X150086518Y-97969889D01*
X149966820Y-98006199D01*
X149860000Y-98063296D01*
X149753180Y-98006199D01*
X149633482Y-97969889D01*
X149509000Y-97957629D01*
X148941000Y-97957629D01*
X148816518Y-97969889D01*
X148696820Y-98006199D01*
X148586506Y-98065164D01*
X148489815Y-98144516D01*
X148410463Y-98241207D01*
X148351498Y-98351521D01*
X148315188Y-98471219D01*
X148306698Y-98557418D01*
X148183939Y-98533000D01*
X147980061Y-98533000D01*
X147780102Y-98572774D01*
X147591744Y-98650795D01*
X147422226Y-98764063D01*
X147278063Y-98908226D01*
X147164795Y-99077744D01*
X147086774Y-99266102D01*
X147047000Y-99466061D01*
X145815000Y-99466061D01*
X145775226Y-99266102D01*
X145697205Y-99077744D01*
X145583937Y-98908226D01*
X145439774Y-98764063D01*
X145270256Y-98650795D01*
X145083443Y-98573414D01*
X145053850Y-98475858D01*
X144974671Y-98327725D01*
X144868115Y-98197885D01*
X144738275Y-98091329D01*
X144590142Y-98012150D01*
X144429408Y-97963392D01*
X144262250Y-97946928D01*
X143824750Y-97946928D01*
X143657592Y-97963392D01*
X143496858Y-98012150D01*
X143348725Y-98091329D01*
X143256000Y-98167426D01*
X143163275Y-98091329D01*
X143015142Y-98012150D01*
X142854408Y-97963392D01*
X142687250Y-97946928D01*
X142249750Y-97946928D01*
X142082592Y-97963392D01*
X141921858Y-98012150D01*
X141773725Y-98091329D01*
X141643885Y-98197885D01*
X141537329Y-98327725D01*
X141458150Y-98475858D01*
X141409392Y-98636592D01*
X141392928Y-98803750D01*
X141392928Y-99289217D01*
X141375774Y-99272063D01*
X141206256Y-99158795D01*
X141055072Y-99096172D01*
X141055072Y-98803750D01*
X141038608Y-98636592D01*
X140989850Y-98475858D01*
X140910671Y-98327725D01*
X140804115Y-98197885D01*
X140674275Y-98091329D01*
X140526142Y-98012150D01*
X140365408Y-97963392D01*
X140198250Y-97946928D01*
X139760750Y-97946928D01*
X139593592Y-97963392D01*
X139432858Y-98012150D01*
X139284725Y-98091329D01*
X139192000Y-98167426D01*
X139099275Y-98091329D01*
X138951142Y-98012150D01*
X138790408Y-97963392D01*
X138623250Y-97946928D01*
X138195000Y-97946928D01*
X138195000Y-97942061D01*
X138155226Y-97742102D01*
X138077205Y-97553744D01*
X137963937Y-97384226D01*
X137898711Y-97319000D01*
X137963937Y-97253773D01*
X138077205Y-97084255D01*
X138155226Y-96895897D01*
X138195000Y-96695938D01*
X138195000Y-96492060D01*
X138155226Y-96292101D01*
X138077205Y-96103743D01*
X137963937Y-95934225D01*
X137920000Y-95890288D01*
X137920000Y-95636216D01*
X137959115Y-95604115D01*
X138065671Y-95474275D01*
X138144850Y-95326142D01*
X138193608Y-95165408D01*
X138210072Y-94998250D01*
X138210072Y-94485750D01*
X138193608Y-94318592D01*
X138144850Y-94157858D01*
X138065671Y-94009725D01*
X138000724Y-93930587D01*
X138019275Y-93920671D01*
X138149115Y-93814115D01*
X138255671Y-93684275D01*
X138334850Y-93536142D01*
X138383608Y-93375408D01*
X138400072Y-93208250D01*
X138400072Y-92770750D01*
X138383608Y-92603592D01*
X138334850Y-92442858D01*
X138255671Y-92294725D01*
X138179574Y-92202000D01*
X138255671Y-92109275D01*
X138334850Y-91961142D01*
X138383608Y-91800408D01*
X138400072Y-91633250D01*
X138400072Y-91195750D01*
X138396476Y-91159235D01*
X138471937Y-91083774D01*
X138585205Y-90914256D01*
X138663226Y-90725898D01*
X138703000Y-90525939D01*
X138703000Y-90322061D01*
X138663226Y-90122102D01*
X138585205Y-89933744D01*
X138471937Y-89764226D01*
X138327774Y-89620063D01*
X138158256Y-89506795D01*
X137989234Y-89436783D01*
X138074759Y-89379637D01*
X138274637Y-89179759D01*
X138378043Y-89025000D01*
X138481957Y-89025000D01*
X138585363Y-89179759D01*
X138785241Y-89379637D01*
X139020273Y-89536680D01*
X139281426Y-89644853D01*
X139558665Y-89700000D01*
X139841335Y-89700000D01*
X140118574Y-89644853D01*
X140379727Y-89536680D01*
X140614759Y-89379637D01*
X140814637Y-89179759D01*
X140918043Y-89025000D01*
X141021957Y-89025000D01*
X141125363Y-89179759D01*
X141325241Y-89379637D01*
X141410766Y-89436783D01*
X141241744Y-89506795D01*
X141072226Y-89620063D01*
X140928063Y-89764226D01*
X140814795Y-89933744D01*
X140736774Y-90122102D01*
X140697000Y-90322061D01*
X140697000Y-90353086D01*
X140673592Y-90355392D01*
X140512858Y-90404150D01*
X140364725Y-90483329D01*
X140234885Y-90589885D01*
X140128329Y-90719725D01*
X140049150Y-90867858D01*
X140000392Y-91028592D01*
X139983928Y-91195750D01*
X139983928Y-91633250D01*
X140000392Y-91800408D01*
X140049150Y-91961142D01*
X140128329Y-92109275D01*
X140204426Y-92202000D01*
X140128329Y-92294725D01*
X140049150Y-92442858D01*
X140000392Y-92603592D01*
X139983928Y-92770750D01*
X139983928Y-93208250D01*
X140000392Y-93375408D01*
X140049150Y-93536142D01*
X140128329Y-93684275D01*
X140184501Y-93752721D01*
X140184501Y-93826857D01*
X140119885Y-93879885D01*
X140013329Y-94009725D01*
X139934150Y-94157858D01*
X139885392Y-94318592D01*
X139868928Y-94485750D01*
X139868928Y-94998250D01*
X139885392Y-95165408D01*
X139934150Y-95326142D01*
X140013270Y-95474164D01*
X139974774Y-95567101D01*
X139935000Y-95767060D01*
X139935000Y-95970938D01*
X139974774Y-96170897D01*
X140052795Y-96359255D01*
X140166063Y-96528773D01*
X140310226Y-96672936D01*
X140479744Y-96786204D01*
X140668102Y-96864225D01*
X140868061Y-96903999D01*
X141071939Y-96903999D01*
X141271898Y-96864225D01*
X141460256Y-96786204D01*
X141629774Y-96672936D01*
X141773937Y-96528773D01*
X141887205Y-96359255D01*
X141965226Y-96170897D01*
X142005000Y-95970938D01*
X142005000Y-95767060D01*
X141965226Y-95567101D01*
X141904463Y-95420408D01*
X141954850Y-95326142D01*
X142003608Y-95165408D01*
X142020072Y-94998250D01*
X142020072Y-94640061D01*
X142729000Y-94640061D01*
X142729000Y-94843939D01*
X142768774Y-95043898D01*
X142846795Y-95232256D01*
X142960063Y-95401774D01*
X143104226Y-95545937D01*
X143273744Y-95659205D01*
X143462102Y-95737226D01*
X143662061Y-95777000D01*
X143865939Y-95777000D01*
X144065898Y-95737226D01*
X144096298Y-95724634D01*
X144195858Y-95777850D01*
X144356592Y-95826608D01*
X144523750Y-95843072D01*
X145036250Y-95843072D01*
X145203408Y-95826608D01*
X145364142Y-95777850D01*
X145512275Y-95698671D01*
X145642115Y-95592115D01*
X145695143Y-95527500D01*
X145769857Y-95527500D01*
X145822885Y-95592115D01*
X145952725Y-95698671D01*
X146100858Y-95777850D01*
X146261592Y-95826608D01*
X146428750Y-95843072D01*
X146941250Y-95843072D01*
X147108408Y-95826608D01*
X147269142Y-95777850D01*
X147417275Y-95698671D01*
X147547115Y-95592115D01*
X147653671Y-95462275D01*
X147732850Y-95314142D01*
X147781608Y-95153408D01*
X147798072Y-94986250D01*
X147798072Y-94548750D01*
X147781608Y-94381592D01*
X147732850Y-94220858D01*
X147653671Y-94072725D01*
X147547115Y-93942885D01*
X147417275Y-93836329D01*
X147269142Y-93757150D01*
X147108408Y-93708392D01*
X146941250Y-93691928D01*
X146428750Y-93691928D01*
X146261592Y-93708392D01*
X146100858Y-93757150D01*
X145952725Y-93836329D01*
X145822885Y-93942885D01*
X145769857Y-94007500D01*
X145695143Y-94007500D01*
X145642115Y-93942885D01*
X145512275Y-93836329D01*
X145415046Y-93784359D01*
X145414974Y-93784224D01*
X145320001Y-93668499D01*
X145204276Y-93573526D01*
X145072247Y-93502954D01*
X144928986Y-93459497D01*
X144780000Y-93444823D01*
X144631015Y-93459497D01*
X144487754Y-93502954D01*
X144355725Y-93573526D01*
X144240000Y-93668499D01*
X144147889Y-93780736D01*
X144065898Y-93746774D01*
X143865939Y-93707000D01*
X143662061Y-93707000D01*
X143462102Y-93746774D01*
X143273744Y-93824795D01*
X143104226Y-93938063D01*
X142960063Y-94082226D01*
X142846795Y-94251744D01*
X142768774Y-94440102D01*
X142729000Y-94640061D01*
X142020072Y-94640061D01*
X142020072Y-94485750D01*
X142003608Y-94318592D01*
X141954850Y-94157858D01*
X141875671Y-94009725D01*
X141810724Y-93930587D01*
X141829275Y-93920671D01*
X141959115Y-93814115D01*
X142065671Y-93684275D01*
X142144850Y-93536142D01*
X142193608Y-93375408D01*
X142210072Y-93208250D01*
X142210072Y-92770750D01*
X142193608Y-92603592D01*
X142144850Y-92442858D01*
X142065671Y-92294725D01*
X141989574Y-92202000D01*
X142065671Y-92109275D01*
X142144850Y-91961142D01*
X142193608Y-91800408D01*
X142210072Y-91633250D01*
X142210072Y-91346252D01*
X142222256Y-91341205D01*
X142391774Y-91227937D01*
X142535937Y-91083774D01*
X142649205Y-90914256D01*
X142727226Y-90725898D01*
X142767000Y-90525939D01*
X142767000Y-90322061D01*
X142727226Y-90122102D01*
X142649205Y-89933744D01*
X142535937Y-89764226D01*
X142456716Y-89685005D01*
X142658574Y-89644853D01*
X142919727Y-89536680D01*
X143154759Y-89379637D01*
X143354637Y-89179759D01*
X143458043Y-89025000D01*
X143561957Y-89025000D01*
X143665363Y-89179759D01*
X143865241Y-89379637D01*
X144100273Y-89536680D01*
X144361426Y-89644853D01*
X144638665Y-89700000D01*
X144921335Y-89700000D01*
X145198574Y-89644853D01*
X145459727Y-89536680D01*
X145694759Y-89379637D01*
X145894637Y-89179759D01*
X145998043Y-89025000D01*
X146101957Y-89025000D01*
X146205363Y-89179759D01*
X146405241Y-89379637D01*
X146640273Y-89536680D01*
X146901426Y-89644853D01*
X147178665Y-89700000D01*
X147461335Y-89700000D01*
X147738574Y-89644853D01*
X147999727Y-89536680D01*
X148234759Y-89379637D01*
X148434637Y-89179759D01*
X148538043Y-89025000D01*
X148641957Y-89025000D01*
X148745363Y-89179759D01*
X148945241Y-89379637D01*
X149180273Y-89536680D01*
X149441426Y-89644853D01*
X149718665Y-89700000D01*
X150001335Y-89700000D01*
X150278574Y-89644853D01*
X150539727Y-89536680D01*
X150774759Y-89379637D01*
X150974637Y-89179759D01*
X151078043Y-89025000D01*
X151181957Y-89025000D01*
X151285363Y-89179759D01*
X151485241Y-89379637D01*
X151720273Y-89536680D01*
X151981426Y-89644853D01*
X152258665Y-89700000D01*
X152541335Y-89700000D01*
X152818574Y-89644853D01*
X153079727Y-89536680D01*
X153314759Y-89379637D01*
X153514637Y-89179759D01*
X153670000Y-88947241D01*
X153825363Y-89179759D01*
X154025241Y-89379637D01*
X154260273Y-89536680D01*
X154521426Y-89644853D01*
X154798665Y-89700000D01*
X155081335Y-89700000D01*
X155358574Y-89644853D01*
X155619727Y-89536680D01*
X155854759Y-89379637D01*
X156054637Y-89179759D01*
X156210000Y-88947241D01*
X156365363Y-89179759D01*
X156565241Y-89379637D01*
X156800273Y-89536680D01*
X157061426Y-89644853D01*
X157338665Y-89700000D01*
X157621335Y-89700000D01*
X157898574Y-89644853D01*
X158159727Y-89536680D01*
X158394759Y-89379637D01*
X158594637Y-89179759D01*
X158751680Y-88944727D01*
X158859853Y-88683574D01*
X158915000Y-88406335D01*
X158915000Y-88123665D01*
X158859853Y-87846426D01*
X158751680Y-87585273D01*
X158594637Y-87350241D01*
X158394759Y-87150363D01*
X158159727Y-86993320D01*
X157898574Y-86885147D01*
X157621335Y-86830000D01*
X157338665Y-86830000D01*
X157061426Y-86885147D01*
X156800273Y-86993320D01*
X156565241Y-87150363D01*
X156365363Y-87350241D01*
X156210000Y-87582759D01*
X156054637Y-87350241D01*
X155854759Y-87150363D01*
X155619727Y-86993320D01*
X155358574Y-86885147D01*
X155081335Y-86830000D01*
X154798665Y-86830000D01*
X154521426Y-86885147D01*
X154260273Y-86993320D01*
X154025241Y-87150363D01*
X153825363Y-87350241D01*
X153670000Y-87582759D01*
X153514637Y-87350241D01*
X153314759Y-87150363D01*
X153079727Y-86993320D01*
X152818574Y-86885147D01*
X152541335Y-86830000D01*
X152258665Y-86830000D01*
X151981426Y-86885147D01*
X151720273Y-86993320D01*
X151485241Y-87150363D01*
X151285363Y-87350241D01*
X151181957Y-87505000D01*
X151078043Y-87505000D01*
X150974637Y-87350241D01*
X150774759Y-87150363D01*
X150539727Y-86993320D01*
X150278574Y-86885147D01*
X150001335Y-86830000D01*
X149718665Y-86830000D01*
X149441426Y-86885147D01*
X149180273Y-86993320D01*
X148945241Y-87150363D01*
X148745363Y-87350241D01*
X148641957Y-87505000D01*
X148538043Y-87505000D01*
X148434637Y-87350241D01*
X148234759Y-87150363D01*
X147999727Y-86993320D01*
X147738574Y-86885147D01*
X147461335Y-86830000D01*
X147178665Y-86830000D01*
X146901426Y-86885147D01*
X146640273Y-86993320D01*
X146405241Y-87150363D01*
X146205363Y-87350241D01*
X146101957Y-87505000D01*
X145998043Y-87505000D01*
X145894637Y-87350241D01*
X145694759Y-87150363D01*
X145459727Y-86993320D01*
X145198574Y-86885147D01*
X144921335Y-86830000D01*
X144638665Y-86830000D01*
X144361426Y-86885147D01*
X144100273Y-86993320D01*
X143865241Y-87150363D01*
X143665363Y-87350241D01*
X143561957Y-87505000D01*
X143458043Y-87505000D01*
X143354637Y-87350241D01*
X143154759Y-87150363D01*
X142919727Y-86993320D01*
X142658574Y-86885147D01*
X142381335Y-86830000D01*
X142098665Y-86830000D01*
X141821426Y-86885147D01*
X141560273Y-86993320D01*
X141325241Y-87150363D01*
X141125363Y-87350241D01*
X141021957Y-87505000D01*
X140918043Y-87505000D01*
X140814637Y-87350241D01*
X140614759Y-87150363D01*
X140379727Y-86993320D01*
X140118574Y-86885147D01*
X139841335Y-86830000D01*
X139558665Y-86830000D01*
X139281426Y-86885147D01*
X139020273Y-86993320D01*
X138785241Y-87150363D01*
X138585363Y-87350241D01*
X138481957Y-87505000D01*
X138378043Y-87505000D01*
X138274637Y-87350241D01*
X138074759Y-87150363D01*
X137839727Y-86993320D01*
X137578574Y-86885147D01*
X137301335Y-86830000D01*
X137018665Y-86830000D01*
X136741426Y-86885147D01*
X136480273Y-86993320D01*
X136245241Y-87150363D01*
X136045363Y-87350241D01*
X135941957Y-87505000D01*
X135838043Y-87505000D01*
X135734637Y-87350241D01*
X135534759Y-87150363D01*
X135299727Y-86993320D01*
X135038574Y-86885147D01*
X134761335Y-86830000D01*
X134478665Y-86830000D01*
X134201426Y-86885147D01*
X133940273Y-86993320D01*
X133705241Y-87150363D01*
X133505363Y-87350241D01*
X133401957Y-87505000D01*
X133298043Y-87505000D01*
X133194637Y-87350241D01*
X132994759Y-87150363D01*
X132759727Y-86993320D01*
X132498574Y-86885147D01*
X132221335Y-86830000D01*
X131938665Y-86830000D01*
X131756113Y-86866312D01*
X131518803Y-86629002D01*
X131495000Y-86599998D01*
X131379275Y-86505025D01*
X131247246Y-86434453D01*
X131103985Y-86390996D01*
X130992332Y-86379999D01*
X130992321Y-86379999D01*
X130954999Y-86376323D01*
X130917677Y-86379999D01*
X128162326Y-86379999D01*
X128125001Y-86376323D01*
X128087676Y-86379999D01*
X128087668Y-86379999D01*
X127976015Y-86390996D01*
X127832754Y-86434453D01*
X127700725Y-86505025D01*
X127585000Y-86599998D01*
X127561202Y-86628996D01*
X127323886Y-86866312D01*
X127141335Y-86830000D01*
X126858665Y-86830000D01*
X126581426Y-86885147D01*
X126320273Y-86993320D01*
X126085241Y-87150363D01*
X125885363Y-87350241D01*
X125730000Y-87582759D01*
X125574637Y-87350241D01*
X125374759Y-87150363D01*
X125139727Y-86993320D01*
X124878574Y-86885147D01*
X124601335Y-86830000D01*
X124318665Y-86830000D01*
X124041426Y-86885147D01*
X123780273Y-86993320D01*
X123545241Y-87150363D01*
X123345363Y-87350241D01*
X123188320Y-87585273D01*
X123080147Y-87846426D01*
X123025000Y-88123665D01*
X115625812Y-88123665D01*
X115634296Y-83014117D01*
X118280000Y-83014117D01*
X118280000Y-83355883D01*
X118346675Y-83691081D01*
X118477463Y-84006831D01*
X118667337Y-84290998D01*
X118909002Y-84532663D01*
X119193169Y-84722537D01*
X119508919Y-84853325D01*
X119844117Y-84920000D01*
X120185883Y-84920000D01*
X120521081Y-84853325D01*
X120836831Y-84722537D01*
X121120998Y-84532663D01*
X121362663Y-84290998D01*
X121552537Y-84006831D01*
X121683325Y-83691081D01*
X121750000Y-83355883D01*
X121750000Y-83159117D01*
X161460000Y-83159117D01*
X161460000Y-83500883D01*
X161526675Y-83836081D01*
X161657463Y-84151831D01*
X161847337Y-84435998D01*
X162089002Y-84677663D01*
X162373169Y-84867537D01*
X162688919Y-84998325D01*
X163024117Y-85065000D01*
X163365883Y-85065000D01*
X163701081Y-84998325D01*
X164016831Y-84867537D01*
X164300998Y-84677663D01*
X164542663Y-84435998D01*
X164732537Y-84151831D01*
X164863325Y-83836081D01*
X164930000Y-83500883D01*
X164930000Y-83159117D01*
X164863325Y-82823919D01*
X164732537Y-82508169D01*
X164542663Y-82224002D01*
X164300998Y-81982337D01*
X164016831Y-81792463D01*
X163701081Y-81661675D01*
X163365883Y-81595000D01*
X163024117Y-81595000D01*
X162688919Y-81661675D01*
X162373169Y-81792463D01*
X162089002Y-81982337D01*
X161847337Y-82224002D01*
X161657463Y-82508169D01*
X161526675Y-82823919D01*
X161460000Y-83159117D01*
X121750000Y-83159117D01*
X121750000Y-83014117D01*
X121683325Y-82678919D01*
X121552537Y-82363169D01*
X121362663Y-82079002D01*
X121120998Y-81837337D01*
X120836831Y-81647463D01*
X120521081Y-81516675D01*
X120185883Y-81450000D01*
X119844117Y-81450000D01*
X119508919Y-81516675D01*
X119193169Y-81647463D01*
X118909002Y-81837337D01*
X118667337Y-82079002D01*
X118477463Y-82363169D01*
X118346675Y-82678919D01*
X118280000Y-83014117D01*
X115634296Y-83014117D01*
X115639074Y-80137000D01*
X127302629Y-80137000D01*
X127493665Y-80175000D01*
G37*
X127493665Y-80175000D02*
X127776335Y-80175000D01*
X127967371Y-80137000D01*
X129842629Y-80137000D01*
X130033665Y-80175000D01*
X130316335Y-80175000D01*
X130507371Y-80137000D01*
X132382629Y-80137000D01*
X132573665Y-80175000D01*
X132856335Y-80175000D01*
X133047371Y-80137000D01*
X134922629Y-80137000D01*
X135113665Y-80175000D01*
X135396335Y-80175000D01*
X135587371Y-80137000D01*
X137462629Y-80137000D01*
X137653665Y-80175000D01*
X137936335Y-80175000D01*
X138127371Y-80137000D01*
X140002629Y-80137000D01*
X140193665Y-80175000D01*
X140476335Y-80175000D01*
X140667371Y-80137000D01*
X142542629Y-80137000D01*
X142733665Y-80175000D01*
X143016335Y-80175000D01*
X143207371Y-80137000D01*
X145082629Y-80137000D01*
X145273665Y-80175000D01*
X145556335Y-80175000D01*
X145747371Y-80137000D01*
X147622629Y-80137000D01*
X147813665Y-80175000D01*
X148096335Y-80175000D01*
X148287371Y-80137000D01*
X150127722Y-80137000D01*
X150016725Y-80196329D01*
X149886885Y-80302885D01*
X149780329Y-80432725D01*
X149701150Y-80580858D01*
X149652392Y-80741592D01*
X149635928Y-80908750D01*
X149635928Y-81346250D01*
X149652392Y-81513408D01*
X149701150Y-81674142D01*
X149780329Y-81822275D01*
X149886885Y-81952115D01*
X150016725Y-82058671D01*
X150164858Y-82137850D01*
X150325592Y-82186608D01*
X150492750Y-82203072D01*
X151005250Y-82203072D01*
X151172408Y-82186608D01*
X151333142Y-82137850D01*
X151481275Y-82058671D01*
X151611115Y-81952115D01*
X151664143Y-81887500D01*
X151738857Y-81887500D01*
X151791885Y-81952115D01*
X151921725Y-82058671D01*
X152069858Y-82137850D01*
X152230592Y-82186608D01*
X152397750Y-82203072D01*
X152910250Y-82203072D01*
X153077408Y-82186608D01*
X153238142Y-82137850D01*
X153386275Y-82058671D01*
X153516115Y-81952115D01*
X153622671Y-81822275D01*
X153701850Y-81674142D01*
X153750608Y-81513408D01*
X153767072Y-81346250D01*
X153767072Y-80908750D01*
X153750608Y-80741592D01*
X153701850Y-80580858D01*
X153622671Y-80432725D01*
X153516115Y-80302885D01*
X153414000Y-80219082D01*
X153414000Y-80137000D01*
X154555538Y-80137000D01*
X154650518Y-80165812D01*
X154775000Y-80178072D01*
X156375000Y-80178072D01*
X156499482Y-80165812D01*
X156594462Y-80137000D01*
X167537246Y-80137000D01*
X167539932Y-106020000D01*
X115596097Y-106020000D01*
X115625812Y-88123665D01*
X123025000Y-88123665D01*
X123025000Y-88406335D01*
X123080147Y-88683574D01*
X123188320Y-88944727D01*
X123345363Y-89179759D01*
X123545241Y-89379637D01*
X123780273Y-89536680D01*
X124041426Y-89644853D01*
X124318665Y-89700000D01*
X124601335Y-89700000D01*
X124878574Y-89644853D01*
X125139727Y-89536680D01*
X125374759Y-89379637D01*
X125574637Y-89179759D01*
X125730000Y-88947241D01*
X125885363Y-89179759D01*
X126085241Y-89379637D01*
X126320273Y-89536680D01*
X126581426Y-89644853D01*
X126858665Y-89700000D01*
X127141335Y-89700000D01*
X127418574Y-89644853D01*
X127679727Y-89536680D01*
X127914759Y-89379637D01*
X128114637Y-89179759D01*
X128270000Y-88947241D01*
X128425363Y-89179759D01*
X128625241Y-89379637D01*
X128860273Y-89536680D01*
X129121426Y-89644853D01*
X129398665Y-89700000D01*
X129681335Y-89700000D01*
X129863886Y-89663688D01*
X130202500Y-90002302D01*
X130202501Y-92429857D01*
X130137885Y-92482885D01*
X130031329Y-92612725D01*
X129952150Y-92760858D01*
X129903392Y-92921592D01*
X129886928Y-93088750D01*
X129886928Y-93601250D01*
X129903392Y-93768408D01*
X129952150Y-93929142D01*
X130031329Y-94077275D01*
X130137885Y-94207115D01*
X130202500Y-94260143D01*
X130202501Y-94969857D01*
X130137885Y-95022885D01*
X130031329Y-95152725D01*
X129952150Y-95300858D01*
X129903392Y-95461592D01*
X129886928Y-95628750D01*
X129886928Y-96141250D01*
X129903392Y-96308408D01*
X129952150Y-96469142D01*
X130031329Y-96617275D01*
X130137885Y-96747115D01*
X130267725Y-96853671D01*
X130390189Y-96919129D01*
X130422500Y-96958501D01*
X130451498Y-96982299D01*
X130537000Y-97067801D01*
X130537000Y-97129939D01*
X130576774Y-97329898D01*
X130654795Y-97518256D01*
X130768063Y-97687774D01*
X130912226Y-97831937D01*
X131081744Y-97945205D01*
X131270102Y-98023226D01*
X131470061Y-98063000D01*
X131673939Y-98063000D01*
X131873898Y-98023226D01*
X132062256Y-97945205D01*
X132231774Y-97831937D01*
X132375937Y-97687774D01*
X132489205Y-97518256D01*
X132567226Y-97329898D01*
X132607000Y-97129939D01*
X132607000Y-96926061D01*
X132567226Y-96726102D01*
X132489205Y-96537744D01*
X132375937Y-96368226D01*
X132231774Y-96224063D01*
X132062256Y-96110795D01*
X132038072Y-96100778D01*
X132038072Y-95628750D01*
X132021608Y-95461592D01*
X131972850Y-95300858D01*
X131893671Y-95152725D01*
X131787115Y-95022885D01*
X131722500Y-94969857D01*
X131722500Y-94260143D01*
X131787115Y-94207115D01*
X131893671Y-94077275D01*
X131972850Y-93929142D01*
X132021608Y-93768408D01*
X132038072Y-93601250D01*
X132038072Y-93088750D01*
X132021608Y-92921592D01*
X131972850Y-92760858D01*
X131893671Y-92612725D01*
X131787115Y-92482885D01*
X131722500Y-92429857D01*
X131722500Y-89724825D01*
X131726176Y-89687500D01*
X131723186Y-89657138D01*
X131938665Y-89700000D01*
X132221335Y-89700000D01*
X132498574Y-89644853D01*
X132759727Y-89536680D01*
X132994759Y-89379637D01*
X133194637Y-89179759D01*
X133298043Y-89025000D01*
X133401957Y-89025000D01*
X133505363Y-89179759D01*
X133705241Y-89379637D01*
X133940273Y-89536680D01*
X134029626Y-89573691D01*
X133960226Y-89620063D01*
X133816063Y-89764226D01*
X133702795Y-89933744D01*
X133624774Y-90122102D01*
X133585000Y-90322061D01*
X133585000Y-90381330D01*
X133574396Y-90390033D01*
X133527858Y-90404150D01*
X133379725Y-90483329D01*
X133249885Y-90589885D01*
X133143329Y-90719725D01*
X133064150Y-90867858D01*
X133015392Y-91028592D01*
X132998928Y-91195750D01*
X132998928Y-91633250D01*
X133015392Y-91800408D01*
X133064150Y-91961142D01*
X133143329Y-92109275D01*
X133219426Y-92202000D01*
X133143329Y-92294725D01*
X133064150Y-92442858D01*
X133015392Y-92603592D01*
X132998928Y-92770750D01*
X132998928Y-93208250D01*
X133015392Y-93375408D01*
X133064150Y-93536142D01*
X133143329Y-93684275D01*
X133235856Y-93797021D01*
X133134885Y-93879885D01*
X133028329Y-94009725D01*
X132949150Y-94157858D01*
X132900392Y-94318592D01*
X132883928Y-94485750D01*
X132883928Y-94998250D01*
X132900392Y-95165408D01*
X132949150Y-95326142D01*
X133028329Y-95474275D01*
X133134885Y-95604115D01*
X133264725Y-95710671D01*
X133352001Y-95757321D01*
X133352000Y-96578289D01*
X133308063Y-96622226D01*
X133194795Y-96791744D01*
X133116774Y-96980102D01*
X133077000Y-97180061D01*
X133077000Y-97383939D01*
X133116774Y-97583898D01*
X133194795Y-97772256D01*
X133308063Y-97941774D01*
X133452226Y-98085937D01*
X133621744Y-98199205D01*
X133810102Y-98277226D01*
X133937909Y-98302648D01*
X133917329Y-98327725D01*
X133838150Y-98475858D01*
X133789392Y-98636592D01*
X133772928Y-98803750D01*
X133772928Y-99316250D01*
X133789392Y-99483408D01*
X133838150Y-99644142D01*
X133917329Y-99792275D01*
X134023885Y-99922115D01*
X134153725Y-100028671D01*
X134301858Y-100107850D01*
X134462592Y-100156608D01*
X134629750Y-100173072D01*
X134904771Y-100173072D01*
X135372747Y-100641049D01*
X135364392Y-100668592D01*
X135347928Y-100835750D01*
X135347928Y-101348250D01*
X135364392Y-101515408D01*
X135413150Y-101676142D01*
X135492329Y-101824275D01*
X135598885Y-101954115D01*
X135663501Y-102007143D01*
X135663501Y-102731168D01*
X135659824Y-102768500D01*
X135663501Y-102805833D01*
X135663543Y-102806254D01*
X135674498Y-102917485D01*
X135717954Y-103060746D01*
X135767002Y-103152508D01*
X135725000Y-103363665D01*
X135725000Y-103646335D01*
X135780147Y-103923574D01*
X135888320Y-104184727D01*
X136045363Y-104419759D01*
X136245241Y-104619637D01*
X136480273Y-104776680D01*
X136741426Y-104884853D01*
X137018665Y-104940000D01*
X137301335Y-104940000D01*
X137578574Y-104884853D01*
X137839727Y-104776680D01*
X138074759Y-104619637D01*
X138274637Y-104419759D01*
X138430000Y-104187241D01*
X138585363Y-104419759D01*
X138785241Y-104619637D01*
X139020273Y-104776680D01*
X139281426Y-104884853D01*
X139558665Y-104940000D01*
X139841335Y-104940000D01*
X140118574Y-104884853D01*
X140379727Y-104776680D01*
X140614759Y-104619637D01*
X140814637Y-104419759D01*
X140970000Y-104187241D01*
X141125363Y-104419759D01*
X141325241Y-104619637D01*
X141560273Y-104776680D01*
X141821426Y-104884853D01*
X142098665Y-104940000D01*
X142381335Y-104940000D01*
X142658574Y-104884853D01*
X142919727Y-104776680D01*
X143154759Y-104619637D01*
X143354637Y-104419759D01*
X143511680Y-104184727D01*
X143619853Y-103923574D01*
X143675000Y-103646335D01*
X143675000Y-103363665D01*
X143619853Y-103086426D01*
X143511680Y-102825273D01*
X143354637Y-102590241D01*
X143154759Y-102390363D01*
X143000000Y-102286957D01*
X143000000Y-102144443D01*
X143015142Y-102139850D01*
X143163275Y-102060671D01*
X143293115Y-101954115D01*
X143399671Y-101824275D01*
X143478850Y-101676142D01*
X143527608Y-101515408D01*
X143544072Y-101348250D01*
X143544072Y-100835750D01*
X143527608Y-100668592D01*
X143478850Y-100507858D01*
X143399671Y-100359725D01*
X143293115Y-100229885D01*
X143228500Y-100176857D01*
X143228500Y-99975143D01*
X143256000Y-99952574D01*
X143348725Y-100028671D01*
X143496858Y-100107850D01*
X143657592Y-100156608D01*
X143824750Y-100173072D01*
X143939512Y-100173072D01*
X143976063Y-100227774D01*
X144120226Y-100371937D01*
X144289744Y-100485205D01*
X144478102Y-100563226D01*
X144678061Y-100603000D01*
X144881939Y-100603000D01*
X145081898Y-100563226D01*
X145270256Y-100485205D01*
X145439774Y-100371937D01*
X145583937Y-100227774D01*
X145697205Y-100058256D01*
X145775226Y-99869898D01*
X145815000Y-99669939D01*
X145815000Y-99466061D01*
X147047000Y-99466061D01*
X147047000Y-99669939D01*
X147086774Y-99869898D01*
X147164795Y-100058256D01*
X147278063Y-100227774D01*
X147422226Y-100371937D01*
X147591744Y-100485205D01*
X147780102Y-100563226D01*
X147980061Y-100603000D01*
X148183939Y-100603000D01*
X148348177Y-100570331D01*
X148351498Y-100581279D01*
X148410463Y-100691593D01*
X148489815Y-100788284D01*
X148586506Y-100867636D01*
X148696820Y-100926601D01*
X148816518Y-100962911D01*
X148941000Y-100975171D01*
X149343987Y-100975171D01*
X149372774Y-101119896D01*
X149450795Y-101308254D01*
X149564063Y-101477772D01*
X149708226Y-101621935D01*
X149877744Y-101735203D01*
X150066102Y-101813224D01*
X150266061Y-101852998D01*
X150469939Y-101852998D01*
X150669898Y-101813224D01*
X150858256Y-101735203D01*
X151027774Y-101621935D01*
X151171937Y-101477772D01*
X151285205Y-101308254D01*
X151363226Y-101119896D01*
X151393723Y-100966575D01*
X151481000Y-100975171D01*
X151956652Y-100975171D01*
X151912774Y-101081102D01*
X151873000Y-101281061D01*
X151873000Y-101484939D01*
X151912774Y-101684898D01*
X151990795Y-101873256D01*
X152104063Y-102042774D01*
X152248226Y-102186937D01*
X152417744Y-102300205D01*
X152606102Y-102378226D01*
X152806061Y-102418000D01*
X153009939Y-102418000D01*
X153209898Y-102378226D01*
X153398256Y-102300205D01*
X153567774Y-102186937D01*
X153711937Y-102042774D01*
X153825205Y-101873256D01*
X153903226Y-101684898D01*
X153943000Y-101484939D01*
X153943000Y-101281061D01*
X153903226Y-101081102D01*
X153848198Y-100948253D01*
X153896518Y-100962911D01*
X154021000Y-100975171D01*
X154415962Y-100975171D01*
X154413000Y-100990061D01*
X154413000Y-101193939D01*
X154452774Y-101393898D01*
X154530795Y-101582256D01*
X154644063Y-101751774D01*
X154788226Y-101895937D01*
X154957744Y-102009205D01*
X155146102Y-102087226D01*
X155346061Y-102127000D01*
X155549939Y-102127000D01*
X155749898Y-102087226D01*
X155938256Y-102009205D01*
X156107774Y-101895937D01*
X156251937Y-101751774D01*
X156365205Y-101582256D01*
X156443226Y-101393898D01*
X156483000Y-101193939D01*
X156483000Y-100990061D01*
X156478420Y-100967038D01*
X156561000Y-100975171D01*
X157129000Y-100975171D01*
X157253482Y-100962911D01*
X157373180Y-100926601D01*
X157483494Y-100867636D01*
X157580185Y-100788284D01*
X157659537Y-100691593D01*
X157718502Y-100581279D01*
X157754812Y-100461581D01*
X157767072Y-100337099D01*
X157767072Y-98595701D01*
X157754812Y-98471219D01*
X157718502Y-98351521D01*
X157713842Y-98342802D01*
X157753000Y-98145939D01*
X157753000Y-97942061D01*
X157713226Y-97742102D01*
X157635205Y-97553744D01*
X157521937Y-97384226D01*
X157377774Y-97240063D01*
X157208256Y-97126795D01*
X157019898Y-97048774D01*
X156819939Y-97009000D01*
X156616061Y-97009000D01*
X156416102Y-97048774D01*
X156227744Y-97126795D01*
X156058226Y-97240063D01*
X155914063Y-97384226D01*
X155800795Y-97553744D01*
X155722774Y-97742102D01*
X155683000Y-97942061D01*
X155683000Y-97957629D01*
X155291000Y-97957629D01*
X155213000Y-97965311D01*
X155213000Y-97942061D01*
X155173226Y-97742102D01*
X155095205Y-97553744D01*
X154981937Y-97384226D01*
X154837774Y-97240063D01*
X154668256Y-97126795D01*
X154479898Y-97048774D01*
X154279939Y-97009000D01*
X154076061Y-97009000D01*
X153876102Y-97048774D01*
X153687744Y-97126795D01*
X153518226Y-97240063D01*
X153374063Y-97384226D01*
X153260795Y-97553744D01*
X153182774Y-97742102D01*
X153143000Y-97942061D01*
X153143000Y-97957629D01*
X152751000Y-97957629D01*
X152673000Y-97965311D01*
X152673000Y-97942061D01*
X152633226Y-97742102D01*
X152555205Y-97553744D01*
X152441937Y-97384226D01*
X152297774Y-97240063D01*
X152128256Y-97126795D01*
X151939898Y-97048774D01*
X151739939Y-97009000D01*
X151536061Y-97009000D01*
X151336102Y-97048774D01*
X151147744Y-97126795D01*
X150978226Y-97240063D01*
X150834063Y-97384226D01*
X150720795Y-97553744D01*
X150642774Y-97742102D01*
X150603000Y-97942061D01*
X150603000Y-97957629D01*
X150211000Y-97957629D01*
X150086518Y-97969889D01*
X149966820Y-98006199D01*
X149860000Y-98063296D01*
X149753180Y-98006199D01*
X149633482Y-97969889D01*
X149509000Y-97957629D01*
X148941000Y-97957629D01*
X148816518Y-97969889D01*
X148696820Y-98006199D01*
X148586506Y-98065164D01*
X148489815Y-98144516D01*
X148410463Y-98241207D01*
X148351498Y-98351521D01*
X148315188Y-98471219D01*
X148306698Y-98557418D01*
X148183939Y-98533000D01*
X147980061Y-98533000D01*
X147780102Y-98572774D01*
X147591744Y-98650795D01*
X147422226Y-98764063D01*
X147278063Y-98908226D01*
X147164795Y-99077744D01*
X147086774Y-99266102D01*
X147047000Y-99466061D01*
X145815000Y-99466061D01*
X145775226Y-99266102D01*
X145697205Y-99077744D01*
X145583937Y-98908226D01*
X145439774Y-98764063D01*
X145270256Y-98650795D01*
X145083443Y-98573414D01*
X145053850Y-98475858D01*
X144974671Y-98327725D01*
X144868115Y-98197885D01*
X144738275Y-98091329D01*
X144590142Y-98012150D01*
X144429408Y-97963392D01*
X144262250Y-97946928D01*
X143824750Y-97946928D01*
X143657592Y-97963392D01*
X143496858Y-98012150D01*
X143348725Y-98091329D01*
X143256000Y-98167426D01*
X143163275Y-98091329D01*
X143015142Y-98012150D01*
X142854408Y-97963392D01*
X142687250Y-97946928D01*
X142249750Y-97946928D01*
X142082592Y-97963392D01*
X141921858Y-98012150D01*
X141773725Y-98091329D01*
X141643885Y-98197885D01*
X141537329Y-98327725D01*
X141458150Y-98475858D01*
X141409392Y-98636592D01*
X141392928Y-98803750D01*
X141392928Y-99289217D01*
X141375774Y-99272063D01*
X141206256Y-99158795D01*
X141055072Y-99096172D01*
X141055072Y-98803750D01*
X141038608Y-98636592D01*
X140989850Y-98475858D01*
X140910671Y-98327725D01*
X140804115Y-98197885D01*
X140674275Y-98091329D01*
X140526142Y-98012150D01*
X140365408Y-97963392D01*
X140198250Y-97946928D01*
X139760750Y-97946928D01*
X139593592Y-97963392D01*
X139432858Y-98012150D01*
X139284725Y-98091329D01*
X139192000Y-98167426D01*
X139099275Y-98091329D01*
X138951142Y-98012150D01*
X138790408Y-97963392D01*
X138623250Y-97946928D01*
X138195000Y-97946928D01*
X138195000Y-97942061D01*
X138155226Y-97742102D01*
X138077205Y-97553744D01*
X137963937Y-97384226D01*
X137898711Y-97319000D01*
X137963937Y-97253773D01*
X138077205Y-97084255D01*
X138155226Y-96895897D01*
X138195000Y-96695938D01*
X138195000Y-96492060D01*
X138155226Y-96292101D01*
X138077205Y-96103743D01*
X137963937Y-95934225D01*
X137920000Y-95890288D01*
X137920000Y-95636216D01*
X137959115Y-95604115D01*
X138065671Y-95474275D01*
X138144850Y-95326142D01*
X138193608Y-95165408D01*
X138210072Y-94998250D01*
X138210072Y-94485750D01*
X138193608Y-94318592D01*
X138144850Y-94157858D01*
X138065671Y-94009725D01*
X138000724Y-93930587D01*
X138019275Y-93920671D01*
X138149115Y-93814115D01*
X138255671Y-93684275D01*
X138334850Y-93536142D01*
X138383608Y-93375408D01*
X138400072Y-93208250D01*
X138400072Y-92770750D01*
X138383608Y-92603592D01*
X138334850Y-92442858D01*
X138255671Y-92294725D01*
X138179574Y-92202000D01*
X138255671Y-92109275D01*
X138334850Y-91961142D01*
X138383608Y-91800408D01*
X138400072Y-91633250D01*
X138400072Y-91195750D01*
X138396476Y-91159235D01*
X138471937Y-91083774D01*
X138585205Y-90914256D01*
X138663226Y-90725898D01*
X138703000Y-90525939D01*
X138703000Y-90322061D01*
X138663226Y-90122102D01*
X138585205Y-89933744D01*
X138471937Y-89764226D01*
X138327774Y-89620063D01*
X138158256Y-89506795D01*
X137989234Y-89436783D01*
X138074759Y-89379637D01*
X138274637Y-89179759D01*
X138378043Y-89025000D01*
X138481957Y-89025000D01*
X138585363Y-89179759D01*
X138785241Y-89379637D01*
X139020273Y-89536680D01*
X139281426Y-89644853D01*
X139558665Y-89700000D01*
X139841335Y-89700000D01*
X140118574Y-89644853D01*
X140379727Y-89536680D01*
X140614759Y-89379637D01*
X140814637Y-89179759D01*
X140918043Y-89025000D01*
X141021957Y-89025000D01*
X141125363Y-89179759D01*
X141325241Y-89379637D01*
X141410766Y-89436783D01*
X141241744Y-89506795D01*
X141072226Y-89620063D01*
X140928063Y-89764226D01*
X140814795Y-89933744D01*
X140736774Y-90122102D01*
X140697000Y-90322061D01*
X140697000Y-90353086D01*
X140673592Y-90355392D01*
X140512858Y-90404150D01*
X140364725Y-90483329D01*
X140234885Y-90589885D01*
X140128329Y-90719725D01*
X140049150Y-90867858D01*
X140000392Y-91028592D01*
X139983928Y-91195750D01*
X139983928Y-91633250D01*
X140000392Y-91800408D01*
X140049150Y-91961142D01*
X140128329Y-92109275D01*
X140204426Y-92202000D01*
X140128329Y-92294725D01*
X140049150Y-92442858D01*
X140000392Y-92603592D01*
X139983928Y-92770750D01*
X139983928Y-93208250D01*
X140000392Y-93375408D01*
X140049150Y-93536142D01*
X140128329Y-93684275D01*
X140184501Y-93752721D01*
X140184501Y-93826857D01*
X140119885Y-93879885D01*
X140013329Y-94009725D01*
X139934150Y-94157858D01*
X139885392Y-94318592D01*
X139868928Y-94485750D01*
X139868928Y-94998250D01*
X139885392Y-95165408D01*
X139934150Y-95326142D01*
X140013270Y-95474164D01*
X139974774Y-95567101D01*
X139935000Y-95767060D01*
X139935000Y-95970938D01*
X139974774Y-96170897D01*
X140052795Y-96359255D01*
X140166063Y-96528773D01*
X140310226Y-96672936D01*
X140479744Y-96786204D01*
X140668102Y-96864225D01*
X140868061Y-96903999D01*
X141071939Y-96903999D01*
X141271898Y-96864225D01*
X141460256Y-96786204D01*
X141629774Y-96672936D01*
X141773937Y-96528773D01*
X141887205Y-96359255D01*
X141965226Y-96170897D01*
X142005000Y-95970938D01*
X142005000Y-95767060D01*
X141965226Y-95567101D01*
X141904463Y-95420408D01*
X141954850Y-95326142D01*
X142003608Y-95165408D01*
X142020072Y-94998250D01*
X142020072Y-94640061D01*
X142729000Y-94640061D01*
X142729000Y-94843939D01*
X142768774Y-95043898D01*
X142846795Y-95232256D01*
X142960063Y-95401774D01*
X143104226Y-95545937D01*
X143273744Y-95659205D01*
X143462102Y-95737226D01*
X143662061Y-95777000D01*
X143865939Y-95777000D01*
X144065898Y-95737226D01*
X144096298Y-95724634D01*
X144195858Y-95777850D01*
X144356592Y-95826608D01*
X144523750Y-95843072D01*
X145036250Y-95843072D01*
X145203408Y-95826608D01*
X145364142Y-95777850D01*
X145512275Y-95698671D01*
X145642115Y-95592115D01*
X145695143Y-95527500D01*
X145769857Y-95527500D01*
X145822885Y-95592115D01*
X145952725Y-95698671D01*
X146100858Y-95777850D01*
X146261592Y-95826608D01*
X146428750Y-95843072D01*
X146941250Y-95843072D01*
X147108408Y-95826608D01*
X147269142Y-95777850D01*
X147417275Y-95698671D01*
X147547115Y-95592115D01*
X147653671Y-95462275D01*
X147732850Y-95314142D01*
X147781608Y-95153408D01*
X147798072Y-94986250D01*
X147798072Y-94548750D01*
X147781608Y-94381592D01*
X147732850Y-94220858D01*
X147653671Y-94072725D01*
X147547115Y-93942885D01*
X147417275Y-93836329D01*
X147269142Y-93757150D01*
X147108408Y-93708392D01*
X146941250Y-93691928D01*
X146428750Y-93691928D01*
X146261592Y-93708392D01*
X146100858Y-93757150D01*
X145952725Y-93836329D01*
X145822885Y-93942885D01*
X145769857Y-94007500D01*
X145695143Y-94007500D01*
X145642115Y-93942885D01*
X145512275Y-93836329D01*
X145415046Y-93784359D01*
X145414974Y-93784224D01*
X145320001Y-93668499D01*
X145204276Y-93573526D01*
X145072247Y-93502954D01*
X144928986Y-93459497D01*
X144780000Y-93444823D01*
X144631015Y-93459497D01*
X144487754Y-93502954D01*
X144355725Y-93573526D01*
X144240000Y-93668499D01*
X144147889Y-93780736D01*
X144065898Y-93746774D01*
X143865939Y-93707000D01*
X143662061Y-93707000D01*
X143462102Y-93746774D01*
X143273744Y-93824795D01*
X143104226Y-93938063D01*
X142960063Y-94082226D01*
X142846795Y-94251744D01*
X142768774Y-94440102D01*
X142729000Y-94640061D01*
X142020072Y-94640061D01*
X142020072Y-94485750D01*
X142003608Y-94318592D01*
X141954850Y-94157858D01*
X141875671Y-94009725D01*
X141810724Y-93930587D01*
X141829275Y-93920671D01*
X141959115Y-93814115D01*
X142065671Y-93684275D01*
X142144850Y-93536142D01*
X142193608Y-93375408D01*
X142210072Y-93208250D01*
X142210072Y-92770750D01*
X142193608Y-92603592D01*
X142144850Y-92442858D01*
X142065671Y-92294725D01*
X141989574Y-92202000D01*
X142065671Y-92109275D01*
X142144850Y-91961142D01*
X142193608Y-91800408D01*
X142210072Y-91633250D01*
X142210072Y-91346252D01*
X142222256Y-91341205D01*
X142391774Y-91227937D01*
X142535937Y-91083774D01*
X142649205Y-90914256D01*
X142727226Y-90725898D01*
X142767000Y-90525939D01*
X142767000Y-90322061D01*
X142727226Y-90122102D01*
X142649205Y-89933744D01*
X142535937Y-89764226D01*
X142456716Y-89685005D01*
X142658574Y-89644853D01*
X142919727Y-89536680D01*
X143154759Y-89379637D01*
X143354637Y-89179759D01*
X143458043Y-89025000D01*
X143561957Y-89025000D01*
X143665363Y-89179759D01*
X143865241Y-89379637D01*
X144100273Y-89536680D01*
X144361426Y-89644853D01*
X144638665Y-89700000D01*
X144921335Y-89700000D01*
X145198574Y-89644853D01*
X145459727Y-89536680D01*
X145694759Y-89379637D01*
X145894637Y-89179759D01*
X145998043Y-89025000D01*
X146101957Y-89025000D01*
X146205363Y-89179759D01*
X146405241Y-89379637D01*
X146640273Y-89536680D01*
X146901426Y-89644853D01*
X147178665Y-89700000D01*
X147461335Y-89700000D01*
X147738574Y-89644853D01*
X147999727Y-89536680D01*
X148234759Y-89379637D01*
X148434637Y-89179759D01*
X148538043Y-89025000D01*
X148641957Y-89025000D01*
X148745363Y-89179759D01*
X148945241Y-89379637D01*
X149180273Y-89536680D01*
X149441426Y-89644853D01*
X149718665Y-89700000D01*
X150001335Y-89700000D01*
X150278574Y-89644853D01*
X150539727Y-89536680D01*
X150774759Y-89379637D01*
X150974637Y-89179759D01*
X151078043Y-89025000D01*
X151181957Y-89025000D01*
X151285363Y-89179759D01*
X151485241Y-89379637D01*
X151720273Y-89536680D01*
X151981426Y-89644853D01*
X152258665Y-89700000D01*
X152541335Y-89700000D01*
X152818574Y-89644853D01*
X153079727Y-89536680D01*
X153314759Y-89379637D01*
X153514637Y-89179759D01*
X153670000Y-88947241D01*
X153825363Y-89179759D01*
X154025241Y-89379637D01*
X154260273Y-89536680D01*
X154521426Y-89644853D01*
X154798665Y-89700000D01*
X155081335Y-89700000D01*
X155358574Y-89644853D01*
X155619727Y-89536680D01*
X155854759Y-89379637D01*
X156054637Y-89179759D01*
X156210000Y-88947241D01*
X156365363Y-89179759D01*
X156565241Y-89379637D01*
X156800273Y-89536680D01*
X157061426Y-89644853D01*
X157338665Y-89700000D01*
X157621335Y-89700000D01*
X157898574Y-89644853D01*
X158159727Y-89536680D01*
X158394759Y-89379637D01*
X158594637Y-89179759D01*
X158751680Y-88944727D01*
X158859853Y-88683574D01*
X158915000Y-88406335D01*
X158915000Y-88123665D01*
X158859853Y-87846426D01*
X158751680Y-87585273D01*
X158594637Y-87350241D01*
X158394759Y-87150363D01*
X158159727Y-86993320D01*
X157898574Y-86885147D01*
X157621335Y-86830000D01*
X157338665Y-86830000D01*
X157061426Y-86885147D01*
X156800273Y-86993320D01*
X156565241Y-87150363D01*
X156365363Y-87350241D01*
X156210000Y-87582759D01*
X156054637Y-87350241D01*
X155854759Y-87150363D01*
X155619727Y-86993320D01*
X155358574Y-86885147D01*
X155081335Y-86830000D01*
X154798665Y-86830000D01*
X154521426Y-86885147D01*
X154260273Y-86993320D01*
X154025241Y-87150363D01*
X153825363Y-87350241D01*
X153670000Y-87582759D01*
X153514637Y-87350241D01*
X153314759Y-87150363D01*
X153079727Y-86993320D01*
X152818574Y-86885147D01*
X152541335Y-86830000D01*
X152258665Y-86830000D01*
X151981426Y-86885147D01*
X151720273Y-86993320D01*
X151485241Y-87150363D01*
X151285363Y-87350241D01*
X151181957Y-87505000D01*
X151078043Y-87505000D01*
X150974637Y-87350241D01*
X150774759Y-87150363D01*
X150539727Y-86993320D01*
X150278574Y-86885147D01*
X150001335Y-86830000D01*
X149718665Y-86830000D01*
X149441426Y-86885147D01*
X149180273Y-86993320D01*
X148945241Y-87150363D01*
X148745363Y-87350241D01*
X148641957Y-87505000D01*
X148538043Y-87505000D01*
X148434637Y-87350241D01*
X148234759Y-87150363D01*
X147999727Y-86993320D01*
X147738574Y-86885147D01*
X147461335Y-86830000D01*
X147178665Y-86830000D01*
X146901426Y-86885147D01*
X146640273Y-86993320D01*
X146405241Y-87150363D01*
X146205363Y-87350241D01*
X146101957Y-87505000D01*
X145998043Y-87505000D01*
X145894637Y-87350241D01*
X145694759Y-87150363D01*
X145459727Y-86993320D01*
X145198574Y-86885147D01*
X144921335Y-86830000D01*
X144638665Y-86830000D01*
X144361426Y-86885147D01*
X144100273Y-86993320D01*
X143865241Y-87150363D01*
X143665363Y-87350241D01*
X143561957Y-87505000D01*
X143458043Y-87505000D01*
X143354637Y-87350241D01*
X143154759Y-87150363D01*
X142919727Y-86993320D01*
X142658574Y-86885147D01*
X142381335Y-86830000D01*
X142098665Y-86830000D01*
X141821426Y-86885147D01*
X141560273Y-86993320D01*
X141325241Y-87150363D01*
X141125363Y-87350241D01*
X141021957Y-87505000D01*
X140918043Y-87505000D01*
X140814637Y-87350241D01*
X140614759Y-87150363D01*
X140379727Y-86993320D01*
X140118574Y-86885147D01*
X139841335Y-86830000D01*
X139558665Y-86830000D01*
X139281426Y-86885147D01*
X139020273Y-86993320D01*
X138785241Y-87150363D01*
X138585363Y-87350241D01*
X138481957Y-87505000D01*
X138378043Y-87505000D01*
X138274637Y-87350241D01*
X138074759Y-87150363D01*
X137839727Y-86993320D01*
X137578574Y-86885147D01*
X137301335Y-86830000D01*
X137018665Y-86830000D01*
X136741426Y-86885147D01*
X136480273Y-86993320D01*
X136245241Y-87150363D01*
X136045363Y-87350241D01*
X135941957Y-87505000D01*
X135838043Y-87505000D01*
X135734637Y-87350241D01*
X135534759Y-87150363D01*
X135299727Y-86993320D01*
X135038574Y-86885147D01*
X134761335Y-86830000D01*
X134478665Y-86830000D01*
X134201426Y-86885147D01*
X133940273Y-86993320D01*
X133705241Y-87150363D01*
X133505363Y-87350241D01*
X133401957Y-87505000D01*
X133298043Y-87505000D01*
X133194637Y-87350241D01*
X132994759Y-87150363D01*
X132759727Y-86993320D01*
X132498574Y-86885147D01*
X132221335Y-86830000D01*
X131938665Y-86830000D01*
X131756113Y-86866312D01*
X131518803Y-86629002D01*
X131495000Y-86599998D01*
X131379275Y-86505025D01*
X131247246Y-86434453D01*
X131103985Y-86390996D01*
X130992332Y-86379999D01*
X130992321Y-86379999D01*
X130954999Y-86376323D01*
X130917677Y-86379999D01*
X128162326Y-86379999D01*
X128125001Y-86376323D01*
X128087676Y-86379999D01*
X128087668Y-86379999D01*
X127976015Y-86390996D01*
X127832754Y-86434453D01*
X127700725Y-86505025D01*
X127585000Y-86599998D01*
X127561202Y-86628996D01*
X127323886Y-86866312D01*
X127141335Y-86830000D01*
X126858665Y-86830000D01*
X126581426Y-86885147D01*
X126320273Y-86993320D01*
X126085241Y-87150363D01*
X125885363Y-87350241D01*
X125730000Y-87582759D01*
X125574637Y-87350241D01*
X125374759Y-87150363D01*
X125139727Y-86993320D01*
X124878574Y-86885147D01*
X124601335Y-86830000D01*
X124318665Y-86830000D01*
X124041426Y-86885147D01*
X123780273Y-86993320D01*
X123545241Y-87150363D01*
X123345363Y-87350241D01*
X123188320Y-87585273D01*
X123080147Y-87846426D01*
X123025000Y-88123665D01*
X115625812Y-88123665D01*
X115634296Y-83014117D01*
X118280000Y-83014117D01*
X118280000Y-83355883D01*
X118346675Y-83691081D01*
X118477463Y-84006831D01*
X118667337Y-84290998D01*
X118909002Y-84532663D01*
X119193169Y-84722537D01*
X119508919Y-84853325D01*
X119844117Y-84920000D01*
X120185883Y-84920000D01*
X120521081Y-84853325D01*
X120836831Y-84722537D01*
X121120998Y-84532663D01*
X121362663Y-84290998D01*
X121552537Y-84006831D01*
X121683325Y-83691081D01*
X121750000Y-83355883D01*
X121750000Y-83159117D01*
X161460000Y-83159117D01*
X161460000Y-83500883D01*
X161526675Y-83836081D01*
X161657463Y-84151831D01*
X161847337Y-84435998D01*
X162089002Y-84677663D01*
X162373169Y-84867537D01*
X162688919Y-84998325D01*
X163024117Y-85065000D01*
X163365883Y-85065000D01*
X163701081Y-84998325D01*
X164016831Y-84867537D01*
X164300998Y-84677663D01*
X164542663Y-84435998D01*
X164732537Y-84151831D01*
X164863325Y-83836081D01*
X164930000Y-83500883D01*
X164930000Y-83159117D01*
X164863325Y-82823919D01*
X164732537Y-82508169D01*
X164542663Y-82224002D01*
X164300998Y-81982337D01*
X164016831Y-81792463D01*
X163701081Y-81661675D01*
X163365883Y-81595000D01*
X163024117Y-81595000D01*
X162688919Y-81661675D01*
X162373169Y-81792463D01*
X162089002Y-81982337D01*
X161847337Y-82224002D01*
X161657463Y-82508169D01*
X161526675Y-82823919D01*
X161460000Y-83159117D01*
X121750000Y-83159117D01*
X121750000Y-83014117D01*
X121683325Y-82678919D01*
X121552537Y-82363169D01*
X121362663Y-82079002D01*
X121120998Y-81837337D01*
X120836831Y-81647463D01*
X120521081Y-81516675D01*
X120185883Y-81450000D01*
X119844117Y-81450000D01*
X119508919Y-81516675D01*
X119193169Y-81647463D01*
X118909002Y-81837337D01*
X118667337Y-82079002D01*
X118477463Y-82363169D01*
X118346675Y-82678919D01*
X118280000Y-83014117D01*
X115634296Y-83014117D01*
X115639074Y-80137000D01*
X127302629Y-80137000D01*
X127493665Y-80175000D01*
G36*
X137473329Y-99792275D02*
G01*
X137579885Y-99922115D01*
X137709725Y-100028671D01*
X137857858Y-100107850D01*
X137922009Y-100127310D01*
X138903928Y-101109230D01*
X138903928Y-101348250D01*
X138920392Y-101515408D01*
X138969150Y-101676142D01*
X139048329Y-101824275D01*
X139154885Y-101954115D01*
X139219500Y-102007143D01*
X139219500Y-102150797D01*
X139020273Y-102233320D01*
X138785241Y-102390363D01*
X138585363Y-102590241D01*
X138430000Y-102822759D01*
X138274637Y-102590241D01*
X138074759Y-102390363D01*
X137839727Y-102233320D01*
X137578574Y-102125147D01*
X137301335Y-102070000D01*
X137183500Y-102070000D01*
X137183500Y-102007143D01*
X137248115Y-101954115D01*
X137354671Y-101824275D01*
X137433850Y-101676142D01*
X137482608Y-101515408D01*
X137499072Y-101348250D01*
X137499072Y-100835750D01*
X137482608Y-100668592D01*
X137433850Y-100507858D01*
X137354671Y-100359725D01*
X137248115Y-100229885D01*
X137118275Y-100123329D01*
X137029729Y-100076000D01*
X137118275Y-100028671D01*
X137248115Y-99922115D01*
X137354671Y-99792275D01*
X137414000Y-99681279D01*
X137473329Y-99792275D01*
G37*
X137473329Y-99792275D02*
X137579885Y-99922115D01*
X137709725Y-100028671D01*
X137857858Y-100107850D01*
X137922009Y-100127310D01*
X138903928Y-101109230D01*
X138903928Y-101348250D01*
X138920392Y-101515408D01*
X138969150Y-101676142D01*
X139048329Y-101824275D01*
X139154885Y-101954115D01*
X139219500Y-102007143D01*
X139219500Y-102150797D01*
X139020273Y-102233320D01*
X138785241Y-102390363D01*
X138585363Y-102590241D01*
X138430000Y-102822759D01*
X138274637Y-102590241D01*
X138074759Y-102390363D01*
X137839727Y-102233320D01*
X137578574Y-102125147D01*
X137301335Y-102070000D01*
X137183500Y-102070000D01*
X137183500Y-102007143D01*
X137248115Y-101954115D01*
X137354671Y-101824275D01*
X137433850Y-101676142D01*
X137482608Y-101515408D01*
X137499072Y-101348250D01*
X137499072Y-100835750D01*
X137482608Y-100668592D01*
X137433850Y-100507858D01*
X137354671Y-100359725D01*
X137248115Y-100229885D01*
X137118275Y-100123329D01*
X137029729Y-100076000D01*
X137118275Y-100028671D01*
X137248115Y-99922115D01*
X137354671Y-99792275D01*
X137414000Y-99681279D01*
X137473329Y-99792275D01*
G36*
X136045363Y-89179759D02*
G01*
X136245241Y-89379637D01*
X136480273Y-89536680D01*
X136741426Y-89644853D01*
X136943284Y-89685005D01*
X136864063Y-89764226D01*
X136750795Y-89933744D01*
X136672774Y-90122102D01*
X136633000Y-90322061D01*
X136633000Y-90416319D01*
X136614164Y-90451558D01*
X136554725Y-90483329D01*
X136424885Y-90589885D01*
X136318329Y-90719725D01*
X136239150Y-90867858D01*
X136190392Y-91028592D01*
X136173928Y-91195750D01*
X136173928Y-91633250D01*
X136190392Y-91800408D01*
X136239150Y-91961142D01*
X136318329Y-92109275D01*
X136394426Y-92202000D01*
X136318329Y-92294725D01*
X136239150Y-92442858D01*
X136190392Y-92603592D01*
X136173928Y-92770750D01*
X136173928Y-93208250D01*
X136190392Y-93375408D01*
X136239150Y-93536142D01*
X136318329Y-93684275D01*
X136374501Y-93752721D01*
X136374501Y-93826857D01*
X136309885Y-93879885D01*
X136203329Y-94009725D01*
X136124150Y-94157858D01*
X136075392Y-94318592D01*
X136058928Y-94485750D01*
X136058928Y-94998250D01*
X136075392Y-95165408D01*
X136124150Y-95326142D01*
X136203329Y-95474275D01*
X136309885Y-95604115D01*
X136400001Y-95678070D01*
X136400000Y-95890288D01*
X136356063Y-95934225D01*
X136242795Y-96103743D01*
X136164774Y-96292101D01*
X136125000Y-96492060D01*
X136125000Y-96695938D01*
X136164774Y-96895897D01*
X136242795Y-97084255D01*
X136356063Y-97253773D01*
X136421290Y-97319000D01*
X136356063Y-97384226D01*
X136242795Y-97553744D01*
X136164774Y-97742102D01*
X136125000Y-97942061D01*
X136125000Y-97954783D01*
X136037592Y-97963392D01*
X135876858Y-98012150D01*
X135728725Y-98091329D01*
X135636000Y-98167426D01*
X135543275Y-98091329D01*
X135395142Y-98012150D01*
X135234408Y-97963392D01*
X135067250Y-97946928D01*
X134910783Y-97946928D01*
X134915937Y-97941774D01*
X135029205Y-97772256D01*
X135107226Y-97583898D01*
X135147000Y-97383939D01*
X135147000Y-97180061D01*
X135107226Y-96980102D01*
X135029205Y-96791744D01*
X134915937Y-96622226D01*
X134872000Y-96578289D01*
X134872000Y-95497026D01*
X134890671Y-95474275D01*
X134969850Y-95326142D01*
X135018608Y-95165408D01*
X135035072Y-94998250D01*
X135035072Y-94485750D01*
X135018608Y-94318592D01*
X134969850Y-94157858D01*
X134890671Y-94009725D01*
X134872000Y-93986974D01*
X134872000Y-93897918D01*
X134974115Y-93814115D01*
X135080671Y-93684275D01*
X135159850Y-93536142D01*
X135208608Y-93375408D01*
X135225072Y-93208250D01*
X135225072Y-92770750D01*
X135208608Y-92603592D01*
X135159850Y-92442858D01*
X135080671Y-92294725D01*
X135004574Y-92202000D01*
X135080671Y-92109275D01*
X135159850Y-91961142D01*
X135208608Y-91800408D01*
X135225072Y-91633250D01*
X135225072Y-91264488D01*
X135279774Y-91227937D01*
X135423937Y-91083774D01*
X135537205Y-90914256D01*
X135615226Y-90725898D01*
X135655000Y-90525939D01*
X135655000Y-90322061D01*
X135615226Y-90122102D01*
X135537205Y-89933744D01*
X135423937Y-89764226D01*
X135279774Y-89620063D01*
X135210374Y-89573691D01*
X135299727Y-89536680D01*
X135534759Y-89379637D01*
X135734637Y-89179759D01*
X135838043Y-89025000D01*
X135941957Y-89025000D01*
X136045363Y-89179759D01*
G37*
X136045363Y-89179759D02*
X136245241Y-89379637D01*
X136480273Y-89536680D01*
X136741426Y-89644853D01*
X136943284Y-89685005D01*
X136864063Y-89764226D01*
X136750795Y-89933744D01*
X136672774Y-90122102D01*
X136633000Y-90322061D01*
X136633000Y-90416319D01*
X136614164Y-90451558D01*
X136554725Y-90483329D01*
X136424885Y-90589885D01*
X136318329Y-90719725D01*
X136239150Y-90867858D01*
X136190392Y-91028592D01*
X136173928Y-91195750D01*
X136173928Y-91633250D01*
X136190392Y-91800408D01*
X136239150Y-91961142D01*
X136318329Y-92109275D01*
X136394426Y-92202000D01*
X136318329Y-92294725D01*
X136239150Y-92442858D01*
X136190392Y-92603592D01*
X136173928Y-92770750D01*
X136173928Y-93208250D01*
X136190392Y-93375408D01*
X136239150Y-93536142D01*
X136318329Y-93684275D01*
X136374501Y-93752721D01*
X136374501Y-93826857D01*
X136309885Y-93879885D01*
X136203329Y-94009725D01*
X136124150Y-94157858D01*
X136075392Y-94318592D01*
X136058928Y-94485750D01*
X136058928Y-94998250D01*
X136075392Y-95165408D01*
X136124150Y-95326142D01*
X136203329Y-95474275D01*
X136309885Y-95604115D01*
X136400001Y-95678070D01*
X136400000Y-95890288D01*
X136356063Y-95934225D01*
X136242795Y-96103743D01*
X136164774Y-96292101D01*
X136125000Y-96492060D01*
X136125000Y-96695938D01*
X136164774Y-96895897D01*
X136242795Y-97084255D01*
X136356063Y-97253773D01*
X136421290Y-97319000D01*
X136356063Y-97384226D01*
X136242795Y-97553744D01*
X136164774Y-97742102D01*
X136125000Y-97942061D01*
X136125000Y-97954783D01*
X136037592Y-97963392D01*
X135876858Y-98012150D01*
X135728725Y-98091329D01*
X135636000Y-98167426D01*
X135543275Y-98091329D01*
X135395142Y-98012150D01*
X135234408Y-97963392D01*
X135067250Y-97946928D01*
X134910783Y-97946928D01*
X134915937Y-97941774D01*
X135029205Y-97772256D01*
X135107226Y-97583898D01*
X135147000Y-97383939D01*
X135147000Y-97180061D01*
X135107226Y-96980102D01*
X135029205Y-96791744D01*
X134915937Y-96622226D01*
X134872000Y-96578289D01*
X134872000Y-95497026D01*
X134890671Y-95474275D01*
X134969850Y-95326142D01*
X135018608Y-95165408D01*
X135035072Y-94998250D01*
X135035072Y-94485750D01*
X135018608Y-94318592D01*
X134969850Y-94157858D01*
X134890671Y-94009725D01*
X134872000Y-93986974D01*
X134872000Y-93897918D01*
X134974115Y-93814115D01*
X135080671Y-93684275D01*
X135159850Y-93536142D01*
X135208608Y-93375408D01*
X135225072Y-93208250D01*
X135225072Y-92770750D01*
X135208608Y-92603592D01*
X135159850Y-92442858D01*
X135080671Y-92294725D01*
X135004574Y-92202000D01*
X135080671Y-92109275D01*
X135159850Y-91961142D01*
X135208608Y-91800408D01*
X135225072Y-91633250D01*
X135225072Y-91264488D01*
X135279774Y-91227937D01*
X135423937Y-91083774D01*
X135537205Y-90914256D01*
X135615226Y-90725898D01*
X135655000Y-90525939D01*
X135655000Y-90322061D01*
X135615226Y-90122102D01*
X135537205Y-89933744D01*
X135423937Y-89764226D01*
X135279774Y-89620063D01*
X135210374Y-89573691D01*
X135299727Y-89536680D01*
X135534759Y-89379637D01*
X135734637Y-89179759D01*
X135838043Y-89025000D01*
X135941957Y-89025000D01*
X136045363Y-89179759D01*
M02*
