G04 #@! TF.GenerationSoftware,KiCad,Pcbnew,5.1.5-52549c5~84~ubuntu18.04.1*
G04 #@! TF.CreationDate,2020-03-22T23:19:32-04:00*
G04 #@! TF.ProjectId,tcd1304_v1,74636431-3330-4345-9f76-312e6b696361,rev?*
G04 #@! TF.SameCoordinates,Original*
G04 #@! TF.FileFunction,Legend,Top*
G04 #@! TF.FilePolarity,Positive*
%FSLAX46Y46*%
G04 Gerber Fmt 4.6, Leading zero omitted, Abs format (unit mm)*
G04 Created by KiCad (PCBNEW 5.1.5-52549c5~84~ubuntu18.04.1) date 2020-03-22 23:19:32*
%MOMM*%
%LPD*%
G04 APERTURE LIST*
%ADD10C,0.150000*%
%ADD11C,0.152400*%
%ADD12C,0.120000*%
G04 APERTURE END LIST*
D10*
X135660571Y-62778142D02*
X135612952Y-62825761D01*
X135470095Y-62873380D01*
X135374857Y-62873380D01*
X135232000Y-62825761D01*
X135136761Y-62730523D01*
X135089142Y-62635285D01*
X135041523Y-62444809D01*
X135041523Y-62301952D01*
X135089142Y-62111476D01*
X135136761Y-62016238D01*
X135232000Y-61921000D01*
X135374857Y-61873380D01*
X135470095Y-61873380D01*
X135612952Y-61921000D01*
X135660571Y-61968619D01*
X136660571Y-62778142D02*
X136612952Y-62825761D01*
X136470095Y-62873380D01*
X136374857Y-62873380D01*
X136232000Y-62825761D01*
X136136761Y-62730523D01*
X136089142Y-62635285D01*
X136041523Y-62444809D01*
X136041523Y-62301952D01*
X136089142Y-62111476D01*
X136136761Y-62016238D01*
X136232000Y-61921000D01*
X136374857Y-61873380D01*
X136470095Y-61873380D01*
X136612952Y-61921000D01*
X136660571Y-61968619D01*
X137089142Y-62873380D02*
X137089142Y-61873380D01*
X137327238Y-61873380D01*
X137470095Y-61921000D01*
X137565333Y-62016238D01*
X137612952Y-62111476D01*
X137660571Y-62301952D01*
X137660571Y-62444809D01*
X137612952Y-62635285D01*
X137565333Y-62730523D01*
X137470095Y-62825761D01*
X137327238Y-62873380D01*
X137089142Y-62873380D01*
X139422476Y-62778142D02*
X139374857Y-62825761D01*
X139232000Y-62873380D01*
X139136761Y-62873380D01*
X138993904Y-62825761D01*
X138898666Y-62730523D01*
X138851047Y-62635285D01*
X138803428Y-62444809D01*
X138803428Y-62301952D01*
X138851047Y-62111476D01*
X138898666Y-62016238D01*
X138993904Y-61921000D01*
X139136761Y-61873380D01*
X139232000Y-61873380D01*
X139374857Y-61921000D01*
X139422476Y-61968619D01*
X139993904Y-62873380D02*
X139898666Y-62825761D01*
X139851047Y-62778142D01*
X139803428Y-62682904D01*
X139803428Y-62397190D01*
X139851047Y-62301952D01*
X139898666Y-62254333D01*
X139993904Y-62206714D01*
X140136761Y-62206714D01*
X140232000Y-62254333D01*
X140279619Y-62301952D01*
X140327238Y-62397190D01*
X140327238Y-62682904D01*
X140279619Y-62778142D01*
X140232000Y-62825761D01*
X140136761Y-62873380D01*
X139993904Y-62873380D01*
X140755809Y-62206714D02*
X140755809Y-62873380D01*
X140755809Y-62301952D02*
X140803428Y-62254333D01*
X140898666Y-62206714D01*
X141041523Y-62206714D01*
X141136761Y-62254333D01*
X141184380Y-62349571D01*
X141184380Y-62873380D01*
X141517714Y-62206714D02*
X141898666Y-62206714D01*
X141660571Y-61873380D02*
X141660571Y-62730523D01*
X141708190Y-62825761D01*
X141803428Y-62873380D01*
X141898666Y-62873380D01*
X142232000Y-62873380D02*
X142232000Y-62206714D01*
X142232000Y-62397190D02*
X142279619Y-62301952D01*
X142327238Y-62254333D01*
X142422476Y-62206714D01*
X142517714Y-62206714D01*
X142993904Y-62873380D02*
X142898666Y-62825761D01*
X142851047Y-62778142D01*
X142803428Y-62682904D01*
X142803428Y-62397190D01*
X142851047Y-62301952D01*
X142898666Y-62254333D01*
X142993904Y-62206714D01*
X143136761Y-62206714D01*
X143232000Y-62254333D01*
X143279619Y-62301952D01*
X143327238Y-62397190D01*
X143327238Y-62682904D01*
X143279619Y-62778142D01*
X143232000Y-62825761D01*
X143136761Y-62873380D01*
X142993904Y-62873380D01*
X143898666Y-62873380D02*
X143803428Y-62825761D01*
X143755809Y-62730523D01*
X143755809Y-61873380D01*
X144422476Y-62873380D02*
X144327238Y-62825761D01*
X144279619Y-62730523D01*
X144279619Y-61873380D01*
X145184380Y-62825761D02*
X145089142Y-62873380D01*
X144898666Y-62873380D01*
X144803428Y-62825761D01*
X144755809Y-62730523D01*
X144755809Y-62349571D01*
X144803428Y-62254333D01*
X144898666Y-62206714D01*
X145089142Y-62206714D01*
X145184380Y-62254333D01*
X145232000Y-62349571D01*
X145232000Y-62444809D01*
X144755809Y-62540047D01*
X145660571Y-62873380D02*
X145660571Y-62206714D01*
X145660571Y-62397190D02*
X145708190Y-62301952D01*
X145755809Y-62254333D01*
X145851047Y-62206714D01*
X145946285Y-62206714D01*
X146898666Y-61873380D02*
X147232000Y-62873380D01*
X147565333Y-61873380D01*
X148422476Y-62873380D02*
X147851047Y-62873380D01*
X148136761Y-62873380D02*
X148136761Y-61873380D01*
X148041523Y-62016238D01*
X147946285Y-62111476D01*
X147851047Y-62159095D01*
X136874857Y-63618619D02*
X136922476Y-63571000D01*
X137017714Y-63523380D01*
X137255809Y-63523380D01*
X137351047Y-63571000D01*
X137398666Y-63618619D01*
X137446285Y-63713857D01*
X137446285Y-63809095D01*
X137398666Y-63951952D01*
X136827238Y-64523380D01*
X137446285Y-64523380D01*
X138065333Y-63523380D02*
X138160571Y-63523380D01*
X138255809Y-63571000D01*
X138303428Y-63618619D01*
X138351047Y-63713857D01*
X138398666Y-63904333D01*
X138398666Y-64142428D01*
X138351047Y-64332904D01*
X138303428Y-64428142D01*
X138255809Y-64475761D01*
X138160571Y-64523380D01*
X138065333Y-64523380D01*
X137970095Y-64475761D01*
X137922476Y-64428142D01*
X137874857Y-64332904D01*
X137827238Y-64142428D01*
X137827238Y-63904333D01*
X137874857Y-63713857D01*
X137922476Y-63618619D01*
X137970095Y-63571000D01*
X138065333Y-63523380D01*
X138779619Y-63618619D02*
X138827238Y-63571000D01*
X138922476Y-63523380D01*
X139160571Y-63523380D01*
X139255809Y-63571000D01*
X139303428Y-63618619D01*
X139351047Y-63713857D01*
X139351047Y-63809095D01*
X139303428Y-63951952D01*
X138732000Y-64523380D01*
X139351047Y-64523380D01*
X139970095Y-63523380D02*
X140065333Y-63523380D01*
X140160571Y-63571000D01*
X140208190Y-63618619D01*
X140255809Y-63713857D01*
X140303428Y-63904333D01*
X140303428Y-64142428D01*
X140255809Y-64332904D01*
X140208190Y-64428142D01*
X140160571Y-64475761D01*
X140065333Y-64523380D01*
X139970095Y-64523380D01*
X139874857Y-64475761D01*
X139827238Y-64428142D01*
X139779619Y-64332904D01*
X139732000Y-64142428D01*
X139732000Y-63904333D01*
X139779619Y-63713857D01*
X139827238Y-63618619D01*
X139874857Y-63571000D01*
X139970095Y-63523380D01*
X140732000Y-64142428D02*
X141493904Y-64142428D01*
X142160571Y-63523380D02*
X142255809Y-63523380D01*
X142351047Y-63571000D01*
X142398666Y-63618619D01*
X142446285Y-63713857D01*
X142493904Y-63904333D01*
X142493904Y-64142428D01*
X142446285Y-64332904D01*
X142398666Y-64428142D01*
X142351047Y-64475761D01*
X142255809Y-64523380D01*
X142160571Y-64523380D01*
X142065333Y-64475761D01*
X142017714Y-64428142D01*
X141970095Y-64332904D01*
X141922476Y-64142428D01*
X141922476Y-63904333D01*
X141970095Y-63713857D01*
X142017714Y-63618619D01*
X142065333Y-63571000D01*
X142160571Y-63523380D01*
X142827238Y-63523380D02*
X143446285Y-63523380D01*
X143112952Y-63904333D01*
X143255809Y-63904333D01*
X143351047Y-63951952D01*
X143398666Y-63999571D01*
X143446285Y-64094809D01*
X143446285Y-64332904D01*
X143398666Y-64428142D01*
X143351047Y-64475761D01*
X143255809Y-64523380D01*
X142970095Y-64523380D01*
X142874857Y-64475761D01*
X142827238Y-64428142D01*
X143874857Y-64142428D02*
X144636761Y-64142428D01*
X145065333Y-63618619D02*
X145112952Y-63571000D01*
X145208190Y-63523380D01*
X145446285Y-63523380D01*
X145541523Y-63571000D01*
X145589142Y-63618619D01*
X145636761Y-63713857D01*
X145636761Y-63809095D01*
X145589142Y-63951952D01*
X145017714Y-64523380D01*
X145636761Y-64523380D01*
X146017714Y-63618619D02*
X146065333Y-63571000D01*
X146160571Y-63523380D01*
X146398666Y-63523380D01*
X146493904Y-63571000D01*
X146541523Y-63618619D01*
X146589142Y-63713857D01*
X146589142Y-63809095D01*
X146541523Y-63951952D01*
X145970095Y-64523380D01*
X146589142Y-64523380D01*
D11*
X151955500Y-100591099D02*
X151955500Y-100845099D01*
X151574500Y-100591099D02*
X151955500Y-100591099D01*
X151574500Y-100845099D02*
X151574500Y-100591099D01*
X151955500Y-100845099D02*
X151574500Y-100845099D01*
X157461740Y-98806000D02*
X158407100Y-98806000D01*
X148608260Y-92964000D02*
X147662900Y-92964000D01*
X158407100Y-92964000D02*
X157461740Y-92964000D01*
X158407100Y-98806000D02*
X158407100Y-92964000D01*
X147662900Y-98806000D02*
X148608260Y-98806000D01*
X147662900Y-92964000D02*
X147662900Y-98806000D01*
D12*
X123070000Y-86935000D02*
X123070000Y-104835000D01*
X158870000Y-86935000D02*
X123070000Y-86935000D01*
X158870000Y-104835000D02*
X158870000Y-86935000D01*
X123070000Y-104835000D02*
X158870000Y-104835000D01*
X123130000Y-89425000D02*
X123130000Y-94885000D01*
X158810000Y-89425000D02*
X123130000Y-89425000D01*
X158810000Y-102345000D02*
X158810000Y-89425000D01*
X123130000Y-102345000D02*
X158810000Y-102345000D01*
X123130000Y-96885000D02*
X123130000Y-102345000D01*
X123130000Y-94885000D02*
G75*
G02X123130000Y-96885000I0J-1000000D01*
G01*
X134622000Y-92364779D02*
X134622000Y-92039221D01*
X133602000Y-92364779D02*
X133602000Y-92039221D01*
X137797000Y-92364779D02*
X137797000Y-92039221D01*
X136777000Y-92364779D02*
X136777000Y-92039221D01*
X141607000Y-92364779D02*
X141607000Y-92039221D01*
X140587000Y-92364779D02*
X140587000Y-92039221D01*
X135473221Y-98550000D02*
X135798779Y-98550000D01*
X135473221Y-99570000D02*
X135798779Y-99570000D01*
X139029221Y-99570000D02*
X139354779Y-99570000D01*
X139029221Y-98550000D02*
X139354779Y-98550000D01*
X143093221Y-99570000D02*
X143418779Y-99570000D01*
X143093221Y-98550000D02*
X143418779Y-98550000D01*
X151259000Y-82077779D02*
X151259000Y-81752221D01*
X150239000Y-82077779D02*
X150239000Y-81752221D01*
X153164000Y-82077779D02*
X153164000Y-81752221D01*
X152144000Y-82077779D02*
X152144000Y-81752221D01*
X134909779Y-94232000D02*
X134584221Y-94232000D01*
X134909779Y-95252000D02*
X134584221Y-95252000D01*
X138084779Y-94232000D02*
X137759221Y-94232000D01*
X138084779Y-95252000D02*
X137759221Y-95252000D01*
X141894779Y-94232000D02*
X141569221Y-94232000D01*
X141894779Y-95252000D02*
X141569221Y-95252000D01*
X146175000Y-93817221D02*
X146175000Y-94142779D01*
X147195000Y-93817221D02*
X147195000Y-94142779D01*
X144270000Y-93817221D02*
X144270000Y-94142779D01*
X145290000Y-93817221D02*
X145290000Y-94142779D01*
X130012221Y-93855000D02*
X130337779Y-93855000D01*
X130012221Y-92835000D02*
X130337779Y-92835000D01*
X130012221Y-96395000D02*
X130337779Y-96395000D01*
X130012221Y-95375000D02*
X130337779Y-95375000D01*
X135798779Y-100582000D02*
X135473221Y-100582000D01*
X135798779Y-101602000D02*
X135473221Y-101602000D01*
X139354779Y-100582000D02*
X139029221Y-100582000D01*
X139354779Y-101602000D02*
X139029221Y-101602000D01*
X143093221Y-101602000D02*
X143418779Y-101602000D01*
X143093221Y-100582000D02*
X143418779Y-100582000D01*
X153545000Y-71917779D02*
X153545000Y-71592221D01*
X152525000Y-71917779D02*
X152525000Y-71592221D01*
X156085000Y-75727779D02*
X156085000Y-75402221D01*
X155065000Y-75727779D02*
X155065000Y-75402221D01*
X148752779Y-70610000D02*
X148427221Y-70610000D01*
X148752779Y-71630000D02*
X148427221Y-71630000D01*
X151255000Y-75240000D02*
X149795000Y-75240000D01*
X151255000Y-72080000D02*
X149095000Y-72080000D01*
X151255000Y-72080000D02*
X151255000Y-73010000D01*
X151255000Y-75240000D02*
X151255000Y-74310000D01*
D10*
X152487380Y-96646904D02*
X153296904Y-96646904D01*
X153392142Y-96599285D01*
X153439761Y-96551666D01*
X153487380Y-96456428D01*
X153487380Y-96265952D01*
X153439761Y-96170714D01*
X153392142Y-96123095D01*
X153296904Y-96075476D01*
X152487380Y-96075476D01*
X153487380Y-95075476D02*
X153487380Y-95646904D01*
X153487380Y-95361190D02*
X152487380Y-95361190D01*
X152630238Y-95456428D01*
X152725476Y-95551666D01*
X152773095Y-95646904D01*
X158008380Y-92049600D02*
X158246476Y-92049600D01*
X158151238Y-92287695D02*
X158246476Y-92049600D01*
X158151238Y-91811504D01*
X158436952Y-92192457D02*
X158246476Y-92049600D01*
X158436952Y-91906742D01*
X158008380Y-92049600D02*
X158246476Y-92049600D01*
X158151238Y-92287695D02*
X158246476Y-92049600D01*
X158151238Y-91811504D01*
X158436952Y-92192457D02*
X158246476Y-92049600D01*
X158436952Y-91906742D01*
X121915714Y-96646904D02*
X122582380Y-96646904D01*
X121915714Y-97075476D02*
X122439523Y-97075476D01*
X122534761Y-97027857D01*
X122582380Y-96932619D01*
X122582380Y-96789761D01*
X122534761Y-96694523D01*
X122487142Y-96646904D01*
X122487142Y-95599285D02*
X122534761Y-95646904D01*
X122582380Y-95789761D01*
X122582380Y-95885000D01*
X122534761Y-96027857D01*
X122439523Y-96123095D01*
X122344285Y-96170714D01*
X122153809Y-96218333D01*
X122010952Y-96218333D01*
X121820476Y-96170714D01*
X121725238Y-96123095D01*
X121630000Y-96027857D01*
X121582380Y-95885000D01*
X121582380Y-95789761D01*
X121630000Y-95646904D01*
X121677619Y-95599285D01*
X122582380Y-94646904D02*
X122582380Y-95218333D01*
X122582380Y-94932619D02*
X121582380Y-94932619D01*
X121725238Y-95027857D01*
X121820476Y-95123095D01*
X121868095Y-95218333D01*
X133134380Y-92368666D02*
X132658190Y-92702000D01*
X133134380Y-92940095D02*
X132134380Y-92940095D01*
X132134380Y-92559142D01*
X132182000Y-92463904D01*
X132229619Y-92416285D01*
X132324857Y-92368666D01*
X132467714Y-92368666D01*
X132562952Y-92416285D01*
X132610571Y-92463904D01*
X132658190Y-92559142D01*
X132658190Y-92940095D01*
X132134380Y-91511523D02*
X132134380Y-91702000D01*
X132182000Y-91797238D01*
X132229619Y-91844857D01*
X132372476Y-91940095D01*
X132562952Y-91987714D01*
X132943904Y-91987714D01*
X133039142Y-91940095D01*
X133086761Y-91892476D01*
X133134380Y-91797238D01*
X133134380Y-91606761D01*
X133086761Y-91511523D01*
X133039142Y-91463904D01*
X132943904Y-91416285D01*
X132705809Y-91416285D01*
X132610571Y-91463904D01*
X132562952Y-91511523D01*
X132515333Y-91606761D01*
X132515333Y-91797238D01*
X132562952Y-91892476D01*
X132610571Y-91940095D01*
X132705809Y-91987714D01*
X136309380Y-92368666D02*
X135833190Y-92702000D01*
X136309380Y-92940095D02*
X135309380Y-92940095D01*
X135309380Y-92559142D01*
X135357000Y-92463904D01*
X135404619Y-92416285D01*
X135499857Y-92368666D01*
X135642714Y-92368666D01*
X135737952Y-92416285D01*
X135785571Y-92463904D01*
X135833190Y-92559142D01*
X135833190Y-92940095D01*
X135309380Y-91463904D02*
X135309380Y-91940095D01*
X135785571Y-91987714D01*
X135737952Y-91940095D01*
X135690333Y-91844857D01*
X135690333Y-91606761D01*
X135737952Y-91511523D01*
X135785571Y-91463904D01*
X135880809Y-91416285D01*
X136118904Y-91416285D01*
X136214142Y-91463904D01*
X136261761Y-91511523D01*
X136309380Y-91606761D01*
X136309380Y-91844857D01*
X136261761Y-91940095D01*
X136214142Y-91987714D01*
X140119380Y-92368666D02*
X139643190Y-92702000D01*
X140119380Y-92940095D02*
X139119380Y-92940095D01*
X139119380Y-92559142D01*
X139167000Y-92463904D01*
X139214619Y-92416285D01*
X139309857Y-92368666D01*
X139452714Y-92368666D01*
X139547952Y-92416285D01*
X139595571Y-92463904D01*
X139643190Y-92559142D01*
X139643190Y-92940095D01*
X139452714Y-91511523D02*
X140119380Y-91511523D01*
X139071761Y-91749619D02*
X139786047Y-91987714D01*
X139786047Y-91368666D01*
X135469333Y-98082380D02*
X135136000Y-97606190D01*
X134897904Y-98082380D02*
X134897904Y-97082380D01*
X135278857Y-97082380D01*
X135374095Y-97130000D01*
X135421714Y-97177619D01*
X135469333Y-97272857D01*
X135469333Y-97415714D01*
X135421714Y-97510952D01*
X135374095Y-97558571D01*
X135278857Y-97606190D01*
X134897904Y-97606190D01*
X135802666Y-97082380D02*
X136421714Y-97082380D01*
X136088380Y-97463333D01*
X136231238Y-97463333D01*
X136326476Y-97510952D01*
X136374095Y-97558571D01*
X136421714Y-97653809D01*
X136421714Y-97891904D01*
X136374095Y-97987142D01*
X136326476Y-98034761D01*
X136231238Y-98082380D01*
X135945523Y-98082380D01*
X135850285Y-98034761D01*
X135802666Y-97987142D01*
X139025333Y-98082380D02*
X138692000Y-97606190D01*
X138453904Y-98082380D02*
X138453904Y-97082380D01*
X138834857Y-97082380D01*
X138930095Y-97130000D01*
X138977714Y-97177619D01*
X139025333Y-97272857D01*
X139025333Y-97415714D01*
X138977714Y-97510952D01*
X138930095Y-97558571D01*
X138834857Y-97606190D01*
X138453904Y-97606190D01*
X139406285Y-97177619D02*
X139453904Y-97130000D01*
X139549142Y-97082380D01*
X139787238Y-97082380D01*
X139882476Y-97130000D01*
X139930095Y-97177619D01*
X139977714Y-97272857D01*
X139977714Y-97368095D01*
X139930095Y-97510952D01*
X139358666Y-98082380D01*
X139977714Y-98082380D01*
X143089333Y-98082380D02*
X142756000Y-97606190D01*
X142517904Y-98082380D02*
X142517904Y-97082380D01*
X142898857Y-97082380D01*
X142994095Y-97130000D01*
X143041714Y-97177619D01*
X143089333Y-97272857D01*
X143089333Y-97415714D01*
X143041714Y-97510952D01*
X142994095Y-97558571D01*
X142898857Y-97606190D01*
X142517904Y-97606190D01*
X144041714Y-98082380D02*
X143470285Y-98082380D01*
X143756000Y-98082380D02*
X143756000Y-97082380D01*
X143660761Y-97225238D01*
X143565523Y-97320476D01*
X143470285Y-97368095D01*
X149709142Y-82557857D02*
X149756761Y-82605476D01*
X149804380Y-82748333D01*
X149804380Y-82843571D01*
X149756761Y-82986428D01*
X149661523Y-83081666D01*
X149566285Y-83129285D01*
X149375809Y-83176904D01*
X149232952Y-83176904D01*
X149042476Y-83129285D01*
X148947238Y-83081666D01*
X148852000Y-82986428D01*
X148804380Y-82843571D01*
X148804380Y-82748333D01*
X148852000Y-82605476D01*
X148899619Y-82557857D01*
X149804380Y-81605476D02*
X149804380Y-82176904D01*
X149804380Y-81891190D02*
X148804380Y-81891190D01*
X148947238Y-81986428D01*
X149042476Y-82081666D01*
X149090095Y-82176904D01*
X148899619Y-81224523D02*
X148852000Y-81176904D01*
X148804380Y-81081666D01*
X148804380Y-80843571D01*
X148852000Y-80748333D01*
X148899619Y-80700714D01*
X148994857Y-80653095D01*
X149090095Y-80653095D01*
X149232952Y-80700714D01*
X149804380Y-81272142D01*
X149804380Y-80653095D01*
X154789142Y-82430857D02*
X154836761Y-82478476D01*
X154884380Y-82621333D01*
X154884380Y-82716571D01*
X154836761Y-82859428D01*
X154741523Y-82954666D01*
X154646285Y-83002285D01*
X154455809Y-83049904D01*
X154312952Y-83049904D01*
X154122476Y-83002285D01*
X154027238Y-82954666D01*
X153932000Y-82859428D01*
X153884380Y-82716571D01*
X153884380Y-82621333D01*
X153932000Y-82478476D01*
X153979619Y-82430857D01*
X154884380Y-81478476D02*
X154884380Y-82049904D01*
X154884380Y-81764190D02*
X153884380Y-81764190D01*
X154027238Y-81859428D01*
X154122476Y-81954666D01*
X154170095Y-82049904D01*
X154884380Y-80526095D02*
X154884380Y-81097523D01*
X154884380Y-80811809D02*
X153884380Y-80811809D01*
X154027238Y-80907047D01*
X154122476Y-81002285D01*
X154170095Y-81097523D01*
X134104142Y-96529142D02*
X134056523Y-96576761D01*
X133913666Y-96624380D01*
X133818428Y-96624380D01*
X133675571Y-96576761D01*
X133580333Y-96481523D01*
X133532714Y-96386285D01*
X133485095Y-96195809D01*
X133485095Y-96052952D01*
X133532714Y-95862476D01*
X133580333Y-95767238D01*
X133675571Y-95672000D01*
X133818428Y-95624380D01*
X133913666Y-95624380D01*
X134056523Y-95672000D01*
X134104142Y-95719619D01*
X135056523Y-96624380D02*
X134485095Y-96624380D01*
X134770809Y-96624380D02*
X134770809Y-95624380D01*
X134675571Y-95767238D01*
X134580333Y-95862476D01*
X134485095Y-95910095D01*
X135675571Y-95624380D02*
X135770809Y-95624380D01*
X135866047Y-95672000D01*
X135913666Y-95719619D01*
X135961285Y-95814857D01*
X136008904Y-96005333D01*
X136008904Y-96243428D01*
X135961285Y-96433904D01*
X135913666Y-96529142D01*
X135866047Y-96576761D01*
X135770809Y-96624380D01*
X135675571Y-96624380D01*
X135580333Y-96576761D01*
X135532714Y-96529142D01*
X135485095Y-96433904D01*
X135437476Y-96243428D01*
X135437476Y-96005333D01*
X135485095Y-95814857D01*
X135532714Y-95719619D01*
X135580333Y-95672000D01*
X135675571Y-95624380D01*
X137755333Y-96529142D02*
X137707714Y-96576761D01*
X137564857Y-96624380D01*
X137469619Y-96624380D01*
X137326761Y-96576761D01*
X137231523Y-96481523D01*
X137183904Y-96386285D01*
X137136285Y-96195809D01*
X137136285Y-96052952D01*
X137183904Y-95862476D01*
X137231523Y-95767238D01*
X137326761Y-95672000D01*
X137469619Y-95624380D01*
X137564857Y-95624380D01*
X137707714Y-95672000D01*
X137755333Y-95719619D01*
X138231523Y-96624380D02*
X138422000Y-96624380D01*
X138517238Y-96576761D01*
X138564857Y-96529142D01*
X138660095Y-96386285D01*
X138707714Y-96195809D01*
X138707714Y-95814857D01*
X138660095Y-95719619D01*
X138612476Y-95672000D01*
X138517238Y-95624380D01*
X138326761Y-95624380D01*
X138231523Y-95672000D01*
X138183904Y-95719619D01*
X138136285Y-95814857D01*
X138136285Y-96052952D01*
X138183904Y-96148190D01*
X138231523Y-96195809D01*
X138326761Y-96243428D01*
X138517238Y-96243428D01*
X138612476Y-96195809D01*
X138660095Y-96148190D01*
X138707714Y-96052952D01*
X141565333Y-96529142D02*
X141517714Y-96576761D01*
X141374857Y-96624380D01*
X141279619Y-96624380D01*
X141136761Y-96576761D01*
X141041523Y-96481523D01*
X140993904Y-96386285D01*
X140946285Y-96195809D01*
X140946285Y-96052952D01*
X140993904Y-95862476D01*
X141041523Y-95767238D01*
X141136761Y-95672000D01*
X141279619Y-95624380D01*
X141374857Y-95624380D01*
X141517714Y-95672000D01*
X141565333Y-95719619D01*
X142136761Y-96052952D02*
X142041523Y-96005333D01*
X141993904Y-95957714D01*
X141946285Y-95862476D01*
X141946285Y-95814857D01*
X141993904Y-95719619D01*
X142041523Y-95672000D01*
X142136761Y-95624380D01*
X142327238Y-95624380D01*
X142422476Y-95672000D01*
X142470095Y-95719619D01*
X142517714Y-95814857D01*
X142517714Y-95862476D01*
X142470095Y-95957714D01*
X142422476Y-96005333D01*
X142327238Y-96052952D01*
X142136761Y-96052952D01*
X142041523Y-96100571D01*
X141993904Y-96148190D01*
X141946285Y-96243428D01*
X141946285Y-96433904D01*
X141993904Y-96529142D01*
X142041523Y-96576761D01*
X142136761Y-96624380D01*
X142327238Y-96624380D01*
X142422476Y-96576761D01*
X142470095Y-96529142D01*
X142517714Y-96433904D01*
X142517714Y-96243428D01*
X142470095Y-96148190D01*
X142422476Y-96100571D01*
X142327238Y-96052952D01*
X147169142Y-96686666D02*
X147216761Y-96734285D01*
X147264380Y-96877142D01*
X147264380Y-96972380D01*
X147216761Y-97115238D01*
X147121523Y-97210476D01*
X147026285Y-97258095D01*
X146835809Y-97305714D01*
X146692952Y-97305714D01*
X146502476Y-97258095D01*
X146407238Y-97210476D01*
X146312000Y-97115238D01*
X146264380Y-96972380D01*
X146264380Y-96877142D01*
X146312000Y-96734285D01*
X146359619Y-96686666D01*
X146264380Y-96353333D02*
X146264380Y-95686666D01*
X147264380Y-96115238D01*
X145137142Y-91606666D02*
X145184761Y-91654285D01*
X145232380Y-91797142D01*
X145232380Y-91892380D01*
X145184761Y-92035238D01*
X145089523Y-92130476D01*
X144994285Y-92178095D01*
X144803809Y-92225714D01*
X144660952Y-92225714D01*
X144470476Y-92178095D01*
X144375238Y-92130476D01*
X144280000Y-92035238D01*
X144232380Y-91892380D01*
X144232380Y-91797142D01*
X144280000Y-91654285D01*
X144327619Y-91606666D01*
X144232380Y-90749523D02*
X144232380Y-90940000D01*
X144280000Y-91035238D01*
X144327619Y-91082857D01*
X144470476Y-91178095D01*
X144660952Y-91225714D01*
X145041904Y-91225714D01*
X145137142Y-91178095D01*
X145184761Y-91130476D01*
X145232380Y-91035238D01*
X145232380Y-90844761D01*
X145184761Y-90749523D01*
X145137142Y-90701904D01*
X145041904Y-90654285D01*
X144803809Y-90654285D01*
X144708571Y-90701904D01*
X144660952Y-90749523D01*
X144613333Y-90844761D01*
X144613333Y-91035238D01*
X144660952Y-91130476D01*
X144708571Y-91178095D01*
X144803809Y-91225714D01*
X127087333Y-93575142D02*
X127039714Y-93622761D01*
X126896857Y-93670380D01*
X126801619Y-93670380D01*
X126658761Y-93622761D01*
X126563523Y-93527523D01*
X126515904Y-93432285D01*
X126468285Y-93241809D01*
X126468285Y-93098952D01*
X126515904Y-92908476D01*
X126563523Y-92813238D01*
X126658761Y-92718000D01*
X126801619Y-92670380D01*
X126896857Y-92670380D01*
X127039714Y-92718000D01*
X127087333Y-92765619D01*
X127992095Y-92670380D02*
X127515904Y-92670380D01*
X127468285Y-93146571D01*
X127515904Y-93098952D01*
X127611142Y-93051333D01*
X127849238Y-93051333D01*
X127944476Y-93098952D01*
X127992095Y-93146571D01*
X128039714Y-93241809D01*
X128039714Y-93479904D01*
X127992095Y-93575142D01*
X127944476Y-93622761D01*
X127849238Y-93670380D01*
X127611142Y-93670380D01*
X127515904Y-93622761D01*
X127468285Y-93575142D01*
X127087333Y-96369142D02*
X127039714Y-96416761D01*
X126896857Y-96464380D01*
X126801619Y-96464380D01*
X126658761Y-96416761D01*
X126563523Y-96321523D01*
X126515904Y-96226285D01*
X126468285Y-96035809D01*
X126468285Y-95892952D01*
X126515904Y-95702476D01*
X126563523Y-95607238D01*
X126658761Y-95512000D01*
X126801619Y-95464380D01*
X126896857Y-95464380D01*
X127039714Y-95512000D01*
X127087333Y-95559619D01*
X127944476Y-95797714D02*
X127944476Y-96464380D01*
X127706380Y-95416761D02*
X127468285Y-96131047D01*
X128087333Y-96131047D01*
X132167333Y-101449142D02*
X132119714Y-101496761D01*
X131976857Y-101544380D01*
X131881619Y-101544380D01*
X131738761Y-101496761D01*
X131643523Y-101401523D01*
X131595904Y-101306285D01*
X131548285Y-101115809D01*
X131548285Y-100972952D01*
X131595904Y-100782476D01*
X131643523Y-100687238D01*
X131738761Y-100592000D01*
X131881619Y-100544380D01*
X131976857Y-100544380D01*
X132119714Y-100592000D01*
X132167333Y-100639619D01*
X132500666Y-100544380D02*
X133119714Y-100544380D01*
X132786380Y-100925333D01*
X132929238Y-100925333D01*
X133024476Y-100972952D01*
X133072095Y-101020571D01*
X133119714Y-101115809D01*
X133119714Y-101353904D01*
X133072095Y-101449142D01*
X133024476Y-101496761D01*
X132929238Y-101544380D01*
X132643523Y-101544380D01*
X132548285Y-101496761D01*
X132500666Y-101449142D01*
X138263333Y-102465142D02*
X138215714Y-102512761D01*
X138072857Y-102560380D01*
X137977619Y-102560380D01*
X137834761Y-102512761D01*
X137739523Y-102417523D01*
X137691904Y-102322285D01*
X137644285Y-102131809D01*
X137644285Y-101988952D01*
X137691904Y-101798476D01*
X137739523Y-101703238D01*
X137834761Y-101608000D01*
X137977619Y-101560380D01*
X138072857Y-101560380D01*
X138215714Y-101608000D01*
X138263333Y-101655619D01*
X138644285Y-101655619D02*
X138691904Y-101608000D01*
X138787142Y-101560380D01*
X139025238Y-101560380D01*
X139120476Y-101608000D01*
X139168095Y-101655619D01*
X139215714Y-101750857D01*
X139215714Y-101846095D01*
X139168095Y-101988952D01*
X138596666Y-102560380D01*
X139215714Y-102560380D01*
X145629333Y-101449142D02*
X145581714Y-101496761D01*
X145438857Y-101544380D01*
X145343619Y-101544380D01*
X145200761Y-101496761D01*
X145105523Y-101401523D01*
X145057904Y-101306285D01*
X145010285Y-101115809D01*
X145010285Y-100972952D01*
X145057904Y-100782476D01*
X145105523Y-100687238D01*
X145200761Y-100592000D01*
X145343619Y-100544380D01*
X145438857Y-100544380D01*
X145581714Y-100592000D01*
X145629333Y-100639619D01*
X146581714Y-101544380D02*
X146010285Y-101544380D01*
X146296000Y-101544380D02*
X146296000Y-100544380D01*
X146200761Y-100687238D01*
X146105523Y-100782476D01*
X146010285Y-100830095D01*
X155138380Y-71794666D02*
X154662190Y-72128000D01*
X155138380Y-72366095D02*
X154138380Y-72366095D01*
X154138380Y-71985142D01*
X154186000Y-71889904D01*
X154233619Y-71842285D01*
X154328857Y-71794666D01*
X154471714Y-71794666D01*
X154566952Y-71842285D01*
X154614571Y-71889904D01*
X154662190Y-71985142D01*
X154662190Y-72366095D01*
X155138380Y-71318476D02*
X155138380Y-71128000D01*
X155090761Y-71032761D01*
X155043142Y-70985142D01*
X154900285Y-70889904D01*
X154709809Y-70842285D01*
X154328857Y-70842285D01*
X154233619Y-70889904D01*
X154186000Y-70937523D01*
X154138380Y-71032761D01*
X154138380Y-71223238D01*
X154186000Y-71318476D01*
X154233619Y-71366095D01*
X154328857Y-71413714D01*
X154566952Y-71413714D01*
X154662190Y-71366095D01*
X154709809Y-71318476D01*
X154757428Y-71223238D01*
X154757428Y-71032761D01*
X154709809Y-70937523D01*
X154662190Y-70889904D01*
X154566952Y-70842285D01*
X154597380Y-75731666D02*
X154121190Y-76065000D01*
X154597380Y-76303095D02*
X153597380Y-76303095D01*
X153597380Y-75922142D01*
X153645000Y-75826904D01*
X153692619Y-75779285D01*
X153787857Y-75731666D01*
X153930714Y-75731666D01*
X154025952Y-75779285D01*
X154073571Y-75826904D01*
X154121190Y-75922142D01*
X154121190Y-76303095D01*
X154025952Y-75160238D02*
X153978333Y-75255476D01*
X153930714Y-75303095D01*
X153835476Y-75350714D01*
X153787857Y-75350714D01*
X153692619Y-75303095D01*
X153645000Y-75255476D01*
X153597380Y-75160238D01*
X153597380Y-74969761D01*
X153645000Y-74874523D01*
X153692619Y-74826904D01*
X153787857Y-74779285D01*
X153835476Y-74779285D01*
X153930714Y-74826904D01*
X153978333Y-74874523D01*
X154025952Y-74969761D01*
X154025952Y-75160238D01*
X154073571Y-75255476D01*
X154121190Y-75303095D01*
X154216428Y-75350714D01*
X154406904Y-75350714D01*
X154502142Y-75303095D01*
X154549761Y-75255476D01*
X154597380Y-75160238D01*
X154597380Y-74969761D01*
X154549761Y-74874523D01*
X154502142Y-74826904D01*
X154406904Y-74779285D01*
X154216428Y-74779285D01*
X154121190Y-74826904D01*
X154073571Y-74874523D01*
X154025952Y-74969761D01*
X145883333Y-71572380D02*
X145550000Y-71096190D01*
X145311904Y-71572380D02*
X145311904Y-70572380D01*
X145692857Y-70572380D01*
X145788095Y-70620000D01*
X145835714Y-70667619D01*
X145883333Y-70762857D01*
X145883333Y-70905714D01*
X145835714Y-71000952D01*
X145788095Y-71048571D01*
X145692857Y-71096190D01*
X145311904Y-71096190D01*
X146216666Y-70572380D02*
X146883333Y-70572380D01*
X146454761Y-71572380D01*
X148375619Y-73755238D02*
X148328000Y-73850476D01*
X148232761Y-73945714D01*
X148089904Y-74088571D01*
X148042285Y-74183809D01*
X148042285Y-74279047D01*
X148280380Y-74231428D02*
X148232761Y-74326666D01*
X148137523Y-74421904D01*
X147947047Y-74469523D01*
X147613714Y-74469523D01*
X147423238Y-74421904D01*
X147328000Y-74326666D01*
X147280380Y-74231428D01*
X147280380Y-74040952D01*
X147328000Y-73945714D01*
X147423238Y-73850476D01*
X147613714Y-73802857D01*
X147947047Y-73802857D01*
X148137523Y-73850476D01*
X148232761Y-73945714D01*
X148280380Y-74040952D01*
X148280380Y-74231428D01*
X148280380Y-72850476D02*
X148280380Y-73421904D01*
X148280380Y-73136190D02*
X147280380Y-73136190D01*
X147423238Y-73231428D01*
X147518476Y-73326666D01*
X147566095Y-73421904D01*
M02*
